<?xml version="1.0" encoding="utf-8"?>
<!-- Generator: Adobe Illustrator 26.0.3, SVG Export Plug-In . SVG Version: 6.00 Build 0)  -->
<svg version="1.1" id="Ebene_1" xmlns="http://www.w3.org/2000/svg" xmlns:xlink="http://www.w3.org/1999/xlink" x="0px" y="0px"
	 viewBox="0 0 71.9 67.3" style="enable-background:new 0 0 71.9 67.3;" xml:space="preserve">
<style type="text/css">
	.st0{fill:#FFFFFF;}
	.st1{fill:#61AB30;}
	.st2{fill:#FCC409;}
	.st3{fill:#AC6742;}
</style>
<g id="formgroup_logo">
	<path class="st0" d="M7.8,59.5v4.7H5.6v-1C5,64,4.1,64.5,3.1,64.3c-1.9,0-3.1-1.1-3.1-2.5s1-2.5,3.5-2.5h1.9c0-1-0.6-1.6-1.9-1.6
		c-0.9,0-1.7,0.3-2.4,0.8l-0.9-1.7c1.1-0.7,2.3-1,3.6-1C6.4,55.8,7.8,57,7.8,59.5z M5.4,61.6v-0.8H3.8c-1.1,0-1.5,0.4-1.5,1
		s0.5,1,1.4,1C4.5,62.8,5.2,62.3,5.4,61.6z"/>
	<path class="st0" d="M18.6,55.9v6.9c0,3.1-1.7,4.5-4.6,4.5c-1.4,0.1-2.9-0.3-4.1-1.1l1-1.7c0.8,0.6,1.9,0.9,2.9,0.9
		c1.7,0,2.4-0.8,2.4-2.3v-0.3c-0.7,0.7-1.6,1.1-2.6,1c-2.2,0-4-1.8-4-4s1.8-4,4-4c1,0,2,0.4,2.7,1.2v-1.1L18.6,55.9L18.6,55.9z
		 M16.3,59.8c0-1.1-0.9-2-2-2c-0.1,0-0.1,0-0.2,0c-1.1,0-2,0.9-2,2s0.9,2,2,2c1.1,0.1,2.1-0.7,2.2-1.8
		C16.3,59.9,16.3,59.9,16.3,59.8z"/>
	<path class="st0" d="M26,55.8V58h-0.5c-1.1-0.1-2.1,0.7-2.2,1.8c0,0.2,0,0.4,0,0.5v3.9h-2.4v-8.3h2.3V57
		C23.8,56.2,24.9,55.7,26,55.8z"/>
	<path class="st0" d="M26.7,60.1c0-2.4,1.9-4.3,4.3-4.3c0.1,0,0.2,0,0.3,0c2.3-0.1,4.3,1.7,4.5,4c0.1,2.3-1.7,4.3-4,4.5
		c-0.1,0-0.3,0-0.4,0c-2.3,0.2-4.4-1.6-4.5-4C26.7,60.3,26.7,60.2,26.7,60.1z M33.4,60.1c-0.1-1.2-1.1-2-2.3-1.9s-2,1.1-1.9,2.3
		c0.1,1.1,1,2,2.1,1.9c1.2,0,2.1-0.9,2.1-2.1C33.4,60.2,33.4,60.1,33.4,60.1z"/>
	<path class="st0" d="M39.1,55.2v1h2.5V57h-2.5v7.2H38V57h-1.5v-0.9H38v-1c-0.1-1.2,0.8-2.3,2-2.4c0.1,0,0.3,0,0.4,0
		c0.6,0,1.1,0.2,1.6,0.5L41.7,54c-0.3-0.3-0.8-0.4-1.2-0.4C39.5,53.6,39.1,54.2,39.1,55.2z"/>
	<path class="st0" d="M42.1,60.2c0-2.3,1.8-4.1,4.1-4.1s4.1,1.8,4.1,4.1s-1.8,4.1-4.1,4.1l0,0c-2.2,0.1-4-1.7-4.1-3.9
		C42.1,60.3,42.1,60.2,42.1,60.2z M49.2,60.2c-0.1-1.7-1.5-2.9-3.1-2.9c-1.7,0.1-2.9,1.5-2.9,3.1c0.1,1.6,1.4,2.9,3,2.9
		C47.9,63.3,49.2,62,49.2,60.2L49.2,60.2z"/>
	<path class="st0" d="M56.6,56v1.1h-0.3c-1.7,0-2.7,1.1-2.7,3v4.1h-1.1v-8.1h1v1.6C54.1,56.6,55.3,55.9,56.6,56z"/>
	<path class="st0" d="M71.9,59.5v4.7h-1.1v-4.6c0-1.7-0.9-2.6-2.3-2.6c-1.4-0.1-2.6,1-2.7,2.4c0,0.2,0,0.3,0,0.5v4.2h-1.1v-4.6
		c0-1.7-0.9-2.6-2.3-2.6c-1.4-0.1-2.7,1-2.7,2.5c0,0.2,0,0.3,0,0.5v4.2h-1.1V56h1v1.5c0.6-1,1.8-1.6,3-1.5c1.2-0.1,2.4,0.6,2.9,1.7
		c0.7-1.1,1.9-1.8,3.2-1.7C70.6,56,71.9,57.2,71.9,59.5z"/>
</g>
<g>
	<polygon class="st1" points="25.8,22.2 25.8,50.5 55.5,33.4 55.5,28.2 30.7,42.5 30.3,42.3 30.3,24.8 	"/>
	<polygon class="st2" points="25.6,10.7 21.1,13.3 45.9,27.6 45.9,28 30.8,36.7 30.8,41.9 55.2,27.8 	"/>
	<polygon class="st3" points="25.4,50.5 25.4,21.8 25.7,21.6 40.9,30.4 45.4,27.8 20.9,13.7 20.9,47.9 	"/>
</g>
</svg>
