<svg xmlns="http://www.w3.org/2000/svg" viewBox="0 0 35.52 35.81"><g id="Ebene_2" data-name="Ebene 2"><g id="Ebene_1-2" data-name="Ebene 1"><path d="M26.33,31.88a5.27,5.27,0,0,0,.58,2.73,2,2,0,0,0,3.71-.83l-.53-9.48.53-.79S33.37,25,33.8,21.12l-1.91-11L30.06,8.36a5.34,5.34,0,0,0,2.2-3.87c0-2.33-3.07-4.24-4.45-4.24s-4.66,1.11-4.66,3.5a4.8,4.8,0,0,0,1.25,3.5l0-.22-.27,2.6L21.66,20.06s-.26,3.5,2.28,2.65L22.36,32.82s.47,3.51,4.17.93" style="fill:#fff;opacity:0.5"/><path d="M30.31,21.72c.16,1,.31,1.79.31,1.79l-.53.79-1.27-.06-1.72-.89-1-.65-.83-.3-1.32.31-.52.23-.89-.42a10.1,10.1,0,0,0,1-.39c1.66-.94,1.45-1.9,1.45-1.9l2,1.28.95.18.05.79,2.39-.76" style="fill:#fff;opacity:0.65"/><path d="M26.44,28.11c-.12,1.26.08,5.21,2.09,7.09a5.82,5.82,0,0,0,.76.18A13.45,13.45,0,0,1,27.24,35c-1.76-.85-1.09-4.72-1.09-4.72a8.14,8.14,0,0,1,.29-2.16" style="fill:#fff;opacity:0.65"/><path d="M23.71,6.26l2.2.72a4.35,4.35,0,0,0,3.2-.29,15.22,15.22,0,0,0,2.94-3.25l.11.34L31.9,5.46,31,7.53l-1.18.8a6.47,6.47,0,0,1-3.13.13A6.13,6.13,0,0,1,24.4,7.25Z" style="fill:#fff;opacity:0.65"/><line x1="33.75" y1="20.85" x2="32.56" y2="13.99" style="fill:none;stroke:#fff;stroke-miterlimit:10;stroke-width:0.5px"/><path d="M32.56,14l-.67-3.89L30.06,8.36a5.34,5.34,0,0,0,2.2-3.87c0-2.33-3.07-4.24-4.45-4.24s-4.66,1.11-4.66,3.5a4.8,4.8,0,0,0,1.25,3.5l0-.22-.27,2.6L21.66,20.06s-.26,3.5,2.28,2.65L22.36,32.82s.47,3.51,4.17.93" style="fill:none;stroke:#fff;stroke-miterlimit:10;stroke-width:0.5px"/><path d="M26.33,31.88a5.27,5.27,0,0,0,.58,2.73,2,2,0,0,0,3.71-.83l-.53-9.48.53-.79S33.37,25,33.8,21.12v-.59" style="fill:none;stroke:#fff;stroke-miterlimit:10;stroke-width:0.5px"/><polyline points="29.96 14.77 27.02 15.73 27.73 22.55 30.62 21.62" style="fill:none;stroke:#fff;stroke-miterlimit:10;stroke-width:0.5px"/><polyline points="32.65 13.86 34.69 13.25 35.26 20.14 33.8 20.53" style="fill:none;stroke:#fff;stroke-miterlimit:10;stroke-width:0.5px"/><polyline points="29.96 14.77 27.02 15.73 27.73 22.55 30.62 21.62" style="fill:#fff;opacity:0.5"/><polyline points="32.65 13.86 34.69 13.25 35.26 20.14 33.8 20.53" style="fill:#fff;opacity:0.5"/><path d="M9.2,31.88a5.32,5.32,0,0,1-.59,2.73,2,2,0,0,1-3.7-.83l.53-9.48-.53-.79S2.15,25,1.73,21.12l1.9-11L5.47,8.36A5.34,5.34,0,0,1,3.26,4.49C3.26,2.16,6.34.25,7.71.25s4.67,1.11,4.67,3.5a4.8,4.8,0,0,1-1.25,3.5l0-.22.27,2.6,2.49,10.43s.26,3.5-2.28,2.65l1.59,10.11s-.48,3.51-4.18.93" style="fill:#fff;opacity:0.5"/><path d="M5.22,21.72c-.17,1-.31,1.79-.31,1.79l.53.79,1.27-.06,1.72-.89,1-.65.83-.3,1.31.31.52.23.9-.42s-.74-.26-1-.39c-1.66-.94-1.44-1.9-1.44-1.9l-2,1.28-.95.18-.06.79-2.38-.76" style="fill:#fff;opacity:0.65"/><path d="M9.08,28.11C9.2,29.37,9,33.32,7,35.2a5.36,5.36,0,0,1-.75.18,13.36,13.36,0,0,0,2-.39c1.76-.85,1.09-4.72,1.09-4.72a8.14,8.14,0,0,0-.29-2.16" style="fill:#fff;opacity:0.65"/><path d="M11.82,6.26,9.61,7a4.35,4.35,0,0,1-3.2-.29A15.52,15.52,0,0,1,3.47,3.44l-.11.34.26,1.68.94,2.07,1.19.8a6.43,6.43,0,0,0,3.12.13,6.36,6.36,0,0,0,2.26-1.21Z" style="fill:#fff;opacity:0.65"/><line x1="1.78" y1="20.85" x2="2.96" y2="13.99" style="fill:none;stroke:#fff;stroke-miterlimit:10;stroke-width:0.5px"/><path d="M3,14l.67-3.89L5.47,8.36A5.34,5.34,0,0,1,3.26,4.49C3.26,2.16,6.34.25,7.71.25s4.67,1.11,4.67,3.5a4.8,4.8,0,0,1-1.25,3.5l0-.22.27,2.6,2.49,10.43s.26,3.5-2.28,2.65l1.59,10.11s-.48,3.51-4.18.93" style="fill:none;stroke:#fff;stroke-miterlimit:10;stroke-width:0.5px"/><path d="M9.2,31.88a5.32,5.32,0,0,1-.59,2.73,2,2,0,0,1-3.7-.83l.53-9.48-.53-.79S2.15,25,1.73,21.12v-.59" style="fill:none;stroke:#fff;stroke-miterlimit:10;stroke-width:0.5px"/><polyline points="5.56 14.77 8.5 15.73 7.8 22.55 4.91 21.62" style="fill:none;stroke:#fff;stroke-miterlimit:10;stroke-width:0.5px"/><polyline points="2.88 13.86 0.83 13.25 0.27 20.14 1.72 20.53" style="fill:none;stroke:#fff;stroke-miterlimit:10;stroke-width:0.5px"/><polyline points="5.56 14.77 8.5 15.73 7.8 22.55 4.91 21.62" style="fill:#fff;opacity:0.5"/><polyline points="2.88 13.86 0.83 13.25 0.27 20.14 1.72 20.53" style="fill:#fff;opacity:0.5"/></g></g></svg>