<svg xmlns="http://www.w3.org/2000/svg" viewBox="0 0 140.15 23.46"><g id="Ebene_2" data-name="Ebene 2"><g id="LOGO"><g id="formgroup_logo"><path d="M40.1,11.24v7.37H36.59V17c-.69,1.18-2,1.8-3.93,1.8-3,0-4.83-1.68-4.83-3.91S29.44,11,33.38,11h3c0-1.6-1-2.54-3-2.54a6.22,6.22,0,0,0-3.72,1.2L28.31,7.06A10,10,0,0,1,33.88,5.5C37.82,5.5,40.1,7.33,40.1,11.24Zm-3.75,3.29V13.21H33.79c-1.76,0-2.31.65-2.31,1.51s.79,1.56,2.11,1.56A2.75,2.75,0,0,0,36.35,14.53Z" style="fill:#1d1d1b"/><path d="M56.94,5.7V16.45c0,4.8-2.59,7-7.24,7a10.61,10.61,0,0,1-6.34-1.78L44.85,19a7.69,7.69,0,0,0,4.56,1.47c2.64,0,3.79-1.2,3.79-3.53v-.55A5.31,5.31,0,0,1,49.12,18a6.16,6.16,0,0,1-6.46-6.25A6.15,6.15,0,0,1,49.12,5.5a5.17,5.17,0,0,1,4.27,1.85V5.7Zm-3.69,6a3.14,3.14,0,0,0-3.39-3.16,3.17,3.17,0,1,0,0,6.33A3.14,3.14,0,0,0,53.25,11.74Z" style="fill:#1d1d1b"/><path d="M68.44,5.5V9c-.31,0-.55-.05-.84-.05-2.06,0-3.43,1.13-3.43,3.6v6.1H60.42V5.7H64V7.4A5.21,5.21,0,0,1,68.44,5.5Z" style="fill:#1d1d1b"/><path d="M69.59,12.15c0-3.89,3-6.65,7.11-6.65s7.08,2.76,7.08,6.65-3,6.65-7.08,6.65S69.59,16,69.59,12.15Zm10.4,0a3.31,3.31,0,1,0-6.61,0,3.32,3.32,0,1,0,6.61,0Z" style="fill:#1d1d1b"/><path d="M88.86,4.5V6h3.89V7.42H88.91V18.61h-1.7V7.42H85V6h2.26V4.42A3.47,3.47,0,0,1,91,.68a4,4,0,0,1,2.52.79L93,2.74a2.92,2.92,0,0,0-1.87-.62C89.63,2.12,88.86,2.94,88.86,4.5Z" style="fill:#1d1d1b"/><path d="M93.57,12.3a6.42,6.42,0,0,1,12.84,0,6.42,6.42,0,1,1-12.84,0Zm11.11,0a4.7,4.7,0,1,0-9.38,0,4.7,4.7,0,1,0,9.38,0Z" style="fill:#1d1d1b"/><path d="M116.25,5.89V7.54l-.41,0c-2.64,0-4.25,1.68-4.25,4.66v6.43h-1.7V6h1.63V8.46C112.31,6.78,113.92,5.89,116.25,5.89Z" style="fill:#1d1d1b"/><path d="M140.15,11.29v7.32h-1.7V11.46c0-2.67-1.34-4-3.62-4-2.6,0-4.23,1.68-4.23,4.56v6.63h-1.7V11.46c0-2.67-1.35-4-3.65-4C122.68,7.42,121,9.1,121,12v6.63h-1.7V6H121V8.29a5.11,5.11,0,0,1,4.63-2.4,4.54,4.54,0,0,1,4.49,2.66,5.5,5.5,0,0,1,5-2.66C138.14,5.89,140.15,7.66,140.15,11.29Z" style="fill:#1d1d1b"/></g><polygon points="19.76 9.85 19.76 13.05 2.9 22.79 2.9 6.51 5.67 8.11 5.67 17.98 19.76 9.85" style="fill:#62ad30"/><path d="M3,22.89l-.19-.1V6.51L3,6.4,5.73,8l.06.11v9.66l13.91-8,.19.11v3.2l-.06.11ZM3,6.73V22.57L19.64,13V10.06l-13.91,8L5.54,18V8.18Z" style="fill:#1d1d1b"/><polygon points="0.13 1.71 2.9 0.11 19.76 9.85 5.67 17.98 5.67 14.78 14.22 9.85 0.13 1.71" style="fill:#fdc50d"/><path d="M5.73,18.09,5.54,18v-3.2l.07-.1L14,9.85.06,1.82V1.6L2.83,0H3L19.83,9.74V10Zm.06-3.23v2.91L19.51,9.85,2.9.25.38,1.71l13.9,8V10Z" style="fill:#1d1d1b"/><polygon points="2.9 22.79 0.13 21.18 0.13 1.71 14.22 9.85 11.45 11.45 2.9 6.51 2.9 22.79" style="fill:#ae6742"/><path d="M2.83,22.89.06,21.29,0,21.19V1.71L.19,1.6,14.28,9.74V10l-2.77,1.6h-.12L3,6.73V22.79ZM.25,21.11l2.52,1.46V6.51L3,6.4l8.49,4.9L14,9.85.25,1.93Z" style="fill:#1d1d1b"/></g></g></svg>