<svg xmlns="http://www.w3.org/2000/svg" viewBox="0 0 62.19 78.44"><g id="Ebene_2" data-name="Ebene 2"><g id="Ebene_1-2" data-name="Ebene 1"><g id="Kanista"><path d="M16.42,36.59V69.27h7.17l21.12-4.53,12-2.76,4.83-5.89V25.47a11.45,11.45,0,0,1-9.31,6.24C45.24,32.46,16.42,36.59,16.42,36.59Z" style="fill:#fff;isolation:isolate;opacity:0.5"/><path d="M.57,17V45l11,20s2.84,3.88,4.86,4.23v-32s-4.26-1.62-5.75-3.2S.57,17,.57,17Z" style="fill:#fff;isolation:isolate;opacity:0.8"/><polygon points="14.56 9.96 14.56 14.07 10.22 14.07 7.15 12.44 7.15 8.16 8.83 8.56 11.49 9.37 14.56 9.96" style="fill:#fff;isolation:isolate;opacity:0.300000011920929"/><polygon points="14.56 9.96 18.11 9.33 20.38 8.44 21.57 7.55 21.57 12.43 20.14 13.25 16.89 13.93 14.56 14.07 14.56 9.96" style="fill:#fff;isolation:isolate;opacity:0.5"/><polygon points="7.15 8.16 7.51 7.31 10.02 5.83 13.04 5.46 15.95 5.46 18.06 5.71 20.19 6.16 21.29 6.74 21.57 7.55 20.38 8.44 18.11 9.33 16.42 9.63 13.43 9.63 11.49 9.37 9.6 8.8 7.15 8.16" style="fill:#fff;isolation:isolate;opacity:0.5"/><path d="M.57,17,10.68,34s4,4.12,12.84,1.82,29.63-4.73,29.63-4.73,8-1,8.44-8.36S59.85,13,59.85,13l-1.32-1.95L49.94,3.14S48.8.15,39.38.5,11,2.61,11,2.61,2,3.6.57,17" style="fill:#fff;isolation:isolate;opacity:0.300000011920929"/><polyline points="0.57 45.56 0.67 50.86 1.86 56.66 8.49 71.17 10.32 73.41 15.42 76.67 20.17 77.94 23.4 77.79 38.99 74.75 51.87 71.83 55.7 69.96 58.61 66.75 60.39 63.08 61.57 56.09 60.06 58.57 57.77 61.32 55.43 62.53 43.98 64.89 30.15 67.84 19.81 69.67 15.37 69.27 12.8 66.96 5.32 53.94 0.57 45.56 0.57 45.56" style="fill:#fff;isolation:isolate;opacity:0.300000011920929"/><path d="M62,54.58V54.5c-.3-14.1,0-31.62,0-31.7A15.55,15.55,0,0,0,56.88,8.66l-6.57-5.8C50,2.09,48.37,0,39.31,0c-10,0-26.59,1.86-26.7,1.86S1.24,2.19,0,16.44V48.28A25.81,25.81,0,0,0,2.71,60.17C5.61,65.83,8.28,72,8.28,72.09l.07.12c.23.23,5.24,6.23,12.92,6.23a15.72,15.72,0,0,0,2.17-.15C32,77.06,52.76,72.12,53,72.06a11.5,11.5,0,0,0,4.64-3.33c2-2.28,4.41-6.52,4.36-13.77a3,3,0,0,0,.06-.37ZM1,18.35,9.44,33.09a9.32,9.32,0,0,0,8,4,12.35,12.35,0,0,0,2.11-.18c6.76-1.11,35.57-5.66,35.83-5.75A11.57,11.57,0,0,0,60.94,27c-.07,6.11-.15,17.66.06,27.55v.2c-.29,1.3-1.77,6.65-6.53,7.53-5.75,1-31.33,6.6-31.58,6.65-.07,0-7.11,1.4-9.71-2.23C10.43,62.81,1.1,45,1,44.81ZM12.67,2.86C12.84,2.84,29.37,1,39.31,1c9.26,0,10.08,2.24,10.08,2.24v.17L52,5.71a15.16,15.16,0,0,1-2.24.36c-1.83.18-2-.11-2.91-1.51A3.64,3.64,0,0,0,43.73,3l-1.5.12V3h-3L13.19,5V5C7.84,5,6.67,7.51,6.58,7.67v9l.12.15a5.87,5.87,0,0,0,4.13,1.71,7,7,0,0,0,3-.77,9.55,9.55,0,0,0,2.38-1.47c.55-.44.68-.55,5.35-1L44.47,12.8h.12l.41-.08c2-.39,3.89-.91,4.13-2.06.14-.75-.42-1.5-1.7-2.28l-.17-.11L45.8,8.6c-.09-1.17-.46-3.48-2.09-3.58S30.54,6.24,29.54,6.35c-.42,0-2.11,0-3.23,2.89-.93,2.25-1.72,4.13-2,4.81l-2.85.3c-4.84.47-5.11.6-5.9,1.28A8.27,8.27,0,0,1,13.4,17a5,5,0,0,1-5.84-.62v-3l.45.27c1.52.88,1.79,1,4.74,1h1.61c5.54,0,7.61-1.68,7.69-1.75l3.23-6s.53-1.6,1.58-1.6c1.43,0,16.31-1.18,16.93-1.23A2.66,2.66,0,0,1,46,5.16c1,1.54,1.52,2.15,3.86,1.91a15.13,15.13,0,0,0,3.06-.56l3.28,2.9A14.59,14.59,0,0,1,61,22.69s0,.34,0,.89h0c-.08,4.63-5.82,6.63-5.82,6.63-.29.05-29,4.6-35.79,5.72-6.36,1-8.9-3.14-9-3.32L1,16.37C2.25,3.2,12.2,2.87,12.67,2.86ZM21,7.35c0,.08-.07.23-.12.23-.73.81-3.5,1.53-6.05,1.59A14.89,14.89,0,0,1,7.8,7.66C8.33,7.07,9.78,6,13.23,6,20.83,6,21,7.27,21,7.35Zm-6.17,2.88c2.49-.06,5.71-.74,6.77-1.92a1.25,1.25,0,0,0,.38-1C22,6.7,21.55,6,19.46,5.49l5.71-.42a4.6,4.6,0,0,0-.82,1.39l-3,5.64c-.39.26-2.41,1.47-7.07,1.47-4.23,0-4.24,0-5.76-.88-.26-.16-.58-.35-1-.55V8.73A16,16,0,0,0,14.86,10.23ZM29.58,7.29C33.89,6.8,42.38,5.88,43.63,6c.88.06,1.17,2.19,1.17,3.19V9.8l2.26-.5c1.07.7,1.07,1.07,1.07,1.14-.05.26-.55.78-3.36,1.31l-.48.11-18.83,2c.38-.89,1-2.48,1.76-4.32.83-2.12,1.88-2.26,2.15-2.26h.21ZM52.7,71.1c-.21.05-20.87,5-29.44,6.2-7.92,1.13-13.54-5-14.09-5.67-.31-.71-2.82-6.55-5.58-11.92A25.35,25.35,0,0,1,1,48.3V47c2.45,4.65,9,17,11.32,20.21,1.72,2.41,4.95,2.93,7.42,2.93a17.14,17.14,0,0,0,3.36-.3c.26-.06,25.82-5.65,31.55-6.65a8.69,8.69,0,0,0,6.21-5C59.76,68.74,52.89,71.05,52.7,71.1Z" style="fill:#fff"/></g></g></g></svg>