<svg xmlns="http://www.w3.org/2000/svg" viewBox="0 0 112.73 93.7"><g id="Ebene_2" data-name="Ebene 2"><g id="Ebene_1-2" data-name="Ebene 1"><polygon points="50.47 3.89 50.47 53 108.39 80.29 109.89 80.29 112.23 80.29 112.23 30.42 53.63 0.59 50.47 2.93 50.47 3.89" style="fill:#f5f5f5;opacity:0.8"/><polygon points="50.47 3.89 50.47 53 108.39 80.29 109.89 80.29 112.23 80.29 112.23 30.42 53.63 0.59 50.47 2.93 50.47 3.89" style="fill:none;stroke:#fff;stroke-miterlimit:10;opacity:0.8"/><polygon points="54.08 9.19 73.74 18.57 73.74 31.06 54.08 21.82 54.08 9.19" style="fill:#ececec"/><line x1="53.04" y1="24.29" x2="75.3" y2="35.75" style="fill:#fff"/><polygon points="75.19 35.97 52.93 24.52 53.16 24.07 75.42 35.52 75.19 35.97" style="fill:#fff"/><line x1="53.04" y1="27.75" x2="75.3" y2="39.21" style="fill:#fff"/><polygon points="75.19 39.43 52.93 27.97 53.16 27.53 75.42 38.98 75.19 39.43" style="fill:#fff"/><line x1="53.04" y1="31.06" x2="75.3" y2="42.52" style="fill:#fff"/><polygon points="75.19 42.74 52.93 31.29 53.16 30.84 75.42 42.29 75.19 42.74" style="fill:#fff"/><line x1="52.78" y1="33.48" x2="75.04" y2="44.93" style="fill:#fff"/><polygon points="74.93 45.16 52.67 33.7 52.9 33.26 75.15 44.71 74.93 45.16" style="fill:#fff"/><line x1="52.78" y1="36.79" x2="75.04" y2="48.24" style="fill:#fff"/><polygon points="74.93 48.47 52.67 37.01 52.9 36.57 75.15 48.02 74.93 48.47" style="fill:#fff"/><line x1="52.78" y1="40.44" x2="75.04" y2="51.89" style="fill:#fff"/><polygon points="74.93 52.12 52.67 40.66 52.9 40.21 75.15 51.67 74.93 52.12" style="fill:#fff"/><line x1="52.78" y1="43.97" x2="75.04" y2="55.43" style="fill:#fff"/><polygon points="74.93 55.65 52.67 44.2 52.9 43.75 75.15 55.21 74.93 55.65" style="fill:#fff"/><line x1="52.78" y1="46.98" x2="75.04" y2="58.43" style="fill:#fff"/><polygon points="74.93 58.65 52.67 47.2 52.9 46.75 75.15 58.21 74.93 58.65" style="fill:#fff"/><line x1="52.78" y1="50.5" x2="75.04" y2="61.95" style="fill:#fff"/><polygon points="74.93 62.17 52.67 50.72 52.9 50.27 75.15 61.73 74.93 62.17" style="fill:#fff"/><line x1="82.45" y1="22.64" x2="104.7" y2="34.1" style="fill:#fff"/><polygon points="104.59 34.32 82.33 22.87 82.56 22.42 104.82 33.88 104.59 34.32" style="fill:#fff"/><line x1="82.45" y1="26.1" x2="104.7" y2="37.56" style="fill:#fff"/><polygon points="104.59 37.78 82.33 26.32 82.56 25.88 104.82 37.34 104.59 37.78" style="fill:#fff"/><line x1="82.45" y1="29.41" x2="104.7" y2="40.87" style="fill:#fff"/><polygon points="104.59 41.09 82.33 29.64 82.56 29.19 104.82 40.65 104.59 41.09" style="fill:#fff"/><line x1="82.18" y1="31.83" x2="104.44" y2="43.28" style="fill:#fff"/><polygon points="104.33 43.51 82.07 32.05 82.3 31.61 104.56 43.06 104.33 43.51" style="fill:#fff"/><line x1="82.18" y1="35.14" x2="104.44" y2="46.6" style="fill:#fff"/><polygon points="104.33 46.82 82.07 35.36 82.3 34.92 104.56 46.37 104.33 46.82" style="fill:#fff"/><line x1="82.18" y1="38.79" x2="104.44" y2="50.24" style="fill:#fff"/><polygon points="104.33 50.47 82.07 39.01 82.3 38.57 104.56 50.02 104.33 50.47" style="fill:#fff"/><line x1="82.18" y1="42.33" x2="104.44" y2="53.78" style="fill:#fff"/><polygon points="104.33 54 82.07 42.55 82.3 42.1 104.56 53.56 104.33 54" style="fill:#fff"/><line x1="82.18" y1="45.33" x2="104.44" y2="56.78" style="fill:#fff"/><polygon points="104.33 57.01 82.07 45.55 82.3 45.1 104.56 56.56 104.33 57.01" style="fill:#fff"/><line x1="82.18" y1="48.85" x2="104.44" y2="60.3" style="fill:#fff"/><polygon points="104.33 60.52 82.07 49.07 82.3 48.63 104.56 60.08 104.33 60.52" style="fill:#fff"/><line x1="82.32" y1="51.7" x2="104.57" y2="63.16" style="fill:#fff"/><polygon points="104.46 63.38 82.2 51.92 82.43 51.48 104.69 62.94 104.46 63.38" style="fill:#fff"/><line x1="82.32" y1="55.35" x2="104.57" y2="66.81" style="fill:#fff"/><polygon points="104.46 67.03 82.2 55.57 82.43 55.13 104.69 66.58 104.46 67.03" style="fill:#fff"/><line x1="82.32" y1="58.89" x2="104.57" y2="70.34" style="fill:#fff"/><polygon points="104.46 70.57 82.2 59.11 82.43 58.67 104.69 70.12 104.46 70.57" style="fill:#fff"/><line x1="82.32" y1="61.89" x2="104.57" y2="73.34" style="fill:#fff"/><polygon points="104.46 73.57 82.2 62.11 82.43 61.67 104.69 73.12 104.46 73.57" style="fill:#fff"/><line x1="82.32" y1="65.41" x2="104.57" y2="76.86" style="fill:#fff"/><polygon points="104.46 77.09 82.2 65.63 82.43 65.19 104.69 76.64 104.46 77.09" style="fill:#fff"/><polygon points="25.49 9.62 25.49 58.73 83.41 86.02 84.9 86.02 87.24 86.02 87.24 36.15 28.64 6.31 25.49 8.66 25.49 9.62" style="fill:#f5f5f5;opacity:0.8"/><polygon points="25.49 9.62 25.49 58.73 83.41 86.02 84.9 86.02 87.24 86.02 87.24 36.15 28.64 6.31 25.49 8.66 25.49 9.62" style="fill:none;stroke:#fff;stroke-miterlimit:10;opacity:0.8"/><polygon points="29.09 14.92 48.75 24.29 48.75 36.79 29.09 27.55 29.09 14.92" style="fill:#ececec"/><line x1="28.05" y1="30.02" x2="50.31" y2="41.48" style="fill:#fff"/><polygon points="50.2 41.7 27.94 30.24 28.17 29.8 50.43 41.25 50.2 41.7" style="fill:#fff"/><line x1="28.05" y1="33.48" x2="50.31" y2="44.93" style="fill:#fff"/><polygon points="50.2 45.16 27.94 33.7 28.17 33.26 50.43 44.71 50.2 45.16" style="fill:#fff"/><line x1="28.05" y1="36.79" x2="50.31" y2="48.24" style="fill:#fff"/><polygon points="50.2 48.47 27.94 37.01 28.17 36.57 50.43 48.02 50.2 48.47" style="fill:#fff"/><line x1="27.79" y1="39.21" x2="50.05" y2="50.66" style="fill:#fff"/><polygon points="49.94 50.88 27.68 39.43 27.91 38.98 50.17 50.44 49.94 50.88" style="fill:#fff"/><line x1="27.79" y1="42.52" x2="50.05" y2="53.97" style="fill:#fff"/><polygon points="49.94 54.2 27.68 42.74 27.91 42.29 50.17 53.75 49.94 54.2" style="fill:#fff"/><line x1="27.79" y1="46.16" x2="50.05" y2="57.62" style="fill:#fff"/><polygon points="49.94 57.84 27.68 46.39 27.91 45.94 50.17 57.4 49.94 57.84" style="fill:#fff"/><line x1="27.79" y1="49.7" x2="50.05" y2="61.16" style="fill:#fff"/><polygon points="49.94 61.38 27.68 49.92 27.91 49.48 50.17 60.94 49.94 61.38" style="fill:#fff"/><line x1="27.79" y1="52.7" x2="50.05" y2="64.16" style="fill:#fff"/><polygon points="49.94 64.38 27.68 52.93 27.91 52.48 50.17 63.94 49.94 64.38" style="fill:#fff"/><line x1="27.79" y1="56.22" x2="50.05" y2="67.68" style="fill:#fff"/><polygon points="49.94 67.9 27.68 56.45 27.91 56 50.17 67.46 49.94 67.9" style="fill:#fff"/><line x1="57.46" y1="28.37" x2="79.72" y2="39.83" style="fill:#fff"/><polygon points="79.6 40.05 57.34 28.59 57.57 28.15 79.83 39.6 79.6 40.05" style="fill:#fff"/><line x1="57.46" y1="31.83" x2="79.72" y2="43.28" style="fill:#fff"/><polygon points="79.6 43.51 57.34 32.05 57.57 31.61 79.83 43.06 79.6 43.51" style="fill:#fff"/><line x1="57.46" y1="35.14" x2="79.72" y2="46.6" style="fill:#fff"/><polygon points="79.6 46.82 57.34 35.36 57.57 34.92 79.83 46.37 79.6 46.82" style="fill:#fff"/><line x1="57.2" y1="37.56" x2="79.46" y2="49.01" style="fill:#fff"/><polygon points="79.34 49.23 57.08 37.78 57.31 37.34 79.57 48.79 79.34 49.23" style="fill:#fff"/><line x1="57.2" y1="40.87" x2="79.46" y2="52.32" style="fill:#fff"/><polygon points="79.34 52.55 57.08 41.09 57.31 40.65 79.57 52.1 79.34 52.55" style="fill:#fff"/><line x1="57.2" y1="44.52" x2="79.46" y2="55.97" style="fill:#fff"/><polygon points="79.34 56.19 57.08 44.74 57.31 44.29 79.57 55.75 79.34 56.19" style="fill:#fff"/><line x1="57.2" y1="48.05" x2="79.46" y2="59.51" style="fill:#fff"/><polygon points="79.34 59.73 57.08 48.28 57.31 47.83 79.57 59.29 79.34 59.73" style="fill:#fff"/><line x1="57.2" y1="51.05" x2="79.46" y2="62.51" style="fill:#fff"/><polygon points="79.34 62.73 57.08 51.28 57.31 50.83 79.57 62.29 79.34 62.73" style="fill:#fff"/><line x1="57.2" y1="54.57" x2="79.46" y2="66.03" style="fill:#fff"/><polygon points="79.34 66.25 57.08 54.8 57.31 54.35 79.57 65.81 79.34 66.25" style="fill:#fff"/><line x1="57.33" y1="57.43" x2="79.59" y2="68.89" style="fill:#fff"/><polygon points="79.47 69.11 57.21 57.65 57.44 57.21 79.7 68.66 79.47 69.11" style="fill:#fff"/><line x1="57.33" y1="61.08" x2="79.59" y2="72.53" style="fill:#fff"/><polygon points="79.47 72.76 57.21 61.3 57.44 60.85 79.7 72.31 79.47 72.76" style="fill:#fff"/><line x1="57.33" y1="64.62" x2="79.59" y2="76.07" style="fill:#fff"/><polygon points="79.47 76.29 57.21 64.84 57.44 64.39 79.7 75.85 79.47 76.29" style="fill:#fff"/><line x1="57.33" y1="67.62" x2="79.59" y2="79.07" style="fill:#fff"/><polygon points="79.47 79.3 57.21 67.84 57.44 67.39 79.7 78.85 79.47 79.3" style="fill:#fff"/><line x1="57.33" y1="71.14" x2="79.59" y2="82.59" style="fill:#fff"/><polygon points="79.47 82.81 57.21 71.36 57.44 70.91 79.7 82.37 79.47 82.81" style="fill:#fff"/><polygon points="0.5 16.8 0.5 65.91 58.42 93.2 59.91 93.2 62.26 93.2 62.26 43.33 3.65 13.5 0.5 15.84 0.5 16.8" style="fill:#f5f5f5;opacity:0.8"/><polygon points="0.5 16.8 0.5 65.91 58.42 93.2 59.91 93.2 62.26 93.2 62.26 43.33 3.65 13.5 0.5 15.84 0.5 16.8" style="fill:none;stroke:#fff;stroke-miterlimit:10;opacity:0.8"/><polygon points="4.11 22.1 23.76 31.47 23.76 43.97 4.11 34.73 4.11 22.1" style="fill:#ececec"/><line x1="3.07" y1="37.2" x2="25.33" y2="48.66" style="fill:#fff"/><polygon points="25.21 48.88 2.95 37.42 3.18 36.98 25.44 48.43 25.21 48.88" style="fill:#fff"/><line x1="3.07" y1="40.66" x2="25.33" y2="52.12" style="fill:#fff"/><polygon points="25.21 52.34 2.95 40.88 3.18 40.44 25.44 51.89 25.21 52.34" style="fill:#fff"/><line x1="3.07" y1="43.97" x2="25.33" y2="55.43" style="fill:#fff"/><polygon points="25.21 55.65 2.95 44.19 3.18 43.75 25.44 55.2 25.21 55.65" style="fill:#fff"/><line x1="2.81" y1="46.39" x2="25.07" y2="57.84" style="fill:#fff"/><polygon points="24.95 58.06 2.69 46.61 2.92 46.16 25.18 57.62 24.95 58.06" style="fill:#fff"/><line x1="2.81" y1="49.7" x2="25.07" y2="61.15" style="fill:#fff"/><polygon points="24.95 61.38 2.69 49.92 2.92 49.48 25.18 60.93 24.95 61.38" style="fill:#fff"/><line x1="2.81" y1="53.35" x2="25.07" y2="64.8" style="fill:#fff"/><polygon points="24.95 65.02 2.69 53.57 2.92 53.12 25.18 64.58 24.95 65.02" style="fill:#fff"/><line x1="2.81" y1="56.88" x2="25.07" y2="68.34" style="fill:#fff"/><polygon points="24.95 68.56 2.69 57.11 2.92 56.66 25.18 68.12 24.95 68.56" style="fill:#fff"/><line x1="2.81" y1="59.89" x2="25.07" y2="71.34" style="fill:#fff"/><polygon points="24.95 71.56 2.69 60.11 2.92 59.66 25.18 71.12 24.95 71.56" style="fill:#fff"/><line x1="2.81" y1="63.4" x2="25.07" y2="74.86" style="fill:#fff"/><polygon points="24.95 75.08 2.69 63.63 2.92 63.18 25.18 74.64 24.95 75.08" style="fill:#fff"/><line x1="32.47" y1="35.55" x2="54.73" y2="47.01" style="fill:#fff"/><polygon points="54.62 47.23 32.36 35.78 32.59 35.33 54.84 46.79 54.62 47.23" style="fill:#fff"/><line x1="32.47" y1="39.01" x2="54.73" y2="50.47" style="fill:#fff"/><polygon points="54.62 50.69 32.36 39.23 32.59 38.79 54.84 50.24 54.62 50.69" style="fill:#fff"/><line x1="32.47" y1="42.32" x2="54.73" y2="53.78" style="fill:#fff"/><polygon points="54.62 54 32.36 42.55 32.59 42.1 54.84 53.55 54.62 54" style="fill:#fff"/><line x1="32.21" y1="44.74" x2="54.47" y2="56.19" style="fill:#fff"/><polygon points="54.36 56.42 32.1 44.96 32.33 44.52 54.58 55.97 54.36 56.42" style="fill:#fff"/><line x1="32.21" y1="48.05" x2="54.47" y2="59.5" style="fill:#fff"/><polygon points="54.36 59.73 32.1 48.27 32.33 47.83 54.58 59.28 54.36 59.73" style="fill:#fff"/><line x1="32.21" y1="51.7" x2="54.47" y2="63.15" style="fill:#fff"/><polygon points="54.36 63.38 32.1 51.92 32.33 51.48 54.58 62.93 54.36 63.38" style="fill:#fff"/><line x1="32.21" y1="55.24" x2="54.47" y2="66.69" style="fill:#fff"/><polygon points="54.36 66.91 32.1 55.46 32.33 55.01 54.58 66.47 54.36 66.91" style="fill:#fff"/><line x1="32.21" y1="58.24" x2="54.47" y2="69.69" style="fill:#fff"/><polygon points="54.36 69.92 32.1 58.46 32.33 58.01 54.58 69.47 54.36 69.92" style="fill:#fff"/><line x1="32.21" y1="61.76" x2="54.47" y2="73.21" style="fill:#fff"/><polygon points="54.36 73.43 32.1 61.98 32.33 61.53 54.58 72.99 54.36 73.43" style="fill:#fff"/><line x1="32.34" y1="64.61" x2="54.6" y2="76.07" style="fill:#fff"/><polygon points="54.49 76.29 32.23 64.83 32.45 64.39 54.72 75.84 54.49 76.29" style="fill:#fff"/><line x1="32.34" y1="68.26" x2="54.6" y2="79.72" style="fill:#fff"/><polygon points="54.49 79.94 32.23 68.48 32.45 68.04 54.72 79.49 54.49 79.94" style="fill:#fff"/><line x1="32.34" y1="71.8" x2="54.6" y2="83.25" style="fill:#fff"/><polygon points="54.49 83.47 32.23 72.02 32.45 71.58 54.72 83.03 54.49 83.47" style="fill:#fff"/><line x1="32.34" y1="74.8" x2="54.6" y2="86.25" style="fill:#fff"/><polygon points="54.49 86.48 32.23 75.02 32.45 74.58 54.72 86.03 54.49 86.48" style="fill:#fff"/><line x1="32.34" y1="78.32" x2="54.6" y2="89.77" style="fill:#fff"/><polygon points="54.49 90 32.23 78.54 32.45 78.09 54.72 89.55 54.49 90" style="fill:#fff"/></g></g></svg>