<svg xmlns="http://www.w3.org/2000/svg" viewBox="0 0 62.2 78.44"><g id="Ebene_2" data-name="Ebene 2"><g id="Ebene_1-2" data-name="Ebene 1"><g id="Kanista"><path d="M16.42,36.59V69.27h7.17l21.12-4.53,12-2.76,4.83-5.89,0-30.62a11.46,11.46,0,0,1-9.31,6.24C45.24,32.46,16.42,36.59,16.42,36.59Z" style="fill:#fff;opacity:0.5"/><path d="M.57,17V45l11,20s2.84,3.88,4.86,4.23V37.2S12.17,35.58,10.68,34,.57,17,.57,17Z" style="fill:#fff;opacity:0.3"/><polygon points="14.56 9.96 14.56 14.07 10.22 14.07 7.15 12.44 7.15 8.16 8.83 8.56 11.49 9.37 14.56 9.96" style="fill:#fff;opacity:0.3"/><polygon points="14.56 9.96 18.11 9.33 20.38 8.44 21.57 7.55 21.57 12.43 20.14 13.25 16.89 13.93 14.56 14.07 14.56 9.96" style="fill:#fff;opacity:0.5"/><polygon points="7.15 8.16 7.51 7.31 10.02 5.83 13.04 5.46 15.95 5.46 18.06 5.71 20.19 6.16 21.29 6.74 21.57 7.55 20.38 8.44 18.11 9.33 16.42 9.63 13.43 9.63 11.49 9.37 9.6 8.8 7.15 8.16" style="fill:#fff;opacity:0.5"/><path d="M.57,17,10.68,34s4,4.12,12.84,1.82,29.63-4.73,29.63-4.73,8-1,8.44-8.36S59.85,13,59.85,13l-1.32-1.95L49.94,3.14S48.8.15,39.38.5,11,2.61,11,2.61,2,3.6.57,17" style="fill:#fff;opacity:0.8"/><polyline points="0.57 45.56 0.67 50.86 1.86 56.66 8.49 71.17 10.32 73.41 15.42 76.67 20.17 77.94 23.4 77.79 38.99 74.75 51.87 71.83 55.7 69.96 58.61 66.75 60.39 63.08 61.57 56.09 60.06 58.57 57.77 61.32 55.43 62.53 43.98 64.89 30.15 67.84 19.81 69.67 15.37 69.27 12.8 66.96 5.32 53.94 0.57 45.56 0.57 45.56" style="fill:#fff;opacity:0.8"/><polygon points="13.26 5.96 13.19 4.96 39.22 3.02 42.23 3.02 42.23 4.01 39.26 4.01 13.26 5.96" style="fill:#fff"/><path d="M12.75,14.58c-2.95,0-3.22-.12-4.74-1-.31-.19-.69-.41-1.18-.68L7.32,12c.49.27.88.5,1.2.69,1.52.91,1.53.91,5.76.88,4.66,0,6.68-1.21,7.07-1.47l3-5.64s.71-2.21,2.49-2.21C28.26,4.25,43.57,3,43.73,3a3.65,3.65,0,0,1,3.12,1.56c.9,1.4,1.08,1.69,2.91,1.51a14.7,14.7,0,0,0,3.15-.58l.34.94a15.56,15.56,0,0,1-3.39.64C47.52,7.31,47,6.7,46,5.16A2.67,2.67,0,0,0,43.79,4c-.62.05-15.5,1.23-16.93,1.23-1.05,0-1.57,1.58-1.58,1.6l-3.23,6c-.08.07-2.15,1.72-7.69,1.75Z" style="fill:#fff"/><path d="M10.83,18.53A5.86,5.86,0,0,1,6.7,16.82l-.12-.15,0-9C6.67,7.51,7.84,5,13.21,5h0c7.71,0,8.71,1.32,8.8,2.31a1.28,1.28,0,0,1-.38,1c-1.06,1.18-4.28,1.86-6.77,1.92a15.94,15.94,0,0,1-7.3-1.5v7.61a5,5,0,0,0,5.84.62,8.53,8.53,0,0,0,2.16-1.33c.79-.68,1.06-.81,5.9-1.28l2.85-.3c.28-.68,1.07-2.56,2-4.81,1.12-2.87,2.81-2.93,3.23-2.89,1-.11,12.54-1.43,14.17-1.33s2,2.41,2.09,3.58l1.46-.33.17.11c1.28.78,1.84,1.53,1.7,2.28C48.89,11.81,47,12.33,45,12.72l-.41.08-.12,0L21.58,15.29c-4.67.45-4.8.56-5.35,1a9.54,9.54,0,0,1-2.38,1.47A7,7,0,0,1,10.83,18.53ZM29.37,7.28c-.27,0-1.32.14-2.15,2.26-.72,1.84-1.38,3.43-1.76,4.32l18.83-2,.48-.11c2.81-.53,3.31-1.05,3.36-1.31,0-.07,0-.44-1.07-1.14l-2.26.5V9.15c0-1-.29-3.13-1.17-3.19-1.25-.08-9.74.84-14.05,1.33h-.21ZM7.8,7.66a14.87,14.87,0,0,0,7.06,1.51c2.55-.06,5.32-.78,6.05-1.59.05,0,.13-.15.12-.23S20.83,6,13.23,6h0C9.78,6,8.33,7.07,7.8,7.66Z" style="fill:#fff"/><path d="M19.74,70.18c-2.47,0-5.7-.52-7.42-2.93C9.52,63.33.45,46,.07,45.27L1,44.81c.1.18,9.43,18,12.18,21.86,2.6,3.63,9.64,2.25,9.71,2.23.25-.05,25.83-5.63,31.58-6.65,5.39-1,6.58-7.75,6.59-7.82l1,.16c0,.31-1.32,7.56-7.41,8.64-5.73,1-31.29,6.59-31.55,6.65A17.65,17.65,0,0,1,19.74,70.18Z" style="fill:#fff"/><path d="M17.44,37.09a9.32,9.32,0,0,1-8-4L.08,16.74l.86-.5,9.41,16.37c.1.18,2.64,4.37,9,3.32,6.76-1.12,35.5-5.67,35.79-5.72h0s5.74-2,5.82-6.63l1,0c-.1,5.33-6.32,7.49-6.58,7.58S26.31,35.8,19.55,36.91A12.27,12.27,0,0,1,17.44,37.09Z" style="fill:#fff"/><path d="M21.27,78.44c-7.68,0-12.69-6-12.92-6.23l-.07-.12c0-.06-2.67-6.26-5.57-11.92A25.69,25.69,0,0,1,0,48.28V16.44C1.24,2.19,12.5,1.86,12.61,1.86S29.31,0,39.31,0c9.06,0,10.7,2.09,11,2.86l6.57,5.8A15.57,15.57,0,0,1,62,22.8c0,.08-.3,17.6,0,31.7.16,7.54-2.28,11.9-4.36,14.23A11.52,11.52,0,0,1,53,72.06c-.24.06-21,5-29.56,6.23A15.69,15.69,0,0,1,21.27,78.44ZM9.17,71.63c.55.63,6.17,6.8,14.09,5.67,8.57-1.23,29.23-6.15,29.44-6.2S61.3,68.22,61,54.52c-.31-14.12,0-31.66,0-31.83a14.62,14.62,0,0,0-4.8-13.28l-6.81-6,0-.17h0S48.57,1,39.31,1C29.37,1,12.84,2.84,12.67,2.86,12.2,2.87,2.17,3.2,1,16.51V48.3A25.26,25.26,0,0,0,3.59,59.71C6.35,65.08,8.86,70.92,9.17,71.63Z" style="fill:#fff"/></g></g></g></svg>