<svg xmlns="http://www.w3.org/2000/svg" viewBox="0 0 283.46 283.46">

<defs>
      <linearGradient id="Gradient">
        <stop class="stop1" offset="0%"/>
        <stop class="stop2" offset="80%"/>
        <stop class="stop3" offset="100%"/>
      </linearGradient>
        <style type="text/css"><![CDATA[
        #rect1 { fill: url(#Gradient); }
        .stop1 { stop-color: #a7d4b5; }
        .stop2 { stop-color: #1a4e7e; }
        .stop3 { stop-color: #24336a; }
      ]]></style>
</defs>
    <g id="Ebene_2" data-name="Ebene 2">
    <g id="Ebene_1-2" data-name="Ebene 1">
    <path id="rect1" d="M228.05,58.31V225.16l-3.29,1.89L104,157.34v-3.79l23.75-13.71H130l70,40.39V44.6l3.28-1.89L227,56.41Zm-4.39,163.05V59.57L204.3,48.4V184l-3.29,1.9-72.15-41.67-19.37,11.18Z" />
    <path id="rect1" d="M204.3,44.6V184l-3.29,1.9-23.74-13.72-1.1-1.9V89.53L58.7,157.34l-3.28-1.9V128l1.1-1.89L201,42.71Zm-4.39,135.63V48.4L59.8,129.28v22.36L177.27,83.83l3.28,1.9v83.32Z" />
    <path id="rect1" d="M227,223.27v3.78l-23.76,13.71H201L56.52,157.34v-3.79L177.27,83.83l3.28,1.9v27.42l-1.1,1.89-70,40.4ZM202.1,236.34l19.37-11.18L104,157.34v-3.79l72.16-41.66V89.53L62,155.44Z"/>
    <path id="rect1" d="M228.05,58.31V225.16l-3.29,1.89L104,157.34v-3.79l23.75-13.71H130l70,40.39V44.6l3.28-1.89L227,56.41Zm-4.39,163.05V59.57L204.3,48.4V184l-3.29,1.9-72.15-41.67-19.37,11.18Z"/>
    </g>
    </g>

    
</svg>