<?xml version="1.0" encoding="UTF-8"?><svg id="Ebene_2" xmlns="http://www.w3.org/2000/svg" viewBox="0 0 1104.11 677.04"><g id="Ebene_3"><g id="FlenderLinkMap_V01"><rect x="406.53" y="374.04" width="172.4" height="1" style="fill:#fff;"/><rect x="578.43" y="281.9" width="1" height="93.41" style="fill:#fff;"/><rect x="395.07" y="378" width="1" height="68.11" style="fill:#fff;"/><rect x="327.08" y="372.4" width="68.11" height="1" style="fill:#fff;"/><circle cx="395.62" cy="445.19" r="22" style="fill:#fff;"/><g><g><path d="M379.2,477.9l-.58,.58c-.37-.36-.81-.47-1.33-.47-.71,0-1.09,.39-1.09,.94,0,.22,.06,.42,.22,.56,.15,.13,.33,.22,.66,.27l.72,.11c.55,.08,.86,.21,1.12,.45,.32,.3,.49,.71,.49,1.24,0,1.11-.9,1.77-2.17,1.77-.91,0-1.55-.21-2.13-.8l.6-.6c.44,.44,.94,.58,1.55,.58,.8,0,1.25-.34,1.25-.93,0-.27-.07-.48-.24-.63-.15-.14-.36-.21-.66-.25l-.71-.1c-.49-.08-.87-.23-1.13-.48-.3-.27-.45-.66-.45-1.16,0-1.05,.76-1.76,2.01-1.76,.8,0,1.36,.2,1.87,.69Z" style="fill:#fff;"/><path d="M383.7,480.43v2.87h-.85v-.39c-.31,.31-.61,.44-1.14,.44s-.89-.13-1.15-.39c-.22-.23-.34-.56-.34-.92,0-.72,.5-1.24,1.49-1.24h1.13v-.3c0-.55-.26-.8-.94-.8-.46,0-.69,.12-.94,.42l-.56-.53c.4-.47,.81-.63,1.53-.63,1.19,0,1.77,.51,1.77,1.47Zm-1.85,.97c-.53,0-.79,.22-.79,.62s.25,.61,.81,.61c.3,0,.55-.03,.78-.25,.14-.13,.19-.33,.19-.63v-.35h-.99Z" style="fill:#fff;"/><path d="M385.87,481.92c0,.46,.12,.61,.47,.61h.38v.77h-.47c-.83,0-1.24-.46-1.24-1.33v-4.7h.86v4.65Z" style="fill:#fff;"/><path d="M388.22,481.4c0,.75,.38,1.2,1.09,1.2,.48,0,.74-.14,1.04-.44l.55,.52c-.44,.44-.86,.67-1.61,.67-1.08,0-1.93-.57-1.93-2.2,0-1.4,.72-2.19,1.82-2.19s1.82,.83,1.82,2.08v.36h-2.79Zm1.81-1.19c-.14-.32-.44-.54-.85-.54s-.71,.22-.86,.54c-.08,.19-.1,.32-.11,.58h1.93c-.02-.26-.03-.4-.12-.58Z" style="fill:#fff;"/><path d="M395.17,479.44l-.54,.55c-.27-.23-.65-.31-1.06-.31-.52,0-.78,.22-.78,.55,0,.3,.17,.45,.59,.49l.6,.05c.89,.08,1.36,.47,1.36,1.22,0,.9-.76,1.36-1.79,1.36-.7,0-1.3-.12-1.8-.62l.57-.57c.35,.36,.81,.45,1.24,.45,.53,0,.94-.19,.94-.59,0-.3-.16-.47-.58-.51l-.69-.06c-.81-.08-1.27-.43-1.27-1.19,0-.85,.72-1.31,1.62-1.31,.65,0,1.19,.14,1.59,.48Z" style="fill:#fff;"/><path d="M398.24,478h-.38c-.32,0-.47,.19-.47,.5v.5h.86v.66h-.86v3.63h-.86v-3.63h-.49v-.66h.49v-.54c0-.62,.37-1.19,1.18-1.19h.54v.74Z" style="fill:#fff;"/><path d="M401.91,479.46c.41,.42,.51,.96,.51,1.68s-.1,1.27-.51,1.69c-.28,.29-.7,.51-1.29,.51s-1-.22-1.28-.51c-.41-.42-.51-.97-.51-1.69s.1-1.26,.51-1.68c.28-.29,.69-.51,1.28-.51s1.01,.22,1.29,.51Zm-1.91,.51c-.26,.26-.3,.71-.3,1.18s.03,.92,.3,1.18c.16,.16,.37,.25,.63,.25s.47-.09,.63-.25c.26-.26,.3-.71,.3-1.18s-.03-.91-.3-1.18c-.16-.16-.38-.25-.63-.25s-.47,.08-.63,.25Z" style="fill:#fff;"/><path d="M406.61,479.36l-.65,.65c-.19-.19-.35-.29-.64-.29-.47,0-.86,.37-.86,.97v2.61h-.86v-4.29h.85v.47c.22-.3,.66-.52,1.14-.52,.41,0,.73,.11,1.02,.41Z" style="fill:#fff;"/><path d="M410.18,479.55l-.59,.58c-.27-.3-.48-.41-.82-.41s-.61,.14-.8,.38c-.19,.24-.25,.54-.25,1.04s.07,.81,.25,1.05c.19,.25,.47,.38,.8,.38s.55-.11,.82-.41l.59,.57c-.41,.43-.82,.61-1.41,.61-.97,0-1.91-.59-1.91-2.2s.95-2.19,1.91-2.19c.59,0,1.01,.17,1.41,.6Z" style="fill:#fff;"/><path d="M411.69,481.4c0,.75,.38,1.2,1.09,1.2,.48,0,.74-.14,1.04-.44l.55,.52c-.44,.44-.86,.67-1.61,.67-1.08,0-1.93-.57-1.93-2.2,0-1.4,.72-2.19,1.82-2.19s1.82,.83,1.82,2.08v.36h-2.79Zm1.81-1.19c-.14-.32-.44-.54-.85-.54s-.71,.22-.86,.54c-.08,.19-.1,.32-.11,.58h1.93c-.02-.26-.03-.4-.12-.58Z" style="fill:#fff;"/></g><g><path d="M363.16,489.04c.59,0,1.03,.35,1.03,.93,0,.38-.21,.69-.56,.8,.39,.14,.61,.45,.61,.86,0,.64-.42,.97-1.05,.97h-1.35v-3.56h1.31Zm-1.04,.24v1.38h1.01c.43,0,.79-.2,.79-.69s-.36-.69-.79-.69h-1.01Zm0,1.62v1.46h1.05c.49,0,.81-.27,.81-.73s-.32-.73-.81-.73h-1.05Z" style="fill:#fff;"/><path d="M366.81,490.95v1.65h-.25v-.24c-.21,.21-.4,.27-.74,.27-.36,0-.56-.06-.71-.22-.12-.12-.17-.29-.17-.47,0-.44,.32-.7,.84-.7h.78v-.27c0-.38-.19-.59-.68-.59-.34,0-.51,.08-.67,.3l-.19-.16c.21-.29,.46-.37,.85-.37,.64,0,.94,.29,.94,.79Zm-1.01,.5c-.41,0-.62,.16-.62,.49s.19,.47,.63,.47c.22,0,.43-.02,.6-.19,.09-.08,.14-.24,.14-.46v-.31h-.75Z" style="fill:#fff;"/><path d="M369.34,490.42l-.17,.17c-.18-.14-.41-.21-.67-.21-.4,0-.62,.17-.62,.47,0,.25,.15,.37,.49,.41l.39,.04c.4,.04,.71,.16,.71,.63,0,.44-.37,.72-.97,.72-.42,0-.73-.11-.98-.35l.18-.17c.18,.2,.45,.29,.79,.29,.48,0,.73-.17,.73-.49,0-.26-.14-.38-.46-.41l-.4-.04c-.49-.04-.73-.25-.73-.63,0-.42,.34-.69,.87-.69,.33,0,.63,.09,.85,.25Z" style="fill:#fff;"/><path d="M370.51,489.36h-.32v-.32h.32v.32Zm-.03,3.25h-.25v-2.41h.25v2.41Z" style="fill:#fff;"/><path d="M373.03,490.42l-.17,.17c-.18-.14-.41-.21-.68-.21-.4,0-.62,.17-.62,.47,0,.25,.15,.37,.49,.41l.39,.04c.4,.04,.71,.16,.71,.63,0,.44-.37,.72-.97,.72-.42,0-.73-.11-.98-.35l.18-.17c.18,.2,.45,.29,.79,.29,.48,0,.73-.17,.73-.49,0-.26-.14-.38-.46-.41l-.4-.04c-.49-.04-.73-.25-.73-.63,0-.42,.34-.69,.87-.69,.34,0,.63,.09,.85,.25Z" style="fill:#fff;"/><path d="M376.69,490.43c.25,.25,.3,.62,.3,.97s-.04,.72-.3,.97c-.18,.17-.4,.27-.67,.27s-.5-.09-.67-.27c-.25-.25-.3-.63-.3-.97s.04-.72,.3-.97c.18-.18,.4-.27,.67-.27s.5,.09,.67,.27Zm-1.17,.17c-.2,.2-.21,.53-.21,.81s.01,.61,.21,.81c.14,.13,.31,.21,.5,.21s.37-.07,.5-.21c.2-.2,.22-.53,.22-.81s-.02-.61-.22-.81c-.13-.14-.3-.21-.5-.21s-.37,.07-.5,.21Z" style="fill:#fff;"/><path d="M378.7,489.27h-.17c-.26,0-.37,.14-.37,.4v.53h.55v.19h-.55v2.22h-.25v-2.22h-.33v-.19h.33v-.52c0-.37,.2-.63,.58-.63h.22v.23Z" style="fill:#fff;"/><path d="M380.93,490.19h.55v.19h-.55v1.6c0,.26,.12,.4,.37,.4h.18v.23h-.22c-.38,0-.58-.27-.58-.63v-1.59h-.33v-.19h.33v-.77h.25v.77Z" style="fill:#fff;"/><path d="M382.5,490.48c.18-.21,.42-.32,.71-.32s.53,.09,.69,.28c.14,.16,.21,.37,.21,.63v1.54h-.25v-1.5c0-.47-.23-.72-.67-.72s-.68,.25-.68,.72v1.5h-.25v-3.56h.25v1.44Z" style="fill:#fff;"/><path d="M386.83,491.34v.12h-1.68c0,.62,.27,.95,.79,.95,.29,0,.46-.08,.67-.29l.19,.15c-.25,.25-.47,.37-.87,.37-.67,0-1.03-.43-1.03-1.24s.36-1.24,.97-1.24,.97,.44,.97,1.18Zm-1.59-.54c-.06,.14-.07,.22-.08,.46h1.42c-.01-.23-.02-.31-.08-.46-.1-.26-.34-.41-.62-.41s-.51,.15-.63,.41Z" style="fill:#fff;"/><path d="M391.29,490.05h-.28c-.11-.5-.46-.8-.94-.8-.26,0-.49,.09-.68,.28-.26,.26-.28,.55-.28,1.3s.02,1.04,.28,1.3c.19,.18,.42,.28,.68,.28,.48,0,.83-.31,.94-.8h.28c-.12,.64-.57,1.04-1.21,1.04-.36,0-.66-.13-.87-.34-.33-.33-.36-.61-.36-1.47s.03-1.14,.36-1.47c.21-.21,.51-.34,.87-.34,.64,0,1.09,.4,1.21,1.04Z" style="fill:#fff;"/><path d="M393.57,489.04c.58,0,1.02,.33,1.02,.96,0,.54-.32,.88-.82,.96l.86,1.65h-.32l-.85-1.64h-.98v1.64h-.27v-3.56h1.36Zm-1.09,.24v1.44h1.05c.46,0,.79-.23,.79-.72s-.33-.72-.79-.72h-1.05Z" style="fill:#fff;"/><path d="M398.5,492.61h-.27v-2.94l-1.08,2.18h-.27l-1.1-2.18v2.94h-.27v-3.56h.27l1.24,2.49,1.21-2.49h.27v3.56Z" style="fill:#fff;"/><path d="M402.78,489.4l-.18,.17c-.21-.2-.45-.33-.87-.33-.52,0-.83,.28-.83,.74,0,.21,.05,.37,.18,.47,.12,.11,.31,.17,.51,.21l.42,.07c.33,.05,.47,.11,.64,.25,.19,.17,.31,.4,.31,.69,0,.6-.46,.99-1.2,.99-.53,0-.86-.15-1.19-.47l.19-.19c.32,.32,.59,.42,1.01,.42,.57,0,.92-.27,.92-.74,0-.21-.06-.38-.2-.5-.12-.11-.23-.15-.51-.19l-.42-.06c-.27-.04-.48-.12-.64-.26-.18-.16-.28-.38-.28-.66,0-.6,.42-.98,1.11-.98,.44,0,.72,.12,1.03,.39Z" style="fill:#fff;"/><path d="M404.17,493.32c-.04,.13-.1,.23-.17,.28-.12,.12-.29,.16-.46,.16h-.12v-.23h.09c.28,0,.36-.09,.44-.33l.22-.6-.88-2.41h.28l.73,2.11,.73-2.11h.28l-1.14,3.13Z" style="fill:#fff;"/><path d="M407.42,490.42l-.17,.17c-.18-.14-.41-.21-.68-.21-.4,0-.62,.17-.62,.47,0,.25,.15,.37,.49,.41l.39,.04c.4,.04,.71,.16,.71,.63,0,.44-.37,.72-.97,.72-.42,0-.73-.11-.98-.35l.18-.17c.18,.2,.45,.29,.79,.29,.48,0,.73-.17,.73-.49,0-.26-.14-.38-.46-.41l-.4-.04c-.49-.04-.73-.25-.73-.63,0-.42,.34-.69,.87-.69,.34,0,.63,.09,.85,.25Z" style="fill:#fff;"/><path d="M408.57,490.19h.55v.19h-.55v1.6c0,.26,.12,.4,.37,.4h.18v.23h-.22c-.38,0-.58-.27-.58-.63v-1.59h-.33v-.19h.33v-.77h.25v.77Z" style="fill:#fff;"/><path d="M411.65,491.34v.12h-1.68c0,.62,.27,.95,.79,.95,.29,0,.46-.08,.67-.29l.19,.15c-.25,.25-.47,.37-.87,.37-.67,0-1.03-.43-1.03-1.24s.36-1.24,.97-1.24,.97,.44,.97,1.18Zm-1.59-.54c-.06,.14-.07,.22-.08,.46h1.42c-.01-.23-.02-.31-.08-.46-.1-.26-.34-.41-.62-.41s-.51,.15-.63,.41Z" style="fill:#fff;"/><path d="M415.68,490.39c.17,.16,.26,.38,.26,.67v1.54h-.26v-1.5c0-.47-.23-.72-.67-.72s-.68,.26-.68,.68v1.54h-.26v-1.5c0-.47-.23-.72-.67-.72s-.68,.26-.68,.72v1.5h-.26v-2.41h.26v.29c.18-.21,.42-.32,.71-.32,.36,0,.63,.16,.78,.44,.18-.29,.46-.44,.82-.44,.27,0,.48,.08,.64,.23Z" style="fill:#fff;"/><path d="M418.43,489.36h-.32v-.32h.32v.32Zm-.03,3.25h-.26v-2.41h.26v2.41Z" style="fill:#fff;"/><path d="M420.95,490.42l-.17,.17c-.18-.14-.41-.21-.67-.21-.4,0-.62,.17-.62,.47,0,.25,.15,.37,.49,.41l.39,.04c.4,.04,.71,.16,.71,.63,0,.44-.37,.72-.97,.72-.42,0-.73-.11-.98-.35l.18-.17c.18,.2,.45,.29,.79,.29,.48,0,.73-.17,.73-.49,0-.26-.14-.38-.46-.41l-.4-.04c-.49-.04-.73-.25-.73-.63,0-.42,.34-.69,.87-.69,.33,0,.63,.09,.85,.25Z" style="fill:#fff;"/><path d="M423.43,490.19h.55v.19h-.55v1.6c0,.26,.12,.4,.37,.4h.18v.23h-.22c-.38,0-.58-.27-.58-.63v-1.59h-.33v-.19h.33v-.77h.25v.77Z" style="fill:#fff;"/><path d="M425,490.48c.18-.21,.42-.32,.71-.32s.53,.09,.69,.28c.14,.16,.21,.37,.21,.63v1.54h-.25v-1.5c0-.47-.23-.72-.67-.72s-.68,.25-.68,.72v1.5h-.25v-3.56h.25v1.44Z" style="fill:#fff;"/><path d="M429.33,491.34v.12h-1.68c0,.62,.27,.95,.79,.95,.29,0,.46-.08,.67-.29l.19,.15c-.25,.25-.47,.37-.87,.37-.67,0-1.03-.43-1.03-1.24s.36-1.24,.97-1.24,.97,.44,.97,1.18Zm-1.59-.54c-.06,.14-.07,.22-.08,.46h1.42c-.01-.23-.02-.31-.08-.46-.1-.26-.34-.41-.62-.41s-.51,.15-.63,.41Z" style="fill:#fff;"/><path d="M354.35,495.4l-.17,.17c-.21-.2-.45-.33-.87-.33-.52,0-.83,.28-.83,.74,0,.21,.05,.37,.18,.47,.13,.11,.31,.17,.51,.21l.42,.07c.33,.05,.47,.11,.63,.25,.19,.17,.31,.4,.31,.69,0,.6-.46,.99-1.2,.99-.53,0-.86-.15-1.19-.47l.19-.19c.32,.32,.59,.42,1.01,.42,.57,0,.92-.27,.92-.74,0-.21-.06-.38-.2-.5-.12-.11-.23-.15-.52-.19l-.42-.06c-.27-.04-.48-.12-.64-.26-.18-.16-.28-.38-.28-.66,0-.6,.42-.98,1.11-.98,.44,0,.72,.12,1.03,.39Z" style="fill:#fff;"/><path d="M356.98,496.95v1.65h-.25v-.24c-.21,.21-.4,.27-.74,.27-.36,0-.56-.06-.71-.22-.12-.12-.17-.29-.17-.47,0-.44,.32-.7,.84-.7h.78v-.27c0-.38-.19-.59-.68-.59-.34,0-.51,.08-.67,.3l-.19-.16c.21-.29,.46-.37,.85-.37,.64,0,.94,.29,.94,.79Zm-1.01,.5c-.41,0-.62,.16-.62,.49s.19,.47,.63,.47c.22,0,.43-.02,.6-.19,.09-.08,.14-.24,.14-.46v-.31h-.75Z" style="fill:#fff;"/><path d="M358.17,497.97c0,.28,.08,.41,.37,.41h.18v.23h-.22c-.39,0-.58-.25-.58-.63v-2.94h.25v2.93Z" style="fill:#fff;"/><path d="M361.1,497.34v.12h-1.68c0,.62,.27,.95,.79,.95,.29,0,.46-.08,.67-.29l.19,.15c-.25,.25-.47,.37-.87,.37-.67,0-1.03-.43-1.03-1.24s.36-1.24,.97-1.24,.97,.44,.97,1.18Zm-1.59-.54c-.07,.14-.07,.22-.08,.46h1.42c-.02-.23-.02-.31-.09-.46-.1-.26-.34-.41-.62-.41s-.51,.15-.63,.41Z" style="fill:#fff;"/><path d="M363.51,496.42l-.17,.17c-.18-.14-.41-.21-.68-.21-.4,0-.62,.17-.62,.47,0,.25,.15,.37,.49,.41l.39,.04c.4,.04,.71,.16,.71,.63,0,.44-.37,.72-.97,.72-.42,0-.73-.11-.98-.35l.18-.17c.18,.2,.45,.29,.79,.29,.48,0,.73-.17,.73-.49,0-.26-.14-.38-.46-.41l-.4-.04c-.49-.04-.73-.25-.73-.63,0-.42,.34-.69,.87-.69,.34,0,.63,.09,.85,.25Z" style="fill:#fff;"/><path d="M365.28,495.27h-.17c-.26,0-.37,.14-.37,.4v.53h.55v.19h-.55v2.22h-.25v-2.22h-.33v-.19h.33v-.52c0-.37,.2-.63,.58-.63h.22v.23Z" style="fill:#fff;"/><path d="M367.35,496.43c.25,.25,.3,.62,.3,.97s-.04,.72-.3,.97c-.18,.17-.4,.27-.67,.27s-.5-.09-.67-.27c-.25-.25-.3-.63-.3-.97s.04-.72,.3-.97c.17-.18,.4-.27,.67-.27s.5,.09,.67,.27Zm-1.17,.17c-.2,.2-.21,.53-.21,.81s.01,.61,.21,.81c.14,.13,.31,.21,.5,.21s.37-.07,.5-.21c.2-.2,.22-.53,.22-.81s-.02-.61-.22-.81c-.13-.14-.3-.21-.5-.21s-.37,.07-.5,.21Z" style="fill:#fff;"/><path d="M370.02,496.39l-.19,.18c-.15-.14-.25-.19-.46-.19-.42,0-.65,.34-.65,.73v1.49h-.26v-2.41h.26v.32c.14-.23,.42-.35,.71-.35,.24,0,.41,.05,.58,.23Z" style="fill:#fff;"/><path d="M372.09,496.53l-.17,.16c-.21-.23-.37-.3-.62-.3-.28,0-.5,.1-.64,.32-.12,.17-.17,.37-.17,.69s.04,.52,.17,.69c.15,.21,.37,.32,.64,.32,.25,0,.42-.08,.62-.3l.17,.16c-.25,.29-.47,.37-.8,.37-.66,0-1.06-.47-1.06-1.24s.4-1.24,1.06-1.24c.33,0,.54,.08,.8,.37Z" style="fill:#fff;"/><path d="M374.55,497.34v.12h-1.68c0,.62,.27,.95,.79,.95,.29,0,.46-.08,.67-.29l.19,.15c-.25,.25-.47,.37-.87,.37-.67,0-1.03-.43-1.03-1.24s.36-1.24,.97-1.24,.97,.44,.97,1.18Zm-1.59-.54c-.07,.14-.07,.22-.08,.46h1.42c-.02-.23-.02-.31-.09-.46-.1-.26-.34-.41-.62-.41s-.51,.15-.63,.41Z" style="fill:#fff;"/><path d="M376.62,497.4h-1.31v-.24h1.31v.24Z" style="fill:#fff;"/><path d="M379.37,495.28h-1.07v3.32h-.27v-3.32h-1.06v-.24h2.4v.24Z" style="fill:#fff;"/><path d="M381.18,496.43c.25,.25,.3,.62,.3,.97s-.04,.72-.3,.97c-.18,.17-.4,.27-.67,.27s-.5-.09-.67-.27c-.25-.25-.3-.63-.3-.97s.04-.72,.3-.97c.18-.18,.4-.27,.67-.27s.5,.09,.67,.27Zm-1.17,.17c-.2,.2-.21,.53-.21,.81s.01,.61,.21,.81c.14,.13,.31,.21,.5,.21s.37-.07,.5-.21c.2-.2,.22-.53,.22-.81s-.02-.61-.22-.81c-.13-.14-.3-.21-.5-.21s-.37,.07-.5,.21Z" style="fill:#fff;"/><path d="M383.81,496.43c.25,.25,.3,.62,.3,.97s-.04,.72-.3,.97c-.18,.17-.4,.27-.67,.27s-.5-.09-.67-.27c-.25-.25-.3-.63-.3-.97s.04-.72,.3-.97c.17-.18,.4-.27,.67-.27s.5,.09,.67,.27Zm-1.17,.17c-.2,.2-.21,.53-.21,.81s.01,.61,.21,.81c.14,.13,.31,.21,.5,.21s.37-.07,.5-.21c.2-.2,.22-.53,.22-.81s-.02-.61-.22-.81c-.13-.14-.3-.21-.5-.21s-.37,.07-.5,.21Z" style="fill:#fff;"/><path d="M385.18,497.97c0,.28,.08,.41,.37,.41h.18v.23h-.22c-.39,0-.58-.25-.58-.63v-2.94h.25v2.93Z" style="fill:#fff;"/><path d="M386.87,497.04h-.37v-.37h.37v.37Zm-.02,1.9l-.34,.34v-1.02h.34v.68Z" style="fill:#fff;"/><path d="M389.39,495.36h-.32v-.32h.32v.32Zm-.03,3.25h-.26v-2.41h.26v2.41Z" style="fill:#fff;"/><path d="M391.94,496.39c.17,.16,.25,.38,.25,.67v1.54h-.26v-1.5c0-.47-.23-.72-.67-.72s-.68,.26-.68,.72v1.5h-.26v-2.41h.26v.29c.18-.21,.42-.32,.71-.32,.27,0,.48,.08,.64,.23Z" style="fill:#fff;"/><path d="M394.72,496.19h.55v.19h-.55v1.6c0,.26,.12,.4,.37,.4h.18v.23h-.22c-.38,0-.58-.27-.58-.63v-1.59h-.33v-.19h.33v-.77h.25v.77Z" style="fill:#fff;"/><path d="M396.28,496.48c.18-.21,.42-.32,.71-.32s.53,.09,.69,.28c.14,.16,.21,.37,.21,.63v1.54h-.26v-1.5c0-.47-.23-.72-.67-.72s-.68,.25-.68,.72v1.5h-.26v-3.56h.26v1.44Z" style="fill:#fff;"/><path d="M400.62,497.34v.12h-1.68c0,.62,.27,.95,.79,.95,.29,0,.46-.08,.67-.29l.19,.15c-.25,.25-.47,.37-.87,.37-.67,0-1.03-.43-1.03-1.24s.36-1.24,.97-1.24,.97,.44,.97,1.18Zm-1.59-.54c-.07,.14-.07,.22-.08,.46h1.42c-.02-.23-.02-.31-.09-.46-.1-.26-.34-.41-.62-.41s-.51,.15-.63,.41Z" style="fill:#fff;"/><path d="M404.3,496.42l-.17,.17c-.18-.14-.41-.21-.68-.21-.4,0-.62,.17-.62,.47,0,.25,.15,.37,.49,.41l.39,.04c.4,.04,.71,.16,.71,.63,0,.44-.37,.72-.97,.72-.42,0-.73-.11-.98-.35l.18-.17c.18,.2,.45,.29,.79,.29,.48,0,.73-.17,.73-.49,0-.26-.14-.38-.46-.41l-.4-.04c-.49-.04-.73-.25-.73-.63,0-.42,.34-.69,.87-.69,.34,0,.63,.09,.85,.25Z" style="fill:#fff;"/><path d="M405.62,499.32c-.05,.13-.1,.23-.17,.28-.12,.12-.29,.16-.46,.16h-.12v-.23h.09c.28,0,.36-.09,.44-.33l.22-.6-.88-2.41h.28l.73,2.11,.73-2.11h.28l-1.14,3.13Z" style="fill:#fff;"/><path d="M408.87,496.42l-.17,.17c-.18-.14-.41-.21-.68-.21-.4,0-.62,.17-.62,.47,0,.25,.15,.37,.49,.41l.39,.04c.4,.04,.71,.16,.71,.63,0,.44-.37,.72-.97,.72-.42,0-.73-.11-.98-.35l.18-.17c.18,.2,.45,.29,.79,.29,.48,0,.73-.17,.73-.49,0-.26-.14-.38-.46-.41l-.4-.04c-.49-.04-.73-.25-.73-.63,0-.42,.34-.69,.87-.69,.34,0,.63,.09,.85,.25Z" style="fill:#fff;"/><path d="M410.02,496.19h.55v.19h-.55v1.6c0,.26,.12,.4,.37,.4h.18v.23h-.22c-.38,0-.58-.27-.58-.63v-1.59h-.33v-.19h.33v-.77h.25v.77Z" style="fill:#fff;"/><path d="M413.1,497.34v.12h-1.68c0,.62,.27,.95,.79,.95,.29,0,.46-.08,.67-.29l.19,.15c-.25,.25-.47,.37-.87,.37-.67,0-1.03-.43-1.03-1.24s.36-1.24,.97-1.24,.97,.44,.97,1.18Zm-1.59-.54c-.06,.14-.07,.22-.08,.46h1.42c-.01-.23-.02-.31-.08-.46-.1-.26-.34-.41-.62-.41s-.51,.15-.63,.41Z" style="fill:#fff;"/><path d="M417.13,496.39c.17,.16,.26,.38,.26,.67v1.54h-.26v-1.5c0-.47-.23-.72-.67-.72s-.68,.26-.68,.68v1.54h-.26v-1.5c0-.47-.23-.72-.67-.72s-.68,.26-.68,.72v1.5h-.26v-2.41h.26v.29c.18-.21,.42-.32,.71-.32,.36,0,.63,.16,.78,.44,.18-.29,.46-.44,.82-.44,.27,0,.48,.08,.64,.23Z" style="fill:#fff;"/><path d="M421.27,496.95v1.65h-.26v-.24c-.21,.21-.39,.27-.74,.27-.36,0-.56-.06-.71-.22-.11-.12-.17-.29-.17-.47,0-.44,.32-.7,.84-.7h.78v-.27c0-.38-.18-.59-.68-.59-.34,0-.51,.08-.67,.3l-.19-.16c.21-.29,.46-.37,.85-.37,.64,0,.94,.29,.94,.79Zm-1.01,.5c-.41,0-.62,.16-.62,.49s.19,.47,.63,.47c.22,0,.43-.02,.6-.19,.09-.08,.13-.24,.13-.46v-.31h-.75Z" style="fill:#fff;"/><path d="M423.76,496.39l-.19,.18c-.15-.14-.25-.19-.46-.19-.42,0-.65,.34-.65,.73v1.49h-.25v-2.41h.25v.32c.14-.23,.42-.35,.71-.35,.24,0,.41,.05,.58,.23Z" style="fill:#fff;"/><path d="M425.91,497.34v.12h-1.68c0,.62,.27,.95,.79,.95,.29,0,.46-.08,.67-.29l.19,.15c-.25,.25-.47,.37-.87,.37-.67,0-1.03-.43-1.03-1.24s.36-1.24,.97-1.24,.97,.44,.97,1.18Zm-1.59-.54c-.07,.14-.07,.22-.08,.46h1.42c-.02-.23-.02-.31-.09-.46-.1-.26-.34-.41-.62-.41s-.51,.15-.63,.41Z" style="fill:#fff;"/><path d="M428.33,496.19h.55v.19h-.55v1.6c0,.26,.12,.4,.37,.4h.18v.23h-.22c-.38,0-.58-.27-.58-.63v-1.59h-.33v-.19h.33v-.77h.25v.77Z" style="fill:#fff;"/><path d="M429.89,496.48c.18-.21,.42-.32,.71-.32s.53,.09,.69,.28c.14,.16,.21,.37,.21,.63v1.54h-.25v-1.5c0-.47-.23-.72-.67-.72s-.68,.25-.68,.72v1.5h-.25v-3.56h.25v1.44Z" style="fill:#fff;"/><path d="M433.97,496.39l-.19,.18c-.15-.14-.25-.19-.46-.19-.42,0-.65,.34-.65,.73v1.49h-.25v-2.41h.25v.32c.14-.23,.42-.35,.71-.35,.24,0,.41,.05,.58,.23Z" style="fill:#fff;"/><path d="M436.12,497.34v.12h-1.68c0,.62,.27,.95,.79,.95,.29,0,.46-.08,.67-.29l.19,.15c-.25,.25-.47,.37-.87,.37-.67,0-1.03-.43-1.03-1.24s.36-1.24,.97-1.24,.97,.44,.97,1.18Zm-1.59-.54c-.06,.14-.07,.22-.08,.46h1.42c-.01-.23-.02-.31-.08-.46-.1-.26-.34-.41-.62-.41s-.51,.15-.63,.41Z" style="fill:#fff;"/><path d="M438.74,497.34v.12h-1.68c0,.62,.27,.95,.79,.95,.29,0,.46-.08,.67-.29l.19,.15c-.25,.25-.47,.37-.87,.37-.67,0-1.03-.43-1.03-1.24s.36-1.24,.97-1.24,.97,.44,.97,1.18Zm-1.59-.54c-.07,.14-.07,.22-.08,.46h1.42c-.02-.23-.02-.31-.09-.46-.1-.26-.34-.41-.62-.41s-.51,.15-.63,.41Z" style="fill:#fff;"/><path d="M383.26,502.39c.17,.16,.26,.38,.26,.67v1.54h-.26v-1.5c0-.47-.23-.72-.67-.72s-.68,.26-.68,.68v1.54h-.26v-1.5c0-.47-.23-.72-.67-.72s-.68,.26-.68,.72v1.5h-.26v-2.41h.26v.29c.18-.21,.42-.32,.71-.32,.36,0,.63,.16,.78,.44,.18-.29,.46-.44,.82-.44,.27,0,.48,.08,.64,.23Z" style="fill:#fff;"/><path d="M386.13,502.95v1.65h-.26v-.24c-.21,.21-.39,.27-.74,.27-.36,0-.56-.06-.71-.22-.11-.12-.17-.29-.17-.47,0-.44,.32-.7,.84-.7h.78v-.27c0-.38-.18-.59-.68-.59-.34,0-.51,.08-.67,.3l-.19-.16c.21-.29,.46-.37,.85-.37,.64,0,.94,.29,.94,.79Zm-1.01,.5c-.41,0-.62,.16-.62,.49s.19,.47,.63,.47c.22,0,.43-.02,.6-.19,.09-.08,.13-.24,.13-.46v-.31h-.75Z" style="fill:#fff;"/><path d="M387.36,501.36h-.32v-.32h.32v.32Zm-.03,3.25h-.25v-2.41h.25v2.41Z" style="fill:#fff;"/><path d="M389.91,502.39c.17,.16,.25,.38,.25,.67v1.54h-.25v-1.5c0-.47-.23-.72-.67-.72s-.68,.26-.68,.72v1.5h-.25v-2.41h.25v.29c.18-.21,.42-.32,.71-.32,.27,0,.48,.08,.64,.23Z" style="fill:#fff;"/><path d="M393.95,502.42l-.17,.17c-.18-.14-.41-.21-.68-.21-.4,0-.62,.17-.62,.47,0,.25,.15,.37,.49,.41l.39,.04c.4,.04,.71,.16,.71,.63,0,.44-.37,.72-.97,.72-.42,0-.73-.11-.98-.35l.18-.17c.18,.2,.45,.29,.79,.29,.48,0,.73-.17,.73-.49,0-.26-.14-.38-.46-.41l-.4-.04c-.49-.04-.73-.25-.73-.63,0-.42,.34-.69,.87-.69,.34,0,.63,.09,.85,.25Z" style="fill:#fff;"/><path d="M395.11,502.19h.55v.19h-.55v1.6c0,.26,.12,.4,.37,.4h.18v.23h-.22c-.38,0-.58-.27-.58-.63v-1.59h-.33v-.19h.33v-.77h.25v.77Z" style="fill:#fff;"/><path d="M397.96,502.39l-.19,.18c-.15-.14-.25-.19-.46-.19-.42,0-.65,.34-.65,.73v1.49h-.25v-2.41h.25v.32c.14-.23,.42-.35,.71-.35,.24,0,.41,.05,.58,.23Z" style="fill:#fff;"/><path d="M400.1,503.34v.12h-1.68c0,.62,.27,.95,.79,.95,.29,0,.46-.08,.67-.29l.19,.15c-.25,.25-.47,.37-.87,.37-.67,0-1.03-.43-1.03-1.24s.36-1.24,.97-1.24,.97,.44,.97,1.18Zm-1.59-.54c-.06,.14-.07,.22-.08,.46h1.42c-.01-.23-.02-.31-.08-.46-.1-.26-.34-.41-.62-.41s-.51,.15-.63,.41Z" style="fill:#fff;"/><path d="M402.6,502.95v1.65h-.26v-.24c-.21,.21-.39,.27-.74,.27-.36,0-.56-.06-.71-.22-.11-.12-.17-.29-.17-.47,0-.44,.32-.7,.84-.7h.78v-.27c0-.38-.18-.59-.68-.59-.34,0-.51,.08-.67,.3l-.19-.16c.21-.29,.46-.37,.85-.37,.64,0,.94,.29,.94,.79Zm-1.01,.5c-.41,0-.62,.16-.62,.49s.19,.47,.63,.47c.22,0,.43-.02,.6-.19,.09-.08,.13-.24,.13-.46v-.31h-.75Z" style="fill:#fff;"/><path d="M406.75,502.39c.17,.16,.25,.38,.25,.67v1.54h-.25v-1.5c0-.47-.23-.72-.67-.72s-.68,.26-.68,.68v1.54h-.25v-1.5c0-.47-.23-.72-.67-.72s-.68,.26-.68,.72v1.5h-.25v-2.41h.25v.29c.18-.21,.42-.32,.72-.32,.36,0,.63,.16,.78,.44,.18-.29,.46-.44,.82-.44,.27,0,.48,.08,.64,.23Z" style="fill:#fff;"/><path d="M409.53,502.42l-.17,.17c-.18-.14-.41-.21-.68-.21-.4,0-.62,.17-.62,.47,0,.25,.15,.37,.49,.41l.39,.04c.4,.04,.71,.16,.71,.63,0,.44-.37,.72-.97,.72-.42,0-.73-.11-.98-.35l.18-.17c.18,.2,.45,.29,.79,.29,.48,0,.73-.17,.73-.49,0-.26-.14-.38-.46-.41l-.4-.04c-.49-.04-.73-.25-.73-.63,0-.42,.34-.69,.87-.69,.34,0,.63,.09,.85,.25Z" style="fill:#fff;"/><path d="M410.91,503.04h-.37v-.37h.37v.37Zm0,1.56h-.37v-.37h.37v.37Z" style="fill:#fff;"/><path d="M383.25,507.4l-.17,.17c-.21-.2-.45-.33-.87-.33-.52,0-.83,.28-.83,.74,0,.21,.05,.37,.18,.47,.13,.11,.31,.17,.51,.21l.42,.07c.33,.05,.47,.11,.63,.25,.19,.17,.31,.4,.31,.69,0,.6-.46,.99-1.2,.99-.53,0-.86-.15-1.19-.47l.19-.19c.32,.32,.59,.42,1.01,.42,.57,0,.92-.27,.92-.74,0-.21-.06-.38-.2-.5-.12-.11-.23-.15-.52-.19l-.42-.06c-.27-.04-.48-.12-.64-.26-.18-.16-.28-.38-.28-.66,0-.6,.42-.98,1.11-.98,.44,0,.72,.12,1.03,.39Z" style="fill:#fff;"/><path d="M385.88,508.95v1.65h-.25v-.24c-.21,.21-.4,.27-.74,.27-.36,0-.56-.06-.71-.22-.12-.12-.17-.29-.17-.47,0-.44,.32-.7,.84-.7h.78v-.27c0-.38-.19-.59-.68-.59-.34,0-.51,.08-.67,.3l-.19-.16c.21-.29,.46-.37,.85-.37,.64,0,.94,.29,.94,.79Zm-1.01,.5c-.41,0-.62,.16-.62,.49s.19,.47,.63,.47c.22,0,.43-.02,.6-.19,.09-.08,.14-.24,.14-.46v-.31h-.75Z" style="fill:#fff;"/><path d="M387.07,509.97c0,.28,.08,.41,.37,.41h.18v.23h-.22c-.39,0-.58-.25-.58-.63v-2.94h.25v2.93Z" style="fill:#fff;"/><path d="M390,509.34v.12h-1.68c0,.62,.27,.95,.79,.95,.29,0,.46-.08,.67-.29l.19,.15c-.25,.25-.47,.37-.87,.37-.67,0-1.03-.43-1.03-1.24s.36-1.24,.97-1.24,.97,.44,.97,1.18Zm-1.59-.54c-.07,.14-.07,.22-.08,.46h1.42c-.02-.23-.02-.31-.09-.46-.1-.26-.34-.41-.62-.41s-.51,.15-.63,.41Z" style="fill:#fff;"/><path d="M392.41,508.42l-.17,.17c-.18-.14-.41-.21-.68-.21-.4,0-.62,.17-.62,.47,0,.25,.15,.37,.49,.41l.39,.04c.4,.04,.71,.16,.71,.63,0,.44-.37,.72-.97,.72-.42,0-.73-.11-.98-.35l.18-.17c.18,.2,.45,.29,.79,.29,.48,0,.73-.17,.73-.49,0-.26-.14-.38-.46-.41l-.4-.04c-.49-.04-.73-.25-.73-.63,0-.42,.34-.69,.87-.69,.34,0,.63,.09,.85,.25Z" style="fill:#fff;"/><path d="M396.55,507.4l-.17,.17c-.21-.2-.45-.33-.87-.33-.52,0-.83,.28-.83,.74,0,.21,.05,.37,.18,.47,.13,.11,.31,.17,.51,.21l.42,.07c.33,.05,.47,.11,.63,.25,.19,.17,.31,.4,.31,.69,0,.6-.46,.99-1.2,.99-.53,0-.86-.15-1.19-.47l.19-.19c.32,.32,.59,.42,1.01,.42,.57,0,.92-.27,.92-.74,0-.21-.06-.38-.2-.5-.12-.11-.23-.15-.52-.19l-.42-.06c-.27-.04-.48-.12-.64-.26-.18-.16-.28-.38-.28-.66,0-.6,.42-.98,1.11-.98,.44,0,.72,.12,1.03,.39Z" style="fill:#fff;"/><path d="M397.83,508.19h.55v.19h-.55v1.6c0,.26,.12,.4,.37,.4h.18v.23h-.22c-.38,0-.58-.27-.58-.63v-1.59h-.33v-.19h.33v-.77h.25v.77Z" style="fill:#fff;"/><path d="M400.68,508.39l-.19,.18c-.15-.14-.25-.19-.46-.19-.42,0-.65,.34-.65,.73v1.49h-.25v-2.41h.25v.32c.14-.23,.42-.35,.71-.35,.24,0,.41,.05,.58,.23Z" style="fill:#fff;"/><path d="M402.82,509.34v.12h-1.68c0,.62,.27,.95,.79,.95,.29,0,.46-.08,.67-.29l.19,.15c-.25,.25-.47,.37-.87,.37-.67,0-1.03-.43-1.03-1.24s.36-1.24,.97-1.24,.97,.44,.97,1.18Zm-1.59-.54c-.06,.14-.07,.22-.08,.46h1.42c-.01-.23-.02-.31-.08-.46-.1-.26-.34-.41-.62-.41s-.51,.15-.63,.41Z" style="fill:#fff;"/><path d="M405.32,508.95v1.65h-.26v-.24c-.21,.21-.39,.27-.74,.27-.36,0-.56-.06-.71-.22-.11-.12-.17-.29-.17-.47,0-.44,.32-.7,.84-.7h.78v-.27c0-.38-.18-.59-.68-.59-.34,0-.51,.08-.67,.3l-.19-.16c.21-.29,.46-.37,.85-.37,.64,0,.94,.29,.94,.79Zm-1.01,.5c-.41,0-.62,.16-.62,.49s.19,.47,.63,.47c.22,0,.43-.02,.6-.19,.09-.08,.13-.24,.13-.46v-.31h-.75Z" style="fill:#fff;"/><path d="M409.47,508.39c.17,.16,.25,.38,.25,.67v1.54h-.25v-1.5c0-.47-.23-.72-.67-.72s-.68,.26-.68,.68v1.54h-.25v-1.5c0-.47-.23-.72-.67-.72s-.68,.26-.68,.72v1.5h-.25v-2.41h.25v.29c.18-.21,.42-.32,.72-.32,.36,0,.63,.16,.78,.44,.18-.29,.46-.44,.82-.44,.27,0,.48,.08,.64,.23Z" style="fill:#fff;"/><path d="M381.25,513.4l-.18,.17c-.21-.2-.45-.33-.87-.33-.52,0-.83,.28-.83,.74,0,.21,.05,.37,.18,.47,.12,.11,.31,.17,.51,.21l.42,.07c.33,.05,.47,.11,.64,.25,.19,.17,.31,.4,.31,.69,0,.6-.46,.99-1.2,.99-.53,0-.86-.15-1.19-.47l.19-.19c.32,.32,.59,.42,1.01,.42,.57,0,.92-.27,.92-.74,0-.21-.06-.38-.2-.5-.12-.11-.23-.15-.51-.19l-.42-.06c-.27-.04-.48-.12-.64-.26-.18-.16-.28-.38-.28-.66,0-.6,.42-.98,1.11-.98,.44,0,.72,.12,1.03,.39Z" style="fill:#fff;"/><path d="M383.99,515.34v.12h-1.68c0,.62,.27,.95,.79,.95,.29,0,.46-.08,.67-.29l.19,.15c-.25,.25-.47,.37-.87,.37-.67,0-1.03-.43-1.03-1.24s.36-1.24,.97-1.24,.97,.44,.97,1.18Zm-1.59-.54c-.07,.14-.07,.22-.08,.46h1.42c-.02-.23-.02-.31-.09-.46-.1-.26-.34-.41-.62-.41s-.51,.15-.63,.41Z" style="fill:#fff;"/><path d="M386.36,514.39l-.19,.18c-.15-.14-.25-.19-.46-.19-.42,0-.65,.34-.65,.73v1.49h-.25v-2.41h.25v.32c.14-.23,.42-.35,.71-.35,.24,0,.41,.05,.58,.23Z" style="fill:#fff;"/><path d="M387.63,516.61h-.25l-.88-2.41h.28l.73,2.11,.73-2.11h.28l-.88,2.41Z" style="fill:#fff;"/><path d="M389.35,513.36h-.32v-.32h.32v.32Zm-.03,3.25h-.26v-2.41h.26v2.41Z" style="fill:#fff;"/><path d="M392.01,514.53l-.17,.16c-.21-.23-.37-.3-.62-.3-.28,0-.5,.1-.64,.32-.12,.17-.17,.37-.17,.69s.04,.52,.17,.69c.15,.21,.37,.32,.64,.32,.25,0,.42-.08,.62-.3l.17,.16c-.25,.29-.47,.37-.8,.37-.66,0-1.06-.47-1.06-1.24s.4-1.24,1.06-1.24c.33,0,.54,.08,.8,.37Z" style="fill:#fff;"/><path d="M394.47,515.34v.12h-1.68c0,.62,.27,.95,.79,.95,.29,0,.46-.08,.67-.29l.19,.15c-.25,.25-.47,.37-.87,.37-.67,0-1.03-.43-1.03-1.24s.36-1.24,.97-1.24,.97,.44,.97,1.18Zm-1.59-.54c-.06,.14-.07,.22-.08,.46h1.42c-.01-.23-.02-.31-.08-.46-.1-.26-.34-.41-.62-.41s-.51,.15-.63,.41Z" style="fill:#fff;"/><path d="M398.55,513.4l-.17,.17c-.21-.2-.45-.33-.87-.33-.52,0-.83,.28-.83,.74,0,.21,.05,.37,.18,.47,.13,.11,.31,.17,.51,.21l.42,.07c.33,.05,.47,.11,.63,.25,.19,.17,.31,.4,.31,.69,0,.6-.46,.99-1.2,.99-.53,0-.86-.15-1.19-.47l.19-.19c.32,.32,.59,.42,1.01,.42,.57,0,.92-.27,.92-.74,0-.21-.06-.38-.2-.5-.12-.11-.23-.15-.52-.19l-.42-.06c-.27-.04-.48-.12-.64-.26-.18-.16-.28-.38-.28-.66,0-.6,.42-.98,1.11-.98,.44,0,.72,.12,1.03,.39Z" style="fill:#fff;"/><path d="M399.83,514.19h.55v.19h-.55v1.6c0,.26,.12,.4,.37,.4h.18v.23h-.22c-.38,0-.58-.27-.58-.63v-1.59h-.33v-.19h.33v-.77h.25v.77Z" style="fill:#fff;"/><path d="M402.68,514.39l-.19,.18c-.15-.14-.25-.19-.46-.19-.42,0-.65,.34-.65,.73v1.49h-.25v-2.41h.25v.32c.14-.23,.42-.35,.71-.35,.24,0,.41,.05,.58,.23Z" style="fill:#fff;"/><path d="M404.82,515.34v.12h-1.68c0,.62,.27,.95,.79,.95,.29,0,.46-.08,.67-.29l.19,.15c-.25,.25-.47,.37-.87,.37-.67,0-1.03-.43-1.03-1.24s.36-1.24,.97-1.24,.97,.44,.97,1.18Zm-1.59-.54c-.07,.14-.07,.22-.08,.46h1.42c-.02-.23-.02-.31-.09-.46-.1-.26-.34-.41-.62-.41s-.51,.15-.63,.41Z" style="fill:#fff;"/><path d="M407.32,514.95v1.65h-.25v-.24c-.21,.21-.4,.27-.74,.27-.36,0-.56-.06-.71-.22-.12-.12-.17-.29-.17-.47,0-.44,.32-.7,.84-.7h.78v-.27c0-.38-.19-.59-.68-.59-.34,0-.51,.08-.67,.3l-.19-.16c.21-.29,.46-.37,.85-.37,.64,0,.94,.29,.94,.79Zm-1.01,.5c-.41,0-.62,.16-.62,.49s.19,.47,.63,.47c.22,0,.43-.02,.6-.19,.09-.08,.14-.24,.14-.46v-.31h-.75Z" style="fill:#fff;"/><path d="M411.48,514.39c.17,.16,.26,.38,.26,.67v1.54h-.26v-1.5c0-.47-.23-.72-.67-.72s-.68,.26-.68,.68v1.54h-.26v-1.5c0-.47-.23-.72-.67-.72s-.68,.26-.68,.72v1.5h-.26v-2.41h.26v.29c.18-.21,.42-.32,.71-.32,.36,0,.63,.16,.78,.44,.18-.29,.46-.44,.82-.44,.27,0,.48,.08,.64,.23Z" style="fill:#fff;"/><path d="M379.07,522.61h-.27v-2.94l-1.08,2.18h-.27l-1.1-2.18v2.94h-.27v-3.56h.27l1.24,2.49,1.21-2.49h.27v3.56Z" style="fill:#fff;"/><path d="M382.56,522.61h-.29l-.31-.87h-1.66l-.31,.87h-.29l1.31-3.56h.24l1.31,3.56Zm-2.18-1.11h1.49l-.75-2.1-.75,2.1Z" style="fill:#fff;"/><path d="M384.65,520.39l-.19,.18c-.15-.14-.25-.19-.46-.19-.42,0-.65,.34-.65,.73v1.49h-.26v-2.41h.26v.32c.14-.23,.42-.35,.71-.35,.24,0,.41,.05,.58,.23Z" style="fill:#fff;"/><path d="M385.41,521.55l1.2-1.36h.33l-.8,.9,.97,1.51h-.32l-.83-1.33-.55,.64v.69h-.26v-3.56h.26v2.51Z" style="fill:#fff;"/><path d="M389.38,521.34v.12h-1.68c0,.62,.27,.95,.79,.95,.29,0,.46-.08,.67-.29l.19,.15c-.25,.25-.47,.37-.87,.37-.67,0-1.03-.43-1.03-1.24s.36-1.24,.97-1.24,.97,.44,.97,1.18Zm-1.59-.54c-.06,.14-.07,.22-.08,.46h1.42c-.01-.23-.02-.31-.08-.46-.1-.26-.34-.41-.62-.41s-.51,.15-.63,.41Z" style="fill:#fff;"/><path d="M390.53,520.19h.55v.19h-.55v1.6c0,.26,.12,.4,.37,.4h.18v.23h-.22c-.38,0-.58-.27-.58-.63v-1.59h-.33v-.19h.33v-.77h.25v.77Z" style="fill:#fff;"/><path d="M392.12,519.36h-.32v-.32h.32v.32Zm-.03,3.25h-.26v-2.41h.26v2.41Z" style="fill:#fff;"/><path d="M394.67,520.39c.17,.16,.25,.38,.25,.67v1.54h-.26v-1.5c0-.47-.23-.72-.67-.72s-.68,.26-.68,.72v1.5h-.26v-2.41h.26v.29c.18-.21,.42-.32,.71-.32,.27,0,.48,.08,.64,.23Z" style="fill:#fff;"/><path d="M397.33,520.5v-.31h.25v2.55c0,.61-.36,1.05-.99,1.05-.36,0-.55-.1-.8-.32l.17-.17c.19,.18,.32,.27,.63,.27,.5,0,.73-.36,.73-.84v-.43c-.21,.28-.44,.34-.72,.34-.25,0-.47-.08-.59-.21-.25-.25-.31-.65-.31-1.03s.06-.78,.31-1.03c.12-.12,.34-.21,.59-.21,.28,0,.5,.06,.72,.34Zm-1.36,.9c0,.5,.09,1.01,.68,1.01s.68-.51,.68-1.01-.09-1.01-.68-1.01-.68,.51-.68,1.01Z" style="fill:#fff;"/><path d="M401.81,519.4l-.18,.17c-.21-.2-.45-.33-.87-.33-.52,0-.83,.28-.83,.74,0,.21,.05,.37,.18,.47,.12,.11,.31,.17,.51,.21l.42,.07c.33,.05,.47,.11,.64,.25,.19,.17,.31,.4,.31,.69,0,.6-.46,.99-1.2,.99-.53,0-.86-.15-1.19-.47l.19-.19c.32,.32,.59,.42,1.01,.42,.57,0,.92-.27,.92-.74,0-.21-.06-.38-.2-.5-.12-.11-.23-.15-.51-.19l-.42-.06c-.27-.04-.48-.12-.64-.26-.18-.16-.28-.38-.28-.66,0-.6,.42-.98,1.11-.98,.44,0,.72,.12,1.03,.39Z" style="fill:#fff;"/><path d="M403.08,520.19h.55v.19h-.55v1.6c0,.26,.12,.4,.37,.4h.18v.23h-.22c-.38,0-.58-.27-.58-.63v-1.59h-.33v-.19h.33v-.77h.25v.77Z" style="fill:#fff;"/><path d="M405.93,520.39l-.19,.18c-.15-.14-.25-.19-.46-.19-.42,0-.65,.34-.65,.73v1.49h-.26v-2.41h.26v.32c.14-.23,.42-.35,.71-.35,.24,0,.41,.05,.58,.23Z" style="fill:#fff;"/><path d="M408.08,521.34v.12h-1.68c0,.62,.27,.95,.79,.95,.29,0,.46-.08,.67-.29l.19,.15c-.25,.25-.47,.37-.87,.37-.67,0-1.03-.43-1.03-1.24s.36-1.24,.97-1.24,.97,.44,.97,1.18Zm-1.59-.54c-.06,.14-.07,.22-.08,.46h1.42c-.01-.23-.02-.31-.08-.46-.1-.26-.34-.41-.62-.41s-.51,.15-.63,.41Z" style="fill:#fff;"/><path d="M410.58,520.95v1.65h-.26v-.24c-.21,.21-.39,.27-.74,.27-.36,0-.56-.06-.71-.22-.11-.12-.17-.29-.17-.47,0-.44,.32-.7,.84-.7h.78v-.27c0-.38-.18-.59-.68-.59-.34,0-.51,.08-.67,.3l-.19-.16c.21-.29,.46-.37,.85-.37,.64,0,.94,.29,.94,.79Zm-1.01,.5c-.41,0-.62,.16-.62,.49s.19,.47,.63,.47c.22,0,.43-.02,.6-.19,.09-.08,.13-.24,.13-.46v-.31h-.75Z" style="fill:#fff;"/><path d="M414.73,520.39c.17,.16,.25,.38,.25,.67v1.54h-.25v-1.5c0-.47-.23-.72-.67-.72s-.68,.26-.68,.68v1.54h-.25v-1.5c0-.47-.23-.72-.67-.72s-.68,.26-.68,.72v1.5h-.25v-2.41h.25v.29c.18-.21,.42-.32,.72-.32,.36,0,.63,.16,.78,.44,.18-.29,.46-.44,.82-.44,.27,0,.48,.08,.64,.23Z" style="fill:#fff;"/></g></g><circle cx="314.12" cy="372.69" r="22" style="fill:#fff;"/><g><g><path d="M286.79,403.31l-.58,.58c-.37-.36-.81-.47-1.33-.47-.71,0-1.09,.39-1.09,.94,0,.22,.06,.42,.22,.56,.15,.13,.33,.22,.66,.27l.72,.11c.55,.08,.86,.21,1.12,.45,.32,.3,.49,.71,.49,1.24,0,1.11-.9,1.77-2.17,1.77-.91,0-1.55-.21-2.13-.8l.6-.6c.44,.44,.94,.58,1.55,.58,.8,0,1.25-.34,1.25-.93,0-.27-.07-.48-.24-.63-.15-.14-.36-.21-.66-.25l-.71-.1c-.49-.08-.87-.23-1.13-.48-.3-.27-.45-.66-.45-1.16,0-1.05,.76-1.76,2.02-1.76,.8,0,1.36,.2,1.87,.69Z" style="fill:#fff;"/><path d="M292.67,408.71h-.97l-.42-1.21h-2.38l-.42,1.21h-.97l2.21-6.03h.74l2.21,6.03Zm-3.51-1.99h1.85l-.93-2.68-.92,2.68Z" style="fill:#fff;"/><path d="M295.81,402.68c1.18,0,1.93,.78,1.93,1.83s-.75,1.82-1.93,1.82h-1.37v2.38h-.92v-6.03h2.29Zm-1.37,.82v2.01h1.32c.64,0,1.07-.36,1.07-1s-.42-1.01-1.07-1.01h-1.32Z" style="fill:#fff;"/><path d="M304.99,404.48h-.93c-.13-.62-.55-1.03-1.22-1.03-.37,0-.67,.13-.89,.36-.3,.32-.36,.69-.36,1.88s.06,1.56,.36,1.88c.22,.24,.52,.36,.89,.36,.67,0,1.08-.42,1.22-1.03h.93c-.21,1.19-1.05,1.85-2.15,1.85-.66,0-1.17-.22-1.56-.61-.58-.59-.61-1.19-.61-2.46s.03-1.86,.61-2.46c.39-.39,.9-.61,1.56-.61,1.11,0,1.94,.66,2.15,1.85Z" style="fill:#fff;"/><path d="M308.9,404.87c.41,.42,.51,.96,.51,1.68s-.1,1.27-.51,1.69c-.28,.29-.7,.51-1.29,.51s-1-.22-1.28-.51c-.41-.42-.51-.97-.51-1.69s.1-1.26,.51-1.68c.28-.29,.69-.51,1.28-.51s1.01,.22,1.29,.51Zm-1.91,.51c-.26,.26-.3,.71-.3,1.18s.03,.92,.3,1.18c.16,.16,.37,.25,.63,.25s.47-.09,.63-.25c.26-.26,.3-.71,.3-1.18s-.03-.91-.3-1.18c-.16-.16-.38-.25-.63-.25s-.47,.08-.63,.25Z" style="fill:#fff;"/><path d="M316.22,404.75c.33,.32,.46,.73,.46,1.21v2.74h-.86v-2.62c0-.67-.38-.96-.86-.96s-.89,.3-.89,.92v2.66h-.86v-2.62c0-.67-.38-.96-.86-.96s-.89,.3-.89,.96v2.62h-.86v-4.29h.85v.43c.29-.31,.71-.48,1.14-.48,.53,0,.95,.21,1.22,.63,.35-.42,.78-.63,1.35-.63,.44,0,.83,.14,1.08,.39Z" style="fill:#fff;"/><path d="M323.65,404.75c.33,.32,.46,.73,.46,1.21v2.74h-.86v-2.62c0-.67-.38-.96-.86-.96s-.89,.3-.89,.92v2.66h-.86v-2.62c0-.67-.38-.96-.86-.96s-.89,.3-.89,.96v2.62h-.86v-4.29h.85v.43c.29-.31,.71-.48,1.14-.48,.53,0,.95,.21,1.22,.63,.35-.42,.78-.63,1.35-.63,.44,0,.83,.14,1.08,.39Z" style="fill:#fff;"/><path d="M326.08,406.81c0,.75,.38,1.2,1.09,1.2,.48,0,.74-.14,1.04-.44l.55,.52c-.44,.44-.86,.67-1.61,.67-1.07,0-1.93-.57-1.93-2.2,0-1.4,.72-2.19,1.82-2.19s1.82,.83,1.82,2.08v.36h-2.79Zm1.81-1.19c-.14-.32-.44-.54-.85-.54s-.71,.22-.86,.54c-.08,.19-.1,.32-.11,.58h1.93c-.02-.26-.03-.4-.12-.58Z" style="fill:#fff;"/><path d="M333.04,404.77l-.65,.65c-.19-.19-.35-.29-.64-.29-.47,0-.86,.37-.86,.97v2.61h-.86v-4.29h.85v.47c.22-.3,.66-.52,1.14-.52,.41,0,.73,.11,1.02,.41Z" style="fill:#fff;"/><path d="M336.61,404.96l-.59,.58c-.27-.3-.48-.41-.82-.41s-.61,.14-.79,.38c-.19,.24-.25,.54-.25,1.04s.07,.81,.25,1.05c.19,.25,.46,.38,.79,.38s.55-.11,.82-.41l.59,.57c-.41,.43-.82,.61-1.42,.61-.96,0-1.91-.59-1.91-2.2s.95-2.19,1.91-2.19c.59,0,1.01,.17,1.42,.6Z" style="fill:#fff;"/><path d="M338.12,406.81c0,.75,.38,1.2,1.09,1.2,.48,0,.74-.14,1.04-.44l.55,.52c-.44,.44-.86,.67-1.61,.67-1.07,0-1.93-.57-1.93-2.2,0-1.4,.72-2.19,1.82-2.19s1.82,.83,1.82,2.08v.36h-2.79Zm1.81-1.19c-.14-.32-.44-.54-.85-.54s-.71,.22-.86,.54c-.08,.19-.1,.32-.11,.58h1.93c-.02-.26-.03-.4-.12-.58Z" style="fill:#fff;"/></g><g><path d="M279.34,414.69h-1.07v3.32h-.27v-3.32h-1.06v-.24h2.4v.24Z" style="fill:#fff;"/><path d="M280.23,415.89c.18-.21,.42-.32,.71-.32s.53,.09,.69,.28c.14,.16,.21,.37,.21,.63v1.54h-.25v-1.5c0-.47-.23-.72-.67-.72s-.68,.25-.68,.72v1.5h-.25v-3.56h.25v1.44Z" style="fill:#fff;"/><path d="M284.56,416.75v.12h-1.68c0,.62,.27,.95,.79,.95,.29,0,.46-.08,.67-.29l.19,.15c-.24,.25-.47,.37-.87,.37-.66,0-1.03-.43-1.03-1.24s.36-1.24,.97-1.24,.96,.44,.96,1.18Zm-1.59-.54c-.06,.14-.07,.22-.08,.46h1.42c-.01-.23-.02-.31-.08-.46-.11-.26-.35-.41-.62-.41s-.51,.15-.63,.41Z" style="fill:#fff;"/><path d="M288.24,415.83l-.17,.17c-.19-.14-.41-.21-.68-.21-.4,0-.62,.17-.62,.47,0,.25,.15,.37,.49,.41l.39,.04c.4,.04,.71,.16,.71,.63,0,.44-.37,.72-.96,.72-.42,0-.73-.11-.98-.35l.18-.17c.18,.2,.45,.29,.79,.29,.48,0,.73-.17,.73-.49,0-.26-.14-.38-.46-.41l-.4-.04c-.48-.04-.72-.25-.72-.63,0-.42,.34-.69,.87-.69,.34,0,.63,.09,.85,.25Z" style="fill:#fff;"/><path d="M289.56,418.73c-.04,.13-.1,.23-.17,.28-.12,.12-.29,.16-.46,.16h-.12v-.23h.09c.28,0,.36-.09,.44-.33l.21-.6-.88-2.41h.28l.72,2.11,.73-2.11h.28l-1.14,3.13Z" style="fill:#fff;"/><path d="M292.81,415.83l-.17,.17c-.19-.14-.41-.21-.68-.21-.4,0-.62,.17-.62,.47,0,.25,.15,.37,.49,.41l.39,.04c.4,.04,.71,.16,.71,.63,0,.44-.37,.72-.96,.72-.42,0-.73-.11-.98-.35l.18-.17c.18,.2,.45,.29,.79,.29,.48,0,.73-.17,.73-.49,0-.26-.14-.38-.46-.41l-.4-.04c-.48-.04-.72-.25-.72-.63,0-.42,.34-.69,.87-.69,.34,0,.63,.09,.85,.25Z" style="fill:#fff;"/><path d="M293.97,415.6h.54v.19h-.54v1.6c0,.26,.12,.4,.37,.4h.18v.23h-.22c-.38,0-.58-.27-.58-.63v-1.59h-.33v-.19h.33v-.77h.26v.77Z" style="fill:#fff;"/><path d="M297.04,416.75v.12h-1.68c0,.62,.27,.95,.79,.95,.29,0,.46-.08,.66-.29l.19,.15c-.25,.25-.47,.37-.87,.37-.67,0-1.03-.43-1.03-1.24s.36-1.24,.96-1.24,.97,.44,.97,1.18Zm-1.59-.54c-.07,.14-.07,.22-.09,.46h1.42c-.02-.23-.02-.31-.09-.46-.1-.26-.34-.41-.62-.41s-.51,.15-.62,.41Z" style="fill:#fff;"/><path d="M301.08,415.8c.16,.16,.25,.38,.25,.67v1.54h-.25v-1.5c0-.47-.23-.72-.67-.72s-.68,.26-.68,.68v1.54h-.25v-1.5c0-.47-.23-.72-.67-.72s-.68,.26-.68,.72v1.5h-.25v-2.41h.25v.29c.18-.21,.42-.32,.72-.32,.36,0,.63,.16,.78,.44,.18-.29,.46-.44,.82-.44,.27,0,.48,.08,.64,.23Z" style="fill:#fff;"/><path d="M303.83,414.77h-.32v-.32h.32v.32Zm-.03,3.25h-.25v-2.41h.25v2.41Z" style="fill:#fff;"/><path d="M306.37,415.8c.17,.16,.25,.38,.25,.67v1.54h-.25v-1.5c0-.47-.23-.72-.67-.72s-.68,.26-.68,.72v1.5h-.25v-2.41h.25v.29c.18-.21,.42-.32,.71-.32,.27,0,.48,.08,.64,.23Z" style="fill:#fff;"/><path d="M309.28,415.94l-.18,.16c-.21-.23-.37-.3-.62-.3-.28,0-.49,.1-.64,.32-.12,.17-.16,.37-.16,.69s.04,.52,.16,.69c.15,.21,.37,.32,.64,.32,.26,0,.42-.08,.62-.3l.18,.16c-.26,.29-.47,.37-.8,.37-.66,0-1.06-.47-1.06-1.24s.4-1.24,1.06-1.24c.33,0,.54,.08,.8,.37Z" style="fill:#fff;"/><path d="M310.27,417.38c0,.28,.09,.41,.37,.41h.18v.23h-.22c-.4,0-.58-.25-.58-.63v-2.94h.25v2.93Z" style="fill:#fff;"/><path d="M313.29,418.01h-.26v-.29c-.18,.21-.42,.32-.71,.32-.27,0-.48-.08-.64-.23-.17-.16-.25-.39-.25-.67v-1.54h.26v1.5c0,.47,.23,.72,.66,.72s.68-.26,.68-.72v-1.5h.26v2.41Z" style="fill:#fff;"/><path d="M315.99,418.01h-.26v-.31c-.21,.28-.44,.34-.71,.34-.26,0-.47-.08-.59-.21-.24-.25-.31-.65-.31-1.03s.06-.78,.31-1.03c.12-.12,.34-.21,.59-.21,.28,0,.5,.06,.71,.34v-1.46h.26v3.56Zm-1.62-1.21c0,.5,.09,1.01,.68,1.01s.68-.51,.68-1.01-.09-1.01-.68-1.01-.68,.51-.68,1.01Z" style="fill:#fff;"/><path d="M318.75,416.75v.12h-1.68c0,.62,.27,.95,.79,.95,.29,0,.46-.08,.67-.29l.19,.15c-.24,.25-.47,.37-.87,.37-.66,0-1.03-.43-1.03-1.24s.36-1.24,.97-1.24,.96,.44,.96,1.18Zm-1.59-.54c-.06,.14-.07,.22-.08,.46h1.42c-.01-.23-.02-.31-.08-.46-.11-.26-.35-.41-.62-.41s-.51,.15-.63,.41Z" style="fill:#fff;"/><path d="M321.16,415.83l-.17,.17c-.19-.14-.41-.21-.68-.21-.4,0-.62,.17-.62,.47,0,.25,.15,.37,.49,.41l.39,.04c.4,.04,.71,.16,.71,.63,0,.44-.37,.72-.96,.72-.42,0-.73-.11-.98-.35l.18-.17c.18,.2,.45,.29,.79,.29,.48,0,.73-.17,.73-.49,0-.26-.14-.38-.46-.41l-.4-.04c-.48-.04-.72-.25-.72-.63,0-.42,.34-.69,.87-.69,.34,0,.63,.09,.85,.25Z" style="fill:#fff;"/><path d="M323.64,415.6h.55v.19h-.55v1.6c0,.26,.12,.4,.37,.4h.18v.23h-.22c-.38,0-.58-.27-.58-.63v-1.59h-.33v-.19h.33v-.77h.25v.77Z" style="fill:#fff;"/><path d="M325.2,415.89c.18-.21,.42-.32,.71-.32s.53,.09,.69,.28c.14,.16,.21,.37,.21,.63v1.54h-.25v-1.5c0-.47-.23-.72-.67-.72s-.68,.25-.68,.72v1.5h-.25v-3.56h.25v1.44Z" style="fill:#fff;"/><path d="M329.53,416.75v.12h-1.68c0,.62,.27,.95,.79,.95,.29,0,.46-.08,.67-.29l.19,.15c-.24,.25-.47,.37-.87,.37-.66,0-1.03-.43-1.03-1.24s.36-1.24,.97-1.24,.96,.44,.96,1.18Zm-1.59-.54c-.06,.14-.07,.22-.08,.46h1.42c-.01-.23-.02-.31-.08-.46-.11-.26-.35-.41-.62-.41s-.51,.15-.63,.41Z" style="fill:#fff;"/><path d="M333.86,414.69h-1.89v1.47h1.61v.24h-1.61v1.62h-.27v-3.56h2.16v.24Z" style="fill:#fff;"/><path d="M334.76,417.38c0,.28,.09,.41,.37,.41h.18v.23h-.22c-.4,0-.58-.25-.58-.63v-2.94h.25v2.93Z" style="fill:#fff;"/><path d="M337.69,416.75v.12h-1.68c0,.62,.27,.95,.79,.95,.29,0,.46-.08,.67-.29l.19,.15c-.24,.25-.47,.37-.87,.37-.66,0-1.03-.43-1.03-1.24s.36-1.24,.97-1.24,.96,.44,.96,1.18Zm-1.59-.54c-.06,.14-.07,.22-.08,.46h1.42c-.01-.23-.02-.31-.08-.46-.11-.26-.35-.41-.62-.41s-.51,.15-.63,.41Z" style="fill:#fff;"/><path d="M340.13,415.8c.16,.16,.25,.38,.25,.67v1.54h-.26v-1.5c0-.47-.23-.72-.67-.72s-.68,.26-.68,.72v1.5h-.26v-2.41h.26v.29c.18-.21,.42-.32,.71-.32,.27,0,.48,.08,.64,.23Z" style="fill:#fff;"/><path d="M343.05,418.01h-.26v-.31c-.21,.28-.44,.34-.71,.34-.26,0-.47-.08-.59-.21-.24-.25-.31-.65-.31-1.03s.06-.78,.31-1.03c.12-.12,.34-.21,.59-.21,.28,0,.5,.06,.71,.34v-1.46h.26v3.56Zm-1.62-1.21c0,.5,.09,1.01,.68,1.01s.68-.51,.68-1.01-.09-1.01-.68-1.01-.68,.51-.68,1.01Z" style="fill:#fff;"/><path d="M345.81,416.75v.12h-1.68c0,.62,.27,.95,.79,.95,.29,0,.46-.08,.67-.29l.19,.15c-.24,.25-.47,.37-.87,.37-.66,0-1.03-.43-1.03-1.24s.36-1.24,.97-1.24,.96,.44,.96,1.18Zm-1.59-.54c-.06,.14-.07,.22-.08,.46h1.42c-.01-.23-.02-.31-.08-.46-.11-.26-.35-.41-.62-.41s-.51,.15-.63,.41Z" style="fill:#fff;"/><path d="M348.18,415.8l-.19,.18c-.15-.14-.26-.19-.46-.19-.42,0-.65,.34-.65,.73v1.49h-.26v-2.41h.26v.32c.14-.23,.42-.35,.71-.35,.24,0,.41,.05,.58,.23Z" style="fill:#fff;"/><path d="M275.51,424.01h-.26l-.68-2.13-.68,2.13h-.26l-.78-2.41h.28l.62,2.11,.68-2.11h.26l.68,2.11,.62-2.11h.28l-.78,2.41Z" style="fill:#fff;"/><path d="M278.61,422.75v.12h-1.68c0,.62,.27,.95,.79,.95,.29,0,.46-.08,.67-.29l.19,.15c-.24,.25-.47,.37-.87,.37-.66,0-1.03-.43-1.03-1.24s.36-1.24,.97-1.24,.96,.44,.96,1.18Zm-1.59-.54c-.06,.14-.07,.22-.08,.46h1.42c-.01-.23-.02-.31-.08-.46-.11-.26-.35-.41-.62-.41s-.51,.15-.63,.41Z" style="fill:#fff;"/><path d="M279.69,421.91c.21-.28,.44-.34,.71-.34,.26,0,.47,.08,.59,.21,.24,.25,.31,.65,.31,1.03s-.07,.78-.31,1.03c-.12,.12-.34,.21-.59,.21-.28,0-.5-.06-.71-.34v.31h-.26v-3.56h.26v1.46Zm0,.9c0,.5,.09,1.01,.68,1.01s.68-.51,.68-1.01-.09-1.01-.68-1.01-.68,.51-.68,1.01Z" style="fill:#fff;"/><path d="M283.72,421.83l-.17,.17c-.18-.14-.41-.21-.68-.21-.4,0-.62,.17-.62,.47,0,.25,.15,.37,.49,.41l.39,.04c.4,.04,.71,.16,.71,.63,0,.44-.37,.72-.97,.72-.42,0-.73-.11-.98-.35l.18-.17c.19,.2,.45,.29,.79,.29,.47,0,.72-.17,.72-.49,0-.26-.14-.38-.46-.41l-.4-.04c-.49-.04-.73-.25-.73-.63,0-.42,.34-.69,.87-.69,.34,0,.63,.09,.85,.25Z" style="fill:#fff;"/><path d="M284.86,421.89c.18-.21,.42-.32,.71-.32s.53,.09,.69,.28c.13,.16,.21,.37,.21,.63v1.54h-.26v-1.5c0-.47-.23-.72-.67-.72s-.68,.25-.68,.72v1.5h-.26v-3.56h.26v1.44Z" style="fill:#fff;"/><path d="M288.9,421.84c.26,.25,.3,.62,.3,.97s-.04,.72-.3,.97c-.18,.17-.4,.27-.67,.27s-.5-.09-.67-.27c-.25-.25-.3-.63-.3-.97s.04-.72,.3-.97c.18-.18,.4-.27,.67-.27s.49,.09,.67,.27Zm-1.17,.17c-.2,.2-.21,.53-.21,.81s.02,.61,.21,.81c.14,.13,.31,.21,.5,.21s.37-.07,.5-.21c.2-.2,.21-.53,.21-.81s-.02-.61-.21-.81c-.13-.14-.3-.21-.5-.21s-.37,.07-.5,.21Z" style="fill:#fff;"/><path d="M291.59,421.78c.25,.25,.31,.65,.31,1.03s-.06,.78-.31,1.03c-.12,.12-.33,.21-.59,.21-.28,0-.5-.06-.72-.34v1.46h-.25v-3.56h.25v.31c.22-.28,.44-.34,.72-.34,.26,0,.46,.08,.59,.21Zm-1.31,1.03c0,.5,.09,1.01,.68,1.01s.68-.51,.68-1.01-.09-1.01-.68-1.01-.68,.51-.68,1.01Z" style="fill:#fff;"/><path d="M295.72,421.94l-.17,.16c-.21-.23-.37-.3-.62-.3-.28,0-.5,.1-.64,.32-.12,.17-.17,.37-.17,.69s.04,.52,.17,.69c.14,.21,.37,.32,.64,.32,.25,0,.41-.08,.62-.3l.17,.16c-.25,.29-.46,.37-.79,.37-.66,0-1.06-.47-1.06-1.24s.4-1.24,1.06-1.24c.33,0,.54,.08,.79,.37Z" style="fill:#fff;"/><path d="M298.12,422.36v1.65h-.26v-.24c-.21,.21-.39,.27-.74,.27-.36,0-.55-.06-.71-.22-.12-.12-.17-.29-.17-.47,0-.44,.31-.7,.84-.7h.78v-.27c0-.38-.19-.59-.68-.59-.34,0-.51,.08-.66,.3l-.19-.16c.21-.29,.46-.37,.85-.37,.64,0,.94,.29,.94,.79Zm-1.01,.5c-.41,0-.62,.16-.62,.49s.19,.47,.63,.47c.22,0,.43-.02,.6-.19,.09-.08,.13-.24,.13-.46v-.31h-.75Z" style="fill:#fff;"/><path d="M299.31,423.38c0,.28,.08,.41,.37,.41h.18v.23h-.22c-.39,0-.58-.25-.58-.63v-2.94h.26v2.93Z" style="fill:#fff;"/><path d="M300.75,423.38c0,.28,.09,.41,.37,.41h.18v.23h-.22c-.4,0-.58-.25-.58-.63v-2.94h.25v2.93Z" style="fill:#fff;"/><path d="M303.55,420.87h-.35v-.42l.35-.35v.77Zm.78,0h-.35v-.42l.35-.35v.77Z" style="fill:#fff;"/><path d="M307.52,420.69h-1.89v1.47h1.61v.24h-1.61v1.62h-.27v-3.56h2.16v.24Z" style="fill:#fff;"/><path d="M308.42,423.38c0,.28,.09,.41,.37,.41h.18v.23h-.22c-.4,0-.58-.25-.58-.63v-2.94h.25v2.93Z" style="fill:#fff;"/><path d="M311.35,422.75v.12h-1.68c0,.62,.27,.95,.79,.95,.29,0,.46-.08,.67-.29l.19,.15c-.24,.25-.47,.37-.87,.37-.66,0-1.03-.43-1.03-1.24s.36-1.24,.97-1.24,.96,.44,.96,1.18Zm-1.59-.54c-.06,.14-.07,.22-.08,.46h1.42c-.01-.23-.02-.31-.08-.46-.11-.26-.35-.41-.62-.41s-.51,.15-.63,.41Z" style="fill:#fff;"/><path d="M313.78,421.8c.16,.16,.25,.38,.25,.67v1.54h-.26v-1.5c0-.47-.23-.72-.67-.72s-.68,.26-.68,.72v1.5h-.26v-2.41h.26v.29c.18-.21,.42-.32,.71-.32,.27,0,.48,.08,.64,.23Z" style="fill:#fff;"/><path d="M316.7,424.01h-.26v-.31c-.21,.28-.44,.34-.71,.34-.26,0-.47-.08-.59-.21-.24-.25-.31-.65-.31-1.03s.06-.78,.31-1.03c.12-.12,.34-.21,.59-.21,.28,0,.5,.06,.71,.34v-1.46h.26v3.56Zm-1.62-1.21c0,.5,.09,1.01,.68,1.01s.68-.51,.68-1.01-.09-1.01-.68-1.01-.68,.51-.68,1.01Z" style="fill:#fff;"/><path d="M319.46,422.75v.12h-1.68c0,.62,.27,.95,.79,.95,.29,0,.46-.08,.67-.29l.19,.15c-.24,.25-.47,.37-.87,.37-.66,0-1.03-.43-1.03-1.24s.36-1.24,.97-1.24,.96,.44,.96,1.18Zm-1.59-.54c-.06,.14-.07,.22-.08,.46h1.42c-.01-.23-.02-.31-.08-.46-.11-.26-.35-.41-.62-.41s-.51,.15-.63,.41Z" style="fill:#fff;"/><path d="M321.83,421.8l-.19,.18c-.15-.14-.26-.19-.46-.19-.42,0-.65,.34-.65,.73v1.49h-.26v-2.41h.26v.32c.14-.23,.42-.35,.71-.35,.24,0,.41,.05,.58,.23Z" style="fill:#fff;"/><path d="M326.67,424.01h-.27v-2.94l-1.08,2.18h-.27l-1.1-2.18v2.94h-.27v-3.56h.27l1.24,2.49,1.21-2.49h.27v3.56Z" style="fill:#fff;"/><path d="M329.37,422.36v1.65h-.26v-.24c-.21,.21-.39,.27-.73,.27-.36,0-.56-.06-.71-.22-.12-.12-.18-.29-.18-.47,0-.44,.32-.7,.84-.7h.78v-.27c0-.38-.18-.59-.68-.59-.34,0-.51,.08-.67,.3l-.19-.16c.21-.29,.46-.37,.85-.37,.64,0,.94,.29,.94,.79Zm-1.01,.5c-.41,0-.62,.16-.62,.49s.19,.47,.63,.47c.22,0,.43-.02,.6-.19,.09-.08,.13-.24,.13-.46v-.31h-.75Z" style="fill:#fff;"/><path d="M330.57,423.38c0,.28,.09,.41,.37,.41h.18v.23h-.22c-.4,0-.58-.25-.58-.63v-2.94h.25v2.93Z" style="fill:#fff;"/><path d="M332,423.38c0,.28,.08,.41,.37,.41h.18v.23h-.22c-.39,0-.58-.25-.58-.63v-2.94h.26v2.93Z" style="fill:#fff;"/><path d="M333.23,420.87l-.35,.35v-.77h.35v.42Zm.78,0l-.35,.35v-.77h.35v.42Z" style="fill:#fff;"/><path d="M337.92,422.36v1.65h-.26v-.24c-.21,.21-.39,.27-.73,.27-.36,0-.56-.06-.71-.22-.12-.12-.18-.29-.18-.47,0-.44,.32-.7,.84-.7h.78v-.27c0-.38-.18-.59-.68-.59-.34,0-.51,.08-.67,.3l-.19-.16c.21-.29,.46-.37,.85-.37,.64,0,.94,.29,.94,.79Zm-1.01,.5c-.41,0-.62,.16-.62,.49s.19,.47,.63,.47c.22,0,.43-.02,.6-.19,.09-.08,.13-.24,.13-.46v-.31h-.75Z" style="fill:#fff;"/><path d="M340.47,421.8c.17,.16,.25,.38,.25,.67v1.54h-.25v-1.5c0-.47-.23-.72-.67-.72s-.68,.26-.68,.72v1.5h-.25v-2.41h.25v.29c.18-.21,.42-.32,.71-.32,.27,0,.48,.08,.64,.23Z" style="fill:#fff;"/><path d="M343.39,424.01h-.25v-.31c-.21,.28-.44,.34-.72,.34-.25,0-.46-.08-.59-.21-.25-.25-.31-.65-.31-1.03s.06-.78,.31-1.03c.12-.12,.34-.21,.59-.21,.28,0,.5,.06,.72,.34v-1.46h.25v3.56Zm-1.62-1.21c0,.5,.09,1.01,.68,1.01s.68-.51,.68-1.01-.09-1.01-.68-1.01-.68,.51-.68,1.01Z" style="fill:#fff;"/><path d="M345.95,421.6h.54v.19h-.54v1.6c0,.26,.12,.4,.37,.4h.18v.23h-.22c-.38,0-.58-.27-.58-.63v-1.59h-.33v-.19h.33v-.77h.26v.77Z" style="fill:#fff;"/><path d="M347.52,421.89c.18-.21,.42-.32,.71-.32s.53,.09,.69,.28c.13,.16,.21,.37,.21,.63v1.54h-.26v-1.5c0-.47-.23-.72-.67-.72s-.68,.25-.68,.72v1.5h-.26v-3.56h.26v1.44Z" style="fill:#fff;"/><path d="M351.85,422.75v.12h-1.68c0,.62,.27,.95,.79,.95,.29,0,.46-.08,.66-.29l.19,.15c-.25,.25-.47,.37-.87,.37-.67,0-1.03-.43-1.03-1.24s.36-1.24,.96-1.24,.97,.44,.97,1.18Zm-1.59-.54c-.07,.14-.07,.22-.09,.46h1.42c-.02-.23-.02-.31-.09-.46-.1-.26-.34-.41-.62-.41s-.51,.15-.62,.41Z" style="fill:#fff;"/><path d="M281.35,430.01h-.26l-.68-2.13-.67,2.13h-.26l-.78-2.41h.28l.62,2.11,.68-2.11h.26l.68,2.11,.62-2.11h.28l-.78,2.41Z" style="fill:#fff;"/><path d="M284.44,428.75v.12h-1.68c0,.62,.27,.95,.79,.95,.29,0,.46-.08,.66-.29l.19,.15c-.25,.25-.47,.37-.87,.37-.67,0-1.03-.43-1.03-1.24s.36-1.24,.96-1.24,.97,.44,.97,1.18Zm-1.59-.54c-.07,.14-.07,.22-.09,.46h1.42c-.02-.23-.02-.31-.09-.46-.1-.26-.34-.41-.62-.41s-.51,.15-.62,.41Z" style="fill:#fff;"/><path d="M285.52,427.91c.22-.28,.44-.34,.72-.34,.26,0,.46,.08,.59,.21,.25,.25,.31,.65,.31,1.03s-.06,.78-.31,1.03c-.12,.12-.33,.21-.59,.21-.28,0-.5-.06-.72-.34v.31h-.25v-3.56h.25v1.46Zm0,.9c0,.5,.09,1.01,.68,1.01s.68-.51,.68-1.01-.09-1.01-.68-1.01-.68,.51-.68,1.01Z" style="fill:#fff;"/><path d="M289.55,427.83l-.17,.17c-.19-.14-.41-.21-.68-.21-.4,0-.62,.17-.62,.47,0,.25,.15,.37,.49,.41l.39,.04c.4,.04,.71,.16,.71,.63,0,.44-.37,.72-.96,.72-.42,0-.73-.11-.98-.35l.18-.17c.18,.2,.45,.29,.79,.29,.48,0,.73-.17,.73-.49,0-.26-.14-.38-.46-.41l-.4-.04c-.48-.04-.72-.25-.72-.63,0-.42,.34-.69,.87-.69,.34,0,.63,.09,.85,.25Z" style="fill:#fff;"/><path d="M290.73,426.77h-.32v-.32h.32v.32Zm-.03,3.25h-.25v-2.41h.25v2.41Z" style="fill:#fff;"/><path d="M291.98,427.6h.55v.19h-.55v1.6c0,.26,.12,.4,.37,.4h.18v.23h-.22c-.38,0-.58-.27-.58-.63v-1.59h-.33v-.19h.33v-.77h.25v.77Z" style="fill:#fff;"/><path d="M295.06,428.75v.12h-1.68c0,.62,.27,.95,.79,.95,.29,0,.46-.08,.66-.29l.19,.15c-.25,.25-.47,.37-.87,.37-.67,0-1.03-.43-1.03-1.24s.36-1.24,.96-1.24,.97,.44,.97,1.18Zm-1.59-.54c-.07,.14-.07,.22-.09,.46h1.42c-.02-.23-.02-.31-.09-.46-.1-.26-.34-.41-.62-.41s-.51,.15-.62,.41Z" style="fill:#fff;"/><path d="M297.47,427.83l-.17,.17c-.18-.14-.41-.21-.68-.21-.4,0-.62,.17-.62,.47,0,.25,.15,.37,.49,.41l.39,.04c.4,.04,.71,.16,.71,.63,0,.44-.37,.72-.97,.72-.42,0-.73-.11-.98-.35l.18-.17c.19,.2,.45,.29,.79,.29,.47,0,.72-.17,.72-.49,0-.26-.14-.38-.46-.41l-.4-.04c-.49-.04-.73-.25-.73-.63,0-.42,.34-.69,.87-.69,.34,0,.63,.09,.85,.25Z" style="fill:#fff;"/><path d="M301.86,430.01h-.26l-.68-2.13-.68,2.13h-.26l-.78-2.41h.28l.62,2.11,.68-2.11h.26l.68,2.11,.62-2.11h.28l-.78,2.41Z" style="fill:#fff;"/><path d="M305.42,430.01h-.26l-.68-2.13-.67,2.13h-.26l-.78-2.41h.28l.62,2.11,.68-2.11h.26l.68,2.11,.62-2.11h.28l-.78,2.41Z" style="fill:#fff;"/><path d="M308.98,430.01h-.26l-.68-2.13-.68,2.13h-.26l-.78-2.41h.28l.62,2.11,.68-2.11h.26l.68,2.11,.62-2.11h.28l-.78,2.41Z" style="fill:#fff;"/><path d="M310.47,430.01h-.37v-.37h.37v.37Z" style="fill:#fff;"/><path d="M312.31,426.68h-.18c-.26,0-.37,.14-.37,.4v.53h.55v.19h-.55v2.22h-.25v-2.22h-.33v-.19h.33v-.52c0-.37,.2-.63,.58-.63h.22v.23Z" style="fill:#fff;"/><path d="M313.19,429.38c0,.28,.08,.41,.37,.41h.18v.23h-.22c-.39,0-.58-.25-.58-.63v-2.94h.26v2.93Z" style="fill:#fff;"/><path d="M316.13,428.75v.12h-1.68c0,.62,.27,.95,.79,.95,.29,0,.46-.08,.66-.29l.19,.15c-.25,.25-.47,.37-.87,.37-.67,0-1.03-.43-1.03-1.24s.36-1.24,.96-1.24,.97,.44,.97,1.18Zm-1.59-.54c-.07,.14-.07,.22-.09,.46h1.42c-.02-.23-.02-.31-.09-.46-.1-.26-.34-.41-.62-.41s-.51,.15-.62,.41Z" style="fill:#fff;"/><path d="M318.56,427.8c.17,.16,.25,.38,.25,.67v1.54h-.25v-1.5c0-.47-.23-.72-.67-.72s-.68,.26-.68,.72v1.5h-.25v-2.41h.25v.29c.18-.21,.42-.32,.71-.32,.27,0,.48,.08,.64,.23Z" style="fill:#fff;"/><path d="M321.48,430.01h-.25v-.31c-.21,.28-.44,.34-.72,.34-.25,0-.46-.08-.59-.21-.25-.25-.31-.65-.31-1.03s.06-.78,.31-1.03c.12-.12,.34-.21,.59-.21,.28,0,.5,.06,.72,.34v-1.46h.25v3.56Zm-1.62-1.21c0,.5,.09,1.01,.68,1.01s.68-.51,.68-1.01-.09-1.01-.68-1.01-.68,.51-.68,1.01Z" style="fill:#fff;"/><path d="M324.24,428.75v.12h-1.68c0,.62,.27,.95,.79,.95,.29,0,.46-.08,.66-.29l.19,.15c-.25,.25-.47,.37-.87,.37-.67,0-1.03-.43-1.03-1.24s.36-1.24,.96-1.24,.97,.44,.97,1.18Zm-1.59-.54c-.07,.14-.07,.22-.09,.46h1.42c-.02-.23-.02-.31-.09-.46-.1-.26-.34-.41-.62-.41s-.51,.15-.62,.41Z" style="fill:#fff;"/><path d="M326.61,427.8l-.19,.18c-.14-.14-.25-.19-.46-.19-.42,0-.65,.34-.65,.73v1.49h-.25v-2.41h.25v.32c.14-.23,.42-.35,.71-.35,.23,0,.4,.05,.58,.23Z" style="fill:#fff;"/><path d="M327.07,430.01h-.37v-.37h.37v.37Z" style="fill:#fff;"/><path d="M329.75,427.94l-.18,.16c-.21-.23-.37-.3-.62-.3-.28,0-.49,.1-.64,.32-.12,.17-.16,.37-.16,.69s.04,.52,.16,.69c.15,.21,.37,.32,.64,.32,.26,0,.42-.08,.62-.3l.18,.16c-.26,.29-.47,.37-.8,.37-.66,0-1.06-.47-1.06-1.24s.4-1.24,1.06-1.24c.33,0,.54,.08,.8,.37Z" style="fill:#fff;"/><path d="M331.93,427.84c.25,.25,.3,.62,.3,.97s-.04,.72-.3,.97c-.18,.17-.4,.27-.67,.27s-.5-.09-.67-.27c-.26-.25-.3-.63-.3-.97s.04-.72,.3-.97c.17-.18,.4-.27,.67-.27s.5,.09,.67,.27Zm-1.17,.17c-.2,.2-.21,.53-.21,.81s.01,.61,.21,.81c.13,.13,.3,.21,.5,.21s.37-.07,.5-.21c.2-.2,.22-.53,.22-.81s-.02-.61-.22-.81c-.13-.14-.3-.21-.5-.21s-.37,.07-.5,.21Z" style="fill:#fff;"/><path d="M336.26,427.8c.17,.16,.26,.38,.26,.67v1.54h-.26v-1.5c0-.47-.23-.72-.67-.72s-.68,.26-.68,.68v1.54h-.26v-1.5c0-.47-.23-.72-.67-.72s-.68,.26-.68,.72v1.5h-.26v-2.41h.26v.29c.18-.21,.42-.32,.71-.32,.36,0,.63,.16,.78,.44,.18-.29,.46-.44,.82-.44,.27,0,.48,.08,.63,.23Z" style="fill:#fff;"/><path d="M340.4,428.36v1.65h-.26v-.24c-.21,.21-.39,.27-.73,.27-.36,0-.56-.06-.71-.22-.12-.12-.18-.29-.18-.47,0-.44,.32-.7,.84-.7h.78v-.27c0-.38-.18-.59-.68-.59-.34,0-.51,.08-.67,.3l-.19-.16c.21-.29,.46-.37,.85-.37,.64,0,.94,.29,.94,.79Zm-1.01,.5c-.41,0-.62,.16-.62,.49s.19,.47,.63,.47c.22,0,.43-.02,.6-.19,.09-.08,.13-.24,.13-.46v-.31h-.75Z" style="fill:#fff;"/><path d="M342.95,427.8c.17,.16,.25,.38,.25,.67v1.54h-.25v-1.5c0-.47-.23-.72-.67-.72s-.68,.26-.68,.72v1.5h-.25v-2.41h.25v.29c.18-.21,.42-.32,.71-.32,.27,0,.48,.08,.64,.23Z" style="fill:#fff;"/><path d="M345.87,430.01h-.25v-.31c-.21,.28-.44,.34-.72,.34-.25,0-.46-.08-.59-.21-.25-.25-.31-.65-.31-1.03s.06-.78,.31-1.03c.12-.12,.34-.21,.59-.21,.28,0,.5,.06,.72,.34v-1.46h.25v3.56Zm-1.62-1.21c0,.5,.09,1.01,.68,1.01s.68-.51,.68-1.01-.09-1.01-.68-1.01-.68,.51-.68,1.01Z" style="fill:#fff;"/><path d="M288.08,436.01h-.26l-.68-2.13-.67,2.13h-.26l-.78-2.41h.28l.62,2.11,.68-2.11h.26l.68,2.11,.62-2.11h.28l-.78,2.41Z" style="fill:#fff;"/><path d="M291.64,436.01h-.26l-.68-2.13-.68,2.13h-.26l-.78-2.41h.28l.62,2.11,.68-2.11h.26l.68,2.11,.62-2.11h.28l-.78,2.41Z" style="fill:#fff;"/><path d="M295.2,436.01h-.26l-.68-2.13-.67,2.13h-.26l-.78-2.41h.28l.62,2.11,.68-2.11h.26l.68,2.11,.62-2.11h.28l-.78,2.41Z" style="fill:#fff;"/><path d="M296.69,436.01h-.37v-.37h.37v.37Z" style="fill:#fff;"/><path d="M299.88,436.01h-.26l-.68-2.13-.67,2.13h-.26l-.78-2.41h.28l.62,2.11,.68-2.11h.26l.68,2.11,.62-2.11h.28l-.78,2.41Z" style="fill:#fff;"/><path d="M301.49,432.77h-.31v-.32h.31v.32Zm-.03,3.25h-.26v-2.41h.26v2.41Z" style="fill:#fff;"/><path d="M304.04,433.8c.16,.16,.25,.38,.25,.67v1.54h-.26v-1.5c0-.47-.23-.72-.67-.72s-.68,.26-.68,.72v1.5h-.26v-2.41h.26v.29c.18-.21,.42-.32,.71-.32,.27,0,.48,.08,.64,.23Z" style="fill:#fff;"/><path d="M307.02,434.75v.12h-1.68c0,.62,.27,.95,.79,.95,.29,0,.46-.08,.66-.29l.19,.15c-.25,.25-.47,.37-.87,.37-.67,0-1.03-.43-1.03-1.24s.36-1.24,.96-1.24,.97,.44,.97,1.18Zm-1.59-.54c-.07,.14-.07,.22-.09,.46h1.42c-.02-.23-.02-.31-.09-.46-.1-.26-.34-.41-.62-.41s-.51,.15-.62,.41Z" style="fill:#fff;"/><path d="M309.39,433.8l-.19,.18c-.14-.14-.25-.19-.46-.19-.42,0-.65,.34-.65,.73v1.49h-.25v-2.41h.25v.32c.14-.23,.42-.35,.71-.35,.23,0,.4,.05,.58,.23Z" style="fill:#fff;"/><path d="M311.22,433.91v-.31h.26v2.55c0,.61-.36,1.05-.99,1.05-.36,0-.54-.1-.79-.32l.17-.17c.19,.18,.32,.27,.62,.27,.51,0,.73-.36,.73-.84v-.43c-.21,.28-.44,.34-.71,.34-.26,0-.47-.08-.59-.21-.24-.25-.31-.65-.31-1.03s.06-.78,.31-1.03c.12-.12,.34-.21,.59-.21,.28,0,.5,.06,.71,.34Zm-1.36,.9c0,.5,.09,1.01,.68,1.01s.68-.51,.68-1.01-.09-1.01-.68-1.01-.68,.51-.68,1.01Z" style="fill:#fff;"/><path d="M312.9,436.73c-.04,.13-.1,.23-.17,.28-.12,.12-.29,.16-.46,.16h-.12v-.23h.09c.28,0,.36-.09,.44-.33l.21-.6-.88-2.41h.28l.72,2.11,.73-2.11h.28l-1.14,3.13Z" style="fill:#fff;"/><path d="M315.76,434.81h-1.31v-.24h1.31v.24Z" style="fill:#fff;"/><path d="M318.13,433.91v-.31h.25v2.55c0,.61-.36,1.05-.98,1.05-.36,0-.55-.1-.8-.32l.17-.17c.19,.18,.32,.27,.63,.27,.5,0,.73-.36,.73-.84v-.43c-.21,.28-.44,.34-.72,.34-.25,0-.46-.08-.59-.21-.25-.25-.31-.65-.31-1.03s.06-.78,.31-1.03c.12-.12,.34-.21,.59-.21,.28,0,.5,.06,.72,.34Zm-1.36,.9c0,.5,.09,1.01,.68,1.01s.68-.51,.68-1.01-.09-1.01-.68-1.01-.68,.51-.68,1.01Z" style="fill:#fff;"/><path d="M320.89,433.8l-.19,.18c-.15-.14-.26-.19-.46-.19-.42,0-.65,.34-.65,.73v1.49h-.26v-2.41h.26v.32c.14-.23,.42-.35,.71-.35,.24,0,.41,.05,.58,.23Z" style="fill:#fff;"/><path d="M322.75,433.84c.26,.25,.3,.62,.3,.97s-.04,.72-.3,.97c-.18,.17-.4,.27-.67,.27s-.5-.09-.67-.27c-.25-.25-.3-.63-.3-.97s.04-.72,.3-.97c.18-.18,.4-.27,.67-.27s.49,.09,.67,.27Zm-1.17,.17c-.2,.2-.21,.53-.21,.81s.02,.61,.21,.81c.14,.13,.31,.21,.5,.21s.37-.07,.5-.21c.2-.2,.21-.53,.21-.81s-.02-.61-.21-.81c-.13-.14-.3-.21-.5-.21s-.37,.07-.5,.21Z" style="fill:#fff;"/><path d="M325.7,436.01h-.26v-.29c-.18,.21-.41,.32-.71,.32-.27,0-.48-.08-.64-.23-.17-.16-.25-.39-.25-.67v-1.54h.26v1.5c0,.47,.23,.72,.67,.72s.68-.26,.68-.72v-1.5h.26v2.41Z" style="fill:#fff;"/><path d="M328.23,433.78c.25,.25,.31,.65,.31,1.03s-.06,.78-.31,1.03c-.12,.12-.33,.21-.59,.21-.28,0-.5-.06-.72-.34v1.46h-.25v-3.56h.25v.31c.22-.28,.44-.34,.72-.34,.26,0,.46,.08,.59,.21Zm-1.31,1.03c0,.5,.09,1.01,.68,1.01s.68-.51,.68-1.01-.09-1.01-.68-1.01-.68,.51-.68,1.01Z" style="fill:#fff;"/><path d="M329.73,436.01h-.37v-.37h.37v.37Z" style="fill:#fff;"/><path d="M332.41,433.94l-.17,.16c-.21-.23-.37-.3-.62-.3-.28,0-.5,.1-.64,.32-.12,.17-.17,.37-.17,.69s.04,.52,.17,.69c.14,.21,.37,.32,.64,.32,.25,0,.41-.08,.62-.3l.17,.16c-.25,.29-.46,.37-.79,.37-.66,0-1.06-.47-1.06-1.24s.4-1.24,1.06-1.24c.33,0,.54,.08,.79,.37Z" style="fill:#fff;"/><path d="M334.58,433.84c.25,.25,.3,.62,.3,.97s-.04,.72-.3,.97c-.18,.17-.4,.27-.67,.27s-.5-.09-.67-.27c-.26-.25-.3-.63-.3-.97s.04-.72,.3-.97c.17-.18,.4-.27,.67-.27s.5,.09,.67,.27Zm-1.17,.17c-.2,.2-.21,.53-.21,.81s.01,.61,.21,.81c.13,.13,.3,.21,.5,.21s.37-.07,.5-.21c.2-.2,.22-.53,.22-.81s-.02-.61-.22-.81c-.13-.14-.3-.21-.5-.21s-.37,.07-.5,.21Z" style="fill:#fff;"/><path d="M338.91,433.8c.17,.16,.26,.38,.26,.67v1.54h-.26v-1.5c0-.47-.23-.72-.67-.72s-.68,.26-.68,.68v1.54h-.26v-1.5c0-.47-.23-.72-.67-.72s-.68,.26-.68,.72v1.5h-.26v-2.41h.26v.29c.18-.21,.42-.32,.71-.32,.36,0,.63,.16,.78,.44,.18-.29,.46-.44,.82-.44,.27,0,.48,.08,.63,.23Z" style="fill:#fff;"/><path d="M270.61,438.69h-1.07v3.32h-.27v-3.32h-1.06v-.24h2.4v.24Z" style="fill:#fff;"/><path d="M271.5,439.89c.18-.21,.42-.32,.71-.32s.53,.09,.69,.28c.13,.16,.21,.37,.21,.63v1.54h-.26v-1.5c0-.47-.23-.72-.67-.72s-.68,.25-.68,.72v1.5h-.26v-3.56h.26v1.44Z" style="fill:#fff;"/><path d="M274.33,438.77h-.31v-.32h.31v.32Zm-.03,3.25h-.26v-2.41h.26v2.41Z" style="fill:#fff;"/><path d="M276.85,439.83l-.17,.17c-.19-.14-.41-.21-.68-.21-.4,0-.62,.17-.62,.47,0,.25,.15,.37,.49,.41l.39,.04c.4,.04,.71,.16,.71,.63,0,.44-.37,.72-.96,.72-.42,0-.73-.11-.98-.35l.18-.17c.18,.2,.45,.29,.79,.29,.48,0,.73-.17,.73-.49,0-.26-.14-.38-.46-.41l-.4-.04c-.48-.04-.72-.25-.72-.63,0-.42,.34-.69,.87-.69,.34,0,.63,.09,.85,.25Z" style="fill:#fff;"/><path d="M280.59,439.83l-.17,.17c-.18-.14-.41-.21-.68-.21-.4,0-.62,.17-.62,.47,0,.25,.15,.37,.49,.41l.39,.04c.4,.04,.71,.16,.71,.63,0,.44-.37,.72-.97,.72-.42,0-.73-.11-.98-.35l.18-.17c.19,.2,.45,.29,.79,.29,.47,0,.72-.17,.72-.49,0-.26-.14-.38-.46-.41l-.4-.04c-.49-.04-.73-.25-.73-.63,0-.42,.34-.69,.87-.69,.34,0,.63,.09,.85,.25Z" style="fill:#fff;"/><path d="M281.91,442.73c-.04,.13-.1,.23-.16,.28-.12,.12-.29,.16-.46,.16h-.12v-.23h.1c.28,0,.36-.09,.44-.33l.22-.6-.88-2.41h.28l.73,2.11,.72-2.11h.28l-1.14,3.13Z" style="fill:#fff;"/><path d="M285.16,439.83l-.17,.17c-.18-.14-.41-.21-.68-.21-.4,0-.62,.17-.62,.47,0,.25,.15,.37,.49,.41l.39,.04c.4,.04,.71,.16,.71,.63,0,.44-.37,.72-.97,.72-.42,0-.73-.11-.98-.35l.18-.17c.19,.2,.45,.29,.79,.29,.47,0,.72-.17,.72-.49,0-.26-.14-.38-.46-.41l-.4-.04c-.49-.04-.73-.25-.73-.63,0-.42,.34-.69,.87-.69,.34,0,.63,.09,.85,.25Z" style="fill:#fff;"/><path d="M286.32,439.6h.55v.19h-.55v1.6c0,.26,.12,.4,.37,.4h.18v.23h-.22c-.38,0-.58-.27-.58-.63v-1.59h-.33v-.19h.33v-.77h.25v.77Z" style="fill:#fff;"/><path d="M289.39,440.75v.12h-1.68c0,.62,.27,.95,.79,.95,.29,0,.46-.08,.67-.29l.19,.15c-.24,.25-.47,.37-.87,.37-.66,0-1.03-.43-1.03-1.24s.36-1.24,.97-1.24,.96,.44,.96,1.18Zm-1.59-.54c-.06,.14-.07,.22-.08,.46h1.42c-.01-.23-.02-.31-.08-.46-.11-.26-.35-.41-.62-.41s-.51,.15-.63,.41Z" style="fill:#fff;"/><path d="M293.42,439.8c.17,.16,.26,.38,.26,.67v1.54h-.26v-1.5c0-.47-.23-.72-.67-.72s-.68,.26-.68,.68v1.54h-.26v-1.5c0-.47-.23-.72-.67-.72s-.68,.26-.68,.72v1.5h-.26v-2.41h.26v.29c.18-.21,.42-.32,.71-.32,.36,0,.63,.16,.78,.44,.18-.29,.46-.44,.82-.44,.27,0,.48,.08,.63,.23Z" style="fill:#fff;"/><path d="M296.18,438.77h-.31v-.32h.31v.32Zm-.03,3.25h-.26v-2.41h.26v2.41Z" style="fill:#fff;"/><path d="M298.7,439.83l-.17,.17c-.19-.14-.41-.21-.68-.21-.4,0-.62,.17-.62,.47,0,.25,.15,.37,.49,.41l.39,.04c.4,.04,.71,.16,.71,.63,0,.44-.37,.72-.96,.72-.42,0-.73-.11-.98-.35l.18-.17c.18,.2,.45,.29,.79,.29,.48,0,.73-.17,.73-.49,0-.26-.14-.38-.46-.41l-.4-.04c-.48-.04-.72-.25-.72-.63,0-.42,.34-.69,.87-.69,.34,0,.63,.09,.85,.25Z" style="fill:#fff;"/><path d="M302.42,439.78c.25,.25,.31,.65,.31,1.03s-.06,.78-.31,1.03c-.12,.12-.33,.21-.59,.21-.28,0-.5-.06-.72-.34v1.46h-.25v-3.56h.25v.31c.22-.28,.44-.34,.72-.34,.26,0,.46,.08,.59,.21Zm-1.31,1.03c0,.5,.09,1.01,.68,1.01s.68-.51,.68-1.01-.09-1.01-.68-1.01-.68,.51-.68,1.01Z" style="fill:#fff;"/><path d="M305.1,439.8l-.19,.18c-.15-.14-.26-.19-.46-.19-.42,0-.65,.34-.65,.73v1.49h-.26v-2.41h.26v.32c.14-.23,.42-.35,.71-.35,.24,0,.41,.05,.58,.23Z" style="fill:#fff;"/><path d="M305.89,438.77h-.31v-.32h.31v.32Zm-.03,3.25h-.26v-2.41h.26v2.41Z" style="fill:#fff;"/><path d="M310.03,439.8c.17,.16,.26,.38,.26,.67v1.54h-.26v-1.5c0-.47-.23-.72-.67-.72s-.68,.26-.68,.68v1.54h-.26v-1.5c0-.47-.23-.72-.67-.72s-.68,.26-.68,.72v1.5h-.26v-2.41h.26v.29c.18-.21,.42-.32,.71-.32,.36,0,.63,.16,.78,.44,.18-.29,.46-.44,.82-.44,.27,0,.48,.08,.63,.23Z" style="fill:#fff;"/><path d="M312.9,440.36v1.65h-.26v-.24c-.21,.21-.39,.27-.73,.27-.36,0-.56-.06-.71-.22-.12-.12-.18-.29-.18-.47,0-.44,.32-.7,.84-.7h.78v-.27c0-.38-.18-.59-.68-.59-.34,0-.51,.08-.67,.3l-.19-.16c.21-.29,.46-.37,.85-.37,.64,0,.94,.29,.94,.79Zm-1.01,.5c-.41,0-.62,.16-.62,.49s.19,.47,.63,.47c.22,0,.43-.02,.6-.19,.09-.08,.13-.24,.13-.46v-.31h-.75Z" style="fill:#fff;"/><path d="M315.39,439.8l-.19,.18c-.14-.14-.25-.19-.46-.19-.42,0-.65,.34-.65,.73v1.49h-.25v-2.41h.25v.32c.14-.23,.42-.35,.71-.35,.23,0,.4,.05,.58,.23Z" style="fill:#fff;"/><path d="M316.37,442.73c-.04,.13-.1,.23-.17,.28-.12,.12-.29,.16-.46,.16h-.12v-.23h.09c.28,0,.36-.09,.44-.33l.21-.6-.88-2.41h.28l.72,2.11,.73-2.11h.28l-1.14,3.13Z" style="fill:#fff;"/><path d="M321.07,442.01h-.25v-.31c-.21,.28-.44,.34-.72,.34-.25,0-.46-.08-.59-.21-.25-.25-.31-.65-.31-1.03s.06-.78,.31-1.03c.12-.12,.34-.21,.59-.21,.28,0,.5,.06,.72,.34v-1.46h.25v3.56Zm-1.62-1.21c0,.5,.09,1.01,.68,1.01s.68-.51,.68-1.01-.09-1.01-.68-1.01-.68,.51-.68,1.01Z" style="fill:#fff;"/><path d="M322.33,438.77h-.31v-.32h.31v.32Zm-.03,3.25h-.26v-2.41h.26v2.41Z" style="fill:#fff;"/><path d="M324.74,439.91v-.31h.26v2.55c0,.61-.36,1.05-.99,1.05-.36,0-.54-.1-.79-.32l.17-.17c.19,.18,.32,.27,.62,.27,.51,0,.73-.36,.73-.84v-.43c-.21,.28-.44,.34-.71,.34-.26,0-.47-.08-.59-.21-.24-.25-.31-.65-.31-1.03s.06-.78,.31-1.03c.12-.12,.34-.21,.59-.21,.28,0,.5,.06,.71,.34Zm-1.36,.9c0,.5,.09,1.01,.68,1.01s.68-.51,.68-1.01-.09-1.01-.68-1.01-.68,.51-.68,1.01Z" style="fill:#fff;"/><path d="M326.28,439.6h.55v.19h-.55v1.6c0,.26,.12,.4,.37,.4h.18v.23h-.22c-.38,0-.58-.27-.58-.63v-1.59h-.33v-.19h.33v-.77h.25v.77Z" style="fill:#fff;"/><path d="M327.88,438.77h-.32v-.32h.32v.32Zm-.03,3.25h-.25v-2.41h.25v2.41Z" style="fill:#fff;"/><path d="M330.49,440.36v1.65h-.26v-.24c-.21,.21-.39,.27-.74,.27-.36,0-.55-.06-.71-.22-.12-.12-.17-.29-.17-.47,0-.44,.31-.7,.84-.7h.78v-.27c0-.38-.19-.59-.68-.59-.34,0-.51,.08-.66,.3l-.19-.16c.21-.29,.46-.37,.85-.37,.64,0,.94,.29,.94,.79Zm-1.01,.5c-.41,0-.62,.16-.62,.49s.19,.47,.63,.47c.22,0,.43-.02,.6-.19,.09-.08,.13-.24,.13-.46v-.31h-.75Z" style="fill:#fff;"/><path d="M331.68,441.38c0,.28,.08,.41,.37,.41h.18v.23h-.22c-.39,0-.58-.25-.58-.63v-2.94h.26v2.93Z" style="fill:#fff;"/><path d="M334.46,439.6h.55v.19h-.55v1.6c0,.26,.12,.4,.37,.4h.18v.23h-.22c-.38,0-.58-.27-.58-.63v-1.59h-.33v-.19h.33v-.77h.25v.77Z" style="fill:#fff;"/><path d="M337.25,439.84c.25,.25,.3,.62,.3,.97s-.04,.72-.3,.97c-.18,.17-.4,.27-.67,.27s-.5-.09-.67-.27c-.26-.25-.3-.63-.3-.97s.04-.72,.3-.97c.17-.18,.4-.27,.67-.27s.5,.09,.67,.27Zm-1.17,.17c-.2,.2-.21,.53-.21,.81s.01,.61,.21,.81c.13,.13,.3,.21,.5,.21s.37-.07,.5-.21c.2-.2,.22-.53,.22-.81s-.02-.61-.22-.81c-.13-.14-.3-.21-.5-.21s-.37,.07-.5,.21Z" style="fill:#fff;"/><path d="M340.2,442.01h-.26v-.29c-.18,.21-.42,.32-.71,.32-.27,0-.48-.08-.64-.23-.17-.16-.25-.39-.25-.67v-1.54h.26v1.5c0,.47,.23,.72,.66,.72s.68-.26,.68-.72v-1.5h.26v2.41Z" style="fill:#fff;"/><path d="M342.89,439.94l-.17,.16c-.21-.23-.37-.3-.62-.3-.28,0-.5,.1-.64,.32-.12,.17-.17,.37-.17,.69s.04,.52,.17,.69c.14,.21,.37,.32,.64,.32,.25,0,.41-.08,.62-.3l.17,.16c-.25,.29-.46,.37-.79,.37-.66,0-1.06-.47-1.06-1.24s.4-1.24,1.06-1.24c.33,0,.54,.08,.79,.37Z" style="fill:#fff;"/><path d="M343.89,439.89c.18-.21,.42-.32,.71-.32s.53,.09,.69,.28c.13,.16,.21,.37,.21,.63v1.54h-.26v-1.5c0-.47-.23-.72-.67-.72s-.68,.25-.68,.72v1.5h-.26v-3.56h.26v1.44Z" style="fill:#fff;"/><path d="M347.99,439.78c.24,.25,.31,.65,.31,1.03s-.07,.78-.31,1.03c-.12,.12-.34,.21-.59,.21-.28,0-.5-.06-.71-.34v1.46h-.26v-3.56h.26v.31c.21-.28,.44-.34,.71-.34,.26,0,.47,.08,.59,.21Zm-1.31,1.03c0,.5,.09,1.01,.68,1.01s.68-.51,.68-1.01-.09-1.01-.68-1.01-.68,.51-.68,1.01Z" style="fill:#fff;"/><path d="M350.63,439.84c.25,.25,.3,.62,.3,.97s-.04,.72-.3,.97c-.18,.17-.4,.27-.67,.27s-.5-.09-.67-.27c-.26-.25-.3-.63-.3-.97s.04-.72,.3-.97c.17-.18,.4-.27,.67-.27s.5,.09,.67,.27Zm-1.17,.17c-.2,.2-.21,.53-.21,.81s.01,.61,.21,.81c.13,.13,.3,.21,.5,.21s.37-.07,.5-.21c.2-.2,.22-.53,.22-.81s-.02-.61-.22-.81c-.13-.14-.3-.21-.5-.21s-.37,.07-.5,.21Z" style="fill:#fff;"/><path d="M352.04,438.77h-.31v-.32h.31v.32Zm-.03,3.25h-.26v-2.41h.26v2.41Z" style="fill:#fff;"/><path d="M354.59,439.8c.16,.16,.25,.38,.25,.67v1.54h-.26v-1.5c0-.47-.23-.72-.67-.72s-.68,.26-.68,.72v1.5h-.26v-2.41h.26v.29c.18-.21,.42-.32,.71-.32,.27,0,.48,.08,.64,.23Z" style="fill:#fff;"/><path d="M356.1,439.6h.54v.19h-.54v1.6c0,.26,.12,.4,.37,.4h.18v.23h-.22c-.38,0-.58-.27-.58-.63v-1.59h-.33v-.19h.33v-.77h.26v.77Z" style="fill:#fff;"/><path d="M293.9,448.01h-.26l-.68-2.13-.67,2.13h-.26l-.78-2.41h.28l.62,2.11,.68-2.11h.26l.68,2.11,.62-2.11h.28l-.78,2.41Z" style="fill:#fff;"/><path d="M295.52,444.77h-.31v-.32h.31v.32Zm-.03,3.25h-.26v-2.41h.26v2.41Z" style="fill:#fff;"/><path d="M296.77,445.6h.54v.19h-.54v1.6c0,.26,.12,.4,.37,.4h.18v.23h-.22c-.38,0-.58-.27-.58-.63v-1.59h-.33v-.19h.33v-.77h.26v.77Z" style="fill:#fff;"/><path d="M298.34,445.89c.18-.21,.42-.32,.71-.32s.53,.09,.69,.28c.13,.16,.21,.37,.21,.63v1.54h-.26v-1.5c0-.47-.23-.72-.67-.72s-.68,.25-.68,.72v1.5h-.26v-3.56h.26v1.44Z" style="fill:#fff;"/><path d="M303.65,445.84c.26,.25,.3,.62,.3,.97s-.04,.72-.3,.97c-.18,.17-.4,.27-.67,.27s-.5-.09-.67-.27c-.25-.25-.3-.63-.3-.97s.04-.72,.3-.97c.18-.18,.4-.27,.67-.27s.49,.09,.67,.27Zm-1.17,.17c-.2,.2-.21,.53-.21,.81s.02,.61,.21,.81c.14,.13,.31,.21,.5,.21s.37-.07,.5-.21c.2-.2,.21-.53,.21-.81s-.02-.61-.21-.81c-.13-.14-.3-.21-.5-.21s-.37,.07-.5,.21Z" style="fill:#fff;"/><path d="M306.61,448.01h-.26v-.29c-.18,.21-.41,.32-.71,.32-.27,0-.48-.08-.64-.23-.17-.16-.25-.39-.25-.67v-1.54h.26v1.5c0,.47,.23,.72,.67,.72s.68-.26,.68-.72v-1.5h.26v2.41Z" style="fill:#fff;"/><path d="M309.12,445.8l-.19,.18c-.14-.14-.25-.19-.46-.19-.42,0-.65,.34-.65,.73v1.49h-.25v-2.41h.25v.32c.14-.23,.42-.35,.71-.35,.23,0,.4,.05,.58,.23Z" style="fill:#fff;"/><path d="M312.61,445.94l-.18,.16c-.21-.23-.37-.3-.62-.3-.28,0-.49,.1-.64,.32-.12,.17-.16,.37-.16,.69s.04,.52,.16,.69c.15,.21,.37,.32,.64,.32,.26,0,.42-.08,.62-.3l.18,.16c-.26,.29-.47,.37-.8,.37-.66,0-1.06-.47-1.06-1.24s.4-1.24,1.06-1.24c.33,0,.54,.08,.8,.37Z" style="fill:#fff;"/><path d="M315.19,448.01h-.26v-.29c-.18,.21-.41,.32-.71,.32-.27,0-.48-.08-.64-.23-.17-.16-.25-.39-.25-.67v-1.54h.26v1.5c0,.47,.23,.72,.67,.72s.68-.26,.68-.72v-1.5h.26v2.41Z" style="fill:#fff;"/><path d="M317.74,445.83l-.17,.17c-.18-.14-.41-.21-.68-.21-.4,0-.62,.17-.62,.47,0,.25,.15,.37,.49,.41l.39,.04c.4,.04,.71,.16,.71,.63,0,.44-.37,.72-.97,.72-.42,0-.73-.11-.98-.35l.18-.17c.19,.2,.45,.29,.79,.29,.47,0,.72-.17,.72-.49,0-.26-.14-.38-.46-.41l-.4-.04c-.49-.04-.73-.25-.73-.63,0-.42,.34-.69,.87-.69,.34,0,.63,.09,.85,.25Z" style="fill:#fff;"/><path d="M318.89,445.6h.55v.19h-.55v1.6c0,.26,.12,.4,.37,.4h.18v.23h-.22c-.38,0-.58-.27-.58-.63v-1.59h-.33v-.19h.33v-.77h.25v.77Z" style="fill:#fff;"/><path d="M321.68,445.84c.25,.25,.3,.62,.3,.97s-.04,.72-.3,.97c-.18,.17-.4,.27-.67,.27s-.5-.09-.67-.27c-.26-.25-.3-.63-.3-.97s.04-.72,.3-.97c.17-.18,.4-.27,.67-.27s.5,.09,.67,.27Zm-1.17,.17c-.2,.2-.21,.53-.21,.81s.01,.61,.21,.81c.13,.13,.3,.21,.5,.21s.37-.07,.5-.21c.2-.2,.22-.53,.22-.81s-.02-.61-.22-.81c-.13-.14-.3-.21-.5-.21s-.37,.07-.5,.21Z" style="fill:#fff;"/><path d="M326.01,445.8c.17,.16,.26,.38,.26,.67v1.54h-.26v-1.5c0-.47-.23-.72-.67-.72s-.68,.26-.68,.68v1.54h-.26v-1.5c0-.47-.23-.72-.67-.72s-.68,.26-.68,.72v1.5h-.26v-2.41h.26v.29c.18-.21,.42-.32,.71-.32,.36,0,.63,.16,.78,.44,.18-.29,.46-.44,.82-.44,.27,0,.48,.08,.63,.23Z" style="fill:#fff;"/><path d="M328.99,446.75v.12h-1.68c0,.62,.27,.95,.79,.95,.29,0,.46-.08,.66-.29l.19,.15c-.25,.25-.47,.37-.87,.37-.67,0-1.03-.43-1.03-1.24s.36-1.24,.96-1.24,.97,.44,.97,1.18Zm-1.59-.54c-.07,.14-.07,.22-.09,.46h1.42c-.02-.23-.02-.31-.09-.46-.1-.26-.34-.41-.62-.41s-.51,.15-.62,.41Z" style="fill:#fff;"/><path d="M331.36,445.8l-.19,.18c-.14-.14-.25-.19-.46-.19-.42,0-.65,.34-.65,.73v1.49h-.25v-2.41h.25v.32c.14-.23,.42-.35,.71-.35,.23,0,.4,.05,.58,.23Z" style="fill:#fff;"/><path d="M333.4,445.83l-.17,.17c-.19-.14-.41-.21-.68-.21-.4,0-.62,.17-.62,.47,0,.25,.15,.37,.49,.41l.39,.04c.4,.04,.71,.16,.71,.63,0,.44-.37,.72-.96,.72-.42,0-.73-.11-.98-.35l.18-.17c.18,.2,.45,.29,.79,.29,.48,0,.73-.17,.73-.49,0-.26-.14-.38-.46-.41l-.4-.04c-.48-.04-.72-.25-.72-.63,0-.42,.34-.69,.87-.69,.34,0,.63,.09,.85,.25Z" style="fill:#fff;"/></g></g><circle cx="578.12" cy="373.69" r="22" style="fill:#fff;"/><g><g><path d="M569.36,406.57l-.58,.58c-.37-.36-.81-.47-1.33-.47-.71,0-1.09,.39-1.09,.94,0,.22,.06,.42,.22,.56,.15,.13,.33,.22,.66,.27l.72,.11c.55,.08,.85,.21,1.12,.45,.32,.3,.49,.71,.49,1.24,0,1.11-.9,1.77-2.17,1.77-.91,0-1.55-.21-2.13-.8l.6-.6c.44,.44,.94,.58,1.55,.58,.8,0,1.24-.34,1.24-.93,0-.27-.07-.48-.24-.63-.15-.14-.36-.21-.66-.25l-.71-.1c-.49-.08-.87-.23-1.13-.48-.3-.27-.45-.66-.45-1.16,0-1.05,.76-1.76,2.02-1.76,.8,0,1.35,.2,1.87,.69Z" style="fill:#fff;"/><path d="M575.24,411.96h-.97l-.42-1.21h-2.38l-.42,1.21h-.97l2.21-6.03h.74l2.21,6.03Zm-3.51-1.99h1.85l-.93-2.68-.92,2.68Z" style="fill:#fff;"/><path d="M578.39,405.93c1.18,0,1.93,.78,1.93,1.83s-.75,1.82-1.93,1.82h-1.37v2.38h-.91v-6.03h2.29Zm-1.37,.82v2.01h1.32c.64,0,1.07-.36,1.07-1s-.42-1.01-1.07-1.01h-1.32Z" style="fill:#fff;"/><path d="M585.76,405.93c1.18,0,1.93,.78,1.93,1.83s-.75,1.82-1.93,1.82h-1.37v2.38h-.92v-6.03h2.29Zm-1.37,.82v2.01h1.32c.64,0,1.07-.36,1.07-1s-.42-1.01-1.07-1.01h-1.32Z" style="fill:#fff;"/><path d="M592.65,406.75h-2.94v1.84h2.51v.82h-2.51v2.55h-.92v-6.03h3.85v.82Z" style="fill:#fff;"/><path d="M595.11,406.87l-1.18,1.03v-.96l1.18-1.02h.86v6.03h-.86v-5.09Z" style="fill:#fff;"/></g><g><path d="M551.67,418.01c.33,.33,.36,.61,.36,1.47s-.02,1.14-.36,1.47c-.21,.21-.51,.34-.87,.34s-.66-.13-.87-.34c-.33-.33-.36-.61-.36-1.47s.03-1.14,.36-1.47c.21-.21,.51-.34,.87-.34s.66,.13,.87,.34Zm-1.54,.17c-.25,.26-.28,.55-.28,1.3s.02,1.04,.28,1.3c.18,.18,.42,.28,.68,.28s.49-.09,.68-.28c.25-.25,.27-.55,.27-1.3s-.02-1.04-.27-1.3c-.19-.19-.42-.28-.68-.28s-.49,.09-.68,.28Z" style="fill:#fff;"/><path d="M554.74,421.27h-.26v-.29c-.18,.21-.42,.32-.71,.32-.27,0-.48-.08-.64-.23-.17-.16-.25-.39-.25-.67v-1.54h.26v1.5c0,.47,.23,.72,.67,.72s.68-.26,.68-.72v-1.5h.26v2.41Z" style="fill:#fff;"/><path d="M557.25,419.06l-.19,.18c-.15-.14-.25-.19-.46-.19-.42,0-.65,.34-.65,.73v1.49h-.25v-2.41h.25v.32c.14-.23,.42-.35,.71-.35,.24,0,.41,.05,.58,.23Z" style="fill:#fff;"/><path d="M560.4,417.7c.62,0,1.08,.38,1.08,1.03s-.46,1.03-1.08,1.03h-1.04v1.51h-.27v-3.56h1.31Zm-1.04,.24v1.57h1.01c.5,0,.83-.25,.83-.79s-.34-.79-.83-.79h-1.01Z" style="fill:#fff;"/><path d="M564.41,417.94h-1.89v1.47h1.61v.24h-1.61v1.62h-.27v-3.56h2.16v.24Z" style="fill:#fff;"/><path d="M565.89,417.99l-.65,.57v-.3l.65-.56h.25v3.56h-.25v-3.27Z" style="fill:#fff;"/><path d="M570.49,419.08l-.17,.17c-.18-.14-.41-.21-.68-.21-.4,0-.62,.17-.62,.47,0,.25,.15,.37,.49,.41l.39,.04c.4,.04,.71,.16,.71,.63,0,.44-.37,.72-.97,.72-.42,0-.73-.11-.98-.35l.18-.17c.18,.2,.45,.29,.79,.29,.48,0,.73-.17,.73-.49,0-.26-.14-.38-.46-.41l-.4-.04c-.49-.04-.73-.25-.73-.63,0-.42,.34-.69,.87-.69,.34,0,.63,.09,.85,.25Z" style="fill:#fff;"/><path d="M571.81,421.98c-.04,.13-.1,.23-.17,.28-.12,.12-.29,.16-.46,.16h-.12v-.23h.09c.28,0,.36-.09,.44-.33l.22-.6-.88-2.41h.28l.73,2.11,.73-2.11h.28l-1.14,3.13Z" style="fill:#fff;"/><path d="M575.06,419.08l-.17,.17c-.18-.14-.41-.21-.68-.21-.4,0-.62,.17-.62,.47,0,.25,.15,.37,.49,.41l.39,.04c.4,.04,.71,.16,.71,.63,0,.44-.37,.72-.97,.72-.42,0-.73-.11-.98-.35l.18-.17c.18,.2,.45,.29,.79,.29,.48,0,.73-.17,.73-.49,0-.26-.14-.38-.46-.41l-.4-.04c-.49-.04-.73-.25-.73-.63,0-.42,.34-.69,.87-.69,.34,0,.63,.09,.85,.25Z" style="fill:#fff;"/><path d="M576.22,418.86h.55v.19h-.55v1.6c0,.26,.12,.4,.37,.4h.18v.23h-.22c-.38,0-.58-.27-.58-.63v-1.59h-.33v-.19h.33v-.77h.25v.77Z" style="fill:#fff;"/><path d="M579.29,420v.12h-1.68c0,.62,.27,.95,.79,.95,.29,0,.46-.08,.67-.29l.19,.15c-.25,.25-.47,.37-.87,.37-.67,0-1.03-.43-1.03-1.24s.36-1.24,.97-1.24,.97,.44,.97,1.18Zm-1.59-.54c-.06,.14-.07,.22-.08,.46h1.42c-.01-.23-.02-.31-.08-.46-.1-.26-.34-.41-.62-.41s-.51,.15-.63,.41Z" style="fill:#fff;"/><path d="M583.32,419.06c.17,.16,.26,.38,.26,.67v1.54h-.26v-1.5c0-.47-.23-.72-.67-.72s-.68,.26-.68,.68v1.54h-.26v-1.5c0-.47-.23-.72-.67-.72s-.68,.26-.68,.72v1.5h-.26v-2.41h.26v.29c.18-.21,.42-.32,.71-.32,.36,0,.63,.16,.78,.44,.18-.29,.46-.44,.82-.44,.27,0,.48,.08,.64,.23Z" style="fill:#fff;"/><path d="M586.08,418.02h-.32v-.32h.32v.32Zm-.03,3.25h-.26v-2.41h.26v2.41Z" style="fill:#fff;"/><path d="M588.6,419.08l-.17,.17c-.18-.14-.41-.21-.67-.21-.4,0-.62,.17-.62,.47,0,.25,.15,.37,.49,.41l.39,.04c.4,.04,.71,.16,.71,.63,0,.44-.37,.72-.97,.72-.42,0-.73-.11-.98-.35l.18-.17c.18,.2,.45,.29,.79,.29,.48,0,.73-.17,.73-.49,0-.26-.14-.38-.46-.41l-.4-.04c-.49-.04-.73-.25-.73-.63,0-.42,.34-.69,.87-.69,.33,0,.63,.09,.85,.25Z" style="fill:#fff;"/><path d="M592.26,419.09c.25,.25,.3,.62,.3,.97s-.04,.72-.3,.97c-.18,.17-.4,.27-.67,.27s-.5-.09-.67-.27c-.25-.25-.3-.63-.3-.97s.04-.72,.3-.97c.17-.18,.4-.27,.67-.27s.5,.09,.67,.27Zm-1.17,.17c-.2,.2-.21,.53-.21,.81s.01,.61,.21,.81c.14,.13,.31,.21,.5,.21s.37-.07,.5-.21c.2-.2,.22-.53,.22-.81s-.02-.61-.22-.81c-.13-.14-.3-.21-.5-.21s-.37,.07-.5,.21Z" style="fill:#fff;"/><path d="M595.22,421.27h-.26v-.29c-.18,.21-.42,.32-.71,.32-.27,0-.48-.08-.64-.23-.17-.16-.25-.39-.25-.67v-1.54h.26v1.5c0,.47,.23,.72,.67,.72s.68-.26,.68-.72v-1.5h.26v2.41Z" style="fill:#fff;"/><path d="M597.73,419.06l-.19,.18c-.15-.14-.25-.19-.46-.19-.42,0-.65,.34-.65,.73v1.49h-.26v-2.41h.26v.32c.14-.23,.42-.35,.71-.35,.24,0,.41,.05,.58,.23Z" style="fill:#fff;"/><path d="M601.22,419.2l-.17,.16c-.21-.23-.37-.3-.62-.3-.28,0-.5,.1-.64,.32-.12,.17-.17,.37-.17,.69s.04,.52,.17,.69c.15,.21,.37,.32,.64,.32,.25,0,.42-.08,.62-.3l.17,.16c-.25,.29-.47,.37-.8,.37-.66,0-1.06-.47-1.06-1.24s.4-1.24,1.06-1.24c.33,0,.54,.08,.8,.37Z" style="fill:#fff;"/><path d="M603.69,420v.12h-1.68c0,.62,.27,.95,.79,.95,.29,0,.46-.08,.67-.29l.19,.15c-.25,.25-.47,.37-.87,.37-.67,0-1.03-.43-1.03-1.24s.36-1.24,.97-1.24,.97,.44,.97,1.18Zm-1.59-.54c-.06,.14-.07,.22-.08,.46h1.42c-.01-.23-.02-.31-.08-.46-.1-.26-.34-.41-.62-.41s-.51,.15-.63,.41Z" style="fill:#fff;"/><path d="M606.12,419.06c.17,.16,.25,.38,.25,.67v1.54h-.26v-1.5c0-.47-.23-.72-.67-.72s-.68,.26-.68,.72v1.5h-.26v-2.41h.26v.29c.18-.21,.42-.32,.71-.32,.27,0,.48,.08,.64,.23Z" style="fill:#fff;"/><path d="M607.63,418.86h.55v.19h-.55v1.6c0,.26,.12,.4,.37,.4h.18v.23h-.22c-.38,0-.58-.27-.58-.63v-1.59h-.33v-.19h.33v-.77h.25v.77Z" style="fill:#fff;"/><path d="M610.48,419.06l-.19,.18c-.15-.14-.25-.19-.46-.19-.42,0-.65,.34-.65,.73v1.49h-.26v-2.41h.26v.32c.14-.23,.42-.35,.71-.35,.24,0,.41,.05,.58,.23Z" style="fill:#fff;"/><path d="M612.6,419.62v1.65h-.25v-.24c-.21,.21-.4,.27-.74,.27-.36,0-.56-.06-.71-.22-.12-.12-.17-.29-.17-.47,0-.44,.32-.7,.84-.7h.78v-.27c0-.38-.19-.59-.68-.59-.34,0-.51,.08-.67,.3l-.19-.16c.21-.29,.46-.37,.85-.37,.64,0,.94,.29,.94,.79Zm-1.01,.5c-.41,0-.62,.16-.62,.49s.19,.47,.63,.47c.22,0,.43-.02,.6-.19,.09-.08,.14-.24,.14-.46v-.31h-.75Z" style="fill:#fff;"/><path d="M613.8,420.64c0,.28,.08,.41,.37,.41h.18v.23h-.22c-.39,0-.58-.25-.58-.63v-2.94h.25v2.93Z" style="fill:#fff;"/></g></g><rect x="579.66" y="183.62" width="1" height="93.41" style="fill:#fff;"/><rect x="587.96" y="274.33" width="172.4" height="1" style="fill:#fff;"/><circle cx="488.12" cy="275.69" r="22" style="fill:#fff;"/><rect x="480.96" y="274.33" width="172.4" height="1" style="fill:#fff;"/><circle cx="404.12" cy="273.69" r="22" style="fill:#fff;"/><rect x="404.66" y="185.62" width="1" height="93.41" style="fill:#fff;"/><polygon points="802.18 475.85 801.18 475.85 801.18 313.53 724.74 313.53 724.74 327.01 723.74 327.01 723.74 312.53 802.18 312.53 802.18 475.85" style="fill:#fff;"/><circle cx="801.68" cy="390.85" r="14.36" style="fill:#fff;"/><circle cx="801.68" cy="432.41" r="14.36" style="fill:#fff;"/><circle cx="801.68" cy="473.97" r="14.36" style="fill:#fff;"/><rect x="762.65" y="301.32" width="1" height="12.09" style="fill:#fff;"/><g><path d="M821.3,356h-39.42c-8.06,0-14.6-6.54-14.6-14.6h0c0-8.06,6.54-14.6,14.6-14.6h39.42c8.06,0,14.6,6.54,14.6,14.6h0c0,8.06-6.54,14.6-14.6,14.6Z" style="fill:#adcaeb;"/><g><path d="M787.16,337.06h1.49v5.22h3.23v1.21h-4.72v-6.44Z" style="fill:#fff;"/><path d="M793.53,343.24c-.41-.22-.74-.52-.97-.91-.23-.39-.35-.82-.35-1.32s.12-.93,.35-1.31,.56-.69,.97-.91c.41-.22,.88-.33,1.4-.33s.99,.11,1.4,.33c.41,.22,.73,.52,.97,.91,.23,.39,.35,.82,.35,1.31s-.12,.93-.35,1.32c-.23,.39-.55,.69-.97,.91-.41,.22-.88,.33-1.4,.33s-.99-.11-1.4-.33Zm2.31-1.22c.24-.25,.35-.58,.35-1s-.12-.75-.35-1c-.24-.25-.54-.37-.91-.37s-.67,.12-.91,.37-.36,.58-.36,1,.12,.75,.36,1,.54,.37,.91,.37,.67-.12,.91-.37Z" style="fill:#fff;"/><path d="M800.67,338.66c.29-.12,.63-.18,1.01-.18v1.32c-.16-.01-.27-.02-.32-.02-.41,0-.73,.12-.97,.34-.23,.23-.35,.58-.35,1.04v2.33h-1.43v-4.95h1.37v.65c.17-.24,.4-.42,.69-.54Z" style="fill:#fff;"/><path d="M807.3,341.42h-3.74c.07,.31,.23,.55,.48,.73,.25,.18,.56,.27,.94,.27,.26,0,.49-.04,.69-.11,.2-.08,.38-.2,.56-.36l.76,.83c-.47,.53-1.15,.8-2.04,.8-.56,0-1.05-.11-1.48-.33-.43-.22-.76-.52-.99-.91-.23-.39-.35-.82-.35-1.32s.12-.92,.34-1.31c.23-.39,.55-.69,.95-.91s.85-.33,1.35-.33,.92,.1,1.32,.31c.39,.21,.7,.51,.92,.9,.22,.39,.34,.84,.34,1.36,0,.02,0,.15-.03,.39Zm-3.36-1.59c-.22,.18-.36,.44-.4,.75h2.44c-.05-.31-.18-.56-.41-.75-.22-.19-.49-.28-.81-.28s-.6,.09-.82,.28Z" style="fill:#fff;"/><path d="M816.09,339.02c.36,.36,.55,.91,.55,1.64v2.83h-1.43v-2.61c0-.39-.08-.68-.24-.88-.16-.19-.39-.29-.69-.29-.34,0-.6,.11-.8,.33s-.29,.54-.29,.97v2.48h-1.43v-2.61c0-.78-.31-1.17-.94-1.17-.33,0-.59,.11-.79,.33s-.29,.54-.29,.97v2.48h-1.43v-4.95h1.37v.57c.18-.21,.41-.37,.68-.48s.56-.17,.88-.17c.35,0,.67,.07,.95,.21,.28,.14,.51,.34,.68,.6,.2-.26,.46-.46,.77-.6s.65-.21,1.02-.21c.62,0,1.11,.18,1.48,.55Z" style="fill:#fff;"/></g></g><g><path d="M744.64,356h-39.42c-8.06,0-14.6-6.54-14.6-14.6h0c0-8.06,6.54-14.6,14.6-14.6h39.42c8.06,0,14.6,6.54,14.6,14.6h0c0,8.06-6.54,14.6-14.6,14.6Z" style="fill:#adcaeb;"/><g><path d="M709.75,337.06h1.49v5.22h3.23v1.21h-4.72v-6.44Z" style="fill:#fff;"/><path d="M716.12,343.24c-.41-.22-.74-.52-.97-.91-.23-.39-.35-.82-.35-1.32s.12-.93,.35-1.31,.56-.69,.97-.91c.41-.22,.88-.33,1.4-.33s.99,.11,1.4,.33c.41,.22,.73,.52,.97,.91,.23,.39,.35,.82,.35,1.31s-.12,.93-.35,1.32c-.23,.39-.55,.69-.97,.91-.41,.22-.88,.33-1.4,.33s-.99-.11-1.4-.33Zm2.31-1.22c.24-.25,.35-.58,.35-1s-.12-.75-.35-1c-.24-.25-.54-.37-.91-.37s-.67,.12-.91,.37-.36,.58-.36,1,.12,.75,.36,1,.54,.37,.91,.37,.67-.12,.91-.37Z" style="fill:#fff;"/><path d="M723.26,338.66c.29-.12,.63-.18,1.01-.18v1.32c-.16-.01-.27-.02-.32-.02-.41,0-.73,.12-.97,.34-.23,.23-.35,.58-.35,1.04v2.33h-1.43v-4.95h1.37v.65c.17-.24,.4-.42,.69-.54Z" style="fill:#fff;"/><path d="M729.89,341.42h-3.74c.07,.31,.23,.55,.48,.73,.25,.18,.56,.27,.94,.27,.26,0,.49-.04,.69-.11,.2-.08,.38-.2,.56-.36l.76,.83c-.47,.53-1.15,.8-2.04,.8-.56,0-1.05-.11-1.48-.33-.43-.22-.76-.52-.99-.91-.23-.39-.35-.82-.35-1.32s.12-.92,.34-1.31c.23-.39,.55-.69,.95-.91s.85-.33,1.35-.33,.92,.1,1.32,.31c.39,.21,.7,.51,.92,.9,.22,.39,.34,.84,.34,1.36,0,.02,0,.15-.03,.39Zm-3.36-1.59c-.22,.18-.36,.44-.4,.75h2.44c-.05-.31-.18-.56-.41-.75-.22-.19-.49-.28-.81-.28s-.6,.09-.82,.28Z" style="fill:#fff;"/><path d="M738.68,339.02c.36,.36,.55,.91,.55,1.64v2.83h-1.43v-2.61c0-.39-.08-.68-.24-.88-.16-.19-.39-.29-.69-.29-.34,0-.6,.11-.8,.33s-.29,.54-.29,.97v2.48h-1.43v-2.61c0-.78-.31-1.17-.94-1.17-.33,0-.59,.11-.79,.33s-.29,.54-.29,.97v2.48h-1.43v-4.95h1.37v.57c.18-.21,.41-.37,.68-.48s.56-.17,.88-.17c.35,0,.67,.07,.95,.21,.28,.14,.51,.34,.68,.6,.2-.26,.46-.46,.77-.6s.65-.21,1.02-.21c.62,0,1.11,.18,1.48,.55Z" style="fill:#fff;"/></g></g><g><path d="M690.12,153.51h.43v5.54h3.42v.39h-3.85v-5.93Z" style="fill:#fff;"/><path d="M695.47,159.19c-.34-.19-.6-.46-.79-.8-.19-.34-.29-.73-.29-1.16s.1-.81,.29-1.16c.19-.34,.46-.61,.79-.8,.34-.19,.71-.29,1.13-.29s.8,.1,1.13,.29c.34,.19,.6,.46,.79,.8,.19,.34,.29,.73,.29,1.16s-.1,.81-.29,1.16c-.19,.34-.46,.61-.79,.8-.34,.19-.71,.29-1.13,.29s-.79-.1-1.13-.29Zm2.04-.33c.27-.16,.48-.38,.64-.66,.16-.28,.23-.6,.23-.97s-.08-.68-.23-.97-.37-.5-.64-.66-.57-.24-.91-.24-.64,.08-.91,.24c-.27,.16-.48,.38-.63,.66-.16,.28-.23,.6-.23,.97s.08,.68,.23,.97c.16,.28,.37,.5,.63,.66,.27,.16,.57,.24,.91,.24s.64-.08,.91-.24Z" style="fill:#fff;"/><path d="M701.17,155.24c.29-.17,.64-.26,1.05-.26v.42h-.1c-.49,0-.88,.15-1.15,.45-.28,.31-.42,.74-.42,1.28v2.31h-.42v-4.42h.41v.97c.13-.32,.35-.57,.63-.74Z" style="fill:#fff;"/><path d="M707.08,157.33h-3.8c.01,.34,.1,.65,.26,.92,.16,.27,.38,.48,.67,.62,.28,.15,.59,.22,.95,.22,.29,0,.55-.05,.8-.16,.25-.1,.45-.26,.61-.46l.25,.28c-.19,.23-.43,.41-.72,.53-.29,.12-.61,.19-.95,.19-.44,0-.83-.1-1.18-.29-.34-.19-.61-.46-.81-.8-.2-.34-.29-.73-.29-1.16s.09-.81,.28-1.16c.18-.34,.44-.61,.76-.8,.32-.19,.68-.29,1.08-.29s.76,.09,1.08,.28c.32,.19,.57,.45,.75,.79,.18,.34,.28,.72,.28,1.15v.12Zm-2.95-1.77c-.25,.14-.45,.33-.6,.58s-.24,.54-.26,.85h3.39c-.02-.32-.1-.6-.25-.85-.15-.25-.35-.44-.6-.58s-.53-.21-.84-.21-.59,.07-.84,.21Z" style="fill:#fff;"/><path d="M715.21,155.46c.31,.32,.47,.79,.47,1.39v2.58h-.42v-2.55c0-.5-.12-.88-.36-1.14-.24-.26-.58-.39-1.02-.39-.5,0-.89,.16-1.18,.47-.29,.31-.44,.73-.44,1.25v2.36h-.42v-2.55c0-.5-.12-.88-.36-1.14-.24-.26-.58-.39-1.02-.39-.5,0-.89,.16-1.18,.47-.29,.31-.44,.73-.44,1.25v2.36h-.42v-4.42h.41v.95c.15-.31,.37-.55,.66-.72,.29-.17,.64-.26,1.04-.26s.74,.09,1.02,.27c.28,.18,.48,.45,.6,.8,.15-.33,.38-.59,.69-.78,.31-.19,.68-.29,1.1-.29,.55,0,.98,.16,1.29,.48Z" style="fill:#fff;"/><path d="M719.57,153.84c-.07-.06-.1-.15-.1-.24s.03-.18,.1-.25c.07-.07,.15-.1,.25-.1s.18,.03,.25,.1c.07,.06,.1,.15,.1,.24s-.03,.18-.1,.25c-.07,.07-.15,.1-.25,.1s-.18-.03-.25-.1Zm.03,1.17h.42v4.42h-.42v-4.42Z" style="fill:#fff;"/><path d="M725.15,155.27c.33,.19,.59,.46,.78,.8,.19,.34,.28,.73,.28,1.16s-.09,.82-.28,1.17c-.19,.34-.45,.61-.78,.8-.33,.19-.71,.28-1.12,.28-.39,0-.74-.09-1.06-.28s-.56-.44-.74-.77v2.65h-.42v-6.07h.41v1.04c.17-.34,.42-.6,.74-.79,.32-.19,.68-.28,1.07-.28s.79,.1,1.12,.29Zm-.23,3.58c.27-.16,.48-.38,.64-.66,.16-.28,.23-.6,.23-.97s-.08-.68-.23-.97-.37-.5-.64-.66-.58-.24-.92-.24-.64,.08-.91,.24-.48,.38-.64,.66-.23,.6-.23,.97,.08,.68,.23,.97c.16,.28,.37,.5,.64,.66,.27,.16,.57,.24,.91,.24s.64-.08,.92-.24Z" style="fill:#fff;"/><path d="M727.64,159.31c-.32-.11-.57-.24-.75-.41l.19-.34c.18,.15,.41,.28,.7,.38,.29,.1,.58,.15,.89,.15,.45,0,.78-.07,.99-.22,.21-.15,.32-.35,.32-.61,0-.19-.06-.33-.17-.44-.12-.11-.26-.19-.43-.24-.17-.05-.4-.1-.7-.16-.35-.06-.63-.13-.85-.2-.21-.07-.4-.19-.55-.36-.15-.16-.23-.39-.23-.68,0-.35,.14-.64,.44-.87,.29-.23,.7-.34,1.24-.34,.28,0,.56,.04,.84,.12,.28,.08,.5,.18,.68,.31l-.19,.34c-.18-.13-.39-.23-.62-.3s-.47-.1-.71-.1c-.41,0-.72,.08-.93,.23-.21,.15-.31,.35-.31,.6,0,.2,.06,.35,.18,.46,.12,.11,.26,.19,.44,.25,.17,.05,.41,.11,.72,.17,.34,.06,.62,.13,.83,.2s.39,.19,.54,.34c.15,.16,.22,.38,.22,.65,0,.37-.15,.66-.46,.88-.31,.22-.74,.33-1.29,.33-.36,0-.7-.05-1.02-.16Z" style="fill:#fff;"/><path d="M735.46,155.02v4.42h-.41v-.95c-.15,.31-.37,.55-.65,.72s-.63,.26-1.02,.26c-.58,0-1.03-.16-1.36-.48-.33-.32-.49-.79-.49-1.39v-2.58h.42v2.55c0,.5,.13,.88,.38,1.14,.25,.26,.61,.39,1.08,.39,.5,0,.89-.16,1.18-.47,.29-.31,.44-.73,.44-1.25v-2.36h.42Z" style="fill:#fff;"/><path d="M744.06,155.46c.31,.32,.47,.79,.47,1.39v2.58h-.42v-2.55c0-.5-.12-.88-.36-1.14-.24-.26-.58-.39-1.02-.39-.5,0-.89,.16-1.18,.47-.29,.31-.44,.73-.44,1.25v2.36h-.42v-2.55c0-.5-.12-.88-.36-1.14-.24-.26-.58-.39-1.02-.39-.5,0-.89,.16-1.18,.47-.29,.31-.44,.73-.44,1.25v2.36h-.42v-4.42h.41v.95c.15-.31,.37-.55,.66-.72,.29-.17,.64-.26,1.04-.26s.74,.09,1.02,.27c.28,.18,.48,.45,.6,.8,.15-.33,.38-.59,.69-.78,.31-.19,.68-.29,1.1-.29,.55,0,.98,.16,1.29,.48Z" style="fill:#fff;"/></g><g><path d="M690.12,177.66h.43v5.54h3.42v.39h-3.85v-5.93Z" style="fill:#fff;"/><path d="M695.47,183.34c-.34-.19-.6-.46-.79-.8-.19-.34-.29-.73-.29-1.16s.1-.81,.29-1.16c.19-.34,.46-.61,.79-.8,.34-.19,.71-.29,1.13-.29s.8,.1,1.13,.29c.34,.19,.6,.46,.79,.8,.19,.34,.29,.73,.29,1.16s-.1,.81-.29,1.16c-.19,.34-.46,.61-.79,.8-.34,.19-.71,.29-1.13,.29s-.79-.1-1.13-.29Zm2.04-.33c.27-.16,.48-.38,.64-.66,.16-.28,.23-.6,.23-.97s-.08-.68-.23-.97-.37-.5-.64-.66-.57-.24-.91-.24-.64,.08-.91,.24c-.27,.16-.48,.38-.63,.66-.16,.28-.23,.6-.23,.97s.08,.68,.23,.97c.16,.28,.37,.5,.63,.66,.27,.16,.57,.24,.91,.24s.64-.08,.91-.24Z" style="fill:#fff;"/><path d="M701.17,179.4c.29-.17,.64-.26,1.05-.26v.42h-.1c-.49,0-.88,.15-1.15,.45-.28,.31-.42,.74-.42,1.28v2.31h-.42v-4.42h.41v.97c.13-.32,.35-.57,.63-.74Z" style="fill:#fff;"/><path d="M707.08,181.49h-3.8c.01,.34,.1,.65,.26,.92,.16,.27,.38,.48,.67,.62,.28,.15,.59,.22,.95,.22,.29,0,.55-.05,.8-.16,.25-.1,.45-.26,.61-.46l.25,.28c-.19,.23-.43,.41-.72,.53-.29,.12-.61,.19-.95,.19-.44,0-.83-.1-1.18-.29-.34-.19-.61-.46-.81-.8-.2-.34-.29-.73-.29-1.16s.09-.81,.28-1.16c.18-.34,.44-.61,.76-.8,.32-.19,.68-.29,1.08-.29s.76,.09,1.08,.28c.32,.19,.57,.45,.75,.79,.18,.34,.28,.72,.28,1.15v.12Zm-2.95-1.77c-.25,.14-.45,.33-.6,.58s-.24,.54-.26,.85h3.39c-.02-.32-.1-.6-.25-.85-.15-.25-.35-.44-.6-.58s-.53-.21-.84-.21-.59,.07-.84,.21Z" style="fill:#fff;"/><path d="M715.21,179.62c.31,.32,.47,.79,.47,1.39v2.58h-.42v-2.55c0-.5-.12-.88-.36-1.14-.24-.26-.58-.39-1.02-.39-.5,0-.89,.16-1.18,.47-.29,.31-.44,.73-.44,1.25v2.36h-.42v-2.55c0-.5-.12-.88-.36-1.14-.24-.26-.58-.39-1.02-.39-.5,0-.89,.16-1.18,.47-.29,.31-.44,.73-.44,1.25v2.36h-.42v-4.42h.41v.95c.15-.31,.37-.55,.66-.72,.29-.17,.64-.26,1.04-.26s.74,.09,1.02,.27c.28,.18,.48,.45,.6,.8,.15-.33,.38-.59,.69-.78,.31-.19,.68-.29,1.1-.29,.55,0,.98,.16,1.29,.48Z" style="fill:#fff;"/><path d="M719.57,178c-.07-.06-.1-.15-.1-.24s.03-.18,.1-.25c.07-.07,.15-.1,.25-.1s.18,.03,.25,.1c.07,.06,.1,.15,.1,.24s-.03,.18-.1,.25c-.07,.07-.15,.1-.25,.1s-.18-.03-.25-.1Zm.03,1.17h.42v4.42h-.42v-4.42Z" style="fill:#fff;"/><path d="M725.15,179.43c.33,.19,.59,.46,.78,.8,.19,.34,.28,.73,.28,1.16s-.09,.82-.28,1.17c-.19,.34-.45,.61-.78,.8-.33,.19-.71,.28-1.12,.28-.39,0-.74-.09-1.06-.28s-.56-.44-.74-.77v2.65h-.42v-6.07h.41v1.04c.17-.34,.42-.6,.74-.79,.32-.19,.68-.28,1.07-.28s.79,.1,1.12,.29Zm-.23,3.58c.27-.16,.48-.38,.64-.66,.16-.28,.23-.6,.23-.97s-.08-.68-.23-.97-.37-.5-.64-.66-.58-.24-.92-.24-.64,.08-.91,.24-.48,.38-.64,.66-.23,.6-.23,.97,.08,.68,.23,.97c.16,.28,.37,.5,.64,.66,.27,.16,.57,.24,.91,.24s.64-.08,.92-.24Z" style="fill:#fff;"/><path d="M727.64,183.47c-.32-.11-.57-.24-.75-.41l.19-.34c.18,.15,.41,.28,.7,.38,.29,.1,.58,.15,.89,.15,.45,0,.78-.07,.99-.22,.21-.15,.32-.35,.32-.61,0-.19-.06-.33-.17-.44-.12-.11-.26-.19-.43-.24-.17-.05-.4-.1-.7-.16-.35-.06-.63-.13-.85-.2-.21-.07-.4-.19-.55-.36-.15-.16-.23-.39-.23-.68,0-.35,.14-.64,.44-.87,.29-.23,.7-.34,1.24-.34,.28,0,.56,.04,.84,.12,.28,.08,.5,.18,.68,.31l-.19,.34c-.18-.13-.39-.23-.62-.3s-.47-.1-.71-.1c-.41,0-.72,.08-.93,.23-.21,.15-.31,.35-.31,.6,0,.2,.06,.35,.18,.46,.12,.11,.26,.19,.44,.25,.17,.05,.41,.11,.72,.17,.34,.06,.62,.13,.83,.2s.39,.19,.54,.34c.15,.16,.22,.38,.22,.65,0,.37-.15,.66-.46,.88-.31,.22-.74,.33-1.29,.33-.36,0-.7-.05-1.02-.16Z" style="fill:#fff;"/><path d="M735.46,179.17v4.42h-.41v-.95c-.15,.31-.37,.55-.65,.72s-.63,.26-1.02,.26c-.58,0-1.03-.16-1.36-.48-.33-.32-.49-.79-.49-1.39v-2.58h.42v2.55c0,.5,.13,.88,.38,1.14,.25,.26,.61,.39,1.08,.39,.5,0,.89-.16,1.18-.47,.29-.31,.44-.73,.44-1.25v-2.36h.42Z" style="fill:#fff;"/><path d="M744.06,179.62c.31,.32,.47,.79,.47,1.39v2.58h-.42v-2.55c0-.5-.12-.88-.36-1.14-.24-.26-.58-.39-1.02-.39-.5,0-.89,.16-1.18,.47-.29,.31-.44,.73-.44,1.25v2.36h-.42v-2.55c0-.5-.12-.88-.36-1.14-.24-.26-.58-.39-1.02-.39-.5,0-.89,.16-1.18,.47-.29,.31-.44,.73-.44,1.25v2.36h-.42v-4.42h.41v.95c.15-.31,.37-.55,.66-.72,.29-.17,.64-.26,1.04-.26s.74,.09,1.02,.27c.28,.18,.48,.45,.6,.8,.15-.33,.38-.59,.69-.78,.31-.19,.68-.29,1.1-.29,.55,0,.98,.16,1.29,.48Z" style="fill:#fff;"/></g><g><path d="M690.12,201.82h.43v5.54h3.42v.39h-3.85v-5.93Z" style="fill:#fff;"/><path d="M695.47,207.5c-.34-.19-.6-.46-.79-.8-.19-.34-.29-.73-.29-1.16s.1-.81,.29-1.16c.19-.34,.46-.61,.79-.8,.34-.19,.71-.29,1.13-.29s.8,.1,1.13,.29c.34,.19,.6,.46,.79,.8,.19,.34,.29,.73,.29,1.16s-.1,.81-.29,1.16c-.19,.34-.46,.61-.79,.8-.34,.19-.71,.29-1.13,.29s-.79-.1-1.13-.29Zm2.04-.33c.27-.16,.48-.38,.64-.66,.16-.28,.23-.6,.23-.97s-.08-.68-.23-.97-.37-.5-.64-.66-.57-.24-.91-.24-.64,.08-.91,.24c-.27,.16-.48,.38-.63,.66-.16,.28-.23,.6-.23,.97s.08,.68,.23,.97c.16,.28,.37,.5,.63,.66,.27,.16,.57,.24,.91,.24s.64-.08,.91-.24Z" style="fill:#fff;"/><path d="M701.17,203.55c.29-.17,.64-.26,1.05-.26v.42h-.1c-.49,0-.88,.15-1.15,.45-.28,.31-.42,.74-.42,1.28v2.31h-.42v-4.42h.41v.97c.13-.32,.35-.57,.63-.74Z" style="fill:#fff;"/><path d="M707.08,205.64h-3.8c.01,.34,.1,.65,.26,.92,.16,.27,.38,.48,.67,.62,.28,.15,.59,.22,.95,.22,.29,0,.55-.05,.8-.16,.25-.1,.45-.26,.61-.46l.25,.28c-.19,.23-.43,.41-.72,.53-.29,.12-.61,.19-.95,.19-.44,0-.83-.1-1.18-.29-.34-.19-.61-.46-.81-.8-.2-.34-.29-.73-.29-1.16s.09-.81,.28-1.16c.18-.34,.44-.61,.76-.8,.32-.19,.68-.29,1.08-.29s.76,.09,1.08,.28c.32,.19,.57,.45,.75,.79,.18,.34,.28,.72,.28,1.15v.12Zm-2.95-1.77c-.25,.14-.45,.33-.6,.58s-.24,.54-.26,.85h3.39c-.02-.32-.1-.6-.25-.85-.15-.25-.35-.44-.6-.58s-.53-.21-.84-.21-.59,.07-.84,.21Z" style="fill:#fff;"/><path d="M715.21,203.78c.31,.32,.47,.79,.47,1.39v2.58h-.42v-2.55c0-.5-.12-.88-.36-1.14-.24-.26-.58-.39-1.02-.39-.5,0-.89,.16-1.18,.47-.29,.31-.44,.73-.44,1.25v2.36h-.42v-2.55c0-.5-.12-.88-.36-1.14-.24-.26-.58-.39-1.02-.39-.5,0-.89,.16-1.18,.47-.29,.31-.44,.73-.44,1.25v2.36h-.42v-4.42h.41v.95c.15-.31,.37-.55,.66-.72,.29-.17,.64-.26,1.04-.26s.74,.09,1.02,.27c.28,.18,.48,.45,.6,.8,.15-.33,.38-.59,.69-.78,.31-.19,.68-.29,1.1-.29,.55,0,.98,.16,1.29,.48Z" style="fill:#fff;"/><path d="M719.57,202.15c-.07-.06-.1-.15-.1-.24s.03-.18,.1-.25c.07-.07,.15-.1,.25-.1s.18,.03,.25,.1c.07,.06,.1,.15,.1,.24s-.03,.18-.1,.25c-.07,.07-.15,.1-.25,.1s-.18-.03-.25-.1Zm.03,1.17h.42v4.42h-.42v-4.42Z" style="fill:#fff;"/><path d="M725.15,203.58c.33,.19,.59,.46,.78,.8,.19,.34,.28,.73,.28,1.16s-.09,.82-.28,1.17c-.19,.34-.45,.61-.78,.8-.33,.19-.71,.28-1.12,.28-.39,0-.74-.09-1.06-.28s-.56-.44-.74-.77v2.65h-.42v-6.07h.41v1.04c.17-.34,.42-.6,.74-.79,.32-.19,.68-.28,1.07-.28s.79,.1,1.12,.29Zm-.23,3.58c.27-.16,.48-.38,.64-.66,.16-.28,.23-.6,.23-.97s-.08-.68-.23-.97-.37-.5-.64-.66-.58-.24-.92-.24-.64,.08-.91,.24-.48,.38-.64,.66-.23,.6-.23,.97,.08,.68,.23,.97c.16,.28,.37,.5,.64,.66,.27,.16,.57,.24,.91,.24s.64-.08,.92-.24Z" style="fill:#fff;"/><path d="M727.64,207.62c-.32-.11-.57-.24-.75-.41l.19-.34c.18,.15,.41,.28,.7,.38,.29,.1,.58,.15,.89,.15,.45,0,.78-.07,.99-.22,.21-.15,.32-.35,.32-.61,0-.19-.06-.33-.17-.44-.12-.11-.26-.19-.43-.24-.17-.05-.4-.1-.7-.16-.35-.06-.63-.13-.85-.2-.21-.07-.4-.19-.55-.36-.15-.16-.23-.39-.23-.68,0-.35,.14-.64,.44-.87,.29-.23,.7-.34,1.24-.34,.28,0,.56,.04,.84,.12,.28,.08,.5,.18,.68,.31l-.19,.34c-.18-.13-.39-.23-.62-.3s-.47-.1-.71-.1c-.41,0-.72,.08-.93,.23-.21,.15-.31,.35-.31,.6,0,.2,.06,.35,.18,.46,.12,.11,.26,.19,.44,.25,.17,.05,.41,.11,.72,.17,.34,.06,.62,.13,.83,.2s.39,.19,.54,.34c.15,.16,.22,.38,.22,.65,0,.37-.15,.66-.46,.88-.31,.22-.74,.33-1.29,.33-.36,0-.7-.05-1.02-.16Z" style="fill:#fff;"/><path d="M735.46,203.33v4.42h-.41v-.95c-.15,.31-.37,.55-.65,.72s-.63,.26-1.02,.26c-.58,0-1.03-.16-1.36-.48-.33-.32-.49-.79-.49-1.39v-2.58h.42v2.55c0,.5,.13,.88,.38,1.14,.25,.26,.61,.39,1.08,.39,.5,0,.89-.16,1.18-.47,.29-.31,.44-.73,.44-1.25v-2.36h.42Z" style="fill:#fff;"/><path d="M744.06,203.78c.31,.32,.47,.79,.47,1.39v2.58h-.42v-2.55c0-.5-.12-.88-.36-1.14-.24-.26-.58-.39-1.02-.39-.5,0-.89,.16-1.18,.47-.29,.31-.44,.73-.44,1.25v2.36h-.42v-2.55c0-.5-.12-.88-.36-1.14-.24-.26-.58-.39-1.02-.39-.5,0-.89,.16-1.18,.47-.29,.31-.44,.73-.44,1.25v2.36h-.42v-4.42h.41v.95c.15-.31,.37-.55,.66-.72,.29-.17,.64-.26,1.04-.26s.74,.09,1.02,.27c.28,.18,.48,.45,.6,.8,.15-.33,.38-.59,.69-.78,.31-.19,.68-.29,1.1-.29,.55,0,.98,.16,1.29,.48Z" style="fill:#fff;"/></g><rect x="406.12" y="183.17" width="272.58" height="1" style="fill:#fff;"/><rect x="677.72" y="163.87" width="1" height="40.58" style="fill:#fff;"/><g><g><circle cx="395.62" cy="373.19" r="29.5" style="fill:#4d7bbb;"/><g><path d="M390.03,374.31c-.15,.87-.51,1.55-1.08,2.03-.56,.47-1.26,.71-2.1,.71-.92,0-1.7-.32-2.34-.95-.37-.37-.61-.81-.71-1.3-.1-.49-.15-1.2-.15-2.15s.05-1.67,.15-2.15c.1-.5,.33-.93,.71-1.3,.63-.63,1.41-.95,2.34-.95,1.83,0,2.89,.91,3.19,2.74h-1.72c-.2-.82-.69-1.23-1.46-1.23-.47,0-.83,.15-1.08,.45-.18,.19-.29,.43-.34,.73-.06,.31-.09,.88-.09,1.72s.03,1.41,.09,1.72c.05,.3,.16,.54,.34,.73,.25,.3,.61,.45,1.08,.45,.77,0,1.26-.41,1.46-1.23h1.72Z" style="fill:#fff;"/><path d="M396.09,376.98l-1.69-3.46h-1.22v3.46h-1.69v-8.66h3.4c.86,0,1.55,.26,2.07,.78,.49,.49,.74,1.12,.74,1.87,0,.58-.16,1.07-.47,1.48-.28,.37-.65,.63-1.11,.79l1.93,3.74h-1.96Zm-1.31-7.16h-1.59v2.29h1.59c.82,0,1.23-.38,1.23-1.14s-.41-1.14-1.23-1.14Z" style="fill:#fff;"/><path d="M405.61,376.98v-5.05l-1.66,3.29h-1.14l-1.67-3.29v5.05h-1.69v-8.66h1.67l2.26,4.69,2.25-4.69h1.67v8.66h-1.69Z" style="fill:#fff;"/></g></g><g><circle cx="579.62" cy="275.19" r="29.5" style="fill:#4d7bbb;"/><g><path d="M567.95,278.98v-8.66h5.71v1.51h-4.02v2.03h3.42v1.51h-3.42v2.11h4.02v1.51h-5.71Z" style="fill:#fff;"/><path d="M579.91,278.98l-1.69-3.46h-1.22v3.46h-1.69v-8.66h3.4c.86,0,1.55,.26,2.07,.78,.5,.49,.74,1.12,.74,1.87,0,.58-.16,1.07-.47,1.48-.29,.37-.65,.63-1.11,.79l1.93,3.74h-1.96Zm-1.31-7.16h-1.59v2.29h1.59c.82,0,1.23-.38,1.23-1.14s-.41-1.14-1.23-1.14Z" style="fill:#fff;"/><path d="M588.73,274.91c-.54,.54-1.24,.8-2.11,.8h-1.67v3.26h-1.69v-8.66h3.36c.87,0,1.57,.27,2.11,.8,.5,.5,.75,1.14,.75,1.9s-.25,1.4-.75,1.9Zm-2.19-3.09h-1.58v2.37h1.58c.83,0,1.25-.39,1.25-1.18s-.42-1.19-1.25-1.19Z" style="fill:#fff;"/></g></g><g><circle cx="403.62" cy="184.19" r="29.5" style="fill:#4d7bbb;"/><g><path d="M397.41,183.91c-.54,.54-1.24,.8-2.11,.8h-1.67v3.26h-1.69v-8.66h3.36c.87,0,1.57,.27,2.11,.8,.5,.5,.75,1.14,.75,1.9s-.25,1.4-.75,1.9Zm-2.19-3.09h-1.58v2.37h1.58c.83,0,1.25-.39,1.25-1.18s-.42-1.19-1.25-1.19Z" style="fill:#fff;"/><path d="M399.59,187.98v-8.66h1.69v7.16h3.93v1.51h-5.62Z" style="fill:#fff;"/><path d="M412.74,187.98v-5.05l-1.66,3.29h-1.14l-1.67-3.29v5.05h-1.69v-8.66h1.67l2.26,4.69,2.25-4.69h1.67v8.66h-1.69Z" style="fill:#fff;"/></g></g><g><circle cx="762.62" cy="275.19" r="29.5" style="fill:#4d7bbb;"/><g><path d="M755.62,278.37c-.59,.45-1.35,.68-2.29,.68-.69,0-1.27-.08-1.75-.24-.53-.19-1-.49-1.41-.9l1.09-1.1c.26,.26,.58,.45,.95,.57,.33,.11,.71,.16,1.14,.16,1.02,0,1.53-.36,1.53-1.07,0-.32-.09-.56-.27-.73-.16-.15-.42-.25-.77-.3l-1.05-.15c-.74-.11-1.3-.34-1.68-.72-.41-.41-.62-.98-.62-1.7,0-.79,.27-1.42,.8-1.9,.55-.49,1.29-.73,2.21-.73,1.17,0,2.1,.34,2.8,1.01l-1.07,1.06c-.24-.24-.54-.4-.88-.5-.25-.06-.55-.1-.9-.1-.89,0-1.34,.36-1.34,1.1,0,.25,.09,.46,.26,.62,.2,.18,.46,.29,.8,.34l1.02,.15c.73,.11,1.28,.33,1.66,.67,.45,.42,.67,1.03,.67,1.84s-.31,1.47-.92,1.95Z" style="fill:#fff;"/><path d="M764.22,276.31c-.15,.87-.51,1.55-1.08,2.03-.56,.47-1.26,.71-2.1,.71-.92,0-1.7-.32-2.34-.95-.37-.37-.61-.81-.71-1.3-.1-.49-.15-1.2-.15-2.15s.05-1.67,.15-2.15c.1-.5,.33-.93,.71-1.3,.63-.63,1.41-.95,2.34-.95,1.83,0,2.89,.91,3.19,2.74h-1.72c-.2-.82-.69-1.23-1.46-1.23-.47,0-.83,.15-1.08,.45-.18,.19-.29,.43-.34,.73-.06,.31-.09,.88-.09,1.72s.03,1.41,.09,1.72c.05,.3,.16,.54,.34,.73,.25,.3,.61,.45,1.08,.45,.77,0,1.26-.41,1.46-1.23h1.72Z" style="fill:#fff;"/><path d="M771.84,278.98v-5.05l-1.65,3.29h-1.14l-1.67-3.29v5.05h-1.69v-8.66h1.67l2.26,4.69,2.25-4.69h1.67v8.66h-1.69Z" style="fill:#fff;"/></g></g></g></g><rect width="1104.11" height="677.04" style="fill:none;"/></g></svg>