<svg xmlns="http://www.w3.org/2000/svg" viewBox="0 0 121.06 21.17" style="fill: #ffffff">
<g id="Ebene_2" data-name="Ebene 2">
<g id="Ebene_1-2" data-name="Ebene 1">
<path d="M21.69,7.56h-2V6.43h2V3.25A3.71,3.71,0,0,1,22,1.69a2.89,2.89,0,0,1,.7-1,2.42,2.42,0,0,1,.93-.53,3.23,3.23,0,0,1,1-.16A3.56,3.56,0,0,1,26,.25l-.25,1.09a2.58,2.58,0,0,0-1.14-.21C23.52,1.13,23,2,23,3.72V6.43h2.27V7.56H23v8.57H21.69Z"/>
<path d="M26.65,11.28a5.46,5.46,0,0,1,.37-2,5.26,5.26,0,0,1,1.05-1.62,4.75,4.75,0,0,1,1.62-1.06,5.75,5.75,0,0,1,4.11,0,4.8,4.8,0,0,1,1.61,1.06,5,5,0,0,1,1.07,1.62,5.46,5.46,0,0,1,.37,2,5.4,5.4,0,0,1-.37,2,4.77,4.77,0,0,1-1.07,1.62A4.66,4.66,0,0,1,33.8,16a5.75,5.75,0,0,1-4.11,0,4.61,4.61,0,0,1-1.62-1.06A5,5,0,0,1,27,13.32,5.4,5.4,0,0,1,26.65,11.28Zm1.26,0a4.37,4.37,0,0,0,.26,1.54,3.54,3.54,0,0,0,.77,1.26,3.62,3.62,0,0,0,1.21.85,4.16,4.16,0,0,0,3.2,0,3.62,3.62,0,0,0,1.21-.85,3.54,3.54,0,0,0,.77-1.26,4.37,4.37,0,0,0,.26-1.54,4.43,4.43,0,0,0-.26-1.55,3.54,3.54,0,0,0-.77-1.26,3.77,3.77,0,0,0-1.21-.85,4.28,4.28,0,0,0-3.2,0,3.77,3.77,0,0,0-1.21.85,3.54,3.54,0,0,0-.77,1.26A4.43,4.43,0,0,0,27.91,11.28Z"/>
<path d="M39.67,9.16c0-.19,0-.41,0-.67s0-.52,0-.78,0-.52,0-.75,0-.41,0-.53h1.26q0,.54,0,1.05a3.23,3.23,0,0,0,.06.65,4.13,4.13,0,0,1,1.24-1.41A3.09,3.09,0,0,1,44,6.17a1.5,1.5,0,0,1,.37,0l.37.07-.15,1.24a1.45,1.45,0,0,0-.48-.09,3.43,3.43,0,0,0-1.42.27,2.59,2.59,0,0,0-1,.72,3,3,0,0,0-.57,1.08,4.48,4.48,0,0,0-.19,1.34v5.29H39.67Z"/>
<path d="M46.66,9.16c0-.19,0-.41,0-.67s0-.52,0-.78,0-.52,0-.75,0-.41,0-.53h1.25c0,.36,0,.71,0,1.05a2.79,2.79,0,0,0,0,.65H48a3.43,3.43,0,0,1,1.26-1.38,3.73,3.73,0,0,1,2.06-.58,3.28,3.28,0,0,1,1.76.5,2.77,2.77,0,0,1,1.16,1.6,3.18,3.18,0,0,1,1.37-1.59,3.9,3.9,0,0,1,1.93-.51,4.07,4.07,0,0,1,1.84.36,3,3,0,0,1,1.13.94A3.39,3.39,0,0,1,61,8.8a7.21,7.21,0,0,1,.16,1.55v5.78H59.93V10.42a6.15,6.15,0,0,0-.1-1.15,3.23,3.23,0,0,0-.37-1,2,2,0,0,0-.74-.7,2.54,2.54,0,0,0-1.22-.26,3,3,0,0,0-1.45.32,2.67,2.67,0,0,0-.9.83,3.61,3.61,0,0,0-.46,1.09,5.07,5.07,0,0,0-.13,1.12v5.46H53.3V10.29a4.11,4.11,0,0,0-.5-2.16,1.64,1.64,0,0,0-1.52-.82A3.58,3.58,0,0,0,50,7.55a2.84,2.84,0,0,0-1.07.73,3.75,3.75,0,0,0-.72,1.24,5.44,5.44,0,0,0-.26,1.76v4.85H46.66Z"/>
<path d="M74.67,6.05v9.18a8.56,8.56,0,0,1-.33,2.46,4.8,4.8,0,0,1-1,1.87,4.69,4.69,0,0,1-1.78,1.19,6.93,6.93,0,0,1-2.54.42,9.6,9.6,0,0,1-2.66-.36A6.05,6.05,0,0,1,64,19.51l1.52-2.06a6.17,6.17,0,0,0,1.57,1.07A4.52,4.52,0,0,0,69,18.9a4,4,0,0,0,1.52-.25,2.44,2.44,0,0,0,1-.69A2.69,2.69,0,0,0,72,16.89a5.81,5.81,0,0,0,.15-1.37v-.74h0a3.37,3.37,0,0,1-1.45,1.11,5,5,0,0,1-1.85.36,4.83,4.83,0,0,1-4.66-3.15,5.59,5.59,0,0,1-.35-2A6.39,6.39,0,0,1,64.13,9a4.73,4.73,0,0,1,1-1.68,4.51,4.51,0,0,1,1.56-1.12,5,5,0,0,1,2.09-.41,4.78,4.78,0,0,1,2,.42,3.27,3.27,0,0,1,1.47,1.34h0V6.05Zm-5.37,2a3.36,3.36,0,0,0-1.22.22,2.73,2.73,0,0,0-.93.61,2.68,2.68,0,0,0-.61.95,3.24,3.24,0,0,0-.22,1.23,2.85,2.85,0,0,0,.22,1.13,2.62,2.62,0,0,0,.62.92,2.78,2.78,0,0,0,.94.63,2.9,2.9,0,0,0,1.18.24,3.17,3.17,0,0,0,1.25-.24,2.94,2.94,0,0,0,.94-.61,2.7,2.7,0,0,0,.6-.94A3.25,3.25,0,0,0,72.28,11a2.79,2.79,0,0,0-3-3Z"/><path d="M77.53,6.05h2.52V7.64h0a3.18,3.18,0,0,1,1.2-1.36,3.32,3.32,0,0,1,1.78-.48,2.15,2.15,0,0,1,.45,0l.46.1V8.38c-.21-.06-.42-.1-.62-.14a4.28,4.28,0,0,0-.6-.05,2.69,2.69,0,0,0-1.42.33,2.48,2.48,0,0,0-.82.74,2.61,2.61,0,0,0-.38.84,3.31,3.31,0,0,0-.09.63v5.4H77.53Z"/><path d="M84.82,11.09a5.34,5.34,0,0,1,.43-2.18,4.92,4.92,0,0,1,1.16-1.66,5.16,5.16,0,0,1,1.74-1.08,6.4,6.4,0,0,1,4.29,0,5.16,5.16,0,0,1,1.74,1.08,5.09,5.09,0,0,1,1.17,1.66,5.51,5.51,0,0,1,.43,2.18,5.42,5.42,0,0,1-.43,2.17A5,5,0,0,1,92.44,16a6.24,6.24,0,0,1-4.29,0,5.14,5.14,0,0,1-1.74-1.07,5,5,0,0,1-1.16-1.67A5.26,5.26,0,0,1,84.82,11.09Zm2.52,0a3.09,3.09,0,0,0,.2,1.13,2.73,2.73,0,0,0,.58,1,2.92,2.92,0,0,0,.94.67,2.89,2.89,0,0,0,1.24.25,2.92,2.92,0,0,0,1.24-.25,3,3,0,0,0,.93-.67,2.75,2.75,0,0,0,.59-1,3.32,3.32,0,0,0,.2-1.13,3.42,3.42,0,0,0-.2-1.14,2.8,2.8,0,0,0-.59-1,2.84,2.84,0,0,0-.93-.67,2.93,2.93,0,0,0-1.24-.26,2.89,2.89,0,0,0-1.24.26A2.81,2.81,0,0,0,87.54,10,3.19,3.19,0,0,0,87.34,11.09Z"/><path d="M107.33,16.13h-2.4V14.51h0a3.49,3.49,0,0,1-1.09,1.31,3.23,3.23,0,0,1-2,.56,4,4,0,0,1-1.71-.33A3,3,0,0,1,99,15.17a3.23,3.23,0,0,1-.63-1.27,5.58,5.58,0,0,1-.19-1.49V6.05h2.52v5.1c0,.28,0,.59,0,.94a3.36,3.36,0,0,0,.22,1,1.89,1.89,0,0,0,.55.76,1.59,1.59,0,0,0,1,.3,2.41,2.41,0,0,0,1.06-.21,2,2,0,0,0,.71-.57,2.14,2.14,0,0,0,.41-.81,3.44,3.44,0,0,0,.13-1V6.05h2.52Z"/><path d="M110.18,6.05h2.4V7.56h0a3.17,3.17,0,0,1,1.47-1.34,4.77,4.77,0,0,1,2-.42,5,5,0,0,1,2.08.41,4.59,4.59,0,0,1,1.58,1.12,5,5,0,0,1,1,1.68,6.39,6.39,0,0,1,.33,2.08,5.94,5.94,0,0,1-.36,2.08,5.22,5.22,0,0,1-1,1.68A4.61,4.61,0,0,1,118.16,16a5.09,5.09,0,0,1-3.23.26,4.09,4.09,0,0,1-1-.38,3.28,3.28,0,0,1-.71-.49,2.81,2.81,0,0,1-.48-.51h-.07v6.07h-2.52Zm8.36,5a3.19,3.19,0,0,0-.2-1.14,2.8,2.8,0,0,0-.59-1,2.84,2.84,0,0,0-.93-.67,3.09,3.09,0,0,0-2.48,0,2.84,2.84,0,0,0-.93.67,2.8,2.8,0,0,0-.59,1,3.42,3.42,0,0,0-.2,1.14,3.32,3.32,0,0,0,.2,1.13,2.75,2.75,0,0,0,.59,1,3,3,0,0,0,.93.67,3.2,3.2,0,0,0,2.48,0,3,3,0,0,0,.93-.67,2.75,2.75,0,0,0,.59-1A3.09,3.09,0,0,0,118.54,11.09Z"/><path d="M11.59,11.93,9.7,10.84l-.07-.11V4.2L.19,9.65,0,9.55V7.36l.06-.11L11.59.59l.19.11V11.83ZM9.88,10.66l1.65.95V.92L.25,7.43v1.9L9.7,3.88l.18.1Z"/><path d="M11.71,16.31h-.12L.06,9.65V9.44L9.7,3.88l.18.1V6.17l-.06.11L4.16,9.55,13.61,15v.22ZM.38,9.55l11.27,6.51,1.65-.95L3.85,9.65V9.44L9.63,6.1V4.2Z"/><path d="M13.48,15.22,3.85,9.65V9.44l1.9-1.1h.12l5.66,3.27V.7l.19-.11,1.89,1.1.06.11V15.11ZM4.16,9.55l9.26,5.34v-13L11.78.92V11.83l-.19.1L5.81,8.6Z"/>
</g></g></svg>