<svg xmlns="http://www.w3.org/2000/svg" viewBox="0 0 20.14 23.11"><g id="Ebene_2" data-name="Ebene 2"><g id="LOGO"><path d="M3.15,23.11l-.38-.22V6.62l.38-.22L5.92,8,6,8.22v9.44L19.76,9.74l.38.22v3.2l-.13.21ZM3.27,7.05V22.46L19.64,13V10.39L5.92,18.31l-.38-.22V8.36Z" style="fill:#fff"/><path d="M5.92,18.31l-.38-.22v-3.2l.13-.21L13.85,10,.12,2V1.6L2.9,0h.25L20,9.74v.43ZM6,15v2.62L19.39,10,3,.51.75,1.82,14.47,9.74v.43Z" style="fill:#fff"/><path d="M2.9,23.11.12,21.51,0,21.29V1.82L.38,1.6,14.47,9.74v.43l-2.77,1.6h-.25L3.27,7.05V22.89Zm-2.4-2,2.27,1.31V6.62l.38-.22,8.42,4.87L13.85,10,.5,2.25Z" style="fill:#fff"/></g></g></svg>