<svg xmlns="http://www.w3.org/2000/svg" viewBox="0 0 96.96 111.53"><g id="Ebene_2" data-name="Ebene 2"><g id="Ebene_2-2" data-name="Ebene 2"><g id="REGION"><polygon points="48.48 0.29 96.46 27.99 96.47 83.4 48.48 111.1 0.5 83.4 0.5 27.99 48.48 0.29" style="fill:#fff;opacity:0.5"/><path d="M.6,83.52l48-27.82m0,0L48.48.29m.15,55.41L96.17,83.29" style="fill:none;stroke:#111;stroke-miterlimit:10;stroke-width:0.5px"/><path d="M80.13,48c-.95-1.2,1.06-4.39,2.33-5.55s.63-1.69,0-3.59-1.38-3.17-3.17-4-3.59-.42-5.28-.63-3.17-2.32-4.86-3-2.85,2.85-3.38,2.33.11-2.12-.84-3.19-5.7-.83-9-1.35-3.06-2.33-2.11-3.28.95-2-1.4-3.06-7.4-.65-8.95-.4c-3.06.48-2.21-1.61-3.8-1.29s-3.8,2.43-5.17,2.11c-.49-.11-.86-.65-1.19-1.22-.83.39-1.63.82-2.42,1.26a6,6,0,0,0,1.81,2.6c1.27,1.16,2.12-.73,4.54.58s2.64,7.55,1,7.87-2.74-1.48-2.64-3.06-.31-2.64-2.21-2.43-3.06,4.12-1.48,6S30.61,38,28.29,38s-3.43-3-3.27-4.83c.25-3,2.53-3.62,3.16-5.31a7.87,7.87,0,0,0,.21-3.06A38.6,38.6,0,0,0,13.83,70.41a2.94,2.94,0,0,0,.84-1.74c0-1.64-1.16-3.27,0-3.06s1.58-.42,1.74-4,2.38-2.33,5.5-2.75,3.33-.42,1.88-2.09-2.35-5-2.2-8.55c.17-4,3.32-8.36,4.38-8.15s.24,1.56-1.07,4.29c-1.44,3-1.27,9.41,1.05,11.2s8.36-.6,7.83-2.4-2.85-1.06-3.38-4.58,2.43-5.13,2-2.49,2.21,5.49,4,6.23,2.23,3.38,1.56,5.1c-1,2.69,3.19,1.76,1.71,3.34s-2.32,9.82-1,12,3.48,2.11,3.25.32,1.18-4.76,3.5-6.63,7.08-2,9.19,0-1.69,3.78-1.27,4.62,2.33-.21,3,.11,1.06,1.58,1.37,2.85.9,3.42,2.55,3.92c2.08.64,4.63-.86,4.74-2.55s-2.11-3.38-.64-4.65,6.55-.21,9-1.79,1.69-7,.84-8.34,0-2.85,2.22-1.27S76,62.72,77.92,63c1.27.16,1.9-1.69,1.9-2.75s-1.69-2.53.1-2.95,2.11-1.06,2.75-4.86S81.08,49.24,80.13,48ZM41,39c-1.11.17-.17,2.55-1.28,3.4s-3.24.36-2.72-1.19a14.63,14.63,0,0,1,2.3-4.08,2,2,0,0,1,3.48.51C43.13,39.12,42.11,38.86,41,39Z" style="fill:#fff"/><path d="M61.11,78.22A4,4,0,0,1,60,78.07c-1.81-.56-2.4-2.93-2.68-4.08-.15-.59-.6-2.38-1.27-2.72a2.52,2.52,0,0,0-1.1.1c-.76.16-1.63.35-1.95-.29-.21-.42.2-.87.73-1.44,1-1.11,1.71-2,.58-3.13-2-1.9-6.56-1.89-8.92,0S41.78,71.37,42,73a1.27,1.27,0,0,1-.78,1.51c-.78.26-2-.24-2.85-1.7-1.25-2.2-.52-10.57,1.08-12.28.26-.28.27-.41.26-.45s-.38-.28-.68-.4c-.79-.31-2-.77-1.33-2.43s.17-4.17-1.45-4.84c-1.93-.79-4.56-3.77-4.13-6.45.1-.62,0-1-.15-1s-.36,0-.45.08a3.55,3.55,0,0,0-1,3.46,3.65,3.65,0,0,0,2,3A2.55,2.55,0,0,1,33.86,53c.18.6-.22,1.28-1.13,1.9-1.76,1.2-5.28,2.06-7,.72-2.49-1.92-2.51-8.54-1.12-11.45.16-.31.3-.61.44-.89.73-1.49,1.25-2.57,1.06-2.95,0-.05-.08-.13-.28-.17s-.23,0-.6.28a12.12,12.12,0,0,0-3.54,7.68c-.14,3.46.7,6.76,2.15,8.42.71.81,1,1.23.89,1.6s-.88.55-2.78.81h-.11a15.1,15.1,0,0,1-2.26.1c-1.9,0-3,0-3.07,2.46s-.35,3.58-.89,4a1.29,1.29,0,0,1-1.09.19.44.44,0,0,0-.25,0c-.08.1.06.6.16,1a6.85,6.85,0,0,1,.33,1.9,3.17,3.17,0,0,1-.89,1.87l-.22.26-.12-.32a38.76,38.76,0,0,1,14.64-45.9l.29-.19,0,.34a7.78,7.78,0,0,1-.22,3.15A5.2,5.2,0,0,1,27,29.5,5.18,5.18,0,0,0,25.11,33a5.33,5.33,0,0,0,1.23,3.74,2.43,2.43,0,0,0,1.84.86c1.5,0,3.31-.56,3.75-1.49a1.21,1.21,0,0,0-.32-1.34,4.52,4.52,0,0,1-.4-4.43,2.75,2.75,0,0,1,2-1.92,2.24,2.24,0,0,1,1.89.44,2.62,2.62,0,0,1,.55,2.2,3.11,3.11,0,0,0,.91,2.43,1.71,1.71,0,0,0,1.5.42c.39-.07.71-.65.85-1.54.3-1.9-.26-5.08-1.86-5.95a3.25,3.25,0,0,0-2.69-.3,1.74,1.74,0,0,1-1.89-.31,6.17,6.17,0,0,1-1.88-2.69l0-.15.14-.08c.86-.49,1.66-.91,2.43-1.28l.17-.08.09.16c.31.54.66,1,1.06,1.14.72.16,1.76-.45,2.78-1a8.35,8.35,0,0,1,2.31-1.08,1.23,1.23,0,0,1,1.38.58c.37.46.78,1,2.43.71,1.19-.19,6.54-.71,9.06.42,1.28.57,2,1.18,2.1,1.87a1.73,1.73,0,0,1-.64,1.51,1.62,1.62,0,0,0-.5,1.54c.16.48.72,1.11,2.5,1.4,1.16.18,2.51.27,3.81.36,2.48.16,4.62.3,5.29,1.06a3.21,3.21,0,0,1,.64,2.17,1.71,1.71,0,0,0,.19,1,3.14,3.14,0,0,0,.61-.72c.65-.88,1.54-2.08,2.7-1.65a8.91,8.91,0,0,1,2.22,1.45,5.72,5.72,0,0,0,2.59,1.5c1.66.21,3.49-.22,5.34.65s2.64,2.23,3.28,4.13c.12.38.25.7.36,1,.45,1.16.7,1.8-.42,2.82s-3.13,4.24-2.3,5.29a2.75,2.75,0,0,0,1,.69c1,.47,2,1,1.57,3.83-.62,3.72-.93,4.56-2.89,5a.9.9,0,0,0-.63.37c-.13.27.08.73.29,1.17a3.15,3.15,0,0,1,.39,1.22,3.75,3.75,0,0,1-1,2.59,1.39,1.39,0,0,1-1.12.36,1.13,1.13,0,0,1-.81-.37,1.32,1.32,0,0,1-.06-1,1.87,1.87,0,0,0-.81-2.22c-.89-.64-1.65-.82-2-.48a1.24,1.24,0,0,0,.09,1.48c.85,1.38,1.68,6.93-.91,8.62-1.32.86-3.39,1-5.21,1.06-1.59.08-3.1.16-3.75.72s-.44,1.32.09,2.4a4.51,4.51,0,0,1,.62,2.1,2.91,2.91,0,0,1-1.37,2.09A4.57,4.57,0,0,1,61.11,78.22Zm-5.28-7.39a.93.93,0,0,1,.42.08c.58.29,1,1.21,1.48,3,.26,1.07.82,3.29,2.41,3.78a3.89,3.89,0,0,0,3.28-.6,2.48,2.48,0,0,0,1.2-1.77,4.12,4.12,0,0,0-.59-1.9c-.48-1-1-2,0-2.89.76-.65,2.25-.72,4-.81s3.78-.2,5-1c2.35-1.54,1.56-6.81.78-8.07a1.59,1.59,0,0,1,0-2c.25-.23,1-.65,2.53.44a2.27,2.27,0,0,1,1,2.62c-.06.32-.11.59,0,.73a.8.8,0,0,0,.53.21,1,1,0,0,0,.8-.26,3.39,3.39,0,0,0,.87-2.29,2.94,2.94,0,0,0-.35-1,1.9,1.9,0,0,1-.29-1.52,1.23,1.23,0,0,1,.9-.58c1.68-.39,2-.92,2.6-4.69.42-2.53-.44-3-1.36-3.41a3.16,3.16,0,0,1-1.14-.8c-1.09-1.39,1.18-4.76,2.35-5.83.91-.84.75-1.26.31-2.38-.11-.29-.24-.62-.37-1-.61-1.84-1.31-3.07-3.06-3.9s-3.5-.4-5.22-.61a6.25,6.25,0,0,1-2.8-1.58A8.31,8.31,0,0,0,69,31.37c-.88-.33-1.63.69-2.23,1.5-.38.52-.64.87-.93.89a.36.36,0,0,1-.29-.11,1.81,1.81,0,0,1-.31-1.27,2.91,2.91,0,0,0-.54-1.93c-.56-.62-2.82-.77-5-.92-1.31-.09-2.67-.18-3.85-.37-2-.32-2.63-1.08-2.82-1.67a2,2,0,0,1,.6-1.94,1.33,1.33,0,0,0,.52-1.16c-.1-.53-.73-1.07-1.87-1.58-2.2-1-7-.68-8.83-.39s-2.41-.36-2.8-.84-.44-.55-1-.44a8,8,0,0,0-2.19,1c-1.13.66-2.2,1.28-3.07,1.08a2.22,2.22,0,0,1-1.22-1.16c-.67.32-1.36.68-2.1,1.1a6.06,6.06,0,0,0,1.71,2.35c.51.47.91.37,1.52.22a3.61,3.61,0,0,1,3,.34c1.82,1,2.38,4.39,2.07,6.36-.17,1.1-.59,1.77-1.18,1.88a2.11,2.11,0,0,1-1.84-.52,3.47,3.47,0,0,1-1-2.76,2.27,2.27,0,0,0-.43-1.88,1.9,1.9,0,0,0-1.56-.33c-.67.07-1.3.7-1.69,1.67a4.19,4.19,0,0,0,.34,4,1.58,1.58,0,0,1,.38,1.77C31.77,37.43,29.78,38,28.18,38A2.89,2.89,0,0,1,26,37a5.81,5.81,0,0,1-1.34-4,5.7,5.7,0,0,1,2-3.78,4.64,4.64,0,0,0,1.19-1.58A6.91,6.91,0,0,0,28.1,25,38.42,38.42,0,0,0,13.78,69.9a2.47,2.47,0,0,0,.58-1.34A6.26,6.26,0,0,0,14,66.77c-.17-.63-.3-1.08-.07-1.34a.67.67,0,0,1,.62-.13.89.89,0,0,0,.77-.1c.42-.34.64-1.42.74-3.72.13-2.86,1.6-2.85,3.48-2.84a15.46,15.46,0,0,0,2.19-.1h.12c1.37-.19,2.36-.32,2.45-.55s-.46-.79-.82-1.2c-1.51-1.73-2.39-5.14-2.24-8.69a12.65,12.65,0,0,1,3.69-8,1.22,1.22,0,0,1,.92-.35.72.72,0,0,1,.57.39c.28.55-.2,1.53-1.06,3.29l-.43.9c-1.44,3-1.17,9.28,1,11,1.56,1.21,4.91.37,6.53-.73.74-.51,1.1-1,1-1.45a2.2,2.2,0,0,0-1.2-1.27,4.06,4.06,0,0,1-2.19-3.34,4,4,0,0,1,1.2-3.86.8.8,0,0,1,.88-.07c.23.15.47.52.33,1.44-.4,2.48,2.07,5.26,3.88,6s2.42,3.46,1.68,5.36c-.5,1.28.31,1.6,1.1,1.9.45.18.84.34.92.69s-.06.5-.36.82c-1.36,1.45-2.29,9.58-1,11.8.72,1.26,1.76,1.72,2.38,1.51.39-.13.57-.52.5-1.07-.25-2,1.32-5,3.58-6.81,2.49-2,7.35-2,9.45,0,1.5,1.45.26,2.8-.57,3.69-.35.38-.74.81-.66,1,.18.36.89.21,1.51.07A5,5,0,0,1,55.83,70.83ZM38.32,42.94a2,2,0,0,1-1.17-.34,1.27,1.27,0,0,1-.44-1.53,12.54,12.54,0,0,1,1.93-3.57l.39-.57a2.17,2.17,0,0,1,2.22-.87,2,2,0,0,1,1.63,1.45,1.32,1.32,0,0,1-.09,1.11c-.25.35-.73.39-1.27.44l-.59.06h0c-.38.06-.43.52-.47,1.28a2.69,2.69,0,0,1-.72,2.08A2.41,2.41,0,0,1,38.32,42.94Zm2.49-6.51a1.73,1.73,0,0,0-1.45.73q-.2.3-.39.57a12.13,12.13,0,0,0-1.88,3.46.89.89,0,0,0,.29,1.08,1.93,1.93,0,0,0,2.11-.11c.48-.36.52-1.09.57-1.79s.09-1.54.81-1.65h0l.61-.07c.45,0,.84-.07,1-.27a1,1,0,0,0,0-.77,1.57,1.57,0,0,0-1.32-1.15A2,2,0,0,0,40.81,36.43Z" style="fill:#16110d"/><path d="M16.89,67.49c-.5,1.35-.64,3.82,1.05,5s.53-5.07,2.43-5.49.4-2.35-.95-2.21S17.27,66.48,16.89,67.49Z" style="fill:#fff"/><path d="M18.2,72.71a.85.85,0,0,1-.48-.18c-1.8-1.24-1.66-3.8-1.13-5.22l.19.07-.19-.07c.24-.63,1.13-2.7,2.7-2.86a2,2,0,0,1,2.06,1.45c0,.27,0,.93-1.05,1.17-.81.18-1,1.85-1.14,3.19s-.23,2.17-.73,2.4A.59.59,0,0,1,18.2,72.71Zm1.24-7.86h-.11c-1.06.11-1.92,1.42-2.36,2.6h0c-.47,1.26-.62,3.65,1,4.75.1.06.23.13.32.09.29-.13.4-1.17.5-2.08.17-1.54.36-3.29,1.46-3.54.37-.08.8-.27.73-.7A1.65,1.65,0,0,0,19.44,64.85Z" style="fill:#16110d"/><path d="M63.52,88.77c-3.15,1.8-5.84,1.4-8.25,2-1.66.42-2.51,2.36-3.81,4.54a38.37,38.37,0,0,0,21.61-7.65,4.58,4.58,0,0,0-.27-1C71.22,82.65,66.68,87,63.52,88.77Z" style="fill:#fff"/><path d="M51,95.43l.19-.32.57-1c1-1.76,1.87-3.27,3.36-3.65a19.33,19.33,0,0,1,2.49-.39,13.66,13.66,0,0,0,5.71-1.59h0c.63-.36,1.31-.82,2-1.3,2.12-1.43,4.32-2.9,6-2.39a2.61,2.61,0,0,1,1.58,1.67,5.16,5.16,0,0,1,.28,1.06v.12l-.09.07a38.48,38.48,0,0,1-21.72,7.69ZM70.6,85.1c-1.42,0-3.33,1.28-5,2.42-.72.49-1.41,1-2.05,1.32h0a14.27,14.27,0,0,1-5.86,1.64,16.82,16.82,0,0,0-2.44.38c-1.32.34-2.11,1.72-3.11,3.46-.12.22-.25.45-.39.68a38.12,38.12,0,0,0,21-7.53,4,4,0,0,0-.24-.85,2.18,2.18,0,0,0-1.32-1.44A1.85,1.85,0,0,0,70.6,85.1Z" style="fill:#16110d"/><path d="M51.46,79.67c-3.46-1.26-1.11,5.91,2,7.19,2.76,1.12,6,.58,5.92-.47s-1.8-.19-4.2-2.09S53.11,80.27,51.46,79.67Z" style="fill:#fff"/><path d="M56.64,87.57a8.87,8.87,0,0,1-3.31-.64c-2.41-1-4.44-5.24-3.76-7,.15-.4.6-1,1.85-.56.89.32,1.26,1,1.69,1.88A7.34,7.34,0,0,0,55.24,84a6.39,6.39,0,0,0,3,1.36c.65.13,1.17.23,1.23.87a.79.79,0,0,1-.38.73A4.41,4.41,0,0,1,56.64,87.57Zm-6-8a.66.66,0,0,0-.69.47c-.54,1.41,1.24,5.55,3.54,6.48s4.66.68,5.42.11a.44.44,0,0,0,.22-.37c0-.31-.21-.38-.91-.52A6.81,6.81,0,0,1,55,84.35a8,8,0,0,1-2.24-2.91c-.41-.8-.73-1.42-1.47-1.69h0A1.9,1.9,0,0,0,50.63,79.61Z" style="fill:#16110d"/><path d="M68.6,80.93c-2-1.81,1.47-4.78,3.3-4.59s1.64,2,.53,3.72S69.74,81.93,68.6,80.93Z" style="fill:#fff"/><path d="M70.06,81.66a2.57,2.57,0,0,1-1.7-.69h0a1.91,1.91,0,0,1-.48-2.34A4.71,4.71,0,0,1,71.81,76a1.57,1.57,0,0,1,1.39.83c.36.74.1,1.91-.71,3.2a3.13,3.13,0,0,1-2.13,1.58Zm1.55-5.24a4.45,4.45,0,0,0-3.36,2.37,1.49,1.49,0,0,0,.38,1.87h0a2.09,2.09,0,0,0,1.68.58,2.75,2.75,0,0,0,1.84-1.39c.72-1.16,1-2.21.69-2.81a1.21,1.21,0,0,0-1.07-.61Z" style="fill:#16110d"/><path d="M80.32,64c-.23-1.06,1.36-2,2.2-2,1.12,0,.7-2.2,1.5-2.12s1.3,3.8-.52,5C82,65.7,80.68,65.54,80.32,64Z" style="fill:#fff"/><path d="M81.72,65.43a1.76,1.76,0,0,1-.66-.12,1.86,1.86,0,0,1-1-1.41,1.38,1.38,0,0,1,.32-1.18,3.17,3.17,0,0,1,2.07-1.12c.41,0,.54-.42.7-1.06s.28-1.11.82-1c.34,0,.61.43.77,1.11.28,1.15.19,3.32-1.2,4.22A3.48,3.48,0,0,1,81.72,65.43Zm-1.31-1.62a1.44,1.44,0,0,0,.8,1.12,2.36,2.36,0,0,0,2.07-.45c1.16-.74,1.3-2.66,1-3.79-.13-.56-.33-.79-.42-.8s-.27.27-.39.74S83.17,62,82.42,62a2.74,2.74,0,0,0-1.76,1,1,1,0,0,0-.25.84Z" style="fill:#16110d"/><path d="M75.27,48.3c-5,0-11.36-1.71-17.58-5.1C46,36.85,39,27,42.14,21.24a7.37,7.37,0,0,1,4.57-3.41l.09,0c1.11-.08,2.09-.12,3-.12A39.06,39.06,0,0,1,85.28,40.57l0,.07v.07a6.55,6.55,0,0,1-.74,3.58h0C83.11,47,79.69,48.3,75.27,48.3ZM46.91,18.61a6.63,6.63,0,0,0-4.06,3C39.94,27,46.76,36.35,58.07,42.49S81,49.27,83.86,43.9h0a5.84,5.84,0,0,0,.65-3.07A38.25,38.25,0,0,0,49.79,18.49C48.92,18.49,48,18.53,46.91,18.61Z" style="fill:#16110d"/><path d="M69.3,79.24h-.71c-8.51-.15-18.1-2.89-27-7.73S25.22,60.15,20.52,53.12C16,46.32,14.71,39.93,17.06,35.6l.44-.76a39,39,0,0,1,67.82,37.8l-.19.42,0,0C82.66,77,77,79.24,69.3,79.24ZM49.79,18.49A38.16,38.16,0,0,0,18.18,35.26l-.42.74c-2.2,4-1,10.13,3.43,16.68C25.82,59.59,33.2,66,42,70.79s18.25,7.49,26.63,7.64c7.94.14,13.77-2.1,16-6.16l.1-.17A38.16,38.16,0,0,0,49.79,18.49Z" style="fill:#16110d"/><path d="M88.75,56.65a39,39,0,1,0-76.66,9.86h0v0A39,39,0,0,0,66.77,91.72l0,0h0A39,39,0,0,0,88.75,56.65Zm-22.62-28c-3.11-1.69-4.55-4-3.94-5.17a2.21,2.21,0,0,1,2-.81,9.74,9.74,0,0,1,4.44,1.31c3.12,1.69,4.56,4,3.94,5.16h0C72,30.23,69.25,30.3,66.13,28.61ZM49.79,94.81A38.22,38.22,0,0,1,14.18,70.37c2.91,4.49,9.27,12,21.74,18.19a44.68,44.68,0,0,0,19.82,4.57,46,46,0,0,0,6.77-.5A38,38,0,0,1,49.79,94.81ZM66.47,91a43.78,43.78,0,0,1-30.19-3.12c-18-8.86-23-20.64-23.42-21.55A38.15,38.15,0,0,1,65.73,22c-2-.4-3.64,0-4.25,1.07-.93,1.7,1,4.45,4.27,6.26a10.59,10.59,0,0,0,4.82,1.4,2.93,2.93,0,0,0,2.75-1.23h0c.52-.95.16-2.23-.83-3.49a38.13,38.13,0,0,1-6,65Z" style="fill:#16110d"/><path d="M48.48.29.5,28l48,27.71L96.46,28Zm48,27.7-48,27.71v55.4l48-27.7Zm-48,27.71L.5,28V83.4l48,27.7Z" style="fill:none;stroke:#111;stroke-miterlimit:10;stroke-width:0.5px"/></g></g></g></svg>