<svg xmlns="http://www.w3.org/2000/svg" viewBox="0 0 147.94 147.94"><g id="Ebene_2" data-name="Ebene 2"><g id="Ebene_2-2" data-name="Ebene 2"><rect width="147.94" height="147.94" style="fill:#111"/><g id="REGION"><polygon points="75.33 19.32 123.31 47.03 123.31 102.43 75.33 130.14 27.35 102.43 27.35 47.03 75.33 19.32" style="fill:#fff;opacity:0.25"/><path d="M27.45,102.55l48-27.82m0,0-.12-55.41m.15,55.41L123,102.33" style="fill:none;stroke:#fff;stroke-miterlimit:10;stroke-width:0.5px"/><path d="M107,67.08c-1-1.2,1.06-4.4,2.32-5.56s.64-1.69,0-3.59-1.37-3.17-3.16-4-3.59-.42-5.28-.63S97.69,51,96,50.33s-2.85,2.85-3.38,2.32.11-2.11-.84-3.18-5.7-.83-9-1.36-3.06-2.32-2.11-3.27,1-2-1.41-3.06-7.39-.65-8.94-.41c-3.06.49-2.21-1.6-3.8-1.28s-3.8,2.43-5.17,2.11c-.49-.11-.86-.66-1.19-1.23-.83.4-1.63.82-2.42,1.27a6,6,0,0,0,1.81,2.6c1.27,1.16,2.11-.74,4.54.58s2.64,7.55,1,7.87-2.74-1.48-2.64-3.07-.31-2.64-2.21-2.42-3.07,4.11-1.48,6S57.46,57,55.14,57s-3.43-3-3.28-4.82c.26-3,2.54-3.63,3.17-5.31a8.09,8.09,0,0,0,.21-3.06A38.55,38.55,0,0,0,40.68,89.45a3.05,3.05,0,0,0,.84-1.74c0-1.64-1.16-3.28,0-3.06s1.58-.43,1.74-4,2.38-2.32,5.5-2.74,3.33-.43,1.88-2.09-2.35-5-2.2-8.56c.17-4,3.32-8.36,4.38-8.15s.24,1.56-1.07,4.3c-1.44,3-1.27,9.4,1,11.2s8.36-.61,7.83-2.4-2.85-1.06-3.38-4.58,2.43-5.14,2-2.5,2.21,5.49,4,6.23,2.23,3.38,1.56,5.1c-1,2.69,3.19,1.76,1.71,3.35s-2.32,9.82-1.05,12,3.48,2.11,3.25.31,1.18-4.75,3.5-6.63,7.08-2,9.19,0-1.69,3.78-1.27,4.63,2.33-.21,3,.1,1,1.59,1.37,2.85S85.39,96.51,87,97c2.07.64,4.63-.87,4.74-2.55s-2.11-3.38-.64-4.65,6.55-.21,9-1.8,1.69-7,.84-8.34,0-2.85,2.22-1.26-.33,3.34,1.58,3.59c1.28.16,1.91-1.69,1.91-2.75s-1.69-2.53.1-3,2.11-1,2.75-4.85S107.93,68.28,107,67.08Zm-39.12-9c-1.11.17-.17,2.55-1.28,3.4s-3.24.36-2.72-1.19a14.25,14.25,0,0,1,2.3-4.08,2,2,0,0,1,3.48.51C70,58.15,69,57.9,67.86,58.07Z" style="fill:#fff"/><path d="M88,97.26a3.6,3.6,0,0,1-1.09-.16c-1.81-.55-2.4-2.93-2.69-4.07-.14-.59-.59-2.38-1.26-2.72a2.34,2.34,0,0,0-1.1.09c-.76.17-1.63.35-1.95-.28-.21-.43.2-.88.72-1.44,1-1.11,1.72-2,.59-3.13-2-1.9-6.56-1.89-8.92,0S68.63,90.4,68.83,92a1.26,1.26,0,0,1-.78,1.5c-.78.27-2-.23-2.85-1.7-1.26-2.19-.52-10.57,1.08-12.27.26-.28.27-.41.26-.46s-.38-.27-.68-.39c-.79-.31-2-.78-1.33-2.43s.17-4.18-1.45-4.84c-1.93-.8-4.56-3.77-4.13-6.45.1-.63,0-1-.16-1s-.35,0-.44.08a3.55,3.55,0,0,0-1,3.46,3.66,3.66,0,0,0,2,3A2.58,2.58,0,0,1,60.71,72c.18.6-.22,1.27-1.13,1.89-1.76,1.21-5.28,2.06-7,.73-2.49-1.93-2.51-8.55-1.12-11.45l.44-.9c.72-1.48,1.25-2.56,1.06-2.94,0-.05-.08-.13-.29-.17,0,0-.22,0-.59.28a12.07,12.07,0,0,0-3.54,7.68c-.15,3.46.7,6.76,2.15,8.41.71.82,1,1.24.89,1.61s-.88.55-2.78.8l-.11,0a16.56,16.56,0,0,1-2.26.1c-1.91,0-3,0-3.07,2.45s-.35,3.59-.89,4a1.32,1.32,0,0,1-1.09.18c-.17,0-.23,0-.25,0s.06.59.16,1a6.78,6.78,0,0,1,.33,1.9,3.17,3.17,0,0,1-.89,1.87l-.22.25-.12-.31A38.76,38.76,0,0,1,55,43.51l.29-.2,0,.35a7.89,7.89,0,0,1-.22,3.14,5.13,5.13,0,0,1-1.28,1.73A5.25,5.25,0,0,0,52,52.06a5.4,5.4,0,0,0,1.23,3.75,2.47,2.47,0,0,0,1.85.86c1.5,0,3.31-.56,3.75-1.49a1.24,1.24,0,0,0-.32-1.35,4.51,4.51,0,0,1-.4-4.43,2.75,2.75,0,0,1,2-1.92,2.24,2.24,0,0,1,1.89.45,2.66,2.66,0,0,1,.55,2.2,3.12,3.12,0,0,0,.91,2.43,1.7,1.7,0,0,0,1.49.42c.4-.08.72-.66.86-1.55.3-1.9-.27-5.08-1.86-5.94a3.23,3.23,0,0,0-2.7-.3,1.76,1.76,0,0,1-1.88-.31,6,6,0,0,1-1.88-2.7l0-.15.14-.08c.86-.49,1.65-.9,2.43-1.27l.17-.08.09.16c.31.53.66,1,1.06,1.13.71.17,1.76-.45,2.77-1a8.48,8.48,0,0,1,2.32-1.07,1.22,1.22,0,0,1,1.38.58c.36.45.78,1,2.43.7,1.19-.19,6.54-.71,9.06.42,1.28.58,2,1.19,2.1,1.87a1.74,1.74,0,0,1-.64,1.52,1.6,1.6,0,0,0-.5,1.53c.16.48.72,1.11,2.5,1.4,1.16.19,2.51.28,3.81.36,2.48.17,4.62.31,5.29,1.06a3.24,3.24,0,0,1,.64,2.18,1.64,1.64,0,0,0,.19,1,3.55,3.55,0,0,0,.61-.73c.65-.88,1.53-2.08,2.7-1.64a8.42,8.42,0,0,1,2.21,1.45,5.87,5.87,0,0,0,2.6,1.49c1.66.21,3.49-.22,5.34.66a6.06,6.06,0,0,1,3.27,4.13c.13.37.25.69.36,1,.46,1.16.71,1.8-.41,2.82s-3.13,4.24-2.3,5.28a2.75,2.75,0,0,0,1,.69c1,.48,2,1,1.57,3.84-.62,3.72-.93,4.56-2.89,5-.34.08-.56.2-.63.36s.08.73.29,1.17a3.15,3.15,0,0,1,.39,1.23,3.74,3.74,0,0,1-1,2.58,1.32,1.32,0,0,1-1.12.36,1.11,1.11,0,0,1-.81-.37,1.29,1.29,0,0,1-.06-1,1.87,1.87,0,0,0-.81-2.22c-.9-.64-1.65-.82-2-.48s-.27.9.08,1.48c.86,1.38,1.69,6.92-.9,8.61-1.32.86-3.39,1-5.21,1.06-1.59.09-3.1.16-3.75.72s-.44,1.32.09,2.41a4.48,4.48,0,0,1,.62,2.1,2.89,2.89,0,0,1-1.37,2.08A4.5,4.5,0,0,1,88,97.26Zm-5.28-7.39a.93.93,0,0,1,.42.08c.58.29,1,1.21,1.48,3,.26,1.07.82,3.3,2.41,3.79a3.92,3.92,0,0,0,3.28-.6,2.48,2.48,0,0,0,1.19-1.78,4,4,0,0,0-.58-1.9c-.48-1-1-2,0-2.89.75-.64,2.25-.72,4-.81s3.78-.19,5-1c2.35-1.53,1.56-6.8.78-8.06a1.61,1.61,0,0,1,0-2c.25-.23,1-.65,2.53.45a2.26,2.26,0,0,1,1,2.62c-.06.31-.11.58,0,.72s.25.18.53.21a1,1,0,0,0,.8-.26,3.37,3.37,0,0,0,.87-2.28A2.82,2.82,0,0,0,106,78.1c-.25-.53-.5-1.08-.29-1.52a1.23,1.23,0,0,1,.9-.58c1.68-.4,2-.92,2.6-4.7.42-2.52-.45-3-1.36-3.4a3.22,3.22,0,0,1-1.14-.81c-1.09-1.38,1.18-4.76,2.35-5.83.91-.83.75-1.25.31-2.38-.11-.29-.24-.61-.37-1-.61-1.84-1.31-3.07-3.06-3.89s-3.5-.4-5.22-.62a6.07,6.07,0,0,1-2.8-1.58,8.26,8.26,0,0,0-2.1-1.38c-.88-.33-1.63.68-2.23,1.5-.39.52-.64.86-.93.89a.36.36,0,0,1-.29-.12,1.87,1.87,0,0,1-.32-1.27,2.88,2.88,0,0,0-.53-1.92c-.56-.63-2.82-.78-5-.92-1.32-.09-2.67-.18-3.85-.37-2-.32-2.63-1.09-2.82-1.67a2,2,0,0,1,.6-2A1.36,1.36,0,0,0,81,43.43c-.1-.54-.73-1.07-1.87-1.58-2.21-1-7-.68-8.83-.39s-2.42-.36-2.8-.85c-.28-.34-.44-.55-1-.44a8.46,8.46,0,0,0-2.18,1c-1.13.66-2.2,1.29-3.07,1.08A2.22,2.22,0,0,1,60,41.12c-.67.33-1.36.69-2.1,1.11a6.06,6.06,0,0,0,1.71,2.35c.51.47.91.37,1.52.22a3.6,3.6,0,0,1,3,.33c1.82,1,2.38,4.39,2.07,6.36C66,52.6,65.58,53.26,65,53.37a2.1,2.1,0,0,1-1.84-.51,3.48,3.48,0,0,1-1-2.76,2.31,2.31,0,0,0-.43-1.88,1.87,1.87,0,0,0-1.56-.34,2.39,2.39,0,0,0-1.69,1.67,4.19,4.19,0,0,0,.34,4,1.6,1.6,0,0,1,.38,1.78c-.53,1.12-2.52,1.72-4.12,1.72a2.84,2.84,0,0,1-2.14-1,5.81,5.81,0,0,1-1.34-4,5.61,5.61,0,0,1,2-3.78,4.68,4.68,0,0,0,1.19-1.59A6.88,6.88,0,0,0,55,44,38.4,38.4,0,0,0,40.63,88.93a2.34,2.34,0,0,0,.57-1.34,6,6,0,0,0-.31-1.79c-.17-.62-.3-1.07-.07-1.33a.67.67,0,0,1,.62-.13.92.92,0,0,0,.77-.11c.42-.34.64-1.41.74-3.72.13-2.85,1.6-2.85,3.48-2.83a17.11,17.11,0,0,0,2.19-.1l.12,0c1.37-.18,2.36-.32,2.45-.54s-.47-.8-.82-1.2c-1.51-1.73-2.39-5.14-2.24-8.7a12.62,12.62,0,0,1,3.69-8,1.2,1.2,0,0,1,.92-.36.77.77,0,0,1,.57.39c.28.56-.2,1.53-1.06,3.3l-.43.89c-1.44,3-1.17,9.29,1,11,1.56,1.2,4.91.37,6.53-.74.74-.5,1.1-1,1-1.45-.19-.65-.63-.92-1.19-1.27a4,4,0,0,1-2.19-3.33,4,4,0,0,1,1.19-3.86.8.8,0,0,1,.89-.08c.23.15.47.53.32,1.44-.39,2.49,2.08,5.27,3.89,6s2.42,3.47,1.68,5.37c-.5,1.27.31,1.59,1.1,1.9.45.18.84.33.92.68s-.06.5-.36.83c-1.36,1.45-2.29,9.58-1,11.79.72,1.26,1.76,1.72,2.38,1.52.39-.13.57-.52.5-1.07-.25-2,1.32-5,3.58-6.81,2.49-2,7.35-2,9.45,0,1.5,1.45.26,2.8-.57,3.69-.35.38-.75.81-.66,1,.18.36.88.21,1.51.08A4.87,4.87,0,0,1,82.68,89.87ZM65.17,62A2,2,0,0,1,64,61.63a1.26,1.26,0,0,1-.44-1.53,12.67,12.67,0,0,1,1.93-3.57c.12-.18.25-.37.39-.56a2.15,2.15,0,0,1,2.22-.87,2,2,0,0,1,1.63,1.45,1.32,1.32,0,0,1-.09,1.11c-.26.35-.73.39-1.27.43-.19,0-.39,0-.59.07h0c-.38.05-.43.52-.47,1.27a2.7,2.7,0,0,1-.72,2.09A2.4,2.4,0,0,1,65.17,62Zm2.49-6.51a1.72,1.72,0,0,0-1.45.74l-.39.56a12.19,12.19,0,0,0-1.88,3.47.89.89,0,0,0,.29,1.08,1.93,1.93,0,0,0,2.11-.11c.48-.37.52-1.09.56-1.79s.1-1.54.81-1.65h0c.22,0,.43,0,.62-.07.45,0,.84-.07,1-.27s.11-.4,0-.78A1.6,1.6,0,0,0,68,55.49,2,2,0,0,0,67.66,55.46Z" style="fill:#16110d"/><path d="M43.74,86.53c-.5,1.35-.64,3.82,1,5s.53-5.07,2.43-5.49.4-2.35-.95-2.22S44.12,85.51,43.74,86.53Z" style="fill:#fff"/><path d="M45.05,91.74a.9.9,0,0,1-.49-.18c-1.79-1.23-1.65-3.79-1.12-5.21l.19.07-.19-.07c.24-.63,1.13-2.7,2.7-2.86a2,2,0,0,1,2,1.45c.05.27,0,.93-1,1.16-.81.18-1,1.85-1.14,3.19s-.23,2.17-.73,2.4A.46.46,0,0,1,45.05,91.74Zm1.24-7.86h-.11c-1.07.11-1.92,1.41-2.36,2.6h0c-.47,1.25-.62,3.65,1,4.74.1.07.23.14.32.1.29-.14.4-1.17.5-2.08.17-1.55.36-3.3,1.45-3.54.38-.08.81-.27.74-.71A1.65,1.65,0,0,0,46.29,83.88Z" style="fill:#16110d"/><path d="M90.37,107.81c-3.15,1.79-5.84,1.39-8.25,2-1.66.43-2.51,2.36-3.81,4.55a38.37,38.37,0,0,0,21.61-7.65,4.58,4.58,0,0,0-.27-1C98.07,101.68,93.53,106,90.37,107.81Z" style="fill:#fff"/><path d="M77.84,114.46l.19-.31c.2-.34.39-.67.57-1,1-1.75,1.87-3.26,3.36-3.64a17.73,17.73,0,0,1,2.49-.4,13.51,13.51,0,0,0,5.71-1.59h0c.63-.36,1.31-.81,2-1.3,2.12-1.42,4.32-2.9,6-2.39a2.63,2.63,0,0,1,1.58,1.68,4.45,4.45,0,0,1,.27,1.06l0,.12-.09.07a38.48,38.48,0,0,1-21.72,7.69Zm19.61-10.33c-1.43,0-3.33,1.28-5,2.43-.72.49-1.41,1-2,1.31h0a14,14,0,0,1-5.86,1.64,18.29,18.29,0,0,0-2.44.39c-1.32.33-2.11,1.71-3.11,3.45-.12.23-.25.45-.39.68a38.06,38.06,0,0,0,21-7.52,4.42,4.42,0,0,0-.24-.85A2.18,2.18,0,0,0,98,104.22,1.85,1.85,0,0,0,97.45,104.13Z" style="fill:#16110d"/><path d="M78.31,98.7c-3.46-1.26-1.11,5.92,2,7.19,2.76,1.12,6,.59,5.92-.47s-1.8-.18-4.21-2.08S80,99.31,78.31,98.7Z" style="fill:#fff"/><path d="M83.49,106.61a9,9,0,0,1-3.31-.64c-2.42-1-4.44-5.24-3.77-7,.16-.41.61-1,1.86-.57A3.3,3.3,0,0,1,80,100.29a7.49,7.49,0,0,0,2.13,2.78,6.36,6.36,0,0,0,3,1.35c.65.13,1.17.24,1.23.87A.8.8,0,0,1,86,106,4.51,4.51,0,0,1,83.49,106.61Zm-6-8a.66.66,0,0,0-.69.46c-.54,1.41,1.24,5.56,3.54,6.49s4.66.67,5.42.11a.44.44,0,0,0,.22-.38c0-.3-.21-.37-.91-.51a6.91,6.91,0,0,1-3.22-1.43,8,8,0,0,1-2.24-2.92c-.41-.79-.73-1.42-1.47-1.69h0A1.85,1.85,0,0,0,77.48,98.65Z" style="fill:#16110d"/><path d="M95.45,100c-2-1.8,1.47-4.77,3.3-4.59s1.64,2,.53,3.73S96.59,101,95.45,100Z" style="fill:#fff"/><path d="M96.9,100.69a2.57,2.57,0,0,1-1.69-.69h0a1.89,1.89,0,0,1-.48-2.33,4.72,4.72,0,0,1,3.93-2.61,1.59,1.59,0,0,1,1.39.84c.36.74.1,1.91-.71,3.2a3.12,3.12,0,0,1-2.13,1.57A1.56,1.56,0,0,1,96.9,100.69Zm1.56-5.23a4.43,4.43,0,0,0-3.36,2.37,1.5,1.5,0,0,0,.38,1.87h0a2.05,2.05,0,0,0,1.68.57A2.71,2.71,0,0,0,99,98.88c.73-1.15,1-2.2.7-2.81a1.23,1.23,0,0,0-1.07-.61Z" style="fill:#16110d"/><path d="M107.17,83c-.23-1.06,1.36-2,2.2-2,1.12,0,.7-2.2,1.5-2.11s1.3,3.79-.52,5C108.88,84.74,107.53,84.58,107.17,83Z" style="fill:#fff"/><path d="M108.57,84.47a1.59,1.59,0,0,1-.66-.13,1.8,1.8,0,0,1-1-1.41,1.36,1.36,0,0,1,.32-1.17,3.09,3.09,0,0,1,2.06-1.12c.42,0,.55-.43.71-1.07s.28-1.1.82-1c.34,0,.61.42.77,1.1.28,1.16.19,3.33-1.2,4.22A3.41,3.41,0,0,1,108.57,84.47Zm-1.31-1.63a1.47,1.47,0,0,0,.8,1.13,2.34,2.34,0,0,0,2.07-.46c1.16-.74,1.3-2.66,1-3.79-.13-.56-.33-.78-.42-.79s-.27.27-.39.74S110,81,109.26,81a2.72,2.72,0,0,0-1.75,1,1,1,0,0,0-.25.83Z" style="fill:#16110d"/><path d="M102.12,67.34c-5,0-11.36-1.72-17.59-5.1C72.84,55.89,65.86,46,69,40.28a7.42,7.42,0,0,1,4.57-3.42h.09c1.11-.09,2.09-.13,3-.13A39.06,39.06,0,0,1,112.13,59.6l0,.07v.08a6.5,6.5,0,0,1-.74,3.57h0C110,66,106.54,67.34,102.12,67.34ZM73.76,37.65a6.56,6.56,0,0,0-4.06,3C66.79,46,73.61,55.39,84.92,61.53s22.88,6.77,25.79,1.41h0a5.86,5.86,0,0,0,.65-3.07A38.24,38.24,0,0,0,76.64,37.53C75.77,37.53,74.83,37.57,73.76,37.65Z" style="fill:#16110d"/><path d="M96.15,98.28h-.71c-8.51-.15-18.1-2.9-27-7.73S52.06,79.18,47.37,72.16c-4.55-6.8-5.81-13.19-3.46-17.52l.44-.77a39,39,0,0,1,67.82,37.81l-.19.42,0,0C109.51,96,103.82,98.28,96.15,98.28ZM76.64,37.53A38.16,38.16,0,0,0,45,54.3l-.42.73c-2.2,4-1,10.14,3.43,16.68,4.62,6.92,12,13.35,20.78,18.12s18.25,7.49,26.64,7.63c7.94.15,13.77-2.1,16-6.15l.1-.18a38.17,38.17,0,0,0-34.89-53.6Z" style="fill:#16110d"/><path d="M115.6,75.69a39,39,0,1,0-76.67,9.85h0v0a39,39,0,0,0,54.68,25.17h0A39,39,0,0,0,115.6,75.69ZM93,47.64c-3.12-1.69-4.55-4-3.94-5.16a2.21,2.21,0,0,1,2-.82A9.74,9.74,0,0,1,95.52,43c3.12,1.7,4.56,4,3.94,5.17h0C98.85,49.27,96.1,49.34,93,47.64ZM76.64,113.85A38.22,38.22,0,0,1,41,89.41c2.91,4.48,9.27,12,21.74,18.19a45.53,45.53,0,0,0,26.59,4.06A38,38,0,0,1,76.64,113.85ZM93.32,110a43.91,43.91,0,0,1-30.2-3.13c-18-8.85-23-20.63-23.41-21.55A38.16,38.16,0,0,1,92.58,41c-2-.4-3.64-.05-4.25,1.07-.93,1.71,1,4.46,4.27,6.26a10.49,10.49,0,0,0,4.82,1.41,2.92,2.92,0,0,0,2.75-1.24h0c.52-1,.16-2.22-.83-3.48a38.14,38.14,0,0,1-6,65Z" style="fill:#16110d"/><path d="M75.33,19.32,27.35,47l48,27.7,48-27.7Zm48,27.71-48,27.7v55.41l48-27.71Zm-48,27.7L27.35,47v55.4l48,27.71Z" style="fill:none;stroke:#fff;stroke-miterlimit:10;stroke-width:0.5px"/></g></g></g></svg>