<svg xmlns="http://www.w3.org/2000/svg" viewBox="0 0 1482.16 810.71"><g id="Ebene_2" data-name="Ebene 2"><g id="Ebene_2-2" data-name="Ebene 2"><path d="M544.71,68.78c0-.09-.05-.18-.08-.26a5.85,5.85,0,0,0-.35-.71s0,0,0,0,0-.1-.08-.14l2.5-2.1,43.21-23.15a4.91,4.91,0,0,0,9.46-1.83,4.82,4.82,0,0,0-1-3L616,9.19a4.59,4.59,0,0,0,.88.38l.33.1.34.07a4.48,4.48,0,0,0,.82.09h0a4.79,4.79,0,0,0,4.37-2.71,4.85,4.85,0,0,0,.55-2.21h0a5.28,5.28,0,0,0-.09-.9c0-.18-.09-.34-.14-.51s-.06-.21-.1-.31a4,4,0,0,0-.3-.63l0-.09a5.67,5.67,0,0,0-.45-.64h0l.87-.62L622,1.56h0A4.89,4.89,0,0,0,620.44.45l-.05,0a5.62,5.62,0,0,0-.82-.27l-.14,0a4.52,4.52,0,0,0-1.89,0l-.27.06a3.22,3.22,0,0,0-.58.18l-.26.1a4.89,4.89,0,0,0-.64.34,3.8,3.8,0,0,0-.38.29,1.84,1.84,0,0,0-.22.17A5.09,5.09,0,0,0,614,2.72h0l-70,1.7a4.89,4.89,0,0,0-9.31-.35L467.5,2.69l1.5-.53-2.36.29a4.88,4.88,0,0,0-8.83,1.07L373,13.85a4.75,4.75,0,0,0-.86-.93l0,0,0,0a4.85,4.85,0,0,0-3.18-1.2,4.91,4.91,0,0,0-4.72,3.6L261.14,36.12a4.51,4.51,0,0,0-.67-.71l0,0a4.85,4.85,0,0,0-.79-.55h0a4.85,4.85,0,0,0-1.92-.6l-.09-.47-.18.44h-.19a5,5,0,0,0-1,.09l-.35.11a3.24,3.24,0,0,0-.53.16,3.81,3.81,0,0,0-.45.23,3.47,3.47,0,0,0-.33.18,4.62,4.62,0,0,0-.5.37l-.19.16a4.1,4.1,0,0,0-.49.53.39.39,0,0,0-.08.1,4.39,4.39,0,0,0-.44.68l0,0a4.65,4.65,0,0,0-.33.8h0a5.42,5.42,0,0,0-.19.89h0L224.6,48a4.91,4.91,0,1,0,.44,4.65l23.38,4.43-3.74,9.44a4.92,4.92,0,0,0-2.8,3.3L208,62a4.89,4.89,0,0,0-9.72-.46l-33.46,5.1a5,5,0,0,0-1.12-1.34l-.18-.15a3.62,3.62,0,0,0-.38-.26,3.67,3.67,0,0,0-.48-.26,3.27,3.27,0,0,0-.33-.14,4.34,4.34,0,0,0-.64-.2l-.24,0a4.31,4.31,0,0,0-.88-.09,4.21,4.21,0,0,0-.87.09l-.24,0a5.39,5.39,0,0,0-.68.22l-.3.13a4.31,4.31,0,0,0-.47.26c-.12.07-.24.16-.36.24l-.21.17a5.45,5.45,0,0,0-.71.73l0,0a4.59,4.59,0,0,0-.35.51L101.49,55.24a4.89,4.89,0,0,0-9.62,1L39.76,76.76a4.85,4.85,0,0,0-2.94-1,4.91,4.91,0,0,0-4.83,4l-.83.33.81-.07a4.07,4.07,0,0,0-.06.6,5.29,5.29,0,0,0,.05.56L14.17,94.83a4.9,4.9,0,1,0-4.44,8.72L5.89,126.13a5.25,5.25,0,0,0-1-.1,4.92,4.92,0,1,0,4.91,5l44.53-18a4.85,4.85,0,0,0,1.59,2.43l.21.17a3.62,3.62,0,0,0,.41.27c.12.07.24.14.37.2l.37.17a5.34,5.34,0,0,0,.53.16l.31.08a4.63,4.63,0,0,0,.92.09,5,5,0,0,0,.95-.09l.36-.11a3.21,3.21,0,0,0,1-.39,3.47,3.47,0,0,0,.33-.18,3.66,3.66,0,0,0,.5-.38c.06-.05.13-.09.19-.15a4.19,4.19,0,0,0,.49-.54l.08-.09a5,5,0,0,0,.44-.69l0,0a4.49,4.49,0,0,0,.35-.88L75.1,115.2l19.67,5.33a4.9,4.9,0,0,0,4.2,4.63L105.79,165a4.89,4.89,0,0,0-1.11,8.71L78.4,223.78a5.23,5.23,0,0,0-1-.1,4.91,4.91,0,0,0-.18,9.81L83,262.9c-.15.08-.3.15-.44.24l-.18-.23.1.28a4.92,4.92,0,0,0,2.73,9c.13,0,.25,0,.38,0l18.62,53.63h0a4.88,4.88,0,0,0-1.44,1.15,1.46,1.46,0,0,0-.16.19c-.1.13-.19.25-.28.39a4.77,4.77,0,0,0-.34.63c0,.08-.06.17-.1.25a5.76,5.76,0,0,0-.18.59,2.38,2.38,0,0,0,0,.26,4.31,4.31,0,0,0-.09.88,4.62,4.62,0,0,0,.1,1,4.91,4.91,0,0,0,8.89,1.74L122,337.5l3.64,11a4.9,4.9,0,1,0,6.87,6.87l34.94,15.95a5,5,0,0,0-.21,1.35,4.9,4.9,0,0,0,8.2,3.63l40.36,33.09a4.85,4.85,0,0,0-1.18,3.16,4.89,4.89,0,0,0,8.74,3l1.63,1.33-1.34-1.72a4.39,4.39,0,0,0,.54-1.16l20.49,5.47a4.77,4.77,0,0,0-.33,1.74,4.91,4.91,0,1,0,4.91-4.91,4.85,4.85,0,0,0-1.67.31l-21.4-25.38,1.45-6.17a4.84,4.84,0,0,0,2,.46,4.92,4.92,0,1,0-3.84-7.94l-12.4-5.31h0a2.51,2.51,0,0,0,0-.27,4.48,4.48,0,0,0,.09-.82h0a4.73,4.73,0,0,0-.1-.93c0-.1-.05-.2-.08-.3a5.18,5.18,0,0,0-.17-.56c-.05-.12-.1-.23-.16-.35s-.15-.28-.23-.42-.16-.25-.24-.36l-.26-.32c-.11-.12-.22-.24-.34-.35l-.24-.2a4.77,4.77,0,0,0-2-1h0l4.12-15.89a2.89,2.89,0,0,0,.51.11,3.67,3.67,0,0,0,.75.08h0a4.91,4.91,0,1,0-4.82-5.85l-40.09-5.57c0-.17,0-.33,0-.5a4.89,4.89,0,0,0-2.74-4.39l14.31-32.65a5.35,5.35,0,0,0,.91.28,4.73,4.73,0,0,0,.93.09h.05a4.91,4.91,0,0,0,4.91-4.92c0-.21,0-.42-.06-.63l39.8-6.57a4.85,4.85,0,0,0,6.49,3L245.59,319l-1.72-1.2,1.67,1.75a4.83,4.83,0,0,0-.93,2.82,4.9,4.9,0,0,0,1.26,3.26L237,334.42a4.85,4.85,0,0,0-2.94-1,4.92,4.92,0,1,0,4.45,7l33.78,9.94a5.2,5.2,0,0,0-.12,1.05,4.91,4.91,0,0,0,9.48,1.79l15.83,5.23a4.68,4.68,0,0,0-.17,1.19,4.92,4.92,0,1,0,1.42-3.45l-44.92-31.4a4.86,4.86,0,0,0-3.26-7.17l5.73-30.89h0a4.91,4.91,0,0,0,4.91-4.92,4.81,4.81,0,0,0-.44-2L288.55,261a5,5,0,0,0,1.56,1.07h0a5.23,5.23,0,0,0,.82.26.45.45,0,0,0,.11,0,4.79,4.79,0,0,0,1,.11A4.92,4.92,0,0,0,297,257.6a5.15,5.15,0,0,0-.09-.88,1.16,1.16,0,0,0,0-.18,4.15,4.15,0,0,0-.23-.76,1.63,1.63,0,0,0-.11-.23,4.11,4.11,0,0,0-.27-.51l-.27-.39-.28-.33c-.09-.11-.19-.21-.29-.31l-.45-.37,10.65-23.43a4.76,4.76,0,0,0,1.93.4,4.89,4.89,0,0,0,4.15-7.52l47-17.29a4.9,4.9,0,1,0,5.84-6.78l1.08-19.44a4.9,4.9,0,0,0,4.49-3.88l19,3.59a4.8,4.8,0,0,0-.4,1.93,4.91,4.91,0,1,0,4.91-4.91c-.15,0-.29,0-.44,0L366.43,147a4.83,4.83,0,0,0,.84-2.37L410,150.59a4.79,4.79,0,0,0-.07.77h0a4.91,4.91,0,0,0,9.82,0h0a4.92,4.92,0,0,0-4.91-4.92l-.27,0L398.3,118l.31-.26.05,0c.14-.13.26-.26.38-.39l.19-.23c.1-.12.19-.24.28-.37a5.84,5.84,0,0,0,.35-.65c0-.09.07-.18.1-.27a5.58,5.58,0,0,0,.18-.58l.06-.26a5.15,5.15,0,0,0,.09-.88h0a4.58,4.58,0,0,0-.09-.83,2.56,2.56,0,0,0-.05-.27,5.76,5.76,0,0,0-.18-.59,4,4,0,0,0-.21-.47l20.93-31.72a4.82,4.82,0,0,0,2.62.77,4.91,4.91,0,1,0-2.63-9L392.44,49a4.84,4.84,0,0,0-.1-6.58l28.78-22.08a4.89,4.89,0,0,0,8.78-.1l35.16,16a4,4,0,0,0-.17.68,4.15,4.15,0,0,0-.08.79h0a5.05,5.05,0,0,0,.08.88,1.29,1.29,0,0,1,0,.19,4.52,4.52,0,0,0,.25.79,1,1,0,0,0,.07.15,4.77,4.77,0,0,0,.34.63l.09.15a5.58,5.58,0,0,0,.49.6l.18.17a5.68,5.68,0,0,0,.59.49h0l-9.13,32a5.49,5.49,0,0,0-.72-.07,4.92,4.92,0,1,0,2.81,8.94l19,26.61a4.91,4.91,0,1,0,5.26.42l15.08-18.69a4.9,4.9,0,0,0,8.59-3.23,4.94,4.94,0,0,0-.9-2.83L535.22,71a4.26,4.26,0,0,0,.2.8s0,.06,0,.08a7,7,0,0,0,.3.68,1.09,1.09,0,0,1,.08.15c.12.19.24.37.38.55s.1.13.16.19a4.17,4.17,0,0,0,.41.43c.08.08.17.14.26.22s.28.21.42.3.26.14.39.21l.4.2a4.26,4.26,0,0,0,.54.16c.11,0,.22.08.33.1a4.91,4.91,0,0,0,.94.09h0A4.92,4.92,0,0,0,545,70.28a4.73,4.73,0,0,0-.09-.93C544.84,69.16,544.77,69,544.71,68.78ZM579,37.25l-6.19-.32,6.26-4.45,3.13,2.08Zm4-2.19,3.89,2.59-6.57-.34Zm-41.2,30.63a4.31,4.31,0,0,0-.82-.23,4.41,4.41,0,0,0-.89-.09h0a4.8,4.8,0,0,0-.85.08l-2-3.22L570,39l6.59.35L551.05,60.72ZM524.31,34.38l38.93-12.47,14.56,9.71-7.3,5.18-46.18-2.4Zm.32,2.22,43,2.23L536.46,61l-13.2-21.37A4.92,4.92,0,0,0,524.63,36.6Zm55.73-5L614.25,7.49l.06.12-30.94,26ZM612.39,7,579.06,30.72,565,21.34l2.44-.78ZM589.57,40.08,554.8,58.71l23.05-19.35,11.74.61S589.58,40.05,589.57,40.08Zm7.68-3.55a4.9,4.9,0,0,0-6.9,1.3l-.66,0-5.56-3.71,30.73-25.8,0,0Zm-53-30.66,69.34-1.69v.08l-50.11,16L544,7.32A4.66,4.66,0,0,0,544.23,5.87Zm-6.64,4.45a4.81,4.81,0,0,0,1.74.34,4.89,4.89,0,0,0,4-2l18.39,12.26-25.84,8.28-12.47,3.75-.24-.26h0ZM467.37,4.86l67.1,1.38a4.84,4.84,0,0,0,1.31,2.88L521.27,31.55h0a4.23,4.23,0,0,0-.7-.18,4.4,4.4,0,0,0-1.72,0l-.3.07a4.68,4.68,0,0,0-.53.17,2.28,2.28,0,0,0-.36.15,2.82,2.82,0,0,0-.38.21,2.55,2.55,0,0,0-.39.24l-.16.13a4.84,4.84,0,0,0-1.62,2.32h-.33L467.35,5.36c0-.11,0-.22,0-.34S467.37,4.91,467.37,4.86Zm-.69,2.65,44.21,27.32-36.49,1.4h0a4.9,4.9,0,0,0-1.6-2.38l-.19-.16-.41-.26c-.12-.07-.24-.14-.37-.2l-.37-.16a3.13,3.13,0,0,0-.52-.16l-.31-.08a4.6,4.6,0,0,0-.91-.09h0a4.38,4.38,0,0,0-.82.08L464.41,9.53A4.9,4.9,0,0,0,466.68,7.51ZM372,20.44l7.66,11.49-4.71,1.63-3.41-12.79C371.69,20.67,371.84,20.55,372,20.44ZM294,191l11.77-2.69.25,5-12-1.91v0C294.08,191.25,294.05,191.13,294,191ZM183.78,292.33h0a5.16,5.16,0,0,0-.8.08l-6.62-27.2L201,242.09a4.71,4.71,0,0,0,1.31.88l-18.15,49.4C184,292.36,183.9,292.33,183.78,292.33Zm-4.31,7.23-29,29L136,318l43.45-18.47Zm-19,39.28a4.94,4.94,0,0,0,.24,1.44l-16,5.48L138,343l6.43-6.43Zm7.73,13.89-2.13-9.07.38-.05,12.3,15.91-9.89-4Zm-1,2.12-20.44-8.26,14.57-5a4.87,4.87,0,0,0,3.24,2l1.44,6.13Zm-30.66-12.4-13.16-5.32-1.2-3.61,20.45,2.84Zm-14.66-9.86-2.5-7.52,15-6.39,14.93,11-5.95,5.95Zm-13.37-37-.24.09h0L88.77,270.58a4.66,4.66,0,0,0,1.24-4l43-10.26-2.86,7.78-18,31.47h0a5.24,5.24,0,0,0-.88-.26,4.32,4.32,0,0,0-1-.1,5.28,5.28,0,0,0-.9.09l-.13,0A5.5,5.5,0,0,0,108.55,295.57ZM99.87,205l15.49-17.43L124.53,205l-27.9,13.66Zm-4.93,14.46L81.58,226l-.17-.24,16.42-18.48Zm15.16-53.92,7.77-22.84,16.85,20.9-18.54,20.86-5.77-11a4.88,4.88,0,0,0-.31-7.95Zm-5.55-45.45v0l19.79-3.18-2.25,6.63Zm-21.28-4.17-19.4-5.26h0a4.44,4.44,0,0,0-.15-.52L94.09,97.4l33.55-.46s0,.11,0,.17a4.91,4.91,0,0,0,.49,2.1l-24.9,17.72a4.87,4.87,0,0,0-8,1.32ZM57.3,107l-.27.11a4.44,4.44,0,0,0-.53.28l-.38.26,0,0a5.13,5.13,0,0,0-.72.68l-38.5-9.92,50-.7L60.6,107h0a4.23,4.23,0,0,0-.72-.19,4.4,4.4,0,0,0-1.72,0l-.14,0A4.32,4.32,0,0,0,57.3,107ZM164.11,72.47l21.13,17.94L181,97.72l-17.32-24.9a3.34,3.34,0,0,0,.4-.35Zm39,26,1.42-1,3.91,34.25L201.12,107a4.88,4.88,0,0,0,2-8.5ZM256,43.82a3.81,3.81,0,0,0,.51.12,4.67,4.67,0,0,0,.76.07h.1L260,57.77l-8.83-1.68L256,43.82Zm91.67,2.56,28.92-1L377,46.8l-17.14,4.82-12.36-4.45A4.36,4.36,0,0,0,347.66,46.38Zm-.05-1.81,26.33-9.13,2.26,8.5-7.51.26-21,.73C347.65,44.81,347.64,44.68,347.61,44.57ZM304,151.79l1.07,21.85-8.87.05Zm-9.34,21.91-18.86.11,27.52-24.75.11,0Zm-21,.12-24.6.13a5.35,5.35,0,0,0,.07-.7,4.92,4.92,0,0,0-.34-1.76l52-24.73a4.55,4.55,0,0,0,.54.83h0a4.63,4.63,0,0,0,.7.7Zm10.91,19.23-8.72,4.72-13.62-11.72,3.29-3,18.86,7.23a5.21,5.21,0,0,0-.12,1.06A4.9,4.9,0,0,0,284.56,193.05Zm-15.49,51.57-16.2-8.13-1.67-15.71,20,18.08Zm3.25-4.71L288,254.09l-17.59-8.82Zm-21.76-4.58-10-5-3.28-10,8.39-4.55,3.1,2.81Zm-69,57.58-13.63-19.74,7.25-6.81,6.46,26.5Zm-1.34,1a5.84,5.84,0,0,0-.39.48l-.18.27a4.59,4.59,0,0,0-.26.49l-.13.28a5.31,5.31,0,0,0-.25.8h0L141.51,298l25.31-23.78,13.51,19.58h0Zm-41.68-50,2.05-.9a5.22,5.22,0,0,0,.93,1.25l-5.19,9.08-1.39.33Zm-4.61,10L94,263.42l43.39-19ZM131.66,102.1l.31.41.89,10.8-5.3.85Zm-6.53,12.45-20.76,3.34,24.55-17.48a4.71,4.71,0,0,0,.78.7Zm7.59-22.34h-.18a4.91,4.91,0,0,0-4.24,2.45l-.53-.09L121.3,86l34.32-14.38-20.8,21.16a5.18,5.18,0,0,0-1.51-.51l-.12-1.43Zm-23.82-1,11-4.62,5.75,7.6Zm16,4.32-27.25.38,8.76-3.67ZM261.41,41.7l19.5,13.54L271,59.85l-3.44-.65L260.21,43A5,5,0,0,0,261.41,41.7Zm40.19,99.35L279.55,123.2l14.19-4,9.4,20.77A5.16,5.16,0,0,0,301.6,141.05ZM300.47,143a2.91,2.91,0,0,0-.12.39c0,.11-.05.21-.07.31a5.56,5.56,0,0,0-.08.82h0a4.49,4.49,0,0,0,.09.83l-52.8,24.05,24-43.73a4.86,4.86,0,0,0,2.24.56,4.2,4.2,0,0,0,.62-.06l1.29,2.42-.49-2.59a4.9,4.9,0,0,0,2.81-2.21l22.85,18.49A4.55,4.55,0,0,0,300.47,143ZM260,186.07l-4.55,4.09-7.66-13.6a1.56,1.56,0,0,0,.16-.2l1.4.54Zm-6.65-7.64L264,182.5l-2.88,2.59Zm-29.25,43.65-.24-1.56,9.23-8.3,2.43,7.41-3,1.65-4.8,2.6Zm1.26,3.07-.72.38-.13-.81Zm-18.83,9a5,5,0,0,0-.67-.28,3.06,3.06,0,0,0-.43-.13,2.84,2.84,0,0,0-.31-.06l-.33-.05,1.27-18.16,13.64,6.84Zm-6,1.25a4.18,4.18,0,0,0-.5.74.75.75,0,0,0-.07.12,4.89,4.89,0,0,0-.34.82.5.5,0,0,1,0,.13,5,5,0,0,0-.16,1h0l-28,6.68-12.25-50.27h0a4.88,4.88,0,0,0,1.36-.59h0l15.61,15.52,24.69,25.47c-.08.08-.14.17-.22.26Zm-85.44,63.76a5.35,5.35,0,0,0-.21-.68.08.08,0,0,0,0,0l3.41-2.24-1,2.87-2.14.09Zm-2.51,5.3a5.27,5.27,0,0,0,.64-.4l.09-.07a5.47,5.47,0,0,0,.51-.45h0l1.38,1-1.36,3.71-1.26-3.8Zm2.07-2.11h0a4.91,4.91,0,0,0,.32-.83h0a5.29,5.29,0,0,0,.16-.9h0l1.54-.07-1,2.6Zm-4.2,2.69a4.9,4.9,0,0,0,.77-.08l1.81,5.49-5.13,13.93Zm-.68,21.51a4.92,4.92,0,0,0-1.4-.94l5.1-13.84,2.86,8.62Zm4.51-17,1.65-4.5,9.37,6.87-7.81,7.34Zm2.18-5.92,1.16-3.17,20.91-1L126.39,311Zm1.71-4.65,1.34-3.63,42.59-28,4.2,6.1L140.17,298Zm43.9-34.26L153,251.57l17.53-4.19,2.48,10.2Zm-8.38-72.32-11.15,11.81L142,198l11.61-5.68Zm-11,13.75,11.92-12.62h0a5.78,5.78,0,0,0,.75.55l-1.11,4.42-10,27ZM156,131l2.5.49,0,1.42h0a4.68,4.68,0,0,0-.53.17,4.73,4.73,0,0,0-.47.2Zm-20-37.4,20.93-21.29a4.67,4.67,0,0,0,.45.44l.1.08a4.88,4.88,0,0,0,1.8.92l-.5,35.36-15.38,2.47-7.25-11.21a4.93,4.93,0,0,0,1.29-3.3A4.88,4.88,0,0,0,136,93.64ZM246.79,199.92l1.11,10.4-9.45-2.26-.36-.32Zm0-20.76,7,12.49-5.21,4.69Zm-14,27.55-1.2-3.66,4.74,4.29-.19.18Zm1.39,2.57-.42.38-.17-.52Zm-3-3L221.28,204l-1.88-12,10,9.1ZM164,140a4.92,4.92,0,0,0,.51-1.71h0l16.69.87-5.84,11.77-11.59-10.5L164,140Zm-1.73,1.91a4.44,4.44,0,0,0,.59-.46l.1-.08.27-.26,11.73,10.63-4.37,8.79-8.37-18.59Zm14.36,11.34,10.23,9.27-11,9.77-4.14-9.19Zm11.31,10.25,17.73,16.06-24.35,4.79-4.71-10.45,7.73-7.19Zm20.25-18a6.29,6.29,0,0,0,.67.37c.11.05.22.08.33.12a3.37,3.37,0,0,0,.48.15c.12,0,.24.07.36.09l.08,0-2.31,32.9-1.06.21-18.14-16.43,19.59-17.43Zm-27.75,39-18,3.54a3.82,3.82,0,0,0-.36-.66l13.82-12.87ZM166.14,193l20.29,4.85,3.09,6.88Zm24.8,14.87,11.72,26-40.88-40.64ZM162.82,190s0,0,0,0c0-.18,0-.34-.05-.51L181,185.83l4.29,9.53Zm19.07-4.32L207,180.73l.63.57-1.34,19.07-19.9-4.76ZM208.43,182l9.26,8.39,2.06,13.16-12.62-3Zm.08-1.1,0-.52L215.9,179l1.58,10.1Zm8.81-2.25,4.49-.88,7.09,21.6-9.71-8.8Zm-.22-1.43L213,150.8l8.41,25.62Zm-1.43.28-7,1.38L210.89,147Zm-40.51-4.69-14.57,13a.61.61,0,0,0-.14-.07l10.76-21.68Zm28.78,60.78c-.15,0-.29,0-.43.05L192.17,208.5l13.07,6.55Zm-13.18-28.27-3.26-7.24,18.62,4.45-.71,10.13ZM207,202.77l13.15,3.14,2.2,14.06-.86.78-15.21-7.63Zm30,4-5.94-5.38-7.82-23.85,16.17-3.19a4.91,4.91,0,0,0,4.78,3.82,2.4,2.4,0,0,0,.28,0l2.12,20Zm2.32-33.88-16.54,3.26-9.95-30.32a4.24,4.24,0,0,0,.7-.37l27.21,24.31A4.87,4.87,0,0,0,239.33,172.88Zm-33.34-32a4.4,4.4,0,0,0-.05.51h0a4.43,4.43,0,0,0,.09.9,5.18,5.18,0,0,0,.14.53l.09.29c.05.13.11.25.16.37l-.52.42.65-.18,0,0,0,.07a4,4,0,0,0,.37.54l-4.59,4.27-14.92,13.28L177,152.39l6.54-13.16,19.47,1Zm-21.76-3,.56-1.13,8.1,1.59Zm-2.37-.12-17.43-.91h0a4.87,4.87,0,0,0-2.33-3.27h0l.66-1.14,19.82,3.88ZM160.75,133a5.66,5.66,0,0,0-.84-.12v-1l1.34.26Zm-.81-2,.27-19.81,14.44-2.32-12.93,22.47Zm-16.8-17.07,4.59,7.09-5.28-7Zm1.56-.25,14.06-2.26-.27,19.29-3.17-.62Zm15,29a4.78,4.78,0,0,0,1.61-.29l.14-.05,8.65,19.21-11.69,23.57-.23,0Zm-7.38,63.88L145.1,235l-.61-7.36Zm-6.4,39,.11.22,0-.25a4.79,4.79,0,0,0,.86-.27l3.33,4.82-11.92,2.85,4.45-7.8a4.68,4.68,0,0,0,3.19.43ZM148,244.4a4.86,4.86,0,0,0,1.74-3.72,4.91,4.91,0,0,0-3.45-4.66l10.42-41.34h0a4.36,4.36,0,0,0,1,.14L170,245.27l-18.34,4.38Zm23.89,2.65,26.77-6.39-24.41,16.07Zm49.18-24,1.83.91.37,2.35-14.67,7.95Zm.53-16.73L232,208.75l.64,2-9,8.09Zm9.93,17.16L236,221l2.75,8.38-9.46-4.75Zm2.71-12.28,1.64-1.47,4.12,1,4.5,4.07-7.71,4.18Zm7.52-.06,6.34,1.51,0,.18-2.81,1.52Zm6.53,3.25.31,2.94-2.15-1.95Zm.46-16.23,5.75-5.17,7.07,12.55-10.37,5.62-1.1-.27Zm37-98.61L300.82,72.1l.42.26.32.17.41.17c.15.06.31.1.47.15l.34.08a4.87,4.87,0,0,0,.55.06l.34,13.16-16,17.46Zm1.22,4.8-9.54,10.38,7.8-14.22Zm63.67-6.19-.23,0a4.6,4.6,0,0,0-.84-.08c-.13,0-.25,0-.38,0l-.86-6.6L353.53,94l-2.87,4.16ZM304.54,72.93l.21,0a5,5,0,0,0,.78-.24l.18-.09.07,0,6.36,4.42-7.62,8.29L304.2,73Zm8.8,4.84,12.57,8.73,19.35,14.12-.12.23c-.05.11-.09.23-.14.35a4.48,4.48,0,0,0-.16.52c0,.1,0,.2-.07.3a4.62,4.62,0,0,0-.07.65l-39.44,11.06-.69-26.42Zm34.45,20.58h0a4.44,4.44,0,0,0-.49.24l-.19.1-.42.27-3.53-2.57-26-20.25,29.67,14.52ZM285,97.86l-4.53-10,17.66-13.92Zm18.7-9.63L304.4,114l-10.72,3-5.4-11.93Zm.72,28,.61,23.36a5,5,0,0,0-.95.09l-.12,0h0L294.58,119Zm3.1,24h0a4,4,0,0,0-.9-.4l-.35-.11-.34-.08h0L305.32,116l39.34-11Zm45.61-40.69a5.48,5.48,0,0,0-.44-.4l-.14-.11a5.14,5.14,0,0,0-.54-.37h0l2.8-4.06,5.08,2.48-6.76,2.46Zm2.18-5.67,10.73-15.53,10,12.88-15,5.45ZM366,75.9,350.33,55.8l9.43-2.66,17.57,6.33Zm-.86,1.25L354,93.24l-5.82-2.85L343.94,57.6l4.89-1.38Zm-21.38-21L343,50.52a4.79,4.79,0,0,0,1.21-.21L347.86,55Zm2.9,33.48L316.16,74.7l11.5-12.52L342.53,58ZM329.53,60.15l10-10.89a4.89,4.89,0,0,0,2,1.08l.81,6.2Zm-2.66.75-18.69,5.26c0-.09-.1-.16-.14-.25L338,48.8Zm-18.37,8a3.69,3.69,0,0,0,.08-.76h0a2.3,2.3,0,0,0,0-.26,2.48,2.48,0,0,0,0-.27L325,62.93,314.8,74l-1-.51-5.36-4.17A4.42,4.42,0,0,0,308.5,68.86ZM299,66.65l0,.08-.18-.12.21,0Zm-.21,1c0,.14,0,.28,0,.43h0a5.28,5.28,0,0,0,.09.9c0,.13.07.26.1.39s.08.27.13.4a4.25,4.25,0,0,0,.21.49L279.57,85.81l-8.94-19.76L281,63.22l15.74,3Zm-28.77-3-1-2.33,2.19-1,6.55,1.25Zm14.12-2.36,5-1.37,4.61,3.2Zm-3.25-.62-7.47-1.41,8.87-4.12,5.32,3.7Zm-12.18-.83-.34.16-.11-.24Zm-1.13.52-4.33,2-.7-3.7,4.67.89Zm.6,1.33,1,2.19-5.35,1.47-.29-1.51Zm1.6,3.53,9.09,20.08-9.8,7.72-5-26.25Zm10,22.12,4.71,10.42-9.7,17.68a5,5,0,0,0-1.11-.13c-.13,0-.26,0-.39,0l-3.78-19.92Zm-9,26.57-7.34-13.72L267.6,98Zm6,2.55,10.82-11.77,5.19,11.47-14.23,4A4.86,4.86,0,0,0,276.82,117.52ZM246.47,168.2l.51-35.86L269.6,126Zm-1.45.22a4.48,4.48,0,0,0-.82-.09l-.17,0-12-31.81,13.52-3.79Zm-2.44.21c-.21.08-.42.17-.62.27l-27.34-24.44h0a5.17,5.17,0,0,0,.46-.66l0-.07a4,4,0,0,0,.31-.66,2.46,2.46,0,0,0,.09-.29,3.1,3.1,0,0,0,.15-.52,4.63,4.63,0,0,0,.09-.92,1.94,1.94,0,0,0,0-.24l14.86-4.17Zm-36-29.65-7.51-.39-13.87-2.72L194.07,118l13.64,19.61A4.93,4.93,0,0,0,206.57,139ZM183,135.44l-19.76-3.87,13.28-23.06,9.87-1.59,6.28,9Zm-5.09-29.36,3.58-6.21,3.53,5.07Zm-1.84.3-15.8,2.53L160.73,74h0a5,5,0,0,0,2.26-.65l17.55,25.23Zm-41-5.06,6.83,10.55L141,112l-6.77-9-.11-1.31A4.37,4.37,0,0,0,135,101.32Zm4.32,11L135,113l-.6-7.2Zm-4.14,2.87,5.63-.91,11.49,15.2-16.2-3.17Zm17.91,15.34,2.93,3.87a5.19,5.19,0,0,0-.76,1.09h0l-18.83-5.11-.26-3.17Zm1.67,6.33a5.3,5.3,0,0,0-.09.91h0a4.81,4.81,0,0,0,.09.85,3,3,0,0,0,.07.32c0,.15.09.3.14.44a4.68,4.68,0,0,0,.45,1L138.82,159l-2.24-27.11Zm1.61,4.59a4.89,4.89,0,0,0,.84.59h0a4.52,4.52,0,0,0,1,.4l-1.53,42.79h0a4.89,4.89,0,0,0-1.29.54h0l-16-19.83L139,161Zm-2.59,45.84c-.1.17-.19.35-.28.52l-5.18-1.24,4.77,2.39a4.9,4.9,0,0,0-.11,1h0a4.92,4.92,0,0,0,.09.86l0,.19-11.21,5.48-2.2-26.69Zm-11.26,43.17-.89,2.41L133,216.45l7.68-8.14Zm.17,2.06.23,2.79-.74-1.41Zm-1.24,4.67a5,5,0,0,0-1,1.37l.7-1.91ZM140,241.63l-.85.37.88-2.37a4.57,4.57,0,0,0-.12,1.05A4.94,4.94,0,0,0,140,241.63Zm-5.23,14.28-2.08,3.64L134,256.1Zm1.94-.46,14.73-3.52,9.4,13.63L120.79,292l8.91-24.17Zm-17.18,37.31-5.86,3.86c-.1-.1-.22-.19-.33-.28l13.71-24Zm-8.93,34.86c-.08-.14-.17-.28-.26-.41h0l6.28-5.9,1.16,3.51-7,3Zm7.17-7.41,8.22-7.72,7.61,5.59-14.49,6.16Zm9.3-8.73,12.77-12,10.54-.48,28.51-1.13a4.11,4.11,0,0,0,.17.79h0s0,.06,0,.09L135.2,317.42Zm40.28-39-4.06-5.89,10.22-6.73,1.36,5.56ZM174.84,259l23-15.17-21.76,20.44Zm34.31-19.63a4.58,4.58,0,0,0,.09-.83h0a4.62,4.62,0,0,0-.11-1h0a4.28,4.28,0,0,0-.29-.92h0l1.39-.91-1.67.4-.06-.12,15.05-8.16,2.41,15.4-16.84-3.63Zm15.75-12.28,2.06-1.12,12.74,6.39,4.88,14.87-17.1-3.68Zm26.16-7.58-.67-6.25.1-.06,17.84,4.27,6.45,11.44-3.3,9.1Zm2.29-7.86,9-4.86,4.56,8.09Zm2.85-20.16,4.93-4.44,13.35,11.49-11,6Zm9-10.05-15.08-5.78-.27-.23,22.17-.12Zm43.51-40.25v0l29.36-27.92L309.2,141.76A4,4,0,0,0,308.71,141.16Zm45.79-38.25h0a4.49,4.49,0,0,0-.08-.83c0-.09,0-.18-.05-.26a5.76,5.76,0,0,0-.18-.59c-.06-.16-.12-.3-.19-.45l7.73-2.8,29.1,14.24s0,.11-.05.17l-36.31-9.18c0-.1,0-.2,0-.3Zm36.74,8.54L362.87,97.57,377,92.43l14.51,18.62A3.9,3.9,0,0,0,391.24,111.45ZM366.93,77.1,378.74,60l1.91.69,7,26.37-10.14,3.68ZM379.6,58.74l.39-.57.2.79Zm1-4-1.85-7,5.18-1.46a4.87,4.87,0,0,0,.9,2.28Zm-2.23-8.36-.28-1.07,4.67-.16Zm1.15,9.93-1.32,1.9-16-5.76,15.16-4.27Zm-22.08-4-8.05,2.26-3.79-4.87a4.88,4.88,0,0,0,1.23-1.21ZM344.89,41.18a4.89,4.89,0,0,0-7,4.45,3.87,3.87,0,0,0,0,.49l-11.51,3.15,36.89-28.72L361,23.21,346.58,39.29Zm-8.55,6.89L307.21,64.72h0l-.27-.26h0l16.53-12.87ZM305.66,63.62h0l-.24-.09a5.65,5.65,0,0,0-.73-.23l-.12,0a5.49,5.49,0,0,0-.9-.09,4.46,4.46,0,0,0-.91.09,3.94,3.94,0,0,0-.49.14l-.32.1a4.51,4.51,0,0,0-.63.29l-.09,0a4.83,4.83,0,0,0-.64.44h0l-7.1-4.51,26.34-7.2Zm-6.31,1.62-3.48-.67-5.61-3.89,1.34-.37ZM288.7,59.6l-5.5-3.83.72-.33,6,3.82Zm-6.88-4.78-11.9-8.27,12.55,8ZM259.48,43.51l7,15.49-4.23-.8ZM261.71,67l-6.47,1.77,6.26-2.9Zm.28,1.43,5.15,27.19-4.7,3.7-13-24.3a4.89,4.89,0,0,0,2-3.72Zm-1.28,32.26-13.44,10.59.49-34.82Zm1,2L270,118.07a4.88,4.88,0,0,0-1.22,3.21,4.93,4.93,0,0,0,.7,2.49L247,130.07l.22-16Zm-16.2,27.86-14.32,4-2.28-6,16.82-13.26Zm-15.73,4.41-14,3.93,11.95-9.41Zm-15.9,2.65-.08-.07-.05,0a4.38,4.38,0,0,0-.58-.37l-.08-.05a4.71,4.71,0,0,0-.65-.28h0L222.66,116l4.28,11.33Zm-2.92-1.1h-.15c-.13,0-.26,0-.39,0L205.9,96.54l7.48-5.14L222,114.09Zm-2.48.6h0l-.1.05-13.91-20,5-10,.15,0Zm-15.43-22-5.76-8.28,8.9-1.43a5,5,0,0,0,1.18,1Zm2.11-11.75L186,104.79,182,99l4.42-7.68,9.52,8.09a4.92,4.92,0,0,0-.83,2.74A4.56,4.56,0,0,0,195.2,103.3ZM155.91,70.55,120.76,85.28l-9.21-12.19,44.13-3.87A4.81,4.81,0,0,0,155.91,70.55ZM119.38,85.86l-12.07,5.06L77,85.53l6.85-10,26-2.28Zm-43.91-.61-33.86-6L82,75.68Zm.66,1.59L104.85,92l-9.51,4-25.68.35Zm15.63,10.6L63.38,109.33a3.47,3.47,0,0,0-.18-.33l0-.06a4.63,4.63,0,0,0-1.26-1.31h0l6.75-9.87Zm35,19,6.27-1,.86,10.35-9.66-1.9Zm7.2,10.24.25,3-10.94-3,.68-2Zm.38,4.53,2.47,30-.63.71-17.5-21.69,4.12-12.11Zm-17.27,7-12-14.93,15.67,4.25Zm-.18,47.57,18.75-21.09,1.63,2,2.54,30.74L126.48,204Zm23,13.22.61,7.33-8.23,8.72-5.16-9.79Zm.7,36.52-2.55,6.93L88.87,264.08a4.44,4.44,0,0,0-.43-.44l43-45.52Zm-29.4,95.55a4.62,4.62,0,0,0,.1-1,4.46,4.46,0,0,0-.09-.91c0-.11,0-.21-.08-.32a2.86,2.86,0,0,0-.07-.28l7-3,2.23,6.73-9.08-1.26Zm97.33-90.18a5.45,5.45,0,0,0,.29-.53l17.24,3.71,2,12.89-19.55-16.07Zm19.05,3.51,17.28,3.72,9.54,29.07a4.85,4.85,0,0,0-1,.57l-23.61-19.41Zm18.92,4.07,5.54,1.2,2.47,23.21Zm-.31-.95-4.7-14.32,9.3,4.67L252,248.8Zm6.91-8.5,15.18,7.62-1.9,5.23-12.2-2.63Zm16.49,8.27,17.74,8.89-.06.19-19.46-4.19Zm3-8.3,3.08-8.48,12.95,23Zm-1.43-20.9,6.88,1.64-2.33,6.42Zm-1.45-2.59-5.53-9.82,11.43-6.19,7.45,6.41-4.28,11.77ZM284.28,207l19,16.35-.12.22-22.9-5.47Zm-.64-2.47L277,198.79l8.23-4.47a4.93,4.93,0,0,0,1.58,1.36ZM284.9,189l-18.18-7,7.49-6.74,20-.11-4.06,11.41A4.82,4.82,0,0,0,284.9,189Zm10.81-13.82,9.46-.06.57,11.76-12,2.74a5,5,0,0,0-2.26-2.53Zm9.66-25.78h0a4.47,4.47,0,0,0,1.46-.3l25.11,24.42-25.39.14Zm28.06,25.57,4.66,4.53-30.91,7.05-.56-11.44Zm2.06,0,23.11-.12-18.82,4.29ZM334,173.48,308.7,148.87l52.07,23.93c-.07.17-.11.35-.17.53Zm-25-26c.12-.17.23-.34.34-.53l.06-.11a4.81,4.81,0,0,0,.56-1.92h0l47.52-.86c0,.08,0,.15,0,.23a4.9,4.9,0,0,0,4.35,4.86L364,170a4.82,4.82,0,0,0-2.49,1.59Zm48.77-4.87-47.89.86a5.19,5.19,0,0,0-.22-.7l0-.08,46.57-15.27,1.6,5.12,2.33,7.41A4.89,4.89,0,0,0,357.8,142.56Zm-46.93-1.23,35.3-34.9.25.21.15.12a6,6,0,0,0,.52.36c.14.08.28.16.43.23l.29.13a4.29,4.29,0,0,0,.72.22l.18,0a4.31,4.31,0,0,0,.88.09,4.07,4.07,0,0,0,.49,0L356,126.54Zm40.62-33.89.05,0a4.36,4.36,0,0,0,.64-.35l.3-.2.21-.18a5.62,5.62,0,0,0,.69-.69h0l20,14.82-16.05,5.27Zm2.65-2.68a5.35,5.35,0,0,0,.21-.68l36.19,9.14a5.14,5.14,0,0,0-.08.88h0a4.93,4.93,0,0,0,.13,1.09l-15.51,5.08Zm39.51,4.75-.41.18a4.31,4.31,0,0,0-.47.26,1,1,0,0,0-.17.1h0L378.47,91.91,388,88.44l5.61,21.07Zm-4.24-21.57,2.17-.79,1.89,16Zm-.37-1.4-6.73-25.28,6.5,2.34,2.6,22.08Zm-7.19-27-.78-2.95,4.79-6.93a5.07,5.07,0,0,0,1.39.71L388.62,62Zm2.47-15.89-6.63.23L375.31,35l5.17-1.79,5.62,8.42A4.87,4.87,0,0,0,384.32,43.66ZM365.59,20.21a4.78,4.78,0,0,0,4.6,1.14L373.56,34l-26.48,9.18a4.88,4.88,0,0,0-1-1.23l6.84-7.63ZM322.81,50.27l-31,8.47-6.34-4,78.3-36.34ZM261.87,37.46,363.38,17,284,53.79,262.09,39.86a3.44,3.44,0,0,0,.05-.45,3,3,0,0,0,0-.31h0a5.27,5.27,0,0,0-.3-1.64ZM225.38,51.21a4.4,4.4,0,0,0,.05-.51,4.67,4.67,0,0,0-.23-1.4l27.24-9.25h0c0,.13.07.25.11.38a3.5,3.5,0,0,0,.14.46,3.89,3.89,0,0,0,.25.5l.12.24a5.3,5.3,0,0,0,.39.54l.07.09a6.75,6.75,0,0,0,.53.54L249,55.68Zm25.21,6.25,9.67,1.84,1,5.08-10.09,4.68a4.86,4.86,0,0,0-4-2.91Zm-4.27,18.43-.51,36.52-17.67,13.92-4.61-12.17L243,74.34A4.83,4.83,0,0,0,246.32,75.89Zm-4.21-3L222.83,112.3l-8.22-21.74,27.19-18.7A4.33,4.33,0,0,0,242.11,72.94Zm-34.24-9.47L240.54,71,214.08,89.16l-8.55-22.6A4.86,4.86,0,0,0,207.87,63.47ZM203,67.2l.13,0a4.68,4.68,0,0,0,1.07-.13L212.85,90l-7.14,4.9-2.94-25.8Zm1.38,28.64-2.59,1.78a4.89,4.89,0,0,0-1.8-.35c-.11,0-.22,0-.34,0l2.42-21.72Zm-3.7-29.3.37.2.28,2.37-3.17,28.52a5,5,0,0,0-1.26.76l-9.78-8.3ZM165.37,68l32.9-5a4.94,4.94,0,0,0,1.24,2.61L186,89.13l-21-17.86h0a4,4,0,0,0,.23-.51,5.4,5.4,0,0,0,.18-.57c0-.1,0-.2.05-.3a4.38,4.38,0,0,0,.09-.82,5.15,5.15,0,0,0-.09-.88l0-.16ZM101.65,56.75l53.46,11.06-44.59,3.91-9.58-12.66A4.79,4.79,0,0,0,101.65,56.75Zm-7.57,3.86a4.84,4.84,0,0,0,2.68.81A4.91,4.91,0,0,0,100,60.19l8.83,11.68L84.94,74Zm-2-2.83a4.91,4.91,0,0,0,1,1.84L83.07,74.13,41,77.82Zm-59.67,25a4.91,4.91,0,0,0,9.36-2l32.84,5.84-6.68,9.76L16.16,97a5.15,5.15,0,0,0-.83-1.27ZM9.59,129.53a4.85,4.85,0,0,0-2.32-2.87l3.87-22.76a5,5,0,0,0,.54.06,4.9,4.9,0,0,0,4.83-4.07l38,9.79h0a5,5,0,0,0-.27.85h0a4.72,4.72,0,0,0-.11.92Zm112.21-5.19-.62,1.85-16.81-4.56a3.82,3.82,0,0,0,.15-.67Zm-21.36.81a4.89,4.89,0,0,0,2.39-1.11l13.42,16.64-8.19,24.1a4.76,4.76,0,0,0-.66-.07l-.19,0Zm6.66,49.36.3,0a5.1,5.1,0,0,0,1-.12l6.2,11.77L100.57,202Zm-1.74,1L98.54,204.3,80.4,224.71a4.65,4.65,0,0,0-.64-.41ZM84.75,262.4l-.41,0-5.65-29.11a4.8,4.8,0,0,0,3.46-6l12.36-6.05ZM96.2,220.45l29-14.2,5.54,10.51L87.22,262.82a5.61,5.61,0,0,0-1-.34ZM87,271.83h0L106.57,297h0a4.54,4.54,0,0,0-.48.67l0,.05a4.42,4.42,0,0,0-.34.69c0,.09,0,.18-.08.27a3.92,3.92,0,0,0-.16.56,4.63,4.63,0,0,0-.09.92h0a4.6,4.6,0,0,0,.09.91,2.81,2.81,0,0,0,.08.31c0,.18.1.36.16.54s.11.24.17.37a2.82,2.82,0,0,0,.21.38c.08.14.17.27.26.4l.2.24a5.36,5.36,0,0,0,.4.43h0a4.9,4.9,0,0,0,2.07,1.14l-2.68,20.34a5.69,5.69,0,0,0-.83.08Zm24,60.25s0-.08,0-.13l9.64,1.34,1,3.13Zm17.74,15.36a4.66,4.66,0,0,0-1.72.33l-3.17-9.55,12.13,4.9L131,348.05A4.77,4.77,0,0,0,128.67,347.44Zm3.5,1.47,5.2-5.2,6.12,2.48-10.63,3.63A4.74,4.74,0,0,0,132.17,348.91ZM168.06,370l-34.81-15.89a4.65,4.65,0,0,0,.17-2.93L145.54,347l22,8.87,2.87,12.21A4.94,4.94,0,0,0,168.06,370Zm4.12-2.24c-.14,0-.27,0-.41,0l-2.64-11.23,10.71,4.33,3,3.88-7,4.63A4.89,4.89,0,0,0,172.18,367.74Zm39.39-18.62h0a4.59,4.59,0,0,0,.39.37l.21.18c.13.1.26.2.4.29l-4.24,16.36h0a4.92,4.92,0,0,0-2.77,1.09l-.2.17c-.12.12-.24.23-.35.36a4,4,0,0,0-.26.32,4.15,4.15,0,0,0-.24.34,3.54,3.54,0,0,0-.26.47c0,.09-.1.19-.14.29a3.58,3.58,0,0,0-.11.35l-16.15-6.53,23-15.15A5,5,0,0,0,211.57,349.12ZM203,370.26l-13.55.73-4.55-5.88,2-1.34Zm-15.31.83-10.74.58a5.1,5.1,0,0,0-.37-1.08l7.11-4.68ZM184.05,364l-1.54-2,2.84,1.15Zm-7.67,11.21a5,5,0,0,0,.66-2.05l11.77-.64L216,407.68ZM218,407.89l-27.46-35.5,13.24-.72h0a4.91,4.91,0,0,0,.5,1.75h0a4.35,4.35,0,0,0,.46.74l0,.06a4.14,4.14,0,0,0,.53.58c0,.05.1.08.15.13a4.5,4.5,0,0,0,.54.41l.3.17a4.44,4.44,0,0,0,.49.24,4.32,4.32,0,0,0,.51.16,2.26,2.26,0,0,0,.37.11,4.34,4.34,0,0,0,1,.1h.15l9.57,31.67Zm1.84-.23-3.71-12.29-5.91-19.53h0a4.86,4.86,0,0,0,.77-.34l13.61,16.14-3.8,16.17A5.06,5.06,0,0,0,219.87,407.66Zm26.44,9.69a4.94,4.94,0,0,0-.86.85l-21-5.6v-.06a4.89,4.89,0,0,0-2.28-4.14L225.8,393Zm-21.18-38.48a4.83,4.83,0,0,0,1.25,5.36l-1.33,5.65-12.86-15.25h0a4.72,4.72,0,0,0,.41-.5,5.14,5.14,0,0,0,.32-.49Zm-14.84-33.11v.07a4.15,4.15,0,0,0,.08.79l-24.14,15.91-4.78-1.93L167.88,343a5,5,0,0,0,2.25-2.87Zm-65-9.92,5.34-5.33,10,7.35s0,.07,0,.11ZM166.19,334a5,5,0,0,0-.78-.08,4.89,4.89,0,0,0-4.28,2.55l-9.52-7,28.73-28.73a3.73,3.73,0,0,0,.3.26Zm62-45.44s0,0,0,.07l-39.94,6.6h0a5,5,0,0,0-1.06-1.5l0,0a4.63,4.63,0,0,0-.69-.55l-.09-.05a4.63,4.63,0,0,0-.73-.39h0l19.16-49.33.18,0h.17l25.3,41.06A4.92,4.92,0,0,0,228.17,288.54Zm3.63-4.72-25.23-41a5,5,0,0,0,1.11-.78h0l20.78,17.08,3.85,24.55Zm2-.12-3.63-23.16,22.25,18.28a4.83,4.83,0,0,0-1,2.95c0,.13,0,.24,0,.36l-13.88,4.35A4.86,4.86,0,0,0,233.77,283.7Zm39,65.28L238.9,339a4.43,4.43,0,0,0-.89-3.55l9-8.88a4.85,4.85,0,0,0,2.53.72,4.91,4.91,0,0,0,2.63-.77l20.94,22A4,4,0,0,0,272.82,349Zm24.27,7.8L282,351.83c0-.15,0-.29,0-.44a4.91,4.91,0,0,0-4.91-4.92,4.85,4.85,0,0,0-2.69.81L256.77,328.6Zm-48-39.27a4.86,4.86,0,0,0-2.23.76l-10.68-25.94a4.86,4.86,0,0,0,1.83-3.79,4.76,4.76,0,0,0-.07-.66l13.79-4.32a4.89,4.89,0,0,0,3.12,2.88ZM257.16,277l-2.84-26.76,11.8,2.54L257.33,277Zm2.27,1.08a5.05,5.05,0,0,0-.75-.53L267.56,253l19.62,4.23c0,.11,0,.22,0,.33a4.6,4.6,0,0,0,.08.84,6.05,6.05,0,0,0,.2.73ZM293,252.78a5.16,5.16,0,0,0-.89-.09,3.84,3.84,0,0,0-.76.08,3.1,3.1,0,0,0-.51.11l-14.09-25,2.81-7.75,23.12,5.52s0,.05,0,.07a4.85,4.85,0,0,0,1.2,3.18Zm11.2-30.64-19.34-16.65,3.38-9.3a5.15,5.15,0,0,0,1,.1,5.08,5.08,0,0,0,1.88-.37l15,25.11A5,5,0,0,0,304.15,222.14Zm-11.88-27a4.77,4.77,0,0,0,1.55-2.3l12.31,2,1.24,25.56Zm18.38,26.78a5,5,0,0,0-1.79-.94l-1.27-25.94,50.68,8.08a5.51,5.51,0,0,0-.06.57,5.34,5.34,0,0,0,.07.71Zm48-20.21-51.12-8.15-.27-5.58,32.08-7.31,20.23,19.66A4.63,4.63,0,0,0,358.64,201.72Zm4.46-2.93a4.8,4.8,0,0,0-2.38.66L341,180.29l19.51-4.45a4.91,4.91,0,0,0,3.64,3.63Zm28.45-22a4.89,4.89,0,0,0-1.63,1.21l-19.75-3.73a5.41,5.41,0,0,0-.07-.58l1.7-.39H370a4.89,4.89,0,0,0-4.5-3.48l-2.18-20.74a4.79,4.79,0,0,0,2.12-1ZM367.2,143.2a4.91,4.91,0,0,0-4.8-3.87,5.15,5.15,0,0,0-.88.09L359,131.47l-1.43-4.55,16.65-5.46,36.55,27.08a4.56,4.56,0,0,0-.37.65Zm46.43,3.4-.15.05-.36.11a4,4,0,0,0-.56.26l-.14.07a4,4,0,0,0-.35.2l-27-19.63-9.12-6.75L390.85,116a4.83,4.83,0,0,0,1,1.55,4.9,4.9,0,0,0,3.47,1.44,5.14,5.14,0,0,0,.88-.08l.17,0c.23-.06.45-.13.67-.21l.31-.12h0l.24.31-.1-.39h0Zm-15.32-36.41-.4-.28a5.21,5.21,0,0,0-.52-.28l-.26-.11a5.94,5.94,0,0,0-.75-.23l-2.7-22.9,24.91-9a4.83,4.83,0,0,0,.54,1.28Zm20.11-34.31-24.91,9L391.1,64.42l27.62,10A4.72,4.72,0,0,0,418.42,75.88ZM418,72.57l-27.1-9.76-1.44-12.24a4.91,4.91,0,0,0,1.14-.3ZM391.15,41.46a4.83,4.83,0,0,0-2.39-.65,4.72,4.72,0,0,0-1.31.2l-5.55-8.32,37.71-13.07Zm-10.08-10L373,19.35a4.91,4.91,0,0,0,.83-2.73,4.76,4.76,0,0,0-.07-.66l46,2.06Zm48-16.69a4.88,4.88,0,0,0-8.27,1.86L378,14.7l78.09-9.51Zm1.24,4a5.66,5.66,0,0,0,.07-.72,5.15,5.15,0,0,0-.1-1L457.75,6.33a4.91,4.91,0,0,0,4.72,3.6,4.75,4.75,0,0,0,.53,0l4.51,23.4a5,5,0,0,0-.87.57c-.07.06-.15.11-.22.18l-.29.28a4.89,4.89,0,0,0-.45.55h0ZM459.2,74.08l9.07-31.76a3.74,3.74,0,0,0,.66.16,4.07,4.07,0,0,0,.79.08h0a3.85,3.85,0,0,0,1.48-.25,3.52,3.52,0,0,0,.43-.13,4.36,4.36,0,0,0,.6-.33l.23-.12a6.13,6.13,0,0,0,.68-.56s0,0,0,0a4.88,4.88,0,0,0,1.45-3.45h0l38.47-1.48,1.84,1.14L460.36,74.86A5.36,5.36,0,0,0,459.2,74.08Zm23.66,34.77a4.84,4.84,0,0,0-1.66-.31,5.15,5.15,0,0,0-.88.09L461,81.51a4.74,4.74,0,0,0,1-2.11l36.25,7.09a4.59,4.59,0,0,0,.25,3.1Zm19.49-26.07a4.91,4.91,0,0,0-3.63,2.34L462,77.92a4.82,4.82,0,0,0-.67-1.94l54.25-37.3a5,5,0,0,0,.58.79h0a4.15,4.15,0,0,0,.73.66Zm2.77.49a4.77,4.77,0,0,0-1.25-.45l14.27-42h0a5,5,0,0,0,.76.21,4.8,4.8,0,0,0,.85.08,4.24,4.24,0,0,0,.88-.09,5.24,5.24,0,0,0,.8-.22h0l12,19.44,1.21,2ZM535.4,63.53l1.69,2.86a4.73,4.73,0,0,0-1.17,1.27h0a5,5,0,0,0-.42.83h0a4.74,4.74,0,0,0-.26.91L509.45,82Z" style="fill:#1d1d1b"/><path d="M470,523.4a4.82,4.82,0,0,0-1.53.27l-9.55-18.9a4.91,4.91,0,1,0-6.95-6.93l-21.6-6.53a5.35,5.35,0,0,0,.07-.7,4.91,4.91,0,0,0-8.41-3.44l-22.33-13.82a5,5,0,0,0,.28-1.59,4.9,4.9,0,0,0-6.79-4.54l-15.31-25.53a4.9,4.9,0,1,0-7.95-4.5h-9.18a4.86,4.86,0,0,0-7.78-3.18l-22.1-21.73a4.9,4.9,0,1,0-8.44-4.89l-30.31-8.5a4.2,4.2,0,0,0,.06-.61,4.91,4.91,0,1,0-9,2.67l-19.19,17a4.91,4.91,0,1,0-4.92,8.45l-3.85,19.22c-.1,0-.2,0-.31,0a4.91,4.91,0,0,0-2.81,8.94l-15.25,37.55A5.16,5.16,0,0,0,236,492a4.92,4.92,0,1,0,0,9.83,4.7,4.7,0,0,0,1.2-.17l27.56,53.87A4.88,4.88,0,0,0,269.1,564l.6,1.17-.16-1.3a5,5,0,0,0,1.7-1l20.45,16.22a4.79,4.79,0,0,0-.67,2.43,4.89,4.89,0,0,0,4.7,4.89l6.72,63.85a4.9,4.9,0,0,0,.14,9.53v38.77a4.89,4.89,0,0,0,1.75,9.63l18.55,63.22a4.9,4.9,0,1,0,5.78,7.61l40.11,24.87a4.81,4.81,0,0,0-.41,1.94,4.92,4.92,0,1,0,4.92-4.91,4.84,4.84,0,0,0-2.25.56l-14.62-20.18a4.91,4.91,0,0,0-2.48-8.33l-.7-25.24a4.88,4.88,0,0,0,2-8.44l20-31.46a4.9,4.9,0,0,0,5.31-8.08l9-13.27a4.75,4.75,0,0,0,2.13.51,4.91,4.91,0,0,0,2.09-9.35l12.67-42a4.17,4.17,0,0,0,.71.07A4.91,4.91,0,0,0,412,630.8a4.84,4.84,0,0,0-.58-2.27l25.7-18.82a4.9,4.9,0,1,0,5-7.83l7.4-29.13a5.3,5.3,0,0,0,1.06.12,4.91,4.91,0,0,0,2.79-9L468.49,533a4.82,4.82,0,0,0,1.47.25,4.92,4.92,0,0,0,0-9.83Zm-14.2-17.27a5,5,0,0,0,1.92-.52l9.45,18.7a4.92,4.92,0,0,0-.76.68l-11.54-5.8Zm10.06,19.56a5,5,0,0,0-.7,1.87l-11,1.17.61-8.6ZM381.27,669.13l-2-2.22,1-19.62,4.31-2.52Zm.5,2.77,6.14,7a5.13,5.13,0,0,0-.47.65l-6.36-2.6Zm-28.11-9.08,2.95-1.72,3.45,7.24-6.19-2.54a4.91,4.91,0,0,0,.15-1.16A4.84,4.84,0,0,0,353.66,662.82ZM308,701.05l9.69-8.24,12.61,31.41-22.43-18.4a4.74,4.74,0,0,0,.13-4.77Zm-7.36-120.9,16.85-7.65,21.57,5.6-3.7,35.24a4.85,4.85,0,0,0-2.84,1.07L300,584.26a4.88,4.88,0,0,0,.85-2.77A5,5,0,0,0,300.64,580.15Zm-41-130.51L294,438.2a4.83,4.83,0,0,0,2.11,2.13l-10.89,31.92a5.15,5.15,0,0,0-.88-.09,4.87,4.87,0,0,0-3.11,1.14l-22.29-20.1a4.86,4.86,0,0,0,.82-2.71A4.8,4.8,0,0,0,259.67,449.64Zm179.1,84.18,3,9.13-8.48,4.64a5,5,0,0,0-1-1Zm-7.85,12.1a4.36,4.36,0,0,0-.79-.2l-.86-13.3,8.73-1,.13.42Zm1.24-37.13,14.18,7.12-7.27,14.15Zm5.52,21.7-8.47.9L427.6,506.5l2.73,1.37Zm-9.81,13.93L423,533.12l4.16-.46Zm-1.42,2.19a4.94,4.94,0,0,0-1.52,1.84l-35.21-10.72a4.17,4.17,0,0,0,.07-.71c0-.08,0-.15,0-.23l30.91-3.42Zm-36.89-11a4.89,4.89,0,0,0-3.22-3.26l6.72-43.19,10.71,5.38,16.47,37.8ZM385,531.35l-5-48.73,11.66,5.86ZM372.35,624l-11.09-2,5.06-17.57,15.59-7.4-.58,11.76Zm8.82-12.05-.67,13.48-6.62-1.16Zm-92.08-136,16.15-.9,3,14.54L289.15,478a4.31,4.31,0,0,0,.09-.88A4.91,4.91,0,0,0,289.09,475.92Zm11.27-35.46.29-.16,27.66,32-21.17,1.18Zm7.08,34.44,22.07-1.22L341.05,487l-14.42,13.72-15.86-9.65Zm47.08,79.6,11.72,11.65-3.73,6.22-15.38-9.17a4.42,4.42,0,0,0,.12-1,4.86,4.86,0,0,0-1.1-3.07Zm-.28-1.51-8.46-8.41,34.27-6.68a6.89,6.89,0,0,0,.23.81Zm19.41,26,1.23-4.27,7.76,7.72-.09,1.85Zm8.81,7-.12,2.48-10.62-2.76,1.51-5.23Zm-10.12-7.73-9.08-5.41,3.62-6,6.78,6.74Zm-25.75-13.66,15.17,9-4.92,8.2-16.27-4.22L341.68,567a4.76,4.76,0,0,0,.66.07A4.87,4.87,0,0,0,346.59,564.57Zm15.92,9.49,9.42,5.62-1.58,5.64L357.72,582Zm9,12.46,10.82,2.8L382,595.4l-15.14,7.18Zm11.33,10.1,5.73-2.72a4.7,4.7,0,0,0,1,1.05l-7.25,12.24Zm5.12-4-5,2.4.27-5.43,4.58,1.19c0,.14,0,.28,0,.42A5.08,5.08,0,0,0,387.93,592.58Zm0-2.7-4.69-1.22.11-2.2,4.76,2.84C388,589.48,388,589.68,387.89,589.88Zm-4.5-5.06.08-1.54,4,4Zm-.69-3.53-7.55-7.5,9.19-31.91.31,0v0Zm-8.77-8.72L367.34,566l14.91-24.86a4.5,4.5,0,0,0,.43.23Zm-7.23-7.19-11.39-11.32L381,540a5.07,5.07,0,0,0,.58.64Zm14.42-31.49-52.56-32,13.91-13.25,38.87,44.95ZM327.47,503l51.59,31.37-59.45-19.68a4.6,4.6,0,0,0,.09-.84,4.84,4.84,0,0,0-.81-2.68ZM319.15,516l60.9,20.15a4.69,4.69,0,0,0-.08.84h0L345,543.83l-26.74-26.58A5.18,5.18,0,0,0,319.15,516Zm34.3,37.4L345,558.05a4.78,4.78,0,0,0-4.41-.48l-6.16-10.79,10.28-2Zm-13,25,15.91,4.13L337.65,613.8a5.08,5.08,0,0,0-.85-.31Zm-1.32-1.24-20.4-5.29,18.84-8.56a4.91,4.91,0,0,0,2.67,3.22Zm18.1,5.6,12.86,3.34-4.82,17.17-2.15,1L339.41,615.2a4.84,4.84,0,0,0-1-1Zm-17,34,24.52-11.63-4.67,16.63-19.63-3.45c0-.05,0-.08,0-.13A4.85,4.85,0,0,0,340.25,616.81Zm0,3,19.5,3.43-4.55,16.21-15.85-18A4.81,4.81,0,0,0,340.21,619.78Zm14.48,21.31-2.47,8.79L340.1,624.49Zm.8.91,3.69,4.2-4.83,8.15-1.5-3.16Zm.48-1.65,4.88-16.94,10.71,1.88L360,644.89Zm26.15-30.05,8.65-14.59a4.32,4.32,0,0,0,.51.16l-4.19,30.68-5.72-1Zm7-22.61-5.61-5.58,1.81-36.45,5.83,40.83A4.86,4.86,0,0,0,389.14,587.69ZM383.53,531l-8.81-22.59-12.57-32.89a4.81,4.81,0,0,0,1.4-1.18l14.95,7.5Zm-1.06,1.75a4.57,4.57,0,0,0-.47.29l-38.89-45,13.6-12.95a4.88,4.88,0,0,0,3,1.07,5.21,5.21,0,0,0,1.06-.12Zm-40.79-46.33-11.07-12.81,24.32-1.35a4.5,4.5,0,0,0,.41,1.15Zm13.19-15.61-25.46,1.41-28-32.41a5.17,5.17,0,0,0,.77-.78l53,30.46A5.18,5.18,0,0,0,354.87,470.82Zm-53.48-38.67a4.92,4.92,0,0,0-3-1.08,5.23,5.23,0,0,0-.68.07l-1-3.38,25-14.51Zm-3.69,8.68a4.78,4.78,0,0,0,.53.06l6.72,32.7-15.5.86ZM293.55,435a5.08,5.08,0,0,0-.12,1,4.81,4.81,0,0,0,.09.85l-29.26,9.75,23.68-13.74Zm-4-3.05,5.83-3.39.89,3a4.88,4.88,0,0,0-2.2,2.06ZM284.33,482a4.85,4.85,0,0,0,2.53-.72h0L272.6,539.43,284.09,482Zm2.25-9.26,8.56-25.09-6.6,26.86h0A5,5,0,0,0,286.58,472.73Zm1.43,7.56a4.76,4.76,0,0,0,.65-.94l20,12.15,3.71,18.07-.09.05L288,480.36ZM311.17,493l14.38,8.75-8.24,7.83a4.85,4.85,0,0,0-2.53-.72c-.12,0-.23,0-.35,0ZM344,544,334,546l-15.73-27.53Zm-4.65,14.24A4.76,4.76,0,0,0,338,560l-64.44-1.3L333,547.07Zm-1.85,3.12c0,.14,0,.29,0,.44l-20.94,9.51-43.36-11.26Zm-4.56,61a4.84,4.84,0,0,0,2.63.78,4.79,4.79,0,0,0,1.65-.31l10.09,37.24a4.88,4.88,0,0,0-2.65,2.5l-36.09-7.68a4.91,4.91,0,0,0-1.19-3.11ZM308.11,657l36.09,7.68a4.79,4.79,0,0,0,.57,2.19l-22.7,19.32-15.15-27.59A4.72,4.72,0,0,0,308.11,657Zm12.27,30.63-1.8,1.53-7.19-17.9Zm-.95,3.66,2-1.72,27.31,49.7,0,0-14.93-12.24Zm28.37,49.13a4.81,4.81,0,0,0,.57,5.78l-4.63,5.62-8.82-22Zm1.69,6.7a4.81,4.81,0,0,0,1.56.62l.67,24-7.36-18.33Zm1.17-8.9-27.52-50.08,23-19.61a4.85,4.85,0,0,0,2.38.94l2.54,68.63C351,738.16,350.81,738.21,350.66,738.25Zm-1.55-78.52a5.15,5.15,0,0,0-1,.09L338,622.47l.13-.07,13.71,28.75-2.42,8.61Zm3.37-7.28,1.34,2.81L351,660.09a6.36,6.36,0,0,0-.62-.19Zm2.09,4.38,1.41,3-3.06,1.79a5.52,5.52,0,0,0-.72-.73Zm.54-.9,5.08-8.58L366,654l-9.25,5.4ZM361,646l12.12-20.47,7.34,1.29-1,19.24-12.2,7.12Zm18.42,1.79L378.48,666l-10.23-11.65ZM379.21,669l1.8,2-.76,5.56-1.39-.57Zm1.16-23.43.92-18.56,5.6,1-2,15Zm7.38-17.42,14.47,2.54a.5.5,0,0,0,0,.12,4.8,4.8,0,0,0,.36,1.82l-16.76,9.77Zm14.73,1.11L388,626.7,392.14,596c.16,0,.31,0,.47,0a5.36,5.36,0,0,0,1-.09l11.17,30.53A4.89,4.89,0,0,0,402.48,629.25Zm-9.83-43-6.37-44.55a4.88,4.88,0,0,0,3-2.58l35.21,10.72a5.51,5.51,0,0,0-.07.71,4.81,4.81,0,0,0,1.13,3.1l-30.23,33.42A5,5,0,0,0,392.65,586.25Zm34-31.61a4.9,4.9,0,0,0,2.72.83,5.52,5.52,0,0,0,.92-.09l.57,1.31-.1-1.45a4.89,4.89,0,0,0,3.53-4.69,5,5,0,0,0-.32-1.69l8.24-4.51,1.44,4.43L399.5,584.63Zm16.85-11L452,539l-.22,3.12-6.91,5.67Zm-.45-1.4L439.7,532l.4-.78,12.51-1.38-.53,7.44Zm-2.39-12.07,7-13.61,5.73,2.87-.68,9.46Zm12.84,8,9.22-5-9.42,7.73Zm.12-1.72.48-6.77,11-1.22a5.26,5.26,0,0,0,.3,1.55Zm.71-30.44-.89,12.48L448,515.78l5.23-10.16A5.27,5.27,0,0,0,454.31,506Zm-24.4-13.3,21.15,6.38a4.82,4.82,0,0,0,1,5.69l-5.32,10.35-15-7.51L427.67,495A4.9,4.9,0,0,0,429.91,492.71Zm0,14-2.42-1.22-.51-7.77ZM427,531.62l-4.54.48-15.7-36,18.55,9.31ZM398.53,475.2,420.86,489a4.83,4.83,0,0,0,3.85,6.43l.57,8.91-19-9.55-8.32-19.11A4.6,4.6,0,0,0,398.53,475.2Zm-3.5,1.47a5.4,5.4,0,0,0,.91-.09l7.28,16.71-10-5,1.8-11.59ZM376.6,442.46,391.92,468a4.88,4.88,0,0,0,1.65,8.45l-1.73,11.14-11.91-6-4-38.94A6.36,6.36,0,0,0,376.6,442.46Zm-2.1.35,3.89,38L364,473.62a4.79,4.79,0,0,0,.62-2.35,4.88,4.88,0,0,0-2.26-4.12l11-24.52A4.87,4.87,0,0,0,374.5,442.81Zm-13.79-4.17h9.18a4.88,4.88,0,0,0,2.19,3.41l-11,24.51a4.85,4.85,0,0,0-1.16-.18l-2.75-23.74A4.87,4.87,0,0,0,360.71,438.64Zm-5,4.18,2.75,23.73a4.81,4.81,0,0,0-2.06,1.14l-53.27-30.6c0-.07,0-.14,0-.22L351,438.48A4.9,4.9,0,0,0,355.71,442.82Zm-31.89-29.59a4.92,4.92,0,0,0,3.05,1.08,4.85,4.85,0,0,0,2.94-1L351.91,435a5,5,0,0,0-.86,2l-47.85-1.61a4.81,4.81,0,0,0-.81-2.22ZM291.7,400.29l30.32,8.5a4.07,4.07,0,0,0-.06.61,4.89,4.89,0,0,0,.35,1.8l-26.05,15.13-7-23.61A4.93,4.93,0,0,0,291.7,400.29Zm-7.57,1.78a4.49,4.49,0,0,0,3.77,1.05l7.07,24-7.17,4.16L265.92,423a4.46,4.46,0,0,0,.12-1,4.91,4.91,0,0,0-.83-2.73ZM260.39,426.8a4.41,4.41,0,0,0,.73.08,4.9,4.9,0,0,0,4.28-2.53l20.78,7.83L259,447.94a5,5,0,0,0-2.46-2Zm-21.26,73.84a4.87,4.87,0,0,0-.34-7.77l15.26-37.55a2.66,2.66,0,0,0,.28,0l11.76,98Zm29.17,52.88L256.49,455.1a5.05,5.05,0,0,0,1.46-.84l22.29,20.1a4.89,4.89,0,0,0,2.43,7.32Zm2.56,1.85a4.35,4.35,0,0,0-1.12-.66l17.83-72.59,23.57,28.43a4.84,4.84,0,0,0-.34,6.12Zm40.95-37.67a4.84,4.84,0,0,0,3,1,4.78,4.78,0,0,0,1.78-.35l15.94,27.9-59.9,11.66a4.73,4.73,0,0,0-.72-1.54Zm-19.23,60.21-20.45-16.22a4.93,4.93,0,0,0,.4-.87l42.73,11.1-15.21,6.91a4.89,4.89,0,0,0-7.47-.92Zm11.3,72.17-6.72-63.85a4.68,4.68,0,0,0,1.82-.92l32.54,30.15a4.87,4.87,0,0,0,.33,5.95L306.3,650.83A5,5,0,0,0,303.88,650.08Zm.87,10.52,12.08,30.08-10.23,8.71a5.14,5.14,0,0,0-1.85-.86Zm22.71,111a4.84,4.84,0,0,0-2.52-.72,4.9,4.9,0,0,0-.67.07l-18.55-63.22A5.14,5.14,0,0,0,307,707L331.42,727l10.75,26.75Zm1.11.92,14.21-17.25,7.4,18.42a4.93,4.93,0,0,0-2,3l-18.37-1.26A4.9,4.9,0,0,0,328.57,772.55Zm25.17,10.05.49,1.2,0-1.3a4.41,4.41,0,0,0,1-.4l14.62,20.19a4.38,4.38,0,0,0-.29.34l-40.1-24.86a5.3,5.3,0,0,0,.28-.88l18.37,1.26a4.89,4.89,0,0,0,4.87,4.52A4.79,4.79,0,0,0,353.74,782.6Zm.25-44.13a4.56,4.56,0,0,0-1.44-.37L350,669.46a4.83,4.83,0,0,0,1.35-.48l22.35,30.83a4.87,4.87,0,0,0,.23,7.2Zm-1.45-70.32a5.33,5.33,0,0,0,.77-1l7.68,3.14,13.28,27.83Zm24.33,30.28a5.13,5.13,0,0,0-1.36.27l-13.32-27.92,15.74,6.43Zm-15.61-29.6-3.9-8.17,9.61-5.6,11.41,13-.38,7.63Zm17.52,8.73,1.27.52-2,14.85Zm.49,21.34a4.81,4.81,0,0,0-1.14-.4l2.75-20.08,6,2.46a4.73,4.73,0,0,0,1.43,4.76Zm13.08-21.7a5.35,5.35,0,0,0-.7-.07,5,5,0,0,0-2.66.79L382,670l3.52-25.78,17.75-10.36a5,5,0,0,0,1.72,1.37Zm14.77-51.31a4.62,4.62,0,0,0-1,.1L395,595.45a4.89,4.89,0,0,0,2.57-4.29,4.73,4.73,0,0,0-.15-1.13l49-19.6c.07.12.14.25.22.36l-37.4,55.59A4.8,4.8,0,0,0,407.12,625.89Zm33.58-24.15a4.91,4.91,0,0,0-4.66,4.89,4.85,4.85,0,0,0,.36,1.83l-25.79,18.89-.19-.16,37.24-55.34a5.07,5.07,0,0,0,.54.36Zm5-33.78a5.29,5.29,0,0,0,.14,1.13l-49,19.6v0l47.28-38.41,4.33,13.32A4.89,4.89,0,0,0,445.71,568Zm4.53-4.88a3,3,0,0,0-.42,0l-4.51-13.85,6.28-5.1Zm1.85.21-.12,0,.16-.64-.39.57h-.05l1.45-20.25,13.52-11a3.49,3.49,0,0,0,.52.43Z" style="fill:#1d1d1b"/><path d="M1243.12,533.84a4.91,4.91,0,0,0,9.81-.18,1.81,1.81,0,0,0,0-.23l17.82-8.67a4.85,4.85,0,0,0,3.87,1.93,4.91,4.91,0,0,0,4.92-4.91,4.84,4.84,0,0,0-.17-1.21l0,0h0a4.9,4.9,0,0,0-9.22-.77l-85.63-7.19a4.85,4.85,0,0,0-1.23-3.1l14.22-15a4.86,4.86,0,0,0,7.77-2.59l47,8c0,.13,0,.26,0,.39a4.92,4.92,0,1,0,7.17-4.34l7.89-25.25h0a4.88,4.88,0,0,0,3.87-1.91l64.68,51.1a4.83,4.83,0,0,0-1.07,3,4.9,4.9,0,0,0,9.64,1.27l33.39,6.13a4.36,4.36,0,0,0,0,.52,4.92,4.92,0,1,0,6.38-4.67L1380,509.9a4.91,4.91,0,1,0-5.59-7.77l-54.24-22.71a4.9,4.9,0,0,0-4.87-4.4,4.81,4.81,0,0,0-3,1.09l-4.54-1.9,3.67,2.78a4.77,4.77,0,0,0-.68,1.28L1272.13,466a1.52,1.52,0,0,0,0-.21,4.92,4.92,0,0,0-9.83,0,5,5,0,0,0,.11,1l-16.78,6.37L1229,435.28a4.86,4.86,0,0,0,.07-8.53l7.4-32.41h.19a4.87,4.87,0,0,0,3-1l11.71,3.56,9.76,34.86a4.89,4.89,0,1,0,3.36.06l4.68-24.47a4.9,4.9,0,1,0-1.51-9.62l-11.87-17-10.72-15.36a4.92,4.92,0,1,0-3.89,1.22l-4.15,18c-.12,0-.22,0-.34,0a4.9,4.9,0,0,0-2.2,9.28l-14.43,39.61L1161.55,459a5,5,0,0,0-1.53-1.57l22-53.08a4.76,4.76,0,0,0,1.46.25,4.91,4.91,0,0,0,4.92-4.91c0-.18,0-.34-.05-.51l3.21.27-3.46-1.4a4.92,4.92,0,0,0-4.62-3.28,4.85,4.85,0,0,0-2.18.54l-14-5.64.62-15h.08a4.91,4.91,0,0,0,.79-9.75l2.61-12.54a4.89,4.89,0,0,0,4.42-4.86,4.7,4.7,0,0,0-.2-1.3l40.17-15a4.9,4.9,0,1,0,5-7l6-38.14a4.86,4.86,0,0,0,2.19.54,4.92,4.92,0,1,0-2.7-9l-22.62-29.07,6.69-2.77L1242,266a4.91,4.91,0,1,0,4.57-2.64l4.77-40.55a5.42,5.42,0,0,0,.81.08,4.91,4.91,0,0,0,2.66-9l6.31-43.35a4.9,4.9,0,1,0-4.52-8.36l-37.84-13.4a4.85,4.85,0,0,0-1.56-6.37l7-21a4.9,4.9,0,0,0,4.66-3.75l34.17,3.79a4.9,4.9,0,1,0,7.91-4.34l4.66-12.44a4.88,4.88,0,0,0,6.59-4.6,4.71,4.71,0,0,0,0-.54l12.78,1.74c-.05.15-.1.29-.14.44l-.32.13h.29a4.82,4.82,0,0,0-.15,1.14,4.91,4.91,0,0,0,2.59,4.31l-2.67,26.71a5.29,5.29,0,0,0-.81-.08,4.92,4.92,0,0,0,0,9.83,4.81,4.81,0,0,0,2.91-1l22.85,23.64a4.91,4.91,0,1,0,4.5,0L1338.23,101l6.77-.13a5,5,0,0,0-.13,1.1,4.91,4.91,0,1,0,4.91-4.91h0l-5.48-8.77a4.75,4.75,0,0,0,1.49-5.16l16.68-8a4.89,4.89,0,1,0-1-4.16L1287,66.64c0-.16,0-.31,0-.47a4.9,4.9,0,0,0-9.77-.54l-60.19-8a4.89,4.89,0,0,0-8.48-1.13l-1-.14.79.52c-.09.15-.18.31-.26.47l-42-9.15a4.88,4.88,0,0,0-9-2l-1-.22.73.75a4.62,4.62,0,0,0-.4,1.52l-69.52,2.55s0-.07,0-.1a4.9,4.9,0,0,0-8.6-3.22l-37.93-14.77c0-.13,0-.25,0-.38a4.91,4.91,0,0,0-9.46-1.85l-57-.42a4.91,4.91,0,0,0-9.5,1.73,4.78,4.78,0,0,0,.51,2.13L937.83,47.08A4.89,4.89,0,0,0,929,48.43l-24.59-2.81a4.9,4.9,0,1,0-9.64,1.8L847.59,67.75a4.9,4.9,0,0,0-9.18,3.4L796.92,92.38a4.9,4.9,0,0,0-4-2.12h0L784.53,67a4.9,4.9,0,1,0-6.19-5l-46.45-.79a4.91,4.91,0,0,0-9.67,1.2,4.84,4.84,0,0,0,.68,2.45l-22,23.93a4.89,4.89,0,0,0-6.71,4.56c0,.08,0,.16,0,.24l-23.66,12.55a4.85,4.85,0,0,0-3.36-1.35,4.92,4.92,0,1,0,4.57,6.71l18.64,8a5.56,5.56,0,0,0-.08.81,4.9,4.9,0,0,0,8.22,3.62l4.42,3-10.49,17a4.89,4.89,0,0,0-7,4.44,4.82,4.82,0,0,0,.59,2.3l-17,13.07a4.81,4.81,0,0,0-6,.21l-5.1-4.62a4.88,4.88,0,0,0-4.34-7.17,5.22,5.22,0,0,0-1.13.14l-15.22-27.12a4.91,4.91,0,1,0-6.53-.49l-23.72,30.54a4.83,4.83,0,0,0-2.2-.54,4.91,4.91,0,1,0,4.91,4.91,4.62,4.62,0,0,0-.06-.65L629,152.5a4.88,4.88,0,0,0,3.16,2.53l-.7,6.87a4.91,4.91,0,1,0,5.85,4.82,5,5,0,0,0-.13-1.1l1.83-.8,5.12,11-9.15,4a4.93,4.93,0,1,0-.32,7.06l21.83,19.53a4.77,4.77,0,0,0-.84,4l-13.91,8.41-.22-2.87a4.9,4.9,0,1,0-5.8-6.83l-24.9.22a4.91,4.91,0,1,0-5.55,6.72l-1.2,22a4.9,4.9,0,0,0,.47,9.78,4.71,4.71,0,0,0,.92-.1l8.12,17.1-11.43,12.11a4.82,4.82,0,0,0-2.61-.77,4.9,4.9,0,0,0-4,7.8l-21.31,27a4.85,4.85,0,0,0-1.62-.3,4.9,4.9,0,0,0-2.3,9.24l-7.75,25.32a4.31,4.31,0,0,0-.88-.09,4.9,4.9,0,0,0-.71,9.75l-.54,28.95a4.9,4.9,0,0,0,.41,9.79,5,5,0,0,0,1.7-.32L597,440.81a4.8,4.8,0,0,0-.69,2.47,4.91,4.91,0,0,0,9.67,1.17L657,437.07a4.86,4.86,0,0,0,7.75,2.47l19.9,13.62a4.44,4.44,0,0,0-.12,1,4.91,4.91,0,0,0,2.56,4.29l-3.66,16.95a4.91,4.91,0,0,0,1,9.73h.1l20.11,30.16a4.88,4.88,0,0,0,2.88,8.47l3.05,23.91a4.88,4.88,0,0,0-2.31,8.65l-8.62,14.06a4.7,4.7,0,0,0-.92-.09,4.92,4.92,0,1,0,0,9.83,4.5,4.5,0,0,0,.63-.07l13.83,29.33a4.9,4.9,0,0,0,2.27,7.38l-.51,21a4.9,4.9,0,0,0,1.43,9.59c.17,0,.33,0,.5,0l16.57,32.54a4.92,4.92,0,1,0,7.75,2.25l31.09-9.43a4.9,4.9,0,1,0,7.23-5.79L801,630.54a4.83,4.83,0,0,0,2.8.89,4.91,4.91,0,0,0,4.53-3l1,.15-.92-.45a4.75,4.75,0,0,0,.3-1.61,4.85,4.85,0,0,0-1-3l13.28-10a4.91,4.91,0,1,0,3.86-7.93h-.1l-7.15-13a4.87,4.87,0,0,0,1.16-6.82l21.13-16.37a4.87,4.87,0,0,0,7.27-.44l9.82,2.2a4.34,4.34,0,0,0-.06.63,4.89,4.89,0,0,0,3.41,4.66l-2.39,44.27a4.9,4.9,0,1,0,4,1.36L878,604a4.84,4.84,0,0,0,2.27.58,4.92,4.92,0,0,0,1.89-9.45l5.34-42.71a4.92,4.92,0,1,0-4.45-2l-18.81,17.24a4.91,4.91,0,0,0-2.46-.68,4.85,4.85,0,0,0-3.13,1.15l-18.87-19-13.2-52.43,3.78,1.77a4.92,4.92,0,1,0,9.44,1.93,4.84,4.84,0,0,0-1.17-3.14l33.54-37.89a4.9,4.9,0,0,0,4.84-8.5l18.91-44.34a4.83,4.83,0,0,0,2,.44,4.92,4.92,0,1,0-4.85-5.53l-26.83,7.83a4.87,4.87,0,0,0-3.34-2.74l-1-7.69a4.88,4.88,0,0,0,4.47-4.58l32.6-13a4.91,4.91,0,1,0,7.34-6.39l15.51-37.21a4.91,4.91,0,1,0-2.55-7.35l-23.94-5.8a4.91,4.91,0,0,0-4.84-4.14l-.18,0L878,295.64a4.84,4.84,0,0,0,1.31-1.07l26.23,12.06a4.86,4.86,0,0,0-.55,2.22,4.9,4.9,0,0,0,9.79.37L963,316.7a5.06,5.06,0,0,0,.09.89l-1.85,1.69,2.07-1a4.88,4.88,0,0,0,8.46,1.28l.66.31L999,342l1.62,20.45a4.9,4.9,0,0,0,2.12,9.33l.25,0,23,44.32a4.91,4.91,0,1,0,6.41,7.37l14.22,10.07a4.79,4.79,0,0,0-.44,2,4.92,4.92,0,1,0,5.6-4.84l-7-39.92-1.26-8.41a4.9,4.9,0,0,0,3.76-4.76,4.85,4.85,0,0,0-1.19-3.17l20.1-20.49,17.23-15.74a4.91,4.91,0,0,0,4.39,2.74l.22,0,10.5,21a4.9,4.9,0,1,0,8.29,5.05l25.36,1.49-3.88,2.21a4.91,4.91,0,1,0-3.89,7.88h.14l7.12,47.52a4.91,4.91,0,0,0-3.33,4.64,5,5,0,0,0,.22,1.4l-5.19,5.62a4.91,4.91,0,1,0-3.7,8.13,4.57,4.57,0,0,0,1-.12l2,1,25.3,51.2a4.83,4.83,0,0,0-1,2.91,4.89,4.89,0,0,0,7.47,4.18l18.92,6.62-2.94-.24,4.26,1.31h0a4.92,4.92,0,0,0,9,2.76Zm19.6-102.37h-.15L1253,397.4l11.3,3.43a4.84,4.84,0,0,0-.29,1.62,4.91,4.91,0,0,0,3.7,4.75l-4.65,24.3Zm3.59-33.16a4.87,4.87,0,0,0-1.3,1.22l-12.45-3.79-8-28.59Zm-23.63-31.76.19,0,8,28.72-10.12-3.08a4.89,4.89,0,0,0-2.34-7.3Zm27,155.37a4.31,4.31,0,0,0,.09.88l-17.49,8.5a4.89,4.89,0,0,0-8.78.38l-53.25-16.43Zm-116.52-25.78,3.32-21,10.62,9.72.66,1.51a4.8,4.8,0,0,0-.46,2,4.9,4.9,0,0,0,.65,2.41l-11.62,8A4.92,4.92,0,0,0,1153.18,496.14Zm-.62-33.58a4.93,4.93,0,0,0,3.85,3.86l-.92,5.82-21-19.25Zm10.67-91.73a6.36,6.36,0,0,0,.19.62l-13.19,11.37-21-8.48a2.84,2.84,0,0,0,0-.42Zm-61-10.74a4.8,4.8,0,0,0-1.52.26L1091.62,339a6,6,0,0,0,.41-.62l42.1,18-27.24,6.94A4.91,4.91,0,0,0,1102.27,360.09Zm-64,20.22a4.53,4.53,0,0,0,.77.87l-4.29,15.18Zm-32.66-17.4,6.25-10.18,25.59,21.32-30-5.86a4.75,4.75,0,0,0-1.8-5.28Zm-10.11-34.14-23-10.46a4.75,4.75,0,0,0,.33-1.73,4.84,4.84,0,0,0-.53-2.18l24.5-5.91,1.07,18.09A4.9,4.9,0,0,0,995.48,328.77ZM871.66,288.43l-19-12a4.77,4.77,0,0,0-2.15-5.63l16.93-25.59a4.77,4.77,0,0,0,1.25.59L873.45,287A4.92,4.92,0,0,0,871.66,288.43Zm48.55,48.29.35.29-8.45,20.28-7.42,16.62a5.19,5.19,0,0,0-1-.23l-4-17.07Zm-58.43,79.53a4.9,4.9,0,0,0,1.49-.25l9.08,34.59A4.79,4.79,0,0,0,870.6,452l-63-35.66a4.58,4.58,0,0,0,.24-1.18l49.14-3A4.9,4.9,0,0,0,861.78,416.25Zm-45.68,40L805,419.14a4.81,4.81,0,0,0,1.42-1l63.19,35.74a4.33,4.33,0,0,0-.08.5ZM812,592.76l-8.72,28.9a4.86,4.86,0,0,0-3.56,2.16L769.81,609.1l10.08-25.2a4.8,4.8,0,0,0,2,.46,4.93,4.93,0,0,0,4.12-2.24l23.81,6a4.2,4.2,0,0,0-.06.62A4.9,4.9,0,0,0,812,592.76Zm-39.1,75.5-23.67-10.7,10.32-22.16a4.73,4.73,0,0,0,1.41.23,5,5,0,0,0,1.51-.26l11.83,31.55A5,5,0,0,0,772.86,668.26Zm-35.32,10.6,2.79-23.72,7.45,3.37-9.57,20.56A5.2,5.2,0,0,0,737.54,678.86Zm3-25.23,2-17.47,13.72-3.92a4.88,4.88,0,0,0,2.43,2.84L748.4,657.2Zm-19.24-11.38,20.39-5.83-2,16.83-18.93-8.56a5,5,0,0,0,.54-2.2C721.28,642.4,721.26,642.33,721.26,642.25Zm23.33-23.47,13.59,2.06.42,5.57a4.72,4.72,0,0,0-1.57,1.34L744.1,623Zm-1.33,3.86-18.47-6.85,18.94,2.86Zm-39.78-46.26,44.89,2.71-2.16,18.37-42.73-21.07Zm45.76,2.76,5.81.35,1.76,23.19L747,597.87ZM689.3,479.88l55.94-20.28a4.92,4.92,0,0,0,1.67,2.61l-20.25,28.28L689,482.05a4.88,4.88,0,0,0,.35-1.79C689.34,480.13,689.31,480,689.3,479.88Zm5.08-25.74a4.9,4.9,0,0,0-1.81-3.72l7-11.26,45.27,17.42Zm-93.16-15.77a4.87,4.87,0,0,0-2.72.82l-34.1-47.13c.11-.12.2-.25.3-.37l61,20.34a.77.77,0,0,0,0,.15,4.88,4.88,0,0,0,1,3l-22.57,24.22A4.89,4.89,0,0,0,601.22,438.37Zm-39.31-54.52.54-29a5,5,0,0,0,2.3-1l61.69,55.84c-.06.09-.1.18-.15.26l-60.63-20.21a4.68,4.68,0,0,0,.12-1.07A4.91,4.91,0,0,0,561.91,383.85Zm48-169.41,11.92,11.16-14.7,13.15a4.85,4.85,0,0,0-1.66-.68l1.2-22A4.93,4.93,0,0,0,610,214.44Zm30.12,1.66.27,3.5L626.51,228l-2.5-2.34,12.47-11.16A4.86,4.86,0,0,0,640.07,216.1Zm-31.33,24.29,17.58-10.62,12.08,11.31-29.24.22A4.71,4.71,0,0,0,608.74,240.39Zm16.48-11.65-14.4,8.69,12.11-10.84Zm-15.79,14,28.74-.22a5.51,5.51,0,0,0-.06.57,4.92,4.92,0,1,0,7.66-4.07l12.73-25.25a4.73,4.73,0,0,0,1.24.33l.08.69.1-.68a4.18,4.18,0,0,0,.51.06,4.91,4.91,0,0,0,4.91-4.92,5.23,5.23,0,0,0-.07-.68l19.78-4.86a4.92,4.92,0,0,0,4.38,2.72,4.87,4.87,0,0,0,3.1-1.13l15.18,17.75a4.87,4.87,0,0,0,1.74,7.37L707,243l-.19,0a4.94,4.94,0,1,0,4.12,2.26l15.73-13.8a4.91,4.91,0,1,0-.32-5.48l-10-1a4.86,4.86,0,0,0-2.51-3.3l4.64-17.15,21.89,17.51a4.88,4.88,0,0,0,3.68,7.53l2.37,14.79a4.92,4.92,0,1,0,4.81.54l11-17.5a4.86,4.86,0,0,0,1.58.28,4.57,4.57,0,0,0,1-.12l7.66,21.22a4.91,4.91,0,1,0,7.8,4,1.5,1.5,0,0,0,0-.22l29-2.5a4.89,4.89,0,0,0,3.56,4.62L811,276.3a4.91,4.91,0,0,0-4,4.83s0,.06,0,.09L786.9,284.3a4.88,4.88,0,0,0-7.72-.69L750.24,274a4.9,4.9,0,1,0-6.81,6.33l-2,7.87a4.57,4.57,0,0,0-1.49-.26,4.91,4.91,0,0,0-4.16,2.33l-39.9-15.35a5,5,0,0,0,.23-1.4,4.9,4.9,0,0,0-3.44-4.66l.9-15.71a4.9,4.9,0,0,0,4.22-4.84,3.26,3.26,0,0,0,0-.45l1.83-.63-1.87.21a4.91,4.91,0,0,0-9.74.87c0,.08,0,.15,0,.23l-61,6.91a4.89,4.89,0,0,0-8.13-2.28l-10.08-7.79a4.82,4.82,0,0,0,.69-2.47S609.43,242.79,609.43,242.75ZM692,153l15,40.61a5.29,5.29,0,0,0-1,.91l-15.67-10.93,1.09-30.41C691.62,153.11,691.8,153,692,153Zm7.11-54.75A4.91,4.91,0,0,0,704,93.32,5.16,5.16,0,0,0,703.8,92l15.72-1.9-2.33,10.87a4.9,4.9,0,0,0-4.63,4.89,4.84,4.84,0,0,0,.25,1.48L699,117.2a4.83,4.83,0,0,0-2.35-1.57L699,98.22Zm79.58-34L750.23,82.38a4.88,4.88,0,0,0-3.75-1.79,4.72,4.72,0,0,0-1.36.22l-14-15.6a4.89,4.89,0,0,0,.88-2.57l46.41.78A5,5,0,0,0,778.68,64.2ZM788,94.64a4.71,4.71,0,0,0,0,.54,4.83,4.83,0,0,0,.79,2.65l-18.4,14.31a4.87,4.87,0,0,0-3.58-1.57,4.82,4.82,0,0,0-1.53.26L750.48,88.34a5,5,0,0,0,.78-1.74Zm145.69-40a5,5,0,0,0,1.94-.39l23.29,43.36L912.32,55.38l16.84-3.8A4.9,4.9,0,0,0,933.71,54.66Zm36.36-18a5,5,0,0,0,2.76-1.42l39.46,32.89a4.87,4.87,0,0,0,.1,2.28L964.15,99.07a5.19,5.19,0,0,0-.95-.59Zm65.41.61h.14l4.2,28.14-18.22,1.72a5,5,0,0,0-1.47-1.87L1034.06,37A4.74,4.74,0,0,0,1035.48,37.24ZM1111,60.1a4.9,4.9,0,0,0,4.45,4.18l8.23,75.38a4.76,4.76,0,0,0-1.66.63l-2.42-1-63-44.39,18.14-31.35Zm48.44-6.78,5.25,35.24a4.88,4.88,0,0,0-2.19,8L1127,140.12l31.38-87.42A4.74,4.74,0,0,0,1159.4,53.32Zm53.06,11,10.44,47.39a3.59,3.59,0,0,0-.68.21L1164.88,52a4.89,4.89,0,0,0,1-1.69l41.7,9.09A4.9,4.9,0,0,0,1212.46,64.31Zm4-2.05,55.69,36.84-43.59,15.34a4.92,4.92,0,0,0-3.46-2.8l-10.53-47.81A4.9,4.9,0,0,0,1216.47,62.26Zm-55.22-8.58a4.9,4.9,0,0,0,1.84-.36l57.35,59.87a3.89,3.89,0,0,0-.41.5l-49.17-19.35a4.89,4.89,0,0,0-4.78-6l-5.16-34.68C1161,53.65,1161.13,53.68,1161.25,53.68Zm35.17,197-6.55,2.71,2.77-14.09a4.4,4.4,0,0,0,.51.05h.08Zm-1.57-10.94,6.82,8.76-3.9,1.62ZM1225.24,285l-13.38,15.16-6.09-21.63,18.34,2.3a5,5,0,0,0-.1.95A4.84,4.84,0,0,0,1225.24,285Zm-8.62,40.85-15.21-11.66,9.77-11.07,6.2,22A4.52,4.52,0,0,0,1216.62,325.84Zm-5.91-24.39-10.45,11.85L1181,298.54l4.43-22.56,18.79,2.35Zm-47,66.07-15.43-6.62,18.61-10.63a4.9,4.9,0,0,0,3.1,2.06l-2.62,12.58A4.9,4.9,0,0,0,1163.66,367.52Zm-71.07-32.39a4.89,4.89,0,0,0-4.12-4l24-24.47,54.21,38.38s0,0,0,.06Zm-53.91,36.42-23-25.15,8.31-13.53,22.91,1ZM1004.61,332l17.76.81-7.67,12.5L1004,333.57A4.86,4.86,0,0,0,1004.61,332Zm20.28-.53,21.44-34.91,9.3-2.24-8.38,38.17ZM910.82,255.64a4.83,4.83,0,0,0,.1-.94,4.89,4.89,0,0,0-7.82-3.94l-13.78-29.64a4.88,4.88,0,0,0,1.24-1.16l39.9,25.1,11,7.14a4.64,4.64,0,0,0-.66,2.05Zm-86,68.75a4.78,4.78,0,0,0,1.78-.34l25.8,39.5a4.9,4.9,0,0,0,2.39,9.19,5.7,5.7,0,0,0,.58-.06L858.69,390a4.93,4.93,0,0,0-1.2,1.21l-22.9-12.3a5.19,5.19,0,0,0,.16-1.2,4.9,4.9,0,0,0-4.75-4.9l-22.17-68.4a4.93,4.93,0,0,0,.54-.34l12.48,12.49a4.9,4.9,0,0,0,3.94,7.82Zm4.83-4.05,56,5a4.85,4.85,0,0,0,1.22,3.2l-19.75,22.35L829,322.07A5.11,5.11,0,0,0,829.62,320.34Zm58.32,9.1a4.88,4.88,0,0,0,2.59.76,5.35,5.35,0,0,0,.7-.07l6.44,27.28-9.56,9.28-19.86-15Zm10.79,46.91-15.3-3.9,4.76-4.62,10.75,8.11A3.17,3.17,0,0,0,898.73,376.35Zm.74-1.1-10.65-8,9.08-8.82,3.66,15.49A5,5,0,0,0,899.47,375.25Zm-12-7.95-5,4.9-23-5.87a4.92,4.92,0,0,0-1.85-2.53l10.11-11.43Zm-27.81.59,21.55,5.49-17,16.52a4.7,4.7,0,0,0-4.18-.55l-3.3-17A4.9,4.9,0,0,0,859.67,367.89Zm5.23,22.56,17.31-16.81,16.06,4.09a4.39,4.39,0,0,0,.08,2l-32.77,11.49A5.07,5.07,0,0,0,864.9,390.45Zm-36.48-67.69,38.1,28.73-10.31,11.66a5,5,0,0,0-1.45-.24,4.81,4.81,0,0,0-1,.11l-25.93-39.7A4,4,0,0,0,828.42,322.76Zm-20.67,90.92a4.93,4.93,0,0,0-4.81-3.89,4.85,4.85,0,0,0-2.21.55L788,389.4a4.9,4.9,0,0,0,1.7-1.91L857.08,410a4.62,4.62,0,0,0-.15.74ZM781.93,574.53a4.84,4.84,0,0,0-2,.44L757.1,549.22a2,2,0,0,0,.07-.23l31.14,7L783,574.66A4.93,4.93,0,0,0,781.93,574.53Zm-21,51.27c-.12,0-.23,0-.35,0l-.46-4.71,3.14.48-1.71,4.26A4.2,4.2,0,0,0,760.92,625.8Zm-1-6.9L758.64,606l9.06,4.47-3.62,9Zm-1.5-15.43-.32-3.3-1.56-20.59,20.73,1.25a4.86,4.86,0,0,0,1.41,2.25l-10.14,25.37Zm-45.55-84.9,38.22-4.08.87,28.16a5,5,0,0,0-1.8.58l-37.56-22.65a4.79,4.79,0,0,0,.31-1.65C712.88,518.81,712.85,518.69,712.84,518.57ZM627.12,256.86l59.47-6.74-60.13,20.73-2.37-9.63A4.89,4.89,0,0,0,627.12,256.86Zm5.3,44.31-12.57-26.51,5.58-1.92Zm-5.61-28.91,61.9-21.33a4.85,4.85,0,0,0,.49.63L637.71,304a4.84,4.84,0,0,0-2.87-.95,3.26,3.26,0,0,0-.45,0Zm119,8.67A4.91,4.91,0,0,0,750.7,276c0-.13,0-.25,0-.37l27.67,9.22a4.79,4.79,0,0,0-.31.9l-33.4,5.76a4.93,4.93,0,0,0-1.9-2.71l2.07-8A5.47,5.47,0,0,0,745.79,280.93Zm63.43,4.33-3.21,10a5,5,0,0,0-.56-.06,4.84,4.84,0,0,0-3.31,1.31l-14.53-8.9a4.05,4.05,0,0,0,.07-.7,4.73,4.73,0,0,0-.18-1.26l19.7-3A4.88,4.88,0,0,0,809.22,285.26Zm15.71,92.46a1.36,1.36,0,0,0,0,.2l-35.12,5.49a4.93,4.93,0,0,0-3.55-2.94L804.83,305c.21,0,.41.06.62.06a4.93,4.93,0,0,0,1-.11L828.54,373A4.9,4.9,0,0,0,824.93,377.72ZM777.65,577.08l-22-8.61L754.43,552a5,5,0,0,0,1.84-1.4l21.88,25.71A4.58,4.58,0,0,0,777.65,577.08Zm-2.21,1.46-19.09-1.15-.49-6.52Zm-20.13-35.07a4.87,4.87,0,0,0-1.48-.68l-1.19-28.47,46.26-5c0,.11,0,.21,0,.31s0,.29,0,.44ZM739.9,297.74a4.91,4.91,0,0,0,2.23-.56l26.27,30.27a4.83,4.83,0,0,0-.63,2.36A4.9,4.9,0,0,0,769,333l-17.53,24.43L707,321.61a4.83,4.83,0,0,0,.83-2.73,4.77,4.77,0,0,0-.61-2.32l28.48-21.22A4.9,4.9,0,0,0,739.9,297.74Zm4.84-4.19,55.85,6.07a4.36,4.36,0,0,0-.05.52,4.91,4.91,0,0,0,.6,2.32l-25.28,23.63a4.85,4.85,0,0,0-3.18-1.2,4.92,4.92,0,0,0-3.39,1.37l-26-29.92A4.81,4.81,0,0,0,744.74,293.55Zm33.15-6.3a4.89,4.89,0,0,0,9.29,1.82l14.05,8.61a5.29,5.29,0,0,0-.29.52l-53.07-5.77ZM728.15,395.4a5.54,5.54,0,0,0-.61-.83l9.59-13.36,41.38,3.87ZM634,408.59l35.15-45.38,5.31,8.35a4.86,4.86,0,0,0-.84,6.31L634.2,408.82Zm5.51-99.08,44.67,7.85-.64,5.35-33.71,7.42L638,311.65A4.93,4.93,0,0,0,639.48,309.51Zm60.11,13-17.93,23.14,2.64-22.18,14-3.08A4.76,4.76,0,0,0,699.59,322.47Zm-.91,2.59-.35.82-19.14,44.66a3.82,3.82,0,0,0-.48-.15l2.75-23.1Zm-14.27-2.55.59-5,12.3,2.16Zm-1,1.11-2.77,23.32-11.06,14.28L650.3,330.91Zm-3,25-2.58,21.68-.15,0a5,5,0,0,0-2.07.47L670.06,362Zm.07,22.55L692,344.24l3.05-6.8,6.23-13.93a5.73,5.73,0,0,0,.84.21L718,378.54l-35.43-3.32a0,0,0,0,1,0,0A4.87,4.87,0,0,0,680.5,371.17Zm23.17-47.45a4.91,4.91,0,0,0,2.78-1.43L751,358.18l-15.76,22-15.61-1.46Zm49,35.82,28.54,23a4.79,4.79,0,0,0-.74,1.84l-42.75-4Zm18.09-25.21a4.8,4.8,0,0,0,1.14.31l10.57,46.63a4.58,4.58,0,0,0-.71.61l-28.58-23Zm9.9,52.53a4.91,4.91,0,0,0,2.13,2.63l-8.53,17.82-44.82-10Zm2.91,3a4.92,4.92,0,0,0,1.72.33c.1,0,.19,0,.29,0l3,20.33-13.47-3Zm1.23-9.45a2.58,2.58,0,0,0-.29,0l-10.42-46a4.9,4.9,0,0,0,3.51-4.68,4.84,4.84,0,0,0-.78-2.63L802,303.64a5,5,0,0,0,1.43,1ZM700,315a4.88,4.88,0,0,0-1.9,3.36l-12.88-2.27,4.51-37.91a5.35,5.35,0,0,0,.92.19l5,17.28Zm-8.44-36.61.3,0,1,4.4Zm-3.66-1.25a4.88,4.88,0,0,0,1,.69l-4.53,38.11-44.58-7.84s0-.08,0-.13a4.79,4.79,0,0,0-.37-1.86Zm-52.49,35.69a4.29,4.29,0,0,0,.88-.18l1,2.11-.55-2.24.13-.06,11.46,18-13.74,3Zm13.42,18.44,19.83,31.18-35.34,45.62a4.8,4.8,0,0,0-1.65-.68l2.89-73Zm33.74,44.84,35.77,3.35,4,13.83a4.87,4.87,0,0,0-2,1.38l-38-17.79A5.2,5.2,0,0,0,682.53,376.09ZM723.93,393l-.19,0-3.88-13.41L734.62,381l-8.87,12.36A5,5,0,0,0,723.93,393Zm4.66,6.41,44.7,9.94-21.18,44.21-.37.29a4.82,4.82,0,0,0-1.75-.33,5,5,0,0,0-1.46.24l-21.37-52.17A4.9,4.9,0,0,0,728.59,399.39Zm23.83,63.26,43.09,43.28-43.63-9.78-1.38-32.88A4.72,4.72,0,0,0,752.42,462.65Zm45,45.19.21.21-45,4.82-.64-15.22Zm-.32-1.55-30.73-30.87,33.56,31.26c0,.07-.12.13-.17.2Zm-22.93-96.77,14.78,3.28L790.45,423,753.67,452.3ZM789.85,413l8.19,1.82a4.86,4.86,0,0,0,.38,1.79l-7.18,5.72Zm8.62-.32-9-2-3.07-20.65.19-.06,12.91,21.18A4.93,4.93,0,0,0,798.47,412.69ZM735.13,294l-28.76,21.43a4.93,4.93,0,0,0-3.45-1.41,5,5,0,0,0-1,.09l-3-10.22-5.75-25.9a5,5,0,0,0,2-1.73l39.93,15.36a4.72,4.72,0,0,0-.18,1.25A5.22,5.22,0,0,0,735.13,294Zm-44-25.37a4.91,4.91,0,0,0-4.91,4.91,4.78,4.78,0,0,0,.7,2.49L639.3,304.44l51-52a4.82,4.82,0,0,0,1.76.63l-.89,15.47Zm-57.23,44.2-.83,21-10.38,2.28,10.77-23.45A3.19,3.19,0,0,0,633.92,312.78Zm-.87,21.93-2.87,72.6a5.63,5.63,0,0,0-.61.08l-15.92-43a4.88,4.88,0,0,0,0-8.57l8.58-18.7ZM611.3,365a5.56,5.56,0,0,0,1-.1l15.92,43.05a4.32,4.32,0,0,0-.86.61l-61.61-55.77a5.31,5.31,0,0,0,.53-1l40.17,7.68a4.2,4.2,0,0,0-.06.62A4.91,4.91,0,0,0,611.3,365ZM635,410.05,674.62,379a4.92,4.92,0,0,0,1.29.76l-12.36,44.62-28.21-10.86a4.94,4.94,0,0,0,.21-1.34A4.78,4.78,0,0,0,635,410.05Zm46.58-31.91,37.84,17.73a4.7,4.7,0,0,0-.27,3.24l-13.2,8L681.23,378.6A4.31,4.31,0,0,0,681.62,378.14Zm38.58,22.91a3.61,3.61,0,0,0,.25.3l-8.12,13.1-4.89-5.63Zm2.1,1.45a4.67,4.67,0,0,0,1.63.3,5,5,0,0,0,1.3-.19L746,453.25l-32.16-37.08ZM749,463.23l1.37,32.59-22.22-5,20-27.88A5.38,5.38,0,0,0,749,463.23Zm8.32,84.91a4.48,4.48,0,0,0,.06-.64,4.81,4.81,0,0,0-1.06-3l42.93-32.83a5.06,5.06,0,0,0,1.1,1.57L788.55,555.1ZM800.51,506l-46.09-42.93,45.13,21,3.09,20.77A4.81,4.81,0,0,0,800.51,506Zm-46.18-45.37a.43.43,0,0,1,0-.07l41.46-1.45,3.34,22.42Zm.57-2.27a4.85,4.85,0,0,0-1.28-3.28l37.2-29.66L795.51,457Zm36.71-33.57,8.1-6.46a4.89,4.89,0,0,0,3.17,1.24l11,36.73-17.46.61Zm66.07-16.19-67.56-22.52a4.6,4.6,0,0,0,.08-.84c0-.16,0-.3,0-.46l35.06-5.48a4.89,4.89,0,0,0,8,1.93l25.28,26.44A4.56,4.56,0,0,0,857.68,408.64Zm-50.26-113,3.14-9.8a4.86,4.86,0,0,0,6.21-4.72c0-.07,0-.13,0-.2l26.39-5.28a1.6,1.6,0,0,0,0,.23l-34,21.1A4.81,4.81,0,0,0,807.42,295.65Zm9.05-16.14a4.89,4.89,0,0,0-4-3.24l1.92-21.4a4.86,4.86,0,0,0,3.85-2l25.73,19.39a4.77,4.77,0,0,0-.77,1.92Zm-36.38-28.39a4.79,4.79,0,0,0-1-1.7l2.48-2.75,19.06-19.37a4.9,4.9,0,0,0,3.83,0l6.64,16,.83,2.34a5,5,0,0,0-2.33,2.89ZM748.41,244a4.75,4.75,0,0,0-.53,0l-2.32-14.5a4.92,4.92,0,0,0,3.87-4.59l9.71-.93a4.91,4.91,0,0,0,1.86,2.75l-11,17.5A4.8,4.8,0,0,0,748.41,244ZM725.8,227.4a5.11,5.11,0,0,0-.13,1.11,4.84,4.84,0,0,0,.31,1.66l-16,14a4.85,4.85,0,0,0-1.53-.88l2.37-12.41.12,1.72.46-1.7.19,0a4.9,4.9,0,0,0,4.87-4.48ZM662.8,205l14.53-28.73,11.52,8-.44,12.42a4.91,4.91,0,0,0-3.89,4.81,5.29,5.29,0,0,0,.08.8l-19.73,4.86A4.9,4.9,0,0,0,662.8,205Zm32.42-55.77,30.92,4.42c0,.17,0,.34,0,.51a4.89,4.89,0,0,0,1.84,3.81l-6.29,12.88L695,150.12A4.62,4.62,0,0,0,695.22,149.22Zm19.86-39.14a5.15,5.15,0,0,0,1.38.54l-.15,3-4,.95Zm2.93.59a4.86,4.86,0,0,0,3.69-7.32l21.49-14.21a5,5,0,0,0,1.46.92l-5.52,13.78c-.13,0-.25,0-.39,0a4.91,4.91,0,0,0-4.91,4.91,4.17,4.17,0,0,0,.07.71l-16,3.81Zm45.93.81a4.94,4.94,0,0,0-1.8,2.43l-18.56-4.48a4.28,4.28,0,0,0,.07-.72,4.9,4.9,0,0,0-3.08-4.55l5.51-13.78c.13,0,.26,0,.4,0a4.89,4.89,0,0,0,3-1Zm192.27-8.66-73.3,25.27a4.87,4.87,0,0,0-1.88-1.57l20.82-48.85a4.78,4.78,0,0,0,1.25.18,4.9,4.9,0,0,0,4.26-2.5l49.49,25.16A4.73,4.73,0,0,0,956.21,102.82ZM1017.11,74a4.91,4.91,0,0,0,4.11-2.23l21.85,15.4,2.66,17.83a4.88,4.88,0,0,0-3.51,4.22l-37.54,4.72,11.84-40A3.8,3.8,0,0,0,1017.11,74Zm107.4,75.42a3.8,3.8,0,0,0,.46-.05l11.1,70.2-45.4-11.45a4.51,4.51,0,0,0-.65-3.31l1.69-1.1-2,.68a4.91,4.91,0,0,0-3.91-2c-.12,0-.23,0-.35,0l-25-61.82,59.26,2.78a4.82,4.82,0,0,0-.13,1.07A4.92,4.92,0,0,0,1124.51,149.4Zm2.48-.7,28.58,45.88a4.9,4.9,0,0,0,1,8.62l-3.83,20.56-15.14-3.82L1126.38,149A4.42,4.42,0,0,0,1127,148.7Zm72.42,58.68-5.37,22.2a4.33,4.33,0,0,0-.89-.09,4.85,4.85,0,0,0-3.67,1.68l-27-30a4.9,4.9,0,0,0,.67-1.75Zm21.83,4.78,1.65,14L1198,234a4.89,4.89,0,0,0-2.62-4l5.41-22.37Zm-20.08-5.88,13-53.83,6.88,58.19ZM812.42,242.85l-4.85-13.64L819.64,243,817,245.87a4.73,4.73,0,0,0-3.58-.73Zm-43.78-21.19a4.81,4.81,0,0,0-1.24-2.28l14.84-23.32a4.87,4.87,0,0,0,6.66-1.34l8.68,6A4.84,4.84,0,0,0,797,203a4.92,4.92,0,1,0,9-2.79l9.31-9A4.88,4.88,0,0,0,819,192.9a4.79,4.79,0,0,0,2.35-.62l12.28,17.29-26.73,11a4.87,4.87,0,0,0-9,.73Zm-22.15-35.27a4.85,4.85,0,0,0-1.73-3.13l7.8-23.86,16.18,2.54a4.91,4.91,0,0,0,4.81,3.89l.3,0,8.72,21.81a4.91,4.91,0,0,0-2.09,2.14Zm-4.85-4.28a5,5,0,0,0-1.39.22l-6.7-24a5,5,0,0,0,1.66-1.67l6.67,1.05v24.42Zm-19.59,9.4,4.13-15.31,11.09,8.62a5,5,0,0,0-.54,2.18Zm16.05-7.88-11.51-8.95,4.22-15.63.2,0a4.68,4.68,0,0,0,1.19-.17l6.72,24A4.92,4.92,0,0,0,738.1,183.63Zm5.23-47.84a4.84,4.84,0,0,0,2.39-1.07l1.12,1.16-3.51,3.7Zm4.12.71,8.27,8.54-2,6.22-10.36.47V140.84Zm52.64-7.84-2.49,3L772,117.78l26.71,6.76a4.07,4.07,0,0,0-.07.61A4.9,4.9,0,0,0,800.09,128.66Zm12.82-2.09L823,142l-15.28-14.34a5.06,5.06,0,0,0,.58-1.44Zm86.75-50.13c.08.08.18.14.27.22l-21,49.38a4.91,4.91,0,0,0-2.43.69l-9.67-17.41Zm34.56,76.2a5.19,5.19,0,0,0-.18.78l-43.86-2.69-8.66-15.62a5.15,5.15,0,0,0,1.33-1.22Zm114.08-38.22,9.67,23.91-11-.52.73-23.28A5.54,5.54,0,0,0,1048.3,114.42Zm10.57,26.13L1084,202.76l-.47.23-33.07-29.12a4.79,4.79,0,0,0,.61-2.31,4.9,4.9,0,0,0-.73-2.55l.62-.52-.72.34a4.9,4.9,0,0,0-4.09-2.19h-.08l.83-26.66Zm99.48,63a4.88,4.88,0,0,0,3.21-1.22l27.1,30.11a3.82,3.82,0,0,0-.13.36l-34.38-8.68L1158,203.5C1158.11,203.51,1158.23,203.54,1158.35,203.54Zm30,30.09a4.9,4.9,0,0,0-.08.77,4.81,4.81,0,0,0,.82,2.7l-39.73,31.62a4.89,4.89,0,0,0-3.23-1.49L1154,225Zm-123.86,42-.43-1.15a4.73,4.73,0,0,0,1.2-.92l18.8,13-13.49,3.25Zm-7.62-6.37-34.56-2.58,15.06-13.71L1057,268.85C1056.92,269,1056.87,269.1,1056.84,269.23ZM836.43,219.8l-27.11.69,24.82-10.2,4.54,6.39A4.93,4.93,0,0,0,836.43,219.8Zm-30.06,6a4.81,4.81,0,0,0,1.09-3,4.28,4.28,0,0,0-.08-.81l29-.74a4.91,4.91,0,0,0,1.25,2.91l-17.35,18.25L806.78,227Zm32.36-.78a4.46,4.46,0,0,0,3.26.63l4.43,44.67a5.11,5.11,0,0,0-1.24.61l-24-27.47Zm5-8.38a4.82,4.82,0,0,0-2.56-.74,4.59,4.59,0,0,0-1.17.16l-4.53-6.38,16.83-6.92a4.88,4.88,0,0,0,.31.55ZM805,199.16a4.88,4.88,0,0,0-6.54.4l-8.89-6.17a4.77,4.77,0,0,0,.25-1.47,4.14,4.14,0,0,0-.09-.87l.57-.07,23.84-2.72a4.9,4.9,0,0,0,.37,1.67ZM753,158l1.94-5.92,7.28-.33,6.88,7.1a4.63,4.63,0,0,0-.43,1.61Zm-17.26-5.06,6.13-.27v3.58l-6.11-1a4.4,4.4,0,0,0,0-2.35Zm7.58-.34,10.07-.45-1.84,5.62-8.23-1.29Zm23-32.25,4.35,30.14-7.34.33-6-6.17,8-24.49A4.39,4.39,0,0,0,766.34,120.35ZM934,154.29a4.91,4.91,0,0,0,.13,1l-21,13.19-10,5.58-12.45-22.45ZM1169,343l-.19.11-35.18-58,9.1-9.27a4.89,4.89,0,0,0,3.1,1.13,4.76,4.76,0,0,0,.66-.07l8.24,23.24Zm-173-82.59a4.82,4.82,0,0,0-1.53.26l-5.61-19.82,23.31-8.07-15.22,27.72A5,5,0,0,0,995.92,260.43Zm-45.79-7.72,32.76-27.35L987,240l-36.88,12.77Zm62.54-21.65L994.1,216l48.84-40.79a5.4,5.4,0,0,0,.52.43l-30.33,55.26Zm-28.57-6.72L993,217l18.09,14.67-22.67,7.85Zm15.12,37.38a4.87,4.87,0,0,0-1.5-.94l15.18-27.66,13.56,11ZM1014,232.14,1080.83,209l-53.09,34.3Zm65.67-20.66-43,39.09-7.78-6.32Zm8.33.24,35,57.73H1066.5a4.86,4.86,0,0,0-2.1-3.36l5.22-13.57L1086,212.23A5,5,0,0,0,1088,211.72Zm-21.93,60.61a4.58,4.58,0,0,0,.44-1.43h57.4l3.2,5.26-41.18,9.94Zm61.51,4.61,4.91,8.1L1113,304.88l-26.15-18.12Zm.89-.21,12.68-3.06a4.83,4.83,0,0,0,.91,1.61l-8.94,9.11Zm12.48-3.9L1128,276l-3.07-5.05H1141a4.84,4.84,0,0,0-.17,1.21A4.41,4.41,0,0,0,1140.94,272.83Zm.72-3.38H1124l-35-57.77,53.35,56.92A4.3,4.3,0,0,0,1141.66,269.45Zm-60.73-62-66.58,23.06,29.87-54.43a4.83,4.83,0,0,0,2,.42,4.91,4.91,0,0,0,3.46-1.43l32.71,28.82a4.88,4.88,0,0,0-1.44,3.47S1080.93,207.39,1080.93,207.42Zm-115.85,19,11.19-17.63a4.86,4.86,0,0,0,2.08.54l4.1,14.51-32.84,27.42Zm-17.73,23.7-3.09-40.56,29.47-4A4.89,4.89,0,0,0,975,207.8l-26.64,42.79A4.87,4.87,0,0,0,947.35,250.11Zm-2.2-.29-20.83-37.54,17.78-2.43ZM981.9,208l9.91,8-8.14,6.79-3.87-13.66A5,5,0,0,0,981.9,208ZM993,215.07l-10.17-8.25a4.74,4.74,0,0,0,.1-4.61l58.51-27.59Zm-19.32-10.41-29.44,4-1.32-17.37,30.94,11.78a4.81,4.81,0,0,0-.21,1.33A1.81,1.81,0,0,0,973.63,204.66ZM942,209l-18.16,2.49-12.79-23.05,5.72-7,23.82,9.07Zm-127.79-22.2-25,2.86a4.87,4.87,0,0,0-1-1.3l36.06-36.47a5,5,0,0,0,1.41,1l-7,30.28A4.9,4.9,0,0,0,814.24,186.78Zm-27.76.52,10.92-37.14L822.84,149a4.82,4.82,0,0,0,.55,1.68L787,187.51A4.55,4.55,0,0,0,786.48,187.3Zm15.4-52.38,21.3,11.49a4.75,4.75,0,0,0-.38,1.73l-25.14,1.13Zm-5.75,14.42-12,.55L798.34,133l2.24,1.21Zm92.44,63.13L890,189a4.89,4.89,0,0,0,4.48-4.87,4.75,4.75,0,0,0-.42-2l8.21-5.15,6.58,11.85-19.56,24A5,5,0,0,0,888.57,212.47ZM866.76,192l-4.86-5.78,4.56-15,18.56,11v0Zm-10.07,3.65a4.76,4.76,0,0,0-1.89.38l-23.44-44.45.13-.15,29,34.46-3,9.84A4.17,4.17,0,0,0,856.69,195.65Zm-24.2-46.26a.24.24,0,0,1,0-.08l35,13.35-1.95,6.4Zm32.68,21.09-4.38,14.42-28.62-34Zm-6.28,25.71h0l2.73-9,4.38,5.21Zm34.19-15.49,5.33-3-5.13,3.22C893.21,180.86,893.15,180.77,893.08,180.7Zm11.54-3.93,10.76,4.09-5,6.19Zm29.7-19.14L916,180.15l-11.63-4.43,19.29-12.1Zm-42,22.47a4.83,4.83,0,0,0-2.8-.89c-.11,0-.22,0-.32,0l-2-9.08,13.62,5.18Zm-4.84-.44a4.9,4.9,0,0,0-1.75,1.37l-18.89-11.21,2-6.65,16.46,6.27Zm-18.36-17.32,3.59-11.81,8.72.53,3.67,17.36Zm-1.36-.52-35.21-13.4v-.07a2.85,2.85,0,0,0,0-.29l38.71,2.38Zm-47.68,21.4,7-30a4.07,4.07,0,0,0,.61.06,4.81,4.81,0,0,0,3-1.06L854,196.44a4.92,4.92,0,0,0-1.59,1.71l-28.55-10s0-.1,0-.15A4.91,4.91,0,0,0,820.13,183.22Zm40.07,13.91,6.73-3.58.45.53-6.63,3.71A4.94,4.94,0,0,0,860.2,197.13Zm7.52-4,16.93-9a2.3,2.3,0,0,1,0,.26l-16.53,9.25Zm17.1-7.82a4.91,4.91,0,0,0,3.73,3.61l-1.41,23.2c-.16,0-.31,0-.47,0a4.81,4.81,0,0,0-2.44.68l-15.51-18.43Zm5.56,28.49,19.22-23.58,12,21.55-30.11,4.12A4.9,4.9,0,0,0,890.38,213.81Zm27-33.12,5.46-6.69L936,158.11a4.9,4.9,0,0,0,2.24.89l2.32,30.51Zm-16.56-6.3L887,169.14l-3.92-18,5,.31Zm-17.89-24.11L880,136.85l7.61,13.72Zm-1.64-.1-8.27-.51,4.3-14.1a4.67,4.67,0,0,0,.93.22ZM876,134.88l-4.47,14.7-39.09-2.4a4.68,4.68,0,0,0-.17-.53l42.13-13.78A4.93,4.93,0,0,0,876,134.88ZM770.87,118.19,797,132.3,782.15,150l-10,.45-4.35-30.14A4.92,4.92,0,0,0,770.87,118.19Zm-.94,39.43-5.77-6,6.65-.3.74,5.08A4.87,4.87,0,0,0,769.93,157.62Zm-8.51-6.71-6.18.28,1.62-5Zm12.13,5.1a3.93,3.93,0,0,0-.6.06l-.68-4.78,9.11-.41-5,6A4.85,4.85,0,0,0,773.55,156Zm4.91,4.91a4.86,4.86,0,0,0-1.08-3l6-7.09,12.51-.56L785.05,187l-.18,0a4.91,4.91,0,0,0-.94.09l-8.64-21.6A4.9,4.9,0,0,0,778.46,160.92Zm45.15,28.66,28.29,9.92a5.3,5.3,0,0,0-.12,1.06A5,5,0,0,0,852,202l-17,7-12.49-17.59A4.87,4.87,0,0,0,823.61,189.58Zm37.56,9,6.78-3.79,15.56,18.5a5.24,5.24,0,0,0-.91,1l-21.41-11.71a4.75,4.75,0,0,0,.42-2A4.84,4.84,0,0,0,861.17,198.55Zm30.39,18.22L922,212.6l21,37.94a6.12,6.12,0,0,0-.7.53L891.48,218a5,5,0,0,0,.1-1C891.58,216.92,891.56,216.84,891.56,216.77Zm58.94,37.35,36.91-12.78,5.66,20a4.89,4.89,0,0,0-1.79,2.44l-40.74-9c0-.05,0-.08,0-.13A5.7,5.7,0,0,0,950.5,254.12Zm43,15.45a4.81,4.81,0,0,0,1,.45l1.06,18-24.29,22.12Zm2.51.68a4.91,4.91,0,0,0,4.71-3.76l17.13,1.28-20.87,19Zm4.83-5.2a5,5,0,0,0-.66-2.2l27.51-17.77,8,6.48-16.34,14.87Zm37.62-13.1,44.61-40.6.07.06-20.74,53.92a5.35,5.35,0,0,0-.7-.07,4.9,4.9,0,0,0-4.1,2.22ZM1133,285.8l34.44,56.76-53.64-37.18Zm11.92-19.9-7.12-45,14.83,3.74Zm-1.19,1.78-.14.08-53.84-57.43a4.79,4.79,0,0,0,.75-1.39l45.77,11.55Zm-99-100.77a4.9,4.9,0,0,0-3.37,4.65,4.67,4.67,0,0,0,.23,1.4L982,201a4.94,4.94,0,0,0-2.71-1.41l18.33-61.92,47.84,2.25ZM977.8,199.59l-.26,0-10.36-63.37,29,1.36Zm-3.69,2.7L942.8,190.37l-2.41-31.57a4.8,4.8,0,0,0,1.17-.54l33.59,42.6A4.91,4.91,0,0,0,974.11,202.29Zm-98.8-74.63a4.79,4.79,0,0,0-1.18,2.26l-25.92-2,17.5-17.5Zm-1.25,3.71s0,.06,0,.09l-42.51,13.9a5.54,5.54,0,0,0-.37-.45l15.67-15.67ZM830,144a4.94,4.94,0,0,0-2.32-.6,4.87,4.87,0,0,0-2.31.6L814,126.66l31,2.43Zm-66.27-24.73a3.61,3.61,0,0,0,.3.25l-7.81,23.92-7.78-8ZM741.88,151.8l-6.43.29a4.84,4.84,0,0,0-1.24-1.63l7.67-8.09Zm1.45,6.15,7.77,1.22-7.61,23.31-.16,0ZM818,246.85l2.58-2.71,22.22,25.46-23.94-18a4.92,4.92,0,0,0,.29-1.59A4.85,4.85,0,0,0,818,246.85Zm30,23.24-.14,0-4.45-44.86a4.88,4.88,0,0,0,1.86-1.6l8,6.14-4.15,40.44A5.12,5.12,0,0,0,848,270.09Zm-2.09-47.78a5,5,0,0,0,.24-1.45,4.85,4.85,0,0,0-1.22-3.2l8.93-13.11a5,5,0,0,0,1.91.83l-2.33,22.72Zm102.74,36.26a4.88,4.88,0,0,0,1.64-2.32l40.74,9s0,.08,0,.12a4.88,4.88,0,0,0,1.3,3.31l-23.58,43.1a4.8,4.8,0,0,0-.85-.08,4.91,4.91,0,0,0-1.16.15l-13.06-38Zm47.08,32.25.55,9.33L973.57,311Zm1.38-1.26L1020.8,268l36,2.69a3.56,3.56,0,0,0,.08.57l-59.19,28.23Zm64.56-14.47a4.9,4.9,0,0,0,1-.11l5.73,15.34-11,2.65,3.93-17.92C1061.45,275.06,1061.55,275.09,1061.66,275.09ZM1085,287.22l.08,0,26.7,18.9L1088,330.44l-17.06-39.83Zm82.3,57-.09.11-11.11-7.86Zm4-1.6-23.43-66.09a5,5,0,0,0,1.55-1.13L1180,298.9l-8.6,43.76Zm-21.35-67.91a4.9,4.9,0,0,0,.77-2.62,3.71,3.71,0,0,0,0-.48l33.92,4.24L1180.22,298Zm1.44-4.47,37.34-15.48-3.86,19.67Zm-1.25-.42a3.75,3.75,0,0,0-.24-.44l39.73-31.62a4.94,4.94,0,0,0,2.18,1.32l-2.88,14.65Zm47.79-34.25.07,0,3.62.55-3.78-.23C1197.84,235.79,1197.88,235.69,1197.9,235.59Zm22.66,1.68-9.29-.57-9-1.36-2.44-.37,23.22-7.35.81,6.86A4.93,4.93,0,0,0,1220.56,237.27Zm-161-98.86-9.93-24.55a4.85,4.85,0,0,0,1.44-1.34l67.43,28.66Zm-7.65-27.9a4.58,4.58,0,0,0,.08-.83,4.89,4.89,0,0,0-1.8-3.78l5.64-9.76,57.39,40.43Zm-3-5.37a4.85,4.85,0,0,0-1.79-.37L1044.7,88.3l9.94,7Zm-6.47,6.22a4.9,4.9,0,0,0,3.8,3.15l-.72,23.24-47.28-2.23L1004,116.2Zm-45.69,24.09-30-1.41-2.11-12.9,37.72-4.74ZM965.34,134l-74.73-3.52,72.66-9.13Zm.36,2.2,10.46,64-.33.18-33.59-42.6a4.87,4.87,0,0,0-.19-7.29l.17-.2-.24.15a4.85,4.85,0,0,0-6.63.36L885,132.37ZM908,73.23c0-.1,0-.19,0-.29a4.85,4.85,0,0,0-1.42-3.44l.49-.49-.64.35a4.87,4.87,0,0,0-2.68-1.27L902.6,57.58,909.73,56l45.6,41.32Zm-9.2,2L866.05,108l-6.56-11.8,39.24-21.06ZM865,109.07l-18.67,18.67L813,125.13l-1.93-2.95,47.13-25.3Zm-53.07,16-3.52-.28a5.16,5.16,0,0,0-.19-1l2.11-1.13Zm-8.39,5a4.86,4.86,0,0,0,3.29-1.29L824.1,145a5.3,5.3,0,0,0-.51.64l-21.46-11.58,1.19-4Zm-2.69,3.3-1.92-1,2.38-2.82a4,4,0,0,0,.6.26Zm-1.75-10.29-27.41-7.38c0-.07,0-.14,0-.21a4.75,4.75,0,0,0-.26-1.52L790,99.15a4.83,4.83,0,0,0,2.86.94,5,5,0,0,0,1.41-.23l7.08,20.89A4.87,4.87,0,0,0,799.08,123.07Zm-65-12.8a4.88,4.88,0,0,0,8.9.85l18.5,4.18-43.7,2.09.1-3.26Zm29,8.45-15.27,16.1-1.13-1.17a4.86,4.86,0,0,0-.22-5.68l16.14-9.88A4.77,4.77,0,0,0,763.11,118.72Zm-21.23,17.07v5.32l-8.37,8.83h0l7.35-14.42A5.12,5.12,0,0,0,741.88,135.79Zm-14.88,29-2.27,8.41-1.34-1Zm-2.68,9.92-4.73,17.52-6.35,1.95a5.2,5.2,0,0,0-.43-.37l9.93-20.32ZM705,196.4l-11.43,2.51a4.9,4.9,0,0,0-3.72-2.25l.41-11.37,15,10.44A4.75,4.75,0,0,0,705,196.4Zm-10.85,3.87,10.69-2.35A4.89,4.89,0,0,0,709,202.5l1.24,18.85a4.53,4.53,0,0,0-1.45.7l-15.22-17.81a4.94,4.94,0,0,0,.82-2.71A4.74,4.74,0,0,0,694.16,200.27Zm17,2.08a4.82,4.82,0,0,0,2.49-1.72l3,2.44-4.41,16.36Zm3.2-3a4.79,4.79,0,0,0,.32-1.69,4.89,4.89,0,0,0-.54-2.19l5-1.55-2.06,7.63Zm7.27-6.18L737,188.44a4.89,4.89,0,0,0,3.33,3.29l1.89,28.72a4.25,4.25,0,0,0-.79.54l-22.45-18Zm22.94,26.65a4.83,4.83,0,0,0-.94.09l-1.85-28,.13,0v.15l0-.15a5,5,0,0,0,1.23-.24l17.78,27.21a4.87,4.87,0,0,0-2,3.7l-9.71.92A4.9,4.9,0,0,0,744.54,219.82Zm19.34-1.94a4.8,4.8,0,0,0-1.66.31L744.47,191a4.86,4.86,0,0,0,2-3.19L780,191.16a4.77,4.77,0,0,0-.07.76,4.83,4.83,0,0,0,1.18,3.16l-14.91,23.43A4.8,4.8,0,0,0,763.88,217.88Zm4.8,6,29-.37a5,5,0,0,0,.48,1.54l-20.95,23.19a4.86,4.86,0,0,0-1.75-.33,4.33,4.33,0,0,0-.89.09l-7.69-21.31A4.87,4.87,0,0,0,768.68,223.83Zm85.39,6.59,3.87,3,7.74,5.94a4.85,4.85,0,0,0,.71,4.87l-16.25,24.56Zm12.36,7.66-7.15-5.49-5-3.87,2.38-23.25h.06a4.82,4.82,0,0,0,2.17-.52l8.58,32.18A5.35,5.35,0,0,0,866.43,238.08Zm130,64.42.3,5.11L974.41,313Zm1.42-.68,60-28.61a4.62,4.62,0,0,0,.69.71L1045,296l-46.83,11.3Zm61.91-27.13a1.27,1.27,0,0,0,.18.06l-4.08,18.6-8.87,2.14Zm-2.54,19.23,11.51-2.78,15.49,41.5a5,5,0,0,0-1,1.47l-34.5-1.57Zm28.2,37.8-14.51-38.91,16.4,38.3,0,0A4.77,4.77,0,0,0,1085.4,331.72Zm88.26,11.72a5.21,5.21,0,0,0-1.38-.62l8.52-43.33L1199.68,314Zm12-68.89,4-20.17,7-2.9,7.12,25.33Zm31.88-36,2.6.39c0,.1,0,.2,0,.3a5.09,5.09,0,0,0,.25,1.47l-10,4.15-11.71-7.45Zm10.26-3.35a4.86,4.86,0,0,0-2.52-.84l-.85-7.18,23-7.29Zm-3.54-9.48-1.56-13.22,24.49,5.36s0,.07,0,.11,0,.32,0,.48Zm23.19-9.29L1222.56,211l-6.87-58.09,33.85,60.93A4.87,4.87,0,0,0,1247.49,216.42ZM1213,151.1,1199.75,206l-36.56-8a4.89,4.89,0,0,0-4.84-4.27,4.76,4.76,0,0,0-1.46.25l-28.76-46.18a4.89,4.89,0,0,0,1.29-3.3,6,6,0,0,0-.06-.61l1.16,0-1.23-.52a4.87,4.87,0,0,0-1.25-2.32l35.54-43.63a4.88,4.88,0,0,0,2.5.71,5,5,0,0,0,2.66-.79l41.23,47a4.86,4.86,0,0,0,3,6.73ZM1157.2,51.55l-31.64,88.14c-.15,0-.31,0-.46-.06l-8.24-75.43a4.92,4.92,0,0,0,3.86-4.8,5.69,5.69,0,0,0-.08-.83l36.09-7.87A5.41,5.41,0,0,0,1157.2,51.55ZM1055.37,94l-11-7.72-2.93-19.65,31.44-3Zm-12.6-8.88L1021.82,70.4a4.8,4.8,0,0,0,.2-1.33,5.29,5.29,0,0,0,0-.56l18.06-1.7Zm-10.61-49.23-14,28.35a4.66,4.66,0,0,0-1.06-.12,4.89,4.89,0,0,0-3.86,1.9L974,33.31a4.24,4.24,0,0,0,.22-1.07l56.43.41A4.82,4.82,0,0,0,1032.16,35.93Zm-66.58,69,3.25,1.65L965.91,104a5.1,5.1,0,0,0,.12-1,5,5,0,0,0-.85-2.76L1013,71.72a5,5,0,0,0,2.14,1.83l-12,40.57L964.36,119,962.5,107.6A4.94,4.94,0,0,0,965.58,104.94Zm-2.66,14.23-74.7,9.39L956.66,105a4.91,4.91,0,0,0,4.41,2.86Zm-34.08-69-17.83,4-6.77-6.13a4,4,0,0,0,.21-1l24.36,2.79ZM903.11,50l5.31,4.81-6,1.35-.58-5.24A5.18,5.18,0,0,0,903.11,50ZM901.6,68.28a4.91,4.91,0,0,0-3.41,4.66,5.29,5.29,0,0,0,.08.8L858.78,94.93,846.64,73.08A4.82,4.82,0,0,0,848,69.91l52.48-11.85Zm-58.51,6.34a4.75,4.75,0,0,0,2.39-.65l12,21.65L810.28,121l-1-1.47L818,107.15l23.82-32.71A4.87,4.87,0,0,0,843.09,74.62Zm-33.58,46.75-1.92,1c-.05-.08-.12-.14-.17-.21l1.36-1.94Zm-3.77-.58a4.9,4.9,0,0,0-2.22-.56h0l-5.66-16.71,9.67,14.77ZM727.14,67.3a4.79,4.79,0,0,0,2.38-.65l3.9,4.35,9.43,11.22a4.89,4.89,0,0,0-1.29,3.29c0,.14,0,.27,0,.4l-19.48,2.36,4.49-21A4.78,4.78,0,0,0,727.14,67.3Zm14.78,20s0,0,0,0l-21.72,14.37a5.14,5.14,0,0,0-.87-.46l2.46-11.5Zm-28.47,21.29a3.79,3.79,0,0,0,.48.58l-3.62,5.85-8.72,2.08Zm-3.79,7.48-1.07,1.73-7.76.38Zm2-.48,4.61-1.1-.15,3-5.77.28Zm4.42,2.72L715.51,130a4.92,4.92,0,0,0-2.86,1.8l-7.73-5.27,4.87-7.88Zm.42,21.39a4.91,4.91,0,0,0,.9-9.74l.37-11.73,44.16-2.11a5.6,5.6,0,0,0,.12.59l-16.63,10.19a4.9,4.9,0,0,0-5.83,7.87l-7.44,14.59a4.82,4.82,0,0,0-1.14-.15,4.92,4.92,0,0,0-4.52,3l-31.24-4.46a4.83,4.83,0,0,0-.3-1.26l17.28-9.3A4.9,4.9,0,0,0,716.5,139.73Zm-22.27,11.66L721,172.17l-10.13,20.72a4.64,4.64,0,0,0-1.12-.14,4.88,4.88,0,0,0-1.44.23l-15-40.68A4.77,4.77,0,0,0,694.23,151.39ZM690,153.22l-1.05,29.36L678,175l11.08-21.89A5.29,5.29,0,0,0,690,153.22Zm-2.23-.75-11,21.64-6.15-4.29a4.82,4.82,0,0,0-.5-5.08l16.79-12.91A5.07,5.07,0,0,0,687.74,152.47ZM666.23,172.6a4.86,4.86,0,0,0,3.59-1.58l6.31,4.4-13.57,26.82,3.28-29.68C666,172.57,666.09,172.6,666.23,172.6Zm-2-.41-4.36,31.35-3.79-31.36,5.65-2.44A4.9,4.9,0,0,0,664.28,172.19Zm-26.66-19.51,11.23,3.38a4.62,4.62,0,0,0-.1,1,4.73,4.73,0,0,0,.34,1.77l-9.91,4.34-3.89-8.36A4.9,4.9,0,0,0,637.62,152.68Zm21,52h0l-13-27.94,9.21-4Zm-39.18,56a4.93,4.93,0,0,0,2.81.88c.15,0,.3,0,.45,0l2.4,9.77-5.86,2-3.92-8.26Zm12.68,43.16a4.39,4.39,0,0,0-.4.33L604,283.15a4.87,4.87,0,0,0,.49-2.09,5.2,5.2,0,0,0-.12-1.05l14.14-4.87ZM599.53,286a4.87,4.87,0,0,0,3.08-1.11l27.76,21.07a5,5,0,0,0-.39,1.45l-53.09,5.72a4.68,4.68,0,0,0-.77-1l21.1-26.7A4.77,4.77,0,0,0,599.53,286Zm-22,29.25,52.69-5.67a4.87,4.87,0,0,0,.72,1.35l-.56.57.69-.41a4.72,4.72,0,0,0,1.09,1l-11.22,24.43-24.08,5.31-20.13-23.55a4.91,4.91,0,0,0,.83-2.73C577.55,315.42,577.53,315.32,577.52,315.22Zm43,22.26-8.16,17.78a4.9,4.9,0,0,0-1-.11,4.84,4.84,0,0,0-2.45.68l-11.36-13.28Zm-12.77,19.25a4.91,4.91,0,0,0-.88,1.32l-40.24-7.7c0-.12,0-.24,0-.37a4.2,4.2,0,0,0-.06-.62l29.32-6.46Zm-2.12,84.35,22.85-24.52a4.83,4.83,0,0,0,5.42-.7L648,426.6l9.32,7.09a4.87,4.87,0,0,0-.44,1.94L606.1,443A5,5,0,0,0,605.59,441.08Zm56.14-10.28a4.9,4.9,0,0,0-3.67,1.68L650,426.32,634.8,414.75a3.3,3.3,0,0,0,.23-.41l28.29,10.88-1.55,5.58Zm3.31,1.3a4.84,4.84,0,0,0-1.83-1.05l1.47-5.31,6.62,2.55Zm-.13-7.2,12.42-44.83c.13,0,.25,0,.37,0a4.83,4.83,0,0,0,2.87-.94l24.67,28.44-33,20.11Zm41.78-15.62,5.16,6L698,437.61,674.8,428.7Zm6.65,7.67,33.06,38.12a4.56,4.56,0,0,0-.66.92L700,438.41Zm13.94,75.17,23.19,5.2.2,4.58L751,513l-38.48,4.12a4.93,4.93,0,0,0-1.64-2.15Zm-15.4,29.74,37,22.33a4.92,4.92,0,0,0-1.07,1.89l-31.83,5a4.87,4.87,0,0,0-4-3.4l-3.06-24A4.89,4.89,0,0,0,711.88,521.86Zm4.36,30.68,31.37-5a4.9,4.9,0,0,0,3.9,4.74l-1.63,13.88L716.19,553a3.44,3.44,0,0,0,0-.45Zm36.14-.14.13,0h0l1.5,15.42-3.33-1.31Zm1.91,17.86.29,3,.31,4-5.4-.32,1-8.22ZM757,605.2l1,13.41-13.17-2,1.93-16.46ZM756.32,629a4.74,4.74,0,0,0-.32,1.69s0,.06,0,.09l-13.28,3.79,1.2-10.17Zm6.63-2.77,1.77-4.43,30.18,4.56L765.49,629A4.86,4.86,0,0,0,763,626.26Zm2.6-6.51,3.45-8.63,26.79,13.21Zm21-41.85a4.91,4.91,0,0,0-2.2-2.7l5.36-19L835,566.36Zm54.65-16.35-23.89-33.7,20.87,21,3.18,12.66Zm-1.2.81a4.85,4.85,0,0,0-1.6,3.19l-1.46.35-47-10.49,11.68-41.32a4.94,4.94,0,0,0,2.13.5c.11,0,.21,0,.32,0l7.07,7.1Zm-34.88-48a4,4,0,0,0,.69-.25l2.31,3.26Zm-1.7-9.94-3-19.85,9.73,4.53ZM800.11,482l-3.4-22.89,17.78-.62,2.53,8.44a4.88,4.88,0,0,0-.44,7.8l-5.48,12.39Zm17.71-6.48a4.8,4.8,0,0,0,1.93.4h.09l4.36,17.31-11.78-5.49Zm1.93-9.43a5.2,5.2,0,0,0-.69.07l-2.32-7.75,48.42-1.69-41.41,11.44A4.91,4.91,0,0,0,819.75,466.1Zm40-59.21-25.21-26.36,22.36,12a4.84,4.84,0,0,0-.25,1.48,4.91,4.91,0,0,0,3.85,4.79l1,7.66A4.89,4.89,0,0,0,859.72,406.89ZM866,392l18.23-6.39-18,7.18A4.33,4.33,0,0,0,866,392Zm-41.21-77.43a4.87,4.87,0,0,0-2.91,1l-12.49-12.48a4.82,4.82,0,0,0,.57-4.86l33.7-20.92a4.91,4.91,0,0,0,.74,1.06L825.09,314.6Zm45.44-78.32a4.71,4.71,0,0,0-1.46.25l-8.65-32.43a4.54,4.54,0,0,0,.66-.78L882.17,215a4.9,4.9,0,0,0,4.5,6.88,4.79,4.79,0,0,0,1.32-.2l13.52,29.06L875.06,242a4,4,0,0,0,.08-.78A4.91,4.91,0,0,0,870.23,236.25Zm4,7.73L901.4,253a4.85,4.85,0,0,0-.31,1.67,4.91,4.91,0,0,0,4.91,4.92l.3,0,3.14,44-26-41.7-10.4-16.7A4.89,4.89,0,0,0,874.25,244Zm34.18,15a5,5,0,0,0,1.83-1.83l30.57-1.42a5,5,0,0,0,2.14,3.12l-30.76,45.73a5.44,5.44,0,0,0-.54-.27Zm4.94,46.46,30.94-46a4.93,4.93,0,0,0,1.33.21,4.82,4.82,0,0,0,1.71-.33l17.53,53.42a4.87,4.87,0,0,0-1.71,2.56l-48.52-7.53A4.82,4.82,0,0,0,913.37,305.41Zm84.83,2.74L1044.33,297l-21.09,34.36-18.6-.85a4.89,4.89,0,0,0-4.85-4.36,4.53,4.53,0,0,0-.53.05ZM999.93,336a4.73,4.73,0,0,0,2.06-.53l11.42,11.94-2.24,3.65-10.76-9Zm14.52,12.49,23.83,24.92,0,.2L1012.3,352ZM1040.28,382l.14.07-1.42,4.45Zm9.59,48.71a4.89,4.89,0,0,0-2.53,1.54l-14.18-10a4.84,4.84,0,0,0,.54-2.21,4.91,4.91,0,0,0-2.89-4.47l1-3.73,9.4-29.47a5,5,0,0,0,.56.07l5.69,32.58Zm-7.54-58.08a4.4,4.4,0,0,0-.73.07l-.07-.43-.13.45a4.6,4.6,0,0,0-1.23.43l-.29-.32,8.53-38.88,34.49,1.56v0l-10,10.18-29.57,27A5.67,5.67,0,0,0,1042.33,372.66Zm50.23-35.61c0-.15,0-.3.06-.45l73.49,9.91a4.74,4.74,0,0,0-.11,1,5,5,0,0,0,.08.78l-29.64,7.55Zm73,12.28-19,10.86-8.81-3.78Zm-18.9,12.47,16.3,7-25.86-1.52Zm32.46,40.11-12.64,7.78.52-12.29,11.78,1a5.35,5.35,0,0,0-.2,1.33A4.72,4.72,0,0,0,1179.11,401.91Zm-16.17,11,1.26-.77-.08,1.78Zm-.7-.59-17.87-15.23a5.06,5.06,0,0,0,.46-1.55l20,1.71-.58,13.84ZM1143,398.75l17.31,14.74-13.65,8.4-5.48-22.24A4.86,4.86,0,0,0,1143,398.75Zm21.92-3.71-20.3-1.73a5,5,0,0,0-1.1-1.82l7.13-6.16,14.43,5.82Zm-36.49-18.67,19.95,8.05-6.79,5.85a4.69,4.69,0,0,0-3.71.2l-9.78-13.7A2.51,2.51,0,0,0,1128.42,376.37Zm11.28,23.41,5.65,22.9-8.22,5.06a4.86,4.86,0,0,0-2.33-1.7l1.66-10.8,2.4-15.57A5.85,5.85,0,0,0,1139.7,399.78Zm39.88,108a4.47,4.47,0,0,0-.82.08l-6.37-14.59a4.91,4.91,0,0,0-.16-9.81,4.85,4.85,0,0,0-3.16,1.18l-.75-.69-8-18.43a5,5,0,0,0,1.26-1.36l34.71,24.06a4.91,4.91,0,0,0-.66,2.41,4.86,4.86,0,0,0,1.25,3.24l-14.22,15A4.84,4.84,0,0,0,1179.58,507.82Zm-26.27-49-.66-.94.67.93Zm4.38,8.73.35.49-.26-1.05.09-.55a5.1,5.1,0,0,0,1.11-.24l6.71,15.35-8.92-8.16Zm95.66,29.52-23-13.9a4.82,4.82,0,0,0,.51-2.14,4.9,4.9,0,0,0-.07-.67l14.63-5.55,9.28,21.16A5,5,0,0,0,1253.35,497.1Zm-26.75-61.2-1.15,40.3a4.88,4.88,0,0,0-3.72,2.39l-12.66-6,16.82-36.78A4.17,4.17,0,0,0,1226.6,435.9Zm3.8,43.09a4.91,4.91,0,0,0-3.5-2.75l1.16-40.55.18-.06,16.61,37.88Zm-27.54,7.4,2.35-5.36.29-.63,10.14,4-10.84,3.92A4.87,4.87,0,0,0,1202.86,486.39Zm3-6.78,2.17-4.73,13.1,5.33a4.18,4.18,0,0,0,.12,2.17l-4.37,1.58Zm16,4.1a4.89,4.89,0,0,0,7.71.69l21.71,13.13-32.33-12.77Zm.69-50.14-1.34,1,.32-.87.9-.39Zm1,1.11a4.72,4.72,0,0,0,.86.6L1219,447.56,1207.76,472l-.17-.08,12.66-34.75Zm-17.2,36.61-15-7.09s0-.07,0-.11a4.87,4.87,0,0,0-1.43-3.46l28.25-21.81ZM1191,465.67l10.74,5.08-11-4.48A4,4,0,0,0,1191,465.67Zm-1.09,1.82,15.45,6.3-1.79,4.91-11.4-4.5-3.09-6A5,5,0,0,0,1189.91,467.49Zm13.37,12-2.29,6.29a3.91,3.91,0,0,0-.48-.05,4.75,4.75,0,0,0-2.13.51l-5.6-10.89Zm-6.11,7.57a4.47,4.47,0,0,0-.42.45l-34.81-24.12.06-.2,28.73,11.35Zm-43.27-28.95-17.46-23.8a4.83,4.83,0,0,0,1.15-5.86l8-4.91,8.49,34.43Zm51.48,32.92c0-.13,0-.25,0-.39a4.78,4.78,0,0,0-.1-1l12.36-4.46,34.69,13.69c0,.05,0,.1,0,.14Zm113.82-8.15L1358.88,513l-15.06,7.39a4.89,4.89,0,0,0-4.19-2.37,4.73,4.73,0,0,0-.93.09l-20.2-34.45A5.36,5.36,0,0,0,1319.2,482.91Zm25.33,39.83a5,5,0,0,0-.15-1l15.8-7.74,18.46,14a4.59,4.59,0,0,0-.54.94Zm33.33-12.47,3.93,15.73a4.76,4.76,0,0,0-1.47.51l-18-13.61,11.25-5.52A4.9,4.9,0,0,0,1377.86,510.27Zm-4.48-6.22a4.93,4.93,0,0,0-.21,1.33,5.51,5.51,0,0,0,.06.57l-12.16,6-38.36-29.07Zm-63-24.34c0,.07,0,.14,0,.22a4.91,4.91,0,0,0,4.91,4.91,4.8,4.8,0,0,0,2-.42l20,34.18c-.16.09-.33.17-.48.27l-65-51.36s0-.05,0-.08ZM1263,468.18a4.86,4.86,0,0,0,2.78,2.27l-7.81,25a5.16,5.16,0,0,0-.89-.09,5.07,5.07,0,0,0-1.56.28l-9.26-21.12Zm-35.22-42a4.68,4.68,0,0,0-1.07-.13,4.9,4.9,0,0,0-2.7.81l9.64-26.46Zm-5.77,6.17.06.17-.14.06Zm-2.33,2.17-.63,1.72-30.41,23.48a4.9,4.9,0,1,0-2.25,9.26,5,5,0,0,0,1.39-.23l2.37,4.61-27.91-11a4.77,4.77,0,0,0,.07-.76,4.89,4.89,0,0,0-.35-1.8Zm-60.41,22.52a4.77,4.77,0,0,0-3.91.08l-8.47-34.38,14.12-8.69,1.79,1.52a4.91,4.91,0,1,0,4.14-2.28,5.8,5.8,0,0,0-.6.06l.11-2.65,13.13-8.07a4.89,4.89,0,0,0,1.66,1.4Zm18.08-61-10.25-.88.13-3.21Zm-12.17-7.25-12.66-5.11,12.11-10.45a5,5,0,0,0,1.17.82Zm10.17-43.44a4.32,4.32,0,0,0-.62-1l26.12-29.6,15.25,11.68a4.74,4.74,0,0,0-.58,3.92Zm44-21.08a5.36,5.36,0,0,0-.57.17l-6.39-22.69,12.76-14.45Zm5.88-45.67a4.87,4.87,0,0,0-.52.76L1205.35,277,1198,250.92l4.21-1.75Zm-22.1-30.78-7.28-9.34a4.76,4.76,0,0,0,1.25-1.16l12.37,7.87Zm8.22-2.46,9.44-3.92a4.84,4.84,0,0,0,6.87,1.92l4.19,5.71,11,15.72c-.12.13-.22.27-.33.4Zm33.79,18.09a4.47,4.47,0,0,0-1.13.46l-15.13-21.6a4.83,4.83,0,0,0,.09-6.17l19.45-15.13a4.94,4.94,0,0,0,1.57,1.26Zm7.06-50.46a3.87,3.87,0,0,0-.49,0l-34.71-62.48c.08-.05.17-.08.25-.14l38.11,13.5a5,5,0,0,0-.34,1.77,4.91,4.91,0,0,0,3.94,4.82l-6.19,42.54A5.23,5.23,0,0,0,1252.13,213.05Zm-37.71-71.55a4.91,4.91,0,0,0-3.62,1.62l-41-46.72a6,6,0,0,0,.5-.71l49.1,19.32a4.83,4.83,0,0,0-.24,1.44,4.89,4.89,0,0,0,3.55,4.69l-6.87,20.6A4.88,4.88,0,0,0,1214.42,141.5Zm55.24-25.2a5,5,0,0,0-1.78-.34,4.9,4.9,0,0,0-4.82,4L1229,116.15a1.53,1.53,0,0,0,0-.3l43.47-15.3a4.88,4.88,0,0,0,1.9,3.36Zm12-18.35a4.87,4.87,0,0,0-3.18-2.67l4.55-24.3a3.8,3.8,0,0,0,.83-.25l12.85,28.1a5,5,0,0,0-1.08,1Zm16.88,9.78a4.6,4.6,0,0,0,.91.09,3.94,3.94,0,0,0,.69-.07l6.84,19.16-9.4,8.93a4.87,4.87,0,0,0-1.71-1.44Zm-.26,29.44,8.6-8.17.63-.6,13.33,37.34-23.25-24.06a4.86,4.86,0,0,0,1-2.92A4.92,4.92,0,0,0,1298.33,137.17Zm10.38-9.86,2.3-2.18a4.85,4.85,0,0,0,2.94,1l.21,0,6.21,33.85Zm1.27-3.21-1.8,1.72-6.6-18.47a4,4,0,0,0,.64-.35l8.22,10.79a4.86,4.86,0,0,0-.46,6.31ZM1322.77,165l-7.19-39.15a4.9,4.9,0,0,0-1.63-9.52,4.79,4.79,0,0,0-2.35.62L1303.29,106a4.91,4.91,0,0,0,1.13-3.1,5.12,5.12,0,0,0-.2-1.31l32.52-.61Zm14.29-65.44-33.49.62a2.78,2.78,0,0,0-.21-.27l19.45-7.51,14-5.42a4.92,4.92,0,0,0,2.51,2.16Zm11.15-2.23a4.83,4.83,0,0,0-2.6,2.07l-7.06.13,2.2-10.09.33,0a4.91,4.91,0,0,0,2-.41Zm13.13-25a4.71,4.71,0,0,0,.33,1.46l-16.53,8a4.9,4.9,0,0,0-8.49.67l-47.47-14.24Zm-25.1,11.48a4.06,4.06,0,0,0-.08.7,4.68,4.68,0,0,0,.13,1.07L1309.67,95.9l-7.5,2.89a4.87,4.87,0,0,0-2.67-.79,4.8,4.8,0,0,0-1.42.23L1285.17,70a5,5,0,0,0,1-1.14Zm-59-16.74a4.9,4.9,0,0,0,4.27,3.93l-4.82,24.12a4.89,4.89,0,0,0-3.85,2.69L1217.13,61a4.94,4.94,0,0,0,.27-1.55,2.85,2.85,0,0,0,0-.29ZM1154.12,49.79l-33.95,7.4a4.88,4.88,0,0,0-8.77.08l-22.81-5.08Zm-43.2,8.86L1075.59,62l4-7a4.85,4.85,0,0,0,6.58-1.86Zm-33.45-9.93a5.05,5.05,0,0,0-.42,2,4.86,4.86,0,0,0,1.41,3.43l-4.64,8-32.56,3.07L1037,37a4.92,4.92,0,0,0,3-2.83ZM965.72,35.13a4.87,4.87,0,0,0,2.89,1.5l-6.83,61.43a4.91,4.91,0,0,0-.67-.06l-.31,0L936.88,53.48a4.89,4.89,0,0,0,1.75-3.73,4.94,4.94,0,0,0-.21-1.34ZM895.24,48.79a4.9,4.9,0,0,0,4.35,2.67h.14l.57,5.16-48.71,11Zm-56,24.35L808,117.53l-11.33-17.3-.49-1.46a4.92,4.92,0,0,0,1.58-3.59,4.78,4.78,0,0,0-.08-.76Zm-50.92,20.1-37-8.1a5.07,5.07,0,0,0-.32-1.47l28.91-17.73a4.88,4.88,0,0,0,3.12,1.26l8.35,23.31A4.88,4.88,0,0,0,788.37,93.24ZM723.82,66a5,5,0,0,0,.72.56l-4.7,22-16.67,2a4.94,4.94,0,0,0-1-1Zm-51.75,44c0-.11,0-.22,0-.34a4.84,4.84,0,0,0-.66-2.41L694.51,95a4.92,4.92,0,0,0,3,2.92l-2.33,17.44a4.91,4.91,0,0,0-4.36,2.72Zm27.38,12.77a4.87,4.87,0,0,0,.7-2.48,4.68,4.68,0,0,0-.17-1.19l8.06-.39-4.32,7Zm4.71,5,7.77,5.3a4.84,4.84,0,0,0-.34,1.76,4.74,4.74,0,0,0,.11,1l-17.51,9.43a5.18,5.18,0,0,0-.51-.54Zm-42,37.24a4.85,4.85,0,0,0-.81,2.69,4.48,4.48,0,0,0,.07.64L656,170.68l-1.07-8.88a4.88,4.88,0,0,0,2.27-1.3Zm-10.94-12.16a4.78,4.78,0,0,0-1.63,1.53L638.2,151a5.38,5.38,0,0,0,.07-.69,4.92,4.92,0,0,0-4-4.83l.65-19.32a5.6,5.6,0,0,0,1.16-.27Zm-41.87,4.69a4.93,4.93,0,0,0-1.06-1.49l23.68-30.49a4.86,4.86,0,0,0,1.2.48l-.4,19.4a4.91,4.91,0,0,0-4.29,4.86,4.79,4.79,0,0,0,.09.84Zm27.32,6.74a4.89,4.89,0,0,0-3.72-2.41l.68-6.68a6.13,6.13,0,0,0,.86-.11l3.94,8.43Zm3.17.2,10-4.39a4.84,4.84,0,0,0,3.61,1.86l1.13,9.34-9.64,4.18Zm4.93,12.65,13.06,28a2.83,2.83,0,0,0-.28.2l-21.92-19.6a4.92,4.92,0,0,0,.75-2.57,4.83,4.83,0,0,0-.53-2.17Zm11.46,34.59a5.15,5.15,0,0,0,1.08,1.29l-12.82,25.42a4.87,4.87,0,0,0-1.21-.21l-1.39-17.83Zm-14.4,26.65a4.94,4.94,0,0,0-2.5,1.58L627.6,229l12.86-7.77Zm-6.57-27.1a4.83,4.83,0,0,0,.45,2L623,224.63l-12.19-11.42a5,5,0,0,0,.44-2c0-.12,0-.24,0-.35Zm-28.4,35.94a4.89,4.89,0,0,0,1-.72L618,254.3a4.79,4.79,0,0,0,.42,5.4l-3.75,4Zm7.41,19,3.61,7.61-14,4.84a5,5,0,0,0-.56-.8ZM571.7,320.34a4.91,4.91,0,0,0,.94.09,4.84,4.84,0,0,0,3.08-1.12l19.52,22.84-28.87,6.36a4.84,4.84,0,0,0-2.41-2.87Zm94.44,117.5a4.78,4.78,0,0,0,.51-2.13,5,5,0,0,0-.36-1.82l7.57-4.62,23.63,9.1-6.87,11.07a4.83,4.83,0,0,0-1.15-.15,4.89,4.89,0,0,0-3.84,1.89Zm23.33,21.28a4.89,4.89,0,0,0,4.69-3.54l51,2.46v.06L689,478.45a4.9,4.9,0,0,0-4-3.05L688.49,459A5.34,5.34,0,0,0,689.47,459.12Zm-3.4,25.75a4.88,4.88,0,0,0,2.14-1.51l37.53,8.41L709.6,514.31A5,5,0,0,0,708,514a4.74,4.74,0,0,0-2.12.51Zm24.15,72.46a5,5,0,0,0,1.1.13,4.89,4.89,0,0,0,4.2-2.39l34.1,13.36-1,8.49-45.11-2.72a4.87,4.87,0,0,0-1.86-2.88Zm-7.71,21L746,599.75l-2,16.74-22-3.32a4.88,4.88,0,0,0-7.15-5.25L701.4,579.35A4.9,4.9,0,0,0,702.51,578.33Zm14.7,38.81a4.88,4.88,0,0,0,3.38-1.36l22.5,8.34-1.26,10.74-20.86,6a4.91,4.91,0,0,0-4.57-3.25l.5-20.46C717,617.11,717.1,617.14,717.21,617.14ZM718.32,647a4.84,4.84,0,0,0,1.58-1.1l19.59,8.87-2.81,24h-.14a4.79,4.79,0,0,0-1.86.37Zm22.22,33.84a5,5,0,0,0-1.54-1.39l9.58-20.57,23.65,10.7a4.91,4.91,0,0,0-.26,1.49c0,.08,0,.14,0,.22Zm36.35-14.68a5.1,5.1,0,0,0-1.3.19l-11.85-31.61a4.9,4.9,0,0,0,2.09-4c0-.11,0-.21,0-.32L799,627.49a4.84,4.84,0,0,0,.94,2l-21.74,36.84A5,5,0,0,0,776.89,666.15Zm46.31-60.23a4.9,4.9,0,0,0-3.32,4.62,4.83,4.83,0,0,0,.34,1.75L806.61,622.5a4.89,4.89,0,0,0-1.87-.8l8.55-28.33a4.74,4.74,0,0,0,1.42.23,5,5,0,0,0,1.55-.27Zm-6.15-21.52a4.78,4.78,0,0,0-2.34-.62A4.91,4.91,0,0,0,810.6,586l-23.76-5.94,51.67-12.31Zm43.62,36.93a4.81,4.81,0,0,0-1.33-.48l2.38-44.06h.06a4.8,4.8,0,0,0,2.07-.47l5.62,8.12,7.82,11.29a4.89,4.89,0,0,0-.48,7.37Zm19.6-26.63a4.81,4.81,0,0,0-1.7.33l-10.2-14.73-3.31-4.78a4.87,4.87,0,0,0,.33-6.95l18.68-17.14a4.82,4.82,0,0,0,2,.89l-5.31,42.43C880.59,594.74,880.43,594.7,880.27,594.7Zm-22.24-26a5.11,5.11,0,0,0-.91,1.67l-9.5-2.12a4.78,4.78,0,0,0-.1-4.74l.28-.22-.35.08a4.9,4.9,0,0,0-4.16-2.32c-.17,0-.33,0-.49,0l-2.6-10.31Zm-20.25-21.57L814.3,523.57,807,513.33a4.88,4.88,0,0,0-2.21-8.44l6.71-15.16L824.88,496ZM825.89,494l-4.62-18.35a4.91,4.91,0,0,0,3.4-4.65,4.38,4.38,0,0,0-.09-.82l45.62-12.61c.1.15.19.29.3.43l-33.59,38a4.81,4.81,0,0,0-5.22.76Zm67.21-91a4.86,4.86,0,0,0,1.59,2.78l-19,44.56a4.58,4.58,0,0,0-1.29-.2,4.78,4.78,0,0,0-.65.07l-9.14-34.85a4.9,4.9,0,0,0,2.09-4,4.34,4.34,0,0,0-.06-.63Zm26.51-66.89-20.1,19.52-6.12-26.36a4.48,4.48,0,0,0,.82-.75l.47.54-.35-.69a4.78,4.78,0,0,0,1-2.36l23.34,5.66a4.67,4.67,0,0,0-.22,1.36A4.87,4.87,0,0,0,919.61,336.1Zm-33.47-13-56.6-4.85a4.92,4.92,0,0,0-3-3.37l19-35.66a4.82,4.82,0,0,0,5.31-.27l36.94,42.22A4.87,4.87,0,0,0,886.14,323.13Zm2.18-3.55L851.9,278l.16-.18L871,289.71a4.87,4.87,0,0,0,4.6,6.58,4.57,4.57,0,0,0,1-.12Zm-12.74-33.12L870.92,246H871l8.53,13.7,28,44.87a5.84,5.84,0,0,0-.53.33L880.3,292.65a4.88,4.88,0,0,0,.19-1.27A4.93,4.93,0,0,0,875.58,286.46Zm99.82,34.77,19.57,8.9a5,5,0,0,0-.1.95,4.91,4.91,0,0,0,3.59,4.71l.4,5Zm25.11,22.06,10.2,8.5-6.41,10.45a4.84,4.84,0,0,0-1.61-.3,5.35,5.35,0,0,0-.7.07Zm3.9,28.15a4.94,4.94,0,0,0,2.38-1.89l31,6.05,0,.25a5,5,0,0,0-.28,1.29l-8.34,38-.33,0a4.86,4.86,0,0,0-1.58.28Zm41,2.35a4,4,0,0,0-.6-.42l9.62-8.79ZM1091,339.7l9,21-.34.19-10.15-20.29A4.73,4.73,0,0,0,1091,339.7Zm16.17,25.81a4.4,4.4,0,0,0,0-.51,4,4,0,0,0-.08-.78l28.34-7.22,9.54,4.09-10.54,6Zm27.66,3.08,22.54,1.32-28.2,2.56a4,4,0,0,0-.17-.56Zm-8.86,9.65c.15-.05.29-.09.43-.15l9.81,13.73a4.84,4.84,0,0,0,1.31,7.28l-4.1,26.67-.17,0-.15,0Zm3,54.72a4.9,4.9,0,0,0,4.17,2.61l.14.89.14-.89a5.2,5.2,0,0,0,1.54-.3l17.75,25.14a5.13,5.13,0,0,0-.16,1.12l-20.56-10.88-8-7.33a4.84,4.84,0,0,0,.66-2.41,4.94,4.94,0,0,0-.7-2.5Zm-5.64,11.73,3.57,3.28-2.65-1.41Zm-1.46.61.11-.06.08.16Zm7.59,5L1155.22,474l-3.48,22a5,5,0,0,0-2.72.91l-24.19-49Zm26.29,53.63a4.84,4.84,0,0,0,1.11-3.08,4.4,4.4,0,0,0,0-.51l12.13-8.37a5,5,0,0,0,1.84,1.09l3.67,8.4,2.92,7a4.93,4.93,0,0,0-2.19,2.32Z" style="fill:#1d1d1b"/><path d="M1385.65,637.2a4.91,4.91,0,1,0,2.67-9,4.78,4.78,0,0,0-1.36.22l-13.11-32.78a4.89,4.89,0,0,0-3.06-8.72,3.8,3.8,0,0,0-.59.06l-18.06-41.37a4.9,4.9,0,0,0-1.66-9.48l.12-1.22-.43,1.23a4.89,4.89,0,0,0-3,8.62l-11.56,33.52a4.84,4.84,0,0,0-1.66-.31,4.9,4.9,0,0,0-3.26,1.26L1317,569.58a4.87,4.87,0,0,0-2.29-6.37l3.1-15.48.24,0a4.92,4.92,0,1,0-4.81-5.91l-20.31,1a4.9,4.9,0,1,0-8.74,3.58l-10.33,12.79a4.91,4.91,0,0,0-7,4.45,5,5,0,0,0,.26,1.5L1239,582.75a4.91,4.91,0,0,0-8.36,3.5,3.71,3.71,0,0,0,.07.67l-31.33,12.31a4.83,4.83,0,0,0-2.85-.93,4.92,4.92,0,0,0-2,9.42l-4.47,64.49a4.92,4.92,0,0,0-3,4.53,5,5,0,0,0,.29,1.6h0a4.89,4.89,0,0,0,9.3-.17l30.8-.57a4.9,4.9,0,0,0,9.59-1.44,4.73,4.73,0,0,0-.23-1.41l35.41-9.87a4.9,4.9,0,0,0,4.59,3.19,5.35,5.35,0,0,0,.7-.07l7.52,17.38a4.86,4.86,0,0,0-1.83,3.79,4.91,4.91,0,0,0,8.46,3.39L1316.44,706a4.77,4.77,0,0,0-.33,1.74,4.89,4.89,0,0,0,2.31,4.15l-6.57,15.33a4.9,4.9,0,1,0-3.85,9l-.08.17.15-.15a4.67,4.67,0,0,0,1.59.29,4.91,4.91,0,0,0,4.91-4.91,5,5,0,0,0-.33-1.74l39-40.17a4.92,4.92,0,0,0,1.76.34h.06l.12.53.1-.55a4.89,4.89,0,0,0,4.25-6.8l1.83-1.89-2.12,1.35c-.06-.09-.09-.19-.15-.27ZM1293,688.47a4.92,4.92,0,0,0-1.13-2.48l23.46-25.72,35.28,22.58a4.75,4.75,0,0,0-.55,2Zm-3.9-4.11,4-29.1,8.2-4,12.77,8.18-5.08,5.58-18.23,20A5,5,0,0,0,1289.11,684.36Zm-12.25-26.11a4.9,4.9,0,0,0-1.84.36L1260.46,626a6.19,6.19,0,0,0,.47-.55l23,14.72-6.94,18.1Zm-4.07,2.16-29-10.16L1255.26,627a4.8,4.8,0,0,0,4-.18l14.52,32.54A4.84,4.84,0,0,0,1272.79,660.41Zm-45.45,15-30.48.56a4.94,4.94,0,0,0-.75-2l21.3-17.51,11.3,16,.07.13A4.86,4.86,0,0,0,1227.34,675.44Zm-26.72-60.22,9.27,18.9a4.86,4.86,0,0,0-2.51-.74Zm.55-10.39,6.42,2.29-6.48-2.11A1.27,1.27,0,0,0,1201.17,604.83Zm-.82,1.46,33.14,10.78-.52,13.08-20.21,6.53-14.21-29A4.88,4.88,0,0,0,1200.35,606.29Zm27.87,38.5-13.87-4.87-.95-1.92,19.51-6.31-.38,9.55Zm4.19-.64-.08,2.08-1.71-.6Zm-16.7-1.44,10.54,3.69-6.22,5.11Zm7,17.45-3.57-5,.78-.64Zm-10.5-21.41.24.49-.28-.1C1212.14,639,1212.15,638.88,1212.16,638.75Zm-.89,2.4,2.49.87,5.12,10.44-1.05.86-7.76-11A4.81,4.81,0,0,0,1211.27,641.15ZM1228,667.66,1221,653.52l7.63-6.28,3.59,1.26-.87,22-.44.89-.26.08Zm5.72-18.66,7.09,2.49-7.82,15.86Zm.09-2.27.15-3.81,18.64-15.32-10.82,21.92Zm3.86-56,17,27.48a4.89,4.89,0,0,0-2.41,3.34L1235,615.37l1-24.25A4.82,4.82,0,0,0,1237.62,590.71Zm53-43.13,18,17a4.87,4.87,0,0,0,1.87,7.52l-9.38,23.45a4.36,4.36,0,0,0-.52,0,5.29,5.29,0,0,0-.56,0L1289.7,548A5.18,5.18,0,0,0,1290.62,547.58ZM1334,587.77c.22,0,.43,0,.65-.06l1.55,13-25.59,6.89-5.87-4.5a4.91,4.91,0,0,0,.8-2.68,4.76,4.76,0,0,0-.36-1.82L1330.25,586A4.88,4.88,0,0,0,1334,587.77Zm49.72,43.69-18.49-.28,2.77-16.33,16.42,15.3A5.15,5.15,0,0,0,1383.7,631.46Zm-20.69-.32-17.29-.26s0,0,0-.06a4.88,4.88,0,0,0-1.16-3.13l15.84-19.89,5.67,5.28ZM1294.3,646.8l5.6,3.59-6.53,3.15Zm.13-.95,2.62-19,38.86,3.89s0,0,0,.05a4.8,4.8,0,0,0,.42,2l-35.5,17.15Zm6.18-40.55a4.82,4.82,0,0,0,1.47-.25l.06.09,0-.1a4.86,4.86,0,0,0,1.62-.9l5.09,3.91-9.53,2.56.74-5.36A5.25,5.25,0,0,0,1300.61,605.3Zm-2.83,5.72-1.24.34,1.87-4.88Zm-.13.94-1.92,13.91-4.59-.45,5-13.06Zm-8,13.31L1262,622.5a.43.43,0,0,1,0,0,4.82,4.82,0,0,0-.09-.86l32.53-8.76Zm53.64,1.33a4.62,4.62,0,0,0-1.19-.5l13.34-15.19Zm23.53-31.93-8.27,9.41-7.11-6.62,14.75-4A4.94,4.94,0,0,0,1366.82,594.67Zm-9.23,10.5-15.42,17.55.56-5.84,1.68-17.52,5.38-1.45Zm-16.36,12.19-.7,7.22,0,0-2.8-23.45,5.21-1.41Zm-2,8.84a4.85,4.85,0,0,0-2.28,1.62l-25.49-19.58,24.82-6.69Zm-3,2.89a4.42,4.42,0,0,0-.23.81L1297.23,626h-.06l2-14.47,10.52-2.84Zm-38.54-24.77-2.88,7.51-32.21,8.67L1296.45,603A5.07,5.07,0,0,0,1297.69,604.32Zm-35.81,19,27.44,2.75-5.07,13.22L1261.4,624.7A4.65,4.65,0,0,0,1261.88,623.36Zm28.94,2.9,4.79.48L1293.09,645l-7.59-4.86Zm46.29,7.75a1.71,1.71,0,0,0,.11.14l-22.52,24.68-12.45-8Zm-1,3.51,2.25-2.47a4.86,4.86,0,0,0,2,.64l.31,2.61.25-2.57.16,0,3.26,11,3.25,12.28,5.2,21.77a5,5,0,0,0-1.71,1.39l-35.14-22.5Zm15,26.91L1344,634.54a4.85,4.85,0,0,0,1.47-2.21l17.3.26-7.67,45.18Zm10.19-57.77,7.43-9.33-2.38,14Zm4.64-14-15.27,4.12-5.53-5.16.49-5.15,20.24,5.16c0,.06,0,.12,0,.18A4.8,4.8,0,0,0,1366,592.65Zm-16.91,4.56-4.55,1.23.48-5Zm-5.23-6.85-5.55-5.16a4,4,0,0,0,.27-.55l5.69,1.45Zm-6.41-4,6.23,5.81-.64,6.66-5.4,1.46-1.56-13A5.18,5.18,0,0,0,1337.41,586.37Zm-49.88-38.1,10.3,47.28-21.7-29.7a4.79,4.79,0,0,0-.59-5.33l10.3-12.74A4.79,4.79,0,0,0,1287.53,548.27Zm-15.76,20.27a4.83,4.83,0,0,0,2.91-1l21.92,30a4.91,4.91,0,0,0-.9,2.83,4.73,4.73,0,0,0,.18,1.26l-34.79,18a4.91,4.91,0,0,0-1.48-1.39l12.13-49.72Zm-19.55,54.62a4.2,4.2,0,0,0,.17.72l-18,5.8.48-12.14Zm-.81,2.56L1234,640l.35-8.79Zm27,32.82,6.74-17.58,7.77,5-1.15,8.36-11.38,5.5A4.8,4.8,0,0,0,1278.44,658.54Zm78.39,22,8.14-48,18.46.28a1.11,1.11,0,0,0,0,.17,4.85,4.85,0,0,0,1.15,3.13L1358,681.29A4.52,4.52,0,0,0,1356.83,680.58Zm28.81-51.6a1.49,1.49,0,0,0-.2.15l-17.17-16,2.8-16.45a4.86,4.86,0,0,0,1.52-.33Zm-35.26-83.06.31,0,18.09,41.44a4.88,4.88,0,0,0-2.61,2.86L1345.79,585l3.76-39.16A5.56,5.56,0,0,0,1350.38,545.92Zm-2.39,1-3.62,37.72-5.52-1.4c0-.13,0-.25,0-.37a4.87,4.87,0,0,0-2-3.9Zm-18.21,33.42a4.94,4.94,0,0,0-.72,2.53,5,5,0,0,0,.4,1.94l-25,12.52a4.91,4.91,0,0,0-1.87-1.44l9.38-23.43a4.58,4.58,0,0,0,4.25-1.65Zm-16.49-17.57a4.26,4.26,0,0,0-.8-.09,4.81,4.81,0,0,0-2.8.89l-18-16.93a4.79,4.79,0,0,0,1.14-2.36l20.28-1a4.9,4.9,0,0,0,3.2,4.15Zm-43,5.54-12,49.4a4.76,4.76,0,0,0-1.2-.17,4.48,4.48,0,0,0-1,.12l-17.2-27.74a4.82,4.82,0,0,0,1-6l27.87-17.48A4.94,4.94,0,0,0,1270.31,568.3Zm-35.79,22.75-.94,23.81-32.13-11.48s0-.11,0-.16a4.83,4.83,0,0,0-.94-2.87l30.61-12A4.91,4.91,0,0,0,1234.52,591.05Zm-38.51,17,.42,0,9.49,25.47a4.87,4.87,0,0,0-2.92,2.35l-.13,0,.09.12a4.8,4.8,0,0,0-.58,2.26,4.83,4.83,0,0,0,5.59,4.85l8.18,11.58-21.66,17.8a4.9,4.9,0,0,0-2.47-.69,3.34,3.34,0,0,0-.43,0Zm37.35,63.34,9.47-19.21L1272,662.44a2.48,2.48,0,0,0,0,.27l-36.24,10.1A4.94,4.94,0,0,0,1233.36,671.42Zm45.6-3.83a4.86,4.86,0,0,0,2.29-6.59l10.31-5-3.91,28.3a4.8,4.8,0,0,0-1.32.31Zm13.59,23.78a5.05,5.05,0,0,0,.46-1.44l57.19-3.62a5,5,0,0,0,.71,1.59l-24.19,15.3-2,1.29a4.85,4.85,0,0,0-7.53.25Zm20.94,37.18a5,5,0,0,0-.43-.49l6.69-15.6a4.84,4.84,0,0,0,6.18-4.72,4.8,4.8,0,0,0-.45-2l26.29-16.63Z" style="fill:#1d1d1b"/><path d="M1477.25,697.56a4.75,4.75,0,0,0-1.52.26l-8.69-9.73-2.73-3.06A4.91,4.91,0,1,0,1455,683a4.87,4.87,0,0,0,.68,2.45l-59.44,63.27a4.79,4.79,0,0,0-2.64-.79,4.91,4.91,0,0,0-4.92,4.91,4.86,4.86,0,0,0,1,2.9l-.91,1,1.14-.69a4.86,4.86,0,0,0,3.72,1.74,4.9,4.9,0,0,0,4.56-6.72l45.18-27.18a4.91,4.91,0,1,0,9.46,1.84,4.8,4.8,0,0,0-.2-1.33l21.64-18a4.9,4.9,0,1,0,3.06-8.73ZM1466.84,690l7.54,8.45a4.92,4.92,0,0,0-2.05,4,5,5,0,0,0,.4,1.94l-21.37,12.86,7.94-29.45a5.23,5.23,0,0,0,.57.06,4.9,4.9,0,0,0,3.61-1.61Zm-69.56,59.6,59.26-63.08a4.81,4.81,0,0,0,1.36.9l-8.34,30.89-52.19,31.4ZM1449,720.37l-.14.49a5,5,0,0,0-.56-.07Zm2.91,2.58a4.84,4.84,0,0,0-1.69-1.55l.57-2.11,19.83-11.93Z" style="fill:#1d1d1b"/><path d="M1314.57,207.34a4.89,4.89,0,0,0-8.27-3.57l-23.85-15.9a4.91,4.91,0,1,0-5.35,2.8l-5.92,63.42-4.26,5.29a4.81,4.81,0,0,0-1.94-.4,4.9,4.9,0,0,0-.21,9.8l2.17,13a4.9,4.9,0,0,0,1.58,9.51l0,.1,0-.09h0a4.89,4.89,0,0,0,4.38-7.1l31-19.09a4.93,4.93,0,0,0,3.11,1.91v.26l.08-.26a4.53,4.53,0,0,0,.74.08,4.91,4.91,0,0,0,1-9.73l1.54-45.21A4.9,4.9,0,0,0,1314.57,207.34Zm-45.37,54.08,1.38-.95-.15,1.6-.88,0A5.58,5.58,0,0,0,1269.2,261.42Zm.69,2.47c0-.12,0-.23,0-.34l.44,0-1.51,16.15-1.88-11.27A4.92,4.92,0,0,0,1269.89,263.89Zm1,18.19a4.91,4.91,0,0,0-1.42-.51l1.68-18.08,9.58-.42Zm.4-20.05.21-2.2,16.88-11.58h0l-6.9,13.33ZM1295,226.84l11-13.62-9.29,17.87Zm-.27,20.47a4.83,4.83,0,0,0,1.23-3.21,4.91,4.91,0,0,0-2.28-4.14l2.8-5.37,9.13,23.34c-.15.09-.3.17-.44.27ZM1289,234.23l4.89-6.09,1.82,4.66-3.42,6.58a5.12,5.12,0,0,0-1.31-.2,4.81,4.81,0,0,0-.93.1Zm4.28-7.65-4.67,5.81-8-38.16Zm-4.8,13.31a4.89,4.89,0,0,0-2.41,4.21,4.82,4.82,0,0,0,.76,2.59L1271.78,257l.14-1.53,15.75-19.59Zm2,9.07a4.28,4.28,0,0,0,.49,0,4.85,4.85,0,0,0,2.59-.75l10.5,10.95a5,5,0,0,0-.76,1.43l-19.3.84Zm16.4,8.44-9.59-24.52L1308.17,212a6.14,6.14,0,0,0,.85.19l-1.54,45.14A5.41,5.41,0,0,0,1306.9,257.4Zm-1.49-52.48a4.82,4.82,0,0,0-.67,2.42,4.9,4.9,0,0,0,1.34,3.34l-11.74,14.6L1280.55,190a4.77,4.77,0,0,0,1.11-.94ZM1278,190.76h0c.14,0,.27,0,.41,0l8.89,43.33-15.12,18.81Zm-7,65.95-.08.94-1.5,1Zm1.77,26.65L1283.26,263l19.8-.86s0,.05,0,.08a4.88,4.88,0,0,0,.53,2.19Z" style="fill:#1d1d1b"/></g></g></svg>