<svg xmlns="http://www.w3.org/2000/svg" viewBox="0 0 100.5 119.69"><g id="Ebene_2" data-name="Ebene 2"><g id="Ebene_2-2" data-name="Ebene 2"><path d="M.37,86.22,50.2,57.5m-.05,0V.64m0,56.83L99.72,86.23" style="fill:none;stroke:#59bf00;stroke-linejoin:round;stroke-width:0.5px"/><polygon points="50.42 119.69 100.01 91.06 100.01 87.11 50.19 61.84 0.6 86.91 0.6 90.86 50.42 119.69" style="fill:#402517"/><polygon points="50.42 115.73 100.01 87.11 50.19 58.28 0.6 86.91 50.42 115.73" style="fill:#a36f3f"/><polygon points="50.42 119.69 50.42 115.73 0.6 86.91 0.6 90.86 50.42 119.69" style="fill:#4d2c1b"/><polygon points="50.42 115.73 100.01 87.11 100.01 83.15 50.19 57.89 0.6 82.96 0.6 86.91 50.42 115.73" style="fill:#357300"/><polygon points="50.42 111.78 100.01 83.15 50.19 54.33 0.6 82.96 50.42 111.78" style="fill:#357300"/><polygon points="94.86 86.14 97.68 84.51 47.86 55.68 45.04 57.31 94.86 86.14" style="fill:#59bf00"/><polygon points="89.02 89.51 91.84 87.88 42.02 59.05 39.19 60.69 89.02 89.51" style="fill:#59bf00"/><polygon points="83.17 92.88 85.99 91.25 36.17 62.43 33.35 64.06 83.17 92.88" style="fill:#59bf00"/><polygon points="77.33 96.25 80.15 94.62 30.33 65.8 27.5 67.43 77.33 96.25" style="fill:#59bf00"/><polygon points="71.48 99.63 74.3 98 24.48 69.17 21.66 70.8 71.48 99.63" style="fill:#59bf00"/><polygon points="65.64 103 68.46 101.37 18.64 72.54 15.81 74.17 65.64 103" style="fill:#59bf00"/><polygon points="59.79 106.37 62.61 104.74 12.79 75.92 9.97 77.55 59.79 106.37" style="fill:#59bf00"/><polygon points="53.95 109.74 56.77 108.11 6.95 79.29 4.13 80.92 53.95 109.74" style="fill:#59bf00"/><polygon points="50.42 115.73 50.42 111.78 0.6 82.96 0.6 86.91 50.42 115.73" style="fill:#59bf00"/><g style="opacity:0.52"><path d="M52.88,67.29a1.49,1.49,0,0,1-1.33-.17c-.31-.26-.21-.59.22-.75a1.49,1.49,0,0,1,1.34.17C53.42,66.79,53.32,67.13,52.88,67.29Z" style="fill:#479900"/><path d="M67.35,65.6A1.52,1.52,0,0,1,66,65.43c-.31-.26-.21-.59.23-.75a1.46,1.46,0,0,1,1.33.17C67.88,65.1,67.78,65.44,67.35,65.6Z" style="fill:#479900"/><path d="M42.06,89.79a1.52,1.52,0,0,1-1.34-.17c-.31-.26-.2-.59.23-.75a1.49,1.49,0,0,1,1.34.17C42.59,89.29,42.49,89.63,42.06,89.79Z" style="fill:#479900"/><path d="M14,86.53a1.49,1.49,0,0,1-1.33-.17c-.31-.26-.21-.6.22-.76a1.49,1.49,0,0,1,1.34.18C14.52,86,14.42,86.37,14,86.53Z" style="fill:#479900"/><path d="M39.41,80.87a1.52,1.52,0,0,1-1.34-.17c-.3-.26-.2-.59.23-.75a1.49,1.49,0,0,1,1.34.17C40,80.37,39.84,80.71,39.41,80.87Z" style="fill:#479900"/><path d="M36.24,70.1a1.49,1.49,0,0,1-1.34-.17c-.3-.25-.2-.59.23-.75a1.52,1.52,0,0,1,1.34.17C36.77,69.61,36.67,69.94,36.24,70.1Z" style="fill:#479900"/><path d="M67.13,100.08a1.49,1.49,0,0,1-1.33-.17c-.31-.26-.21-.6.22-.76a1.52,1.52,0,0,1,1.34.18C67.67,99.58,67.57,99.92,67.13,100.08Z" style="fill:#479900"/><path d="M36.69,66.14A1.52,1.52,0,0,1,35.35,66c-.31-.26-.21-.6.23-.76a1.46,1.46,0,0,1,1.33.18C37.22,65.64,37.12,66,36.69,66.14Z" style="fill:#479900"/><path d="M73.42,83.56a1.52,1.52,0,0,1-1.34-.17c-.3-.26-.2-.59.23-.75a1.49,1.49,0,0,1,1.34.17C74,83.06,73.86,83.4,73.42,83.56Z" style="fill:#479900"/><path d="M65.22,77.37a1.52,1.52,0,0,1-1.34-.17c-.31-.26-.2-.59.23-.75a1.49,1.49,0,0,1,1.34.17C65.75,76.87,65.65,77.21,65.22,77.37Z" style="fill:#479900"/><path d="M30.19,94.12a1.49,1.49,0,0,1-1.34-.18c-.3-.25-.2-.59.23-.75a1.49,1.49,0,0,1,1.34.18C30.73,93.62,30.62,94,30.19,94.12Z" style="fill:#479900"/><path d="M52.68,85.1a1.49,1.49,0,0,1-1.33-.17c-.31-.26-.21-.59.22-.75a1.49,1.49,0,0,1,1.34.17C53.22,84.6,53.12,84.94,52.68,85.1Z" style="fill:#479900"/><path d="M43.88,79a1.49,1.49,0,0,1-1.34-.18c-.31-.25-.2-.59.23-.75a1.49,1.49,0,0,1,1.34.18C44.41,78.46,44.31,78.8,43.88,79Z" style="fill:#479900"/><path d="M33.79,81.26a1.49,1.49,0,0,1-1.34-.18c-.3-.25-.2-.59.23-.75A1.52,1.52,0,0,1,34,80.5C34.33,80.76,34.22,81.1,33.79,81.26Z" style="fill:#479900"/><path d="M76.85,95.56a1.51,1.51,0,0,1-1.34-.17c-.31-.26-.21-.59.22-.75a1.51,1.51,0,0,1,1.34.17C77.38,95.06,77.28,95.4,76.85,95.56Z" style="fill:#479900"/><path d="M55.13,58.89a1.49,1.49,0,0,1-1.34-.17c-.3-.25-.2-.59.23-.75a1.52,1.52,0,0,1,1.34.17C55.67,58.4,55.56,58.73,55.13,58.89Z" style="fill:#479900"/><path d="M33.05,87.09a1.49,1.49,0,0,1-1.34-.18c-.31-.25-.21-.59.23-.75a1.49,1.49,0,0,1,1.33.17C33.58,86.59,33.48,86.93,33.05,87.09Z" style="fill:#479900"/><path d="M55.63,63.72a1.49,1.49,0,0,1-1.34-.17c-.3-.25-.2-.59.23-.75a1.52,1.52,0,0,1,1.34.17C56.16,63.23,56.06,63.56,55.63,63.72Z" style="fill:#479900"/><path d="M58.88,96a1.51,1.51,0,0,1-1.34-.17c-.31-.26-.21-.59.22-.75a1.48,1.48,0,0,1,1.34.17C59.41,95.47,59.31,95.81,58.88,96Z" style="fill:#479900"/><path d="M32.69,90.83a1.52,1.52,0,0,1-1.34-.17c-.31-.26-.21-.59.23-.75a1.46,1.46,0,0,1,1.34.17C33.22,90.33,33.12,90.67,32.69,90.83Z" style="fill:#479900"/><path d="M34.78,94.59a1.51,1.51,0,0,1-1.34-.17c-.31-.26-.21-.59.22-.75a1.48,1.48,0,0,1,1.34.17C35.31,94.09,35.21,94.43,34.78,94.59Z" style="fill:#479900"/><path d="M50.64,105.2A1.51,1.51,0,0,1,49.3,105c-.31-.25-.21-.59.22-.75a1.51,1.51,0,0,1,1.34.17C51.17,104.71,51.07,105,50.64,105.2Z" style="fill:#479900"/><path d="M84.3,76.4A1.52,1.52,0,0,1,83,76.23c-.3-.26-.2-.59.23-.75a1.49,1.49,0,0,1,1.34.17C84.83,75.9,84.73,76.24,84.3,76.4Z" style="fill:#479900"/><path d="M46.55,90.68a1.52,1.52,0,0,1-1.34-.17c-.3-.26-.2-.6.23-.75a1.46,1.46,0,0,1,1.34.17C47.09,90.18,47,90.52,46.55,90.68Z" style="fill:#479900"/><path d="M83.06,85.69a1.52,1.52,0,0,1-1.34-.17c-.31-.26-.2-.59.23-.75a1.49,1.49,0,0,1,1.34.17C83.59,85.19,83.49,85.53,83.06,85.69Z" style="fill:#479900"/><path d="M65.22,82.24a1.49,1.49,0,0,1-1.34-.17c-.3-.25-.2-.59.23-.75a1.52,1.52,0,0,1,1.34.17C65.76,81.75,65.65,82.08,65.22,82.24Z" style="fill:#479900"/><path d="M57.51,67.68a1.52,1.52,0,0,1-1.34-.17c-.3-.26-.2-.6.23-.76a1.49,1.49,0,0,1,1.34.18C58.05,67.18,57.94,67.52,57.51,67.68Z" style="fill:#479900"/><path d="M51.71,62.37a1.52,1.52,0,0,1-1.34-.18c-.3-.25-.2-.59.23-.75a1.52,1.52,0,0,1,1.34.17C52.25,61.87,52.15,62.2,51.71,62.37Z" style="fill:#479900"/><path d="M59,90.84a1.52,1.52,0,0,1-1.34-.17c-.31-.26-.2-.59.23-.75a1.49,1.49,0,0,1,1.34.17C59.51,90.34,59.41,90.68,59,90.84Z" style="fill:#479900"/><path d="M90.76,80.3a1.49,1.49,0,0,1-1.34-.17c-.31-.25-.2-.59.23-.75a1.52,1.52,0,0,1,1.34.17C91.29,79.81,91.19,80.14,90.76,80.3Z" style="fill:#479900"/><path d="M44.49,98.83a1.52,1.52,0,0,1-1.34-.17c-.3-.26-.2-.59.23-.75a1.49,1.49,0,0,1,1.34.17C45,98.34,44.92,98.67,44.49,98.83Z" style="fill:#479900"/><path d="M90.52,87a1.52,1.52,0,0,1-1.34-.17c-.3-.26-.2-.6.23-.76a1.49,1.49,0,0,1,1.34.18C91.06,86.52,91,86.86,90.52,87Z" style="fill:#479900"/><path d="M59.24,105.15A1.52,1.52,0,0,1,57.9,105c-.3-.26-.2-.59.23-.75a1.52,1.52,0,0,1,1.34.17C59.77,104.65,59.67,105,59.24,105.15Z" style="fill:#479900"/><path d="M73.77,75.43a1.51,1.51,0,0,1-1.34-.17c-.31-.26-.21-.59.22-.75a1.51,1.51,0,0,1,1.34.17C74.3,74.93,74.2,75.27,73.77,75.43Z" style="fill:#479900"/><path d="M63.66,96.45a1.49,1.49,0,0,1-1.34-.17c-.3-.25-.2-.59.23-.75a1.52,1.52,0,0,1,1.34.17C64.19,96,64.09,96.29,63.66,96.45Z" style="fill:#479900"/><path d="M55.21,105.67a1.49,1.49,0,0,1-1.34-.17c-.31-.25-.2-.59.23-.75a1.52,1.52,0,0,1,1.34.17C55.74,105.18,55.64,105.51,55.21,105.67Z" style="fill:#479900"/><path d="M52.6,76a1.46,1.46,0,0,1-1.34-.17c-.3-.25-.2-.59.23-.75a1.52,1.52,0,0,1,1.34.17C53.13,75.52,53,75.86,52.6,76Z" style="fill:#479900"/><path d="M40.33,98.08A1.49,1.49,0,0,1,39,97.9c-.3-.25-.2-.59.23-.75a1.52,1.52,0,0,1,1.34.17C40.87,97.58,40.76,97.92,40.33,98.08Z" style="fill:#479900"/><path d="M43.59,94.31a1.49,1.49,0,0,1-1.34-.18c-.31-.25-.21-.59.23-.75a1.49,1.49,0,0,1,1.33.17C44.12,93.81,44,94.15,43.59,94.31Z" style="fill:#479900"/><path d="M48.81,66.7a1.49,1.49,0,0,1-1.34-.18c-.3-.25-.2-.59.23-.75A1.49,1.49,0,0,1,49,66C49.35,66.2,49.24,66.54,48.81,66.7Z" style="fill:#479900"/><path d="M35.49,77.71a1.52,1.52,0,0,1-1.34-.17c-.31-.26-.21-.59.23-.75a1.49,1.49,0,0,1,1.34.17C36,77.21,35.92,77.55,35.49,77.71Z" style="fill:#479900"/><path d="M87.64,78.3a1.52,1.52,0,0,1-1.34-.17c-.31-.25-.21-.59.23-.75a1.49,1.49,0,0,1,1.33.17C88.17,77.81,88.07,78.14,87.64,78.3Z" style="fill:#479900"/><path d="M69.73,81.46a1.48,1.48,0,0,1-1.34-.17c-.31-.25-.21-.59.23-.75a1.49,1.49,0,0,1,1.33.17C70.26,81,70.16,81.3,69.73,81.46Z" style="fill:#479900"/><path d="M47.94,86.4a1.46,1.46,0,0,1-1.33-.18c-.31-.25-.21-.59.22-.75a1.49,1.49,0,0,1,1.34.18C48.48,85.9,48.38,86.24,47.94,86.4Z" style="fill:#479900"/><path d="M47.75,61.56a1.48,1.48,0,0,1-1.34-.17c-.31-.25-.21-.59.22-.75a1.51,1.51,0,0,1,1.34.17C48.28,61.07,48.18,61.4,47.75,61.56Z" style="fill:#479900"/><path d="M50.67,81a1.52,1.52,0,0,1-1.34-.17c-.31-.26-.21-.59.23-.75a1.49,1.49,0,0,1,1.34.17C51.2,80.53,51.1,80.87,50.67,81Z" style="fill:#479900"/><path d="M83.58,81.24a1.52,1.52,0,0,1-1.34-.17c-.31-.26-.2-.59.23-.75a1.49,1.49,0,0,1,1.34.17C84.11,80.74,84,81.08,83.58,81.24Z" style="fill:#479900"/><path d="M57,77.34a1.52,1.52,0,0,1-1.34-.17c-.3-.26-.2-.59.23-.75a1.49,1.49,0,0,1,1.34.17C57.53,76.84,57.42,77.18,57,77.34Z" style="fill:#479900"/><path d="M53.4,96.94a1.49,1.49,0,0,1-1.34-.17c-.3-.25-.2-.59.23-.75a1.52,1.52,0,0,1,1.34.17C53.93,96.45,53.83,96.78,53.4,96.94Z" style="fill:#479900"/><path d="M65.58,72.85a1.49,1.49,0,0,1-1.34-.18c-.3-.25-.2-.59.23-.75a1.49,1.49,0,0,1,1.34.18C66.12,72.35,66,72.69,65.58,72.85Z" style="fill:#479900"/><path d="M53.25,71.39a1.12,1.12,0,0,1-1-.13c-.23-.19-.16-.45.17-.57a1.12,1.12,0,0,1,1,.13C53.65,71,53.58,71.27,53.25,71.39Z" style="fill:#479900"/><path d="M56.17,100.49a1.09,1.09,0,0,1-1-.12c-.23-.2-.16-.45.17-.57a1.12,1.12,0,0,1,1,.13C56.57,100.12,56.5,100.38,56.17,100.49Z" style="fill:#479900"/><path d="M74.52,79.5a1.09,1.09,0,0,1-1-.13c-.23-.19-.16-.44.17-.56a1.12,1.12,0,0,1,1,.13C74.92,79.13,74.85,79.38,74.52,79.5Z" style="fill:#479900"/><path d="M46.68,81.77a1.12,1.12,0,0,1-1-.12c-.23-.2-.16-.45.17-.57a1.12,1.12,0,0,1,1,.13C47.08,81.4,47,81.65,46.68,81.77Z" style="fill:#479900"/><path d="M61,77.87a1.12,1.12,0,0,1-1-.13c-.23-.19-.16-.44.17-.56a1.09,1.09,0,0,1,1,.13C61.39,77.5,61.32,77.75,61,77.87Z" style="fill:#479900"/><path d="M36.78,73.91a1.14,1.14,0,0,1-1-.13c-.23-.19-.15-.45.17-.57a1.14,1.14,0,0,1,1,.13C37.18,73.53,37.1,73.79,36.78,73.91Z" style="fill:#479900"/><path d="M50.46,57.67a1.12,1.12,0,0,1-1-.13c-.23-.19-.16-.44.17-.56a1.09,1.09,0,0,1,1,.13C50.86,57.3,50.79,57.55,50.46,57.67Z" style="fill:#479900"/><path d="M23.16,85.75a1.14,1.14,0,0,1-1-.13c-.23-.19-.15-.44.17-.56a1.14,1.14,0,0,1,1,.13C23.56,85.38,23.48,85.63,23.16,85.75Z" style="fill:#479900"/><path d="M56.33,88.09a1.14,1.14,0,0,1-1-.13c-.23-.19-.15-.44.17-.56a1.11,1.11,0,0,1,1,.13C56.73,87.72,56.65,88,56.33,88.09Z" style="fill:#479900"/><path d="M19.93,75.35a1.12,1.12,0,0,1-1-.13c-.23-.2-.16-.45.17-.57a1.12,1.12,0,0,1,1,.13C20.33,75,20.26,75.22,19.93,75.35Z" style="fill:#479900"/><path d="M80.49,92.63a1.12,1.12,0,0,1-1-.13c-.24-.19-.16-.45.17-.57a1.12,1.12,0,0,1,1,.13C80.89,92.25,80.82,92.51,80.49,92.63Z" style="fill:#479900"/><path d="M40.24,70.8a1.14,1.14,0,0,1-1-.13c-.23-.19-.15-.45.17-.57a1.14,1.14,0,0,1,1,.13C40.64,70.42,40.56,70.68,40.24,70.8Z" style="fill:#479900"/><path d="M70.08,73.36a1.12,1.12,0,0,1-1-.13c-.23-.19-.16-.45.17-.57a1.12,1.12,0,0,1,1,.13C70.48,73,70.41,73.24,70.08,73.36Z" style="fill:#479900"/><path d="M51.54,100.76a1.14,1.14,0,0,1-1-.13c-.23-.19-.15-.44.17-.56a1.11,1.11,0,0,1,1,.13C51.94,100.39,51.86,100.64,51.54,100.76Z" style="fill:#479900"/><path d="M61.4,73.49a1.14,1.14,0,0,1-1-.13c-.23-.19-.15-.44.17-.56a1.14,1.14,0,0,1,1,.12C61.8,73.12,61.72,73.37,61.4,73.49Z" style="fill:#479900"/><path d="M62.3,91.85a1.12,1.12,0,0,1-1-.13c-.23-.19-.16-.44.17-.56a1.12,1.12,0,0,1,1,.12C62.7,91.48,62.63,91.73,62.3,91.85Z" style="fill:#479900"/><path d="M47.33,101.58a1.12,1.12,0,0,1-1-.13c-.23-.19-.16-.45.17-.57a1.12,1.12,0,0,1,1,.13C47.73,101.2,47.66,101.46,47.33,101.58Z" style="fill:#479900"/><path d="M19.55,78.91a1.12,1.12,0,0,1-1-.13c-.23-.19-.16-.44.17-.56a1.09,1.09,0,0,1,1,.13C20,78.54,19.88,78.79,19.55,78.91Z" style="fill:#479900"/><path d="M51.83,89.2a1.14,1.14,0,0,1-1-.13c-.23-.19-.15-.44.17-.56a1.14,1.14,0,0,1,1,.13C52.23,88.83,52.15,89.08,51.83,89.2Z" style="fill:#479900"/><path d="M83.78,90.39a1.12,1.12,0,0,1-1-.13c-.23-.19-.16-.44.17-.56a1.09,1.09,0,0,1,1,.13C84.18,90,84.11,90.27,83.78,90.39Z" style="fill:#479900"/><path d="M59.16,61.68a1.15,1.15,0,0,1-1-.13c-.23-.2-.15-.45.17-.57a1.14,1.14,0,0,1,1,.13C59.56,61.3,59.48,61.56,59.16,61.68Z" style="fill:#479900"/><path d="M94.09,81.17a1.14,1.14,0,0,1-1-.13c-.23-.19-.15-.45.17-.57a1.14,1.14,0,0,1,1,.13C94.49,80.79,94.41,81.05,94.09,81.17Z" style="fill:#479900"/><path d="M63.5,102.6a1.12,1.12,0,0,1-1-.13c-.23-.19-.16-.45.17-.57a1.12,1.12,0,0,1,1,.13C63.9,102.22,63.83,102.48,63.5,102.6Z" style="fill:#479900"/><path d="M27.51,74.93a1.14,1.14,0,0,1-1-.13c-.23-.19-.15-.44.17-.56a1.11,1.11,0,0,1,1,.13C27.91,74.56,27.83,74.81,27.51,74.93Z" style="fill:#479900"/><path d="M39.79,85.92a1.12,1.12,0,0,1-1-.13c-.23-.19-.16-.45.17-.57a1.12,1.12,0,0,1,1,.13C40.19,85.54,40.12,85.8,39.79,85.92Z" style="fill:#479900"/><path d="M35.32,98.85a1.14,1.14,0,0,1-1-.13c-.23-.19-.15-.44.17-.56a1.14,1.14,0,0,1,1,.13C35.72,98.48,35.64,98.73,35.32,98.85Z" style="fill:#479900"/><path d="M50.42,93a1.12,1.12,0,0,1-1-.13c-.23-.19-.16-.44.17-.56a1.09,1.09,0,0,1,1,.13C50.82,92.59,50.75,92.84,50.42,93Z" style="fill:#479900"/><path d="M93.34,84.88a1.14,1.14,0,0,1-1-.13c-.23-.19-.15-.45.17-.57a1.14,1.14,0,0,1,1,.13C93.74,84.5,93.66,84.76,93.34,84.88Z" style="fill:#479900"/><path d="M28.61,80.48a1.14,1.14,0,0,1-1-.13c-.23-.19-.15-.44.17-.56a1.14,1.14,0,0,1,1,.13C29,80.11,28.93,80.36,28.61,80.48Z" style="fill:#479900"/><path d="M79.18,88.08a1.14,1.14,0,0,1-1-.13c-.23-.19-.15-.44.17-.57a1.14,1.14,0,0,1,1,.13C79.58,87.71,79.5,88,79.18,88.08Z" style="fill:#479900"/><path d="M68.35,69.92a1.14,1.14,0,0,1-1-.13c-.23-.19-.15-.45.17-.57a1.14,1.14,0,0,1,1,.13C68.75,69.55,68.67,69.8,68.35,69.92Z" style="fill:#479900"/><path d="M28.24,90.51a1.12,1.12,0,0,1-1-.13c-.23-.19-.16-.44.17-.56a1.12,1.12,0,0,1,1,.13C28.64,90.14,28.57,90.39,28.24,90.51Z" style="fill:#479900"/><path d="M40.41,64.6a1.14,1.14,0,0,1-1-.13c-.23-.19-.15-.44.17-.56a1.14,1.14,0,0,1,1,.12C40.81,64.23,40.73,64.48,40.41,64.6Z" style="fill:#479900"/><path d="M38.77,93.91a1.12,1.12,0,0,1-1-.13c-.23-.19-.16-.44.17-.56a1.12,1.12,0,0,1,1,.13C39.17,93.54,39.1,93.79,38.77,93.91Z" style="fill:#479900"/><path d="M36.25,84.36a1.14,1.14,0,0,1-1-.13c-.23-.19-.15-.45.17-.57a1.14,1.14,0,0,1,1,.13C36.65,84,36.57,84.24,36.25,84.36Z" style="fill:#479900"/><path d="M15.46,78a1.12,1.12,0,0,1-1-.13c-.23-.19-.16-.45.17-.57a1.12,1.12,0,0,1,1,.13C15.86,77.62,15.79,77.88,15.46,78Z" style="fill:#479900"/><path d="M65.62,89.88a1.12,1.12,0,0,1-1-.13c-.23-.19-.16-.45.17-.57a1.12,1.12,0,0,1,1,.13C66,89.51,66,89.76,65.62,89.88Z" style="fill:#479900"/><path d="M67.67,95.08a1.14,1.14,0,0,1-1-.13c-.23-.19-.15-.44.17-.56a1.14,1.14,0,0,1,1,.13C68.07,94.71,68,95,67.67,95.08Z" style="fill:#479900"/><path d="M42.85,103.31a1.09,1.09,0,0,1-1-.13c-.24-.19-.16-.44.17-.56a1.12,1.12,0,0,1,1,.13C43.25,102.94,43.18,103.19,42.85,103.31Z" style="fill:#479900"/><path d="M19.05,86.05a1.12,1.12,0,0,1-1-.13c-.23-.19-.16-.44.17-.56a1.09,1.09,0,0,1,1,.13C19.45,85.68,19.38,85.93,19.05,86.05Z" style="fill:#479900"/><path d="M79.66,79.17a1.15,1.15,0,0,1-1-.13c-.23-.19-.15-.44.17-.56a1.14,1.14,0,0,1,1,.13C80.06,78.8,80,79.05,79.66,79.17Z" style="fill:#479900"/><path d="M77.45,71.8a1.12,1.12,0,0,1-1-.13c-.23-.19-.16-.44.17-.56a1.12,1.12,0,0,1,1,.13C77.86,71.43,77.78,71.68,77.45,71.8Z" style="fill:#479900"/><path d="M68.68,86.09a1.12,1.12,0,0,1-1-.12c-.23-.2-.16-.45.17-.57a1.12,1.12,0,0,1,1,.13C69.08,85.72,69,86,68.68,86.09Z" style="fill:#479900"/><path d="M46.79,106.27a1.11,1.11,0,0,1-1-.12c-.23-.2-.15-.45.17-.57a1.14,1.14,0,0,1,1,.13C47.19,105.9,47.11,106.16,46.79,106.27Z" style="fill:#479900"/><path d="M44.62,73.87a1.14,1.14,0,0,1-1-.13c-.23-.19-.15-.45.17-.57a1.14,1.14,0,0,1,1,.13C45,73.49,44.94,73.75,44.62,73.87Z" style="fill:#479900"/><path d="M11.6,80.64a1.09,1.09,0,0,1-1-.13c-.23-.19-.16-.44.17-.56a1.12,1.12,0,0,1,1,.13C12,80.27,11.93,80.52,11.6,80.64Z" style="fill:#479900"/><path d="M57.65,84.61a1.14,1.14,0,0,1-1-.12c-.23-.2-.15-.45.17-.57a1.14,1.14,0,0,1,1,.13C58.05,84.24,58,84.49,57.65,84.61Z" style="fill:#479900"/><path d="M97.54,83.3a1.14,1.14,0,0,1-1-.13c-.23-.19-.15-.44.17-.56a1.11,1.11,0,0,1,1,.13C97.94,82.93,97.86,83.18,97.54,83.3Z" style="fill:#479900"/><path d="M32.24,73.44a1.14,1.14,0,0,1-1-.13c-.23-.19-.15-.44.17-.56a1.14,1.14,0,0,1,1,.12C32.64,73.07,32.56,73.32,32.24,73.44Z" style="fill:#479900"/><path d="M21.23,82.08a1.12,1.12,0,0,1-1-.13c-.23-.19-.15-.44.17-.56a1.12,1.12,0,0,1,1,.13C21.64,81.71,21.56,82,21.23,82.08Z" style="fill:#479900"/><path d="M78.27,83.37a1,1,0,0,1-.89-.12c-.21-.17-.14-.39.15-.5a1,1,0,0,1,.9.12C78.63,83,78.56,83.26,78.27,83.37Z" style="fill:#479900"/><path d="M62.68,63.82a1,1,0,0,1-.89-.12c-.21-.17-.14-.39.15-.5a1,1,0,0,1,.89.12C63,63.49,63,63.71,62.68,63.82Z" style="fill:#479900"/><path d="M87,88.39a1,1,0,0,1-.9-.11c-.2-.17-.13-.4.16-.51a1,1,0,0,1,.89.12C87.3,88.06,87.24,88.28,87,88.39Z" style="fill:#479900"/><path d="M69.27,77.3a1,1,0,0,1-.89-.12c-.21-.17-.14-.39.15-.5a1,1,0,0,1,.89.11C69.63,77,69.56,77.19,69.27,77.3Z" style="fill:#479900"/><path d="M38.74,101.54a1,1,0,0,1-.9-.12c-.2-.17-.14-.39.15-.5a1,1,0,0,1,.9.11C39.09,101.2,39,101.43,38.74,101.54Z" style="fill:#479900"/><path d="M71.1,67.76a1,1,0,0,1-.9-.12c-.2-.17-.14-.39.15-.5a1,1,0,0,1,.9.11C71.45,67.42,71.38,67.65,71.1,67.76Z" style="fill:#479900"/><path d="M54.79,80.84a1,1,0,0,1-.9-.11c-.2-.17-.13-.4.16-.5a1,1,0,0,1,.89.11C55.14,80.51,55.08,80.74,54.79,80.84Z" style="fill:#479900"/><path d="M32.13,68.53a1,1,0,0,1-.89-.12c-.21-.17-.14-.39.15-.5a1,1,0,0,1,.89.11C32.49,68.2,32.42,68.42,32.13,68.53Z" style="fill:#479900"/><path d="M25.5,82.49a1,1,0,0,1-.89-.11c-.21-.17-.14-.4.15-.5a1,1,0,0,1,.89.11C25.86,82.16,25.79,82.39,25.5,82.49Z" style="fill:#479900"/><path d="M60.45,100.09a1,1,0,0,1-.89-.11c-.21-.17-.14-.4.15-.51a1,1,0,0,1,.89.12C60.81,99.76,60.74,100,60.45,100.09Z" style="fill:#479900"/><path d="M40.38,76a1,1,0,0,1-.89-.11c-.2-.17-.14-.4.15-.5a1,1,0,0,1,.9.11C40.74,75.67,40.67,75.9,40.38,76Z" style="fill:#479900"/><path d="M57.26,72.67a1,1,0,0,1-.89-.11c-.21-.17-.14-.4.15-.5a1,1,0,0,1,.89.11C57.62,72.34,57.55,72.57,57.26,72.67Z" style="fill:#479900"/><path d="M72.37,89.86a1,1,0,0,1-.89-.11c-.21-.17-.14-.4.15-.5a1,1,0,0,1,.89.11C72.73,89.53,72.66,89.76,72.37,89.86Z" style="fill:#479900"/><path d="M21.4,91.37a1,1,0,0,1-.9-.12c-.2-.17-.14-.39.15-.5a1,1,0,0,1,.9.11C21.75,91,21.68,91.26,21.4,91.37Z" style="fill:#479900"/><path d="M60.23,81.72a1,1,0,0,1-.9-.11c-.2-.17-.14-.4.15-.51a1,1,0,0,1,.9.12C60.58,81.39,60.51,81.61,60.23,81.72Z" style="fill:#479900"/><path d="M16.17,82.42a1,1,0,0,1-.9-.11c-.2-.17-.14-.4.15-.51a1,1,0,0,1,.9.12C16.52,82.09,16.45,82.31,16.17,82.42Z" style="fill:#479900"/><path d="M43.9,61.23a1,1,0,0,1-.9-.12c-.2-.17-.14-.39.15-.5a1,1,0,0,1,.9.12C44.25,60.9,44.18,61.12,43.9,61.23Z" style="fill:#479900"/><path d="M69.2,91.23a1,1,0,0,1-.89-.12c-.21-.17-.14-.39.15-.5a1,1,0,0,1,.89.11C69.56,90.89,69.49,91.12,69.2,91.23Z" style="fill:#479900"/><path d="M24.3,78a1,1,0,0,1-.9-.11c-.2-.17-.14-.4.15-.5a1,1,0,0,1,.9.11C24.65,77.65,24.58,77.87,24.3,78Z" style="fill:#479900"/><path d="M71.24,98.28a1,1,0,0,1-.9-.12c-.2-.17-.13-.4.16-.5a1,1,0,0,1,.89.11C71.6,97.94,71.53,98.17,71.24,98.28Z" style="fill:#479900"/><path d="M81.12,74a1,1,0,0,1-.89-.12c-.21-.17-.14-.39.15-.5a1,1,0,0,1,.89.12C81.48,73.63,81.41,73.85,81.12,74Z" style="fill:#479900"/><path d="M55.07,92.92a1,1,0,0,1-.89-.11c-.21-.17-.14-.4.15-.5a1,1,0,0,1,.89.11C55.43,92.59,55.36,92.82,55.07,92.92Z" style="fill:#479900"/><path d="M28.13,70.76a1,1,0,0,1-.89-.11c-.21-.17-.14-.4.15-.51a1,1,0,0,1,.9.12C28.49,70.43,28.42,70.65,28.13,70.76Z" style="fill:#479900"/><path d="M27.78,86.63a1,1,0,0,1-.9-.12c-.2-.17-.14-.39.15-.5a1,1,0,0,1,.9.11C28.13,86.29,28.06,86.52,27.78,86.63Z" style="fill:#479900"/><path d="M76.21,91.4a1,1,0,0,1-.89-.12c-.21-.17-.14-.39.15-.5a1,1,0,0,1,.89.11C76.57,91.06,76.5,91.29,76.21,91.4Z" style="fill:#479900"/><path d="M61,68.74a1,1,0,0,1-.89-.11c-.21-.17-.14-.4.15-.51a1,1,0,0,1,.89.12C61.31,68.41,61.24,68.63,61,68.74Z" style="fill:#479900"/><path d="M64.55,68.1a1,1,0,0,1-.89-.12c-.21-.17-.14-.39.15-.5a1,1,0,0,1,.89.12C64.91,67.77,64.84,68,64.55,68.1Z" style="fill:#479900"/><path d="M30.52,83.91a1,1,0,0,1-.89-.12c-.21-.17-.14-.39.15-.5a1,1,0,0,1,.89.11C30.88,83.57,30.81,83.8,30.52,83.91Z" style="fill:#479900"/><path d="M23.77,73.17a1,1,0,0,1-.9-.11c-.2-.17-.13-.39.15-.5a1,1,0,0,1,.9.11C24.12,72.84,24.06,73.07,23.77,73.17Z" style="fill:#479900"/><path d="M72.71,94.7a1,1,0,0,1-.89-.11c-.21-.17-.14-.39.15-.5a1,1,0,0,1,.89.11C73.07,94.37,73,94.6,72.71,94.7Z" style="fill:#479900"/><path d="M62.47,86.36a1,1,0,0,1-.89-.11c-.21-.18-.14-.4.15-.51a1,1,0,0,1,.89.12C62.83,86,62.76,86.25,62.47,86.36Z" style="fill:#479900"/><path d="M52.23,108.87a1,1,0,0,1-.9-.12c-.2-.17-.14-.39.15-.5a1,1,0,0,1,.9.12C52.58,108.54,52.52,108.76,52.23,108.87Z" style="fill:#479900"/><path d="M44.64,65.47a1,1,0,0,1-.89-.12c-.21-.17-.14-.39.15-.5a1,1,0,0,1,.89.12C45,65.14,44.93,65.36,44.64,65.47Z" style="fill:#479900"/><path d="M48,96.31a1,1,0,0,1-.89-.12c-.21-.17-.14-.39.15-.5a1,1,0,0,1,.89.12C48.4,96,48.33,96.2,48,96.31Z" style="fill:#479900"/><path d="M43.34,84.38a1,1,0,0,1-.89-.11c-.21-.18-.14-.4.15-.51a1,1,0,0,1,.89.12C43.7,84.05,43.63,84.27,43.34,84.38Z" style="fill:#479900"/><path d="M10.14,84.64a1,1,0,0,1-.9-.11c-.2-.17-.13-.4.15-.51a1,1,0,0,1,.9.12C10.49,84.31,10.43,84.53,10.14,84.64Z" style="fill:#479900"/><path d="M77.55,75.88a1,1,0,0,1-.9-.11c-.2-.17-.13-.4.15-.5a1,1,0,0,1,.9.11C77.9,75.55,77.84,75.78,77.55,75.88Z" style="fill:#479900"/><path d="M73.83,70.43a1,1,0,0,1-.9-.11c-.2-.17-.14-.4.15-.5a1,1,0,0,1,.9.11C74.18,70.1,74.11,70.33,73.83,70.43Z" style="fill:#479900"/><path d="M74.64,86.86a1,1,0,0,1-.89-.11c-.2-.17-.14-.4.15-.5a1,1,0,0,1,.9.11C75,86.53,74.93,86.76,74.64,86.86Z" style="fill:#479900"/><path d="M48.15,76.71a1,1,0,0,1-.89-.11c-.2-.17-.14-.4.15-.5a1,1,0,0,1,.9.11C48.51,76.38,48.44,76.61,48.15,76.71Z" style="fill:#479900"/><path d="M48.63,71.36a1,1,0,0,1-.89-.11c-.2-.17-.14-.4.15-.5a1,1,0,0,1,.9.11C49,71,48.92,71.26,48.63,71.36Z" style="fill:#479900"/><path d="M30.56,77.41a1,1,0,0,1-.89-.11c-.21-.17-.14-.4.15-.5a1,1,0,0,1,.89.11C30.92,77.08,30.85,77.31,30.56,77.41Z" style="fill:#479900"/><path d="M25.81,94.1a1,1,0,0,1-.89-.11c-.21-.17-.14-.4.15-.5a1,1,0,0,1,.89.11C26.17,93.77,26.1,94,25.81,94.1Z" style="fill:#479900"/><path d="M6.72,82.67a1,1,0,0,1-.9-.12c-.2-.17-.14-.39.15-.5a1,1,0,0,1,.9.12C7.07,82.34,7,82.56,6.72,82.67Z" style="fill:#479900"/><path d="M24.25,89.29a1,1,0,0,1-.89-.11c-.2-.17-.14-.4.15-.5a1,1,0,0,1,.9.11C24.61,89,24.54,89.19,24.25,89.29Z" style="fill:#479900"/><path d="M87.42,83.47a1,1,0,0,1-.89-.12c-.21-.17-.14-.39.15-.5a1,1,0,0,1,.89.12C87.78,83.14,87.71,83.36,87.42,83.47Z" style="fill:#479900"/><path d="M36.91,89.6a1,1,0,0,1-.9-.12c-.2-.17-.14-.39.15-.5a1,1,0,0,1,.9.11C37.26,89.26,37.19,89.49,36.91,89.6Z" style="fill:#479900"/><path d="M17.38,89.22a1,1,0,0,1-.89-.11c-.21-.17-.14-.4.15-.5a1,1,0,0,1,.89.11C17.74,88.89,17.67,89.12,17.38,89.22Z" style="fill:#479900"/><path d="M30.94,97.28a1,1,0,0,1-.89-.12c-.21-.17-.14-.39.15-.5a1,1,0,0,1,.89.12C31.3,97,31.23,97.17,30.94,97.28Z" style="fill:#479900"/><path d="M43.9,69.29a1,1,0,0,1-.89-.11c-.21-.17-.14-.4.15-.5a1,1,0,0,1,.89.11C44.26,69,44.19,69.19,43.9,69.29Z" style="fill:#479900"/></g><path d="M50.25.25.25,29.12,50.25,58l50-28.87Zm50,28.87L50.25,58v57.73l50-28.87ZM50.25,58,.25,29.12V86.85l50,28.87Z" style="fill:none;stroke:#59bf00;stroke-linejoin:round;stroke-width:0.5px"/></g></g></svg>