<svg xmlns="http://www.w3.org/2000/svg" viewBox="0 0 100.5 119.79"><g id="Ebene_2" data-name="Ebene 2"><g id="Ebene_2-2" data-name="Ebene 2"><path d="M.37,86.22,50.2,57.5m-.05,0V.64m0,56.83L99.72,86.23" style="fill:none;stroke:#4d2b1c;stroke-linejoin:round;stroke-width:0.5px"/><polygon points="50.24 119.79 100.13 90.99 100.13 87.01 50.01 61.6 0.13 86.82 0.13 90.79 50.24 119.79" style="fill:#402517"/><polygon points="50.24 115.81 100.13 87.01 50.01 58.02 0.13 86.82 50.24 115.81" style="fill:#a36f3f"/><polygon points="50.24 119.79 50.24 115.81 0.13 86.82 0.13 90.79 50.24 119.79" style="fill:#4d2c1b"/><polygon points="50.24 115.81 100.13 87.01 100.13 83.04 50.01 57.62 0.13 82.84 0.13 86.82 50.24 115.81" style="fill:#4d2b1c"/><polygon points="50.24 111.84 100.13 83.04 50.01 54.04 0.13 82.84 50.24 111.84" style="fill:#73402a"/><polygon points="97.28 84.7 100.12 83.06 50 54.06 47.16 55.7 97.28 84.7" style="fill:#945437"/><polygon points="91.4 88.09 94.24 86.45 44.12 57.46 41.28 59.1 91.4 88.09" style="fill:#945437"/><polygon points="85.52 91.48 88.36 89.84 38.24 60.85 35.41 62.49 85.52 91.48" style="fill:#945437"/><polygon points="79.64 94.88 82.48 93.23 32.37 64.24 29.53 65.88 79.64 94.88" style="fill:#945437"/><polygon points="73.77 98.27 76.6 96.63 26.49 67.63 23.65 69.27 73.77 98.27" style="fill:#945437"/><polygon points="67.89 101.66 70.72 100.02 20.61 71.03 17.77 72.67 67.89 101.66" style="fill:#945437"/><polygon points="62.01 105.05 64.84 103.41 14.73 74.42 11.89 76.06 62.01 105.05" style="fill:#945437"/><polygon points="56.13 108.44 58.97 106.81 8.85 77.81 6.01 79.45 56.13 108.44" style="fill:#945437"/><polygon points="50.25 111.84 53.09 110.2 2.97 81.2 0.13 82.84 50.25 111.84" style="fill:#945437"/><polygon points="50.24 115.81 50.24 111.84 0.13 82.84 0.13 86.82 50.24 115.81" style="fill:#663925"/><path d="M51.36,67.41A1.48,1.48,0,0,1,50,67.23c-.31-.25-.21-.59.22-.75a1.54,1.54,0,0,1,1.35.17C51.9,66.91,51.8,67.25,51.36,67.41Z" style="fill:#54371b"/><path d="M65.91,65.71a1.51,1.51,0,0,1-1.35-.18c-.3-.25-.2-.59.23-.75a1.54,1.54,0,0,1,1.35.17C66.45,65.21,66.35,65.55,65.91,65.71Z" style="fill:#54371b"/><path d="M40.47,90a1.52,1.52,0,0,1-1.34-.17c-.31-.26-.21-.6.23-.76a1.52,1.52,0,0,1,1.34.17C41,89.54,40.91,89.88,40.47,90Z" style="fill:#54371b"/><path d="M12.23,86.76a1.54,1.54,0,0,1-1.35-.17c-.3-.26-.2-.6.23-.76a1.54,1.54,0,0,1,1.35.17C12.77,86.26,12.66,86.6,12.23,86.76Z" style="fill:#54371b"/><path d="M37.81,81.07a1.54,1.54,0,0,1-1.35-.17c-.31-.26-.2-.6.23-.76a1.54,1.54,0,0,1,1.35.17C38.35,80.57,38.24,80.91,37.81,81.07Z" style="fill:#54371b"/><path d="M34.62,70.24a1.51,1.51,0,0,1-1.35-.18c-.31-.25-.2-.59.23-.75a1.54,1.54,0,0,1,1.35.17C35.16,69.74,35.05,70.08,34.62,70.24Z" style="fill:#54371b"/><path d="M65.7,100.39a1.54,1.54,0,0,1-1.35-.17c-.31-.26-.21-.6.23-.76a1.51,1.51,0,0,1,1.34.17C66.23,99.89,66.13,100.23,65.7,100.39Z" style="fill:#54371b"/><path d="M35.07,66.25a1.54,1.54,0,0,1-1.35-.17c-.31-.26-.2-.6.23-.76a1.54,1.54,0,0,1,1.35.17C35.61,65.75,35.5,66.09,35.07,66.25Z" style="fill:#54371b"/><path d="M72,83.77a1.46,1.46,0,0,1-1.34-.17c-.31-.25-.21-.59.22-.75a1.47,1.47,0,0,1,1.35.17C72.56,83.28,72.46,83.61,72,83.77Z" style="fill:#54371b"/><path d="M63.77,77.55a1.51,1.51,0,0,1-1.35-.18c-.31-.25-.2-.59.23-.75a1.54,1.54,0,0,1,1.35.17C64.31,77.05,64.2,77.39,63.77,77.55Z" style="fill:#54371b"/><path d="M28.53,94.39a1.49,1.49,0,0,1-1.34-.17c-.31-.26-.21-.59.23-.75a1.49,1.49,0,0,1,1.34.17C29.07,93.9,29,94.23,28.53,94.39Z" style="fill:#54371b"/><path d="M51.16,85.32a1.51,1.51,0,0,1-1.35-.17c-.3-.26-.2-.59.23-.76a1.51,1.51,0,0,1,1.35.18C51.7,84.82,51.6,85.16,51.16,85.32Z" style="fill:#54371b"/><path d="M42.3,79.14A1.49,1.49,0,0,1,41,79c-.31-.26-.21-.59.22-.75a1.47,1.47,0,0,1,1.35.17C42.84,78.64,42.74,79,42.3,79.14Z" style="fill:#54371b"/><path d="M32.16,81.46a1.51,1.51,0,0,1-1.35-.18c-.31-.25-.21-.59.23-.75a1.49,1.49,0,0,1,1.34.17C32.69,81,32.59,81.29,32.16,81.46Z" style="fill:#54371b"/><path d="M75.47,95.85a1.51,1.51,0,0,1-1.35-.18c-.31-.25-.21-.59.23-.75a1.52,1.52,0,0,1,1.34.17C76,95.35,75.9,95.69,75.47,95.85Z" style="fill:#54371b"/><path d="M53.62,59a1.52,1.52,0,0,1-1.34-.17c-.31-.26-.21-.6.22-.76a1.51,1.51,0,0,1,1.35.18C54.16,58.46,54.06,58.8,53.62,59Z" style="fill:#54371b"/><path d="M31.41,87.32a1.54,1.54,0,0,1-1.35-.17c-.31-.26-.21-.6.23-.76a1.51,1.51,0,0,1,1.35.18C31.94,86.82,31.84,87.16,31.41,87.32Z" style="fill:#54371b"/><path d="M54.12,63.82a1.52,1.52,0,0,1-1.34-.17c-.31-.26-.21-.6.23-.76a1.52,1.52,0,0,1,1.34.17C54.66,63.32,54.56,63.66,54.12,63.82Z" style="fill:#54371b"/><path d="M57.39,96.26A1.51,1.51,0,0,1,56,96.08c-.31-.25-.2-.59.23-.75a1.54,1.54,0,0,1,1.35.17C57.93,95.76,57.82,96.1,57.39,96.26Z" style="fill:#54371b"/><path d="M31.05,91.09a1.51,1.51,0,0,1-1.35-.18c-.31-.25-.21-.59.23-.75a1.49,1.49,0,0,1,1.34.17C31.58,90.59,31.48,90.92,31.05,91.09Z" style="fill:#54371b"/><path d="M33.15,94.87a1.54,1.54,0,0,1-1.35-.17c-.31-.26-.21-.6.23-.76a1.52,1.52,0,0,1,1.34.17C33.68,94.37,33.58,94.71,33.15,94.87Z" style="fill:#54371b"/><path d="M49.1,105.55a1.51,1.51,0,0,1-1.35-.18c-.3-.25-.2-.59.23-.75a1.5,1.5,0,0,1,1.35.17C49.64,105.05,49.54,105.38,49.1,105.55Z" style="fill:#54371b"/><path d="M83,76.57a1.52,1.52,0,0,1-1.34-.17c-.31-.26-.21-.6.23-.76a1.49,1.49,0,0,1,1.34.18C83.5,76.07,83.4,76.41,83,76.57Z" style="fill:#54371b"/><path d="M45,90.93a1.45,1.45,0,0,1-1.34-.17c-.31-.25-.21-.59.22-.75a1.47,1.47,0,0,1,1.35.17C45.53,90.43,45.43,90.77,45,90.93Z" style="fill:#54371b"/><path d="M81.72,85.92a1.51,1.51,0,0,1-1.35-.18c-.31-.25-.21-.59.23-.75a1.52,1.52,0,0,1,1.34.17C82.25,85.42,82.15,85.76,81.72,85.92Z" style="fill:#54371b"/><path d="M63.77,82.45a1.52,1.52,0,0,1-1.34-.17c-.31-.26-.21-.6.22-.76a1.54,1.54,0,0,1,1.35.17C64.31,82,64.21,82.29,63.77,82.45Z" style="fill:#54371b"/><path d="M56,67.8a1.51,1.51,0,0,1-1.35-.18c-.31-.25-.21-.59.23-.75a1.54,1.54,0,0,1,1.35.17C56.55,67.3,56.45,67.64,56,67.8Z" style="fill:#54371b"/><path d="M50.18,62.45a1.49,1.49,0,0,1-1.34-.17c-.31-.26-.21-.59.23-.76a1.49,1.49,0,0,1,1.34.18C50.72,62,50.62,62.29,50.18,62.45Z" style="fill:#54371b"/><path d="M57.49,91.1a1.49,1.49,0,0,1-1.34-.18c-.31-.25-.21-.59.22-.75a1.54,1.54,0,0,1,1.35.17C58,90.6,57.93,90.94,57.49,91.1Z" style="fill:#54371b"/><path d="M89.46,80.5a1.51,1.51,0,0,1-1.34-.17c-.31-.26-.21-.6.22-.76a1.54,1.54,0,0,1,1.35.17C90,80,89.9,80.34,89.46,80.5Z" style="fill:#54371b"/><path d="M42.92,99.14A1.51,1.51,0,0,1,41.57,99c-.31-.25-.2-.59.23-.75a1.5,1.5,0,0,1,1.35.17C43.46,98.64,43.35,99,42.92,99.14Z" style="fill:#54371b"/><path d="M89.22,87.25a1.49,1.49,0,0,1-1.34-.17c-.31-.26-.21-.6.22-.76a1.51,1.51,0,0,1,1.35.18C89.76,86.75,89.66,87.09,89.22,87.25Z" style="fill:#54371b"/><path d="M57.76,105.49a1.5,1.5,0,0,1-1.35-.17c-.31-.26-.21-.59.23-.75a1.46,1.46,0,0,1,1.34.17C58.29,105,58.19,105.33,57.76,105.49Z" style="fill:#54371b"/><path d="M72.37,75.6A1.51,1.51,0,0,1,71,75.42c-.31-.25-.21-.59.23-.75a1.54,1.54,0,0,1,1.35.17C72.9,75.1,72.8,75.44,72.37,75.6Z" style="fill:#54371b"/><path d="M62.2,96.74a1.45,1.45,0,0,1-1.34-.17c-.31-.25-.21-.59.22-.75a1.47,1.47,0,0,1,1.35.17C62.74,96.24,62.64,96.58,62.2,96.74Z" style="fill:#54371b"/><path d="M53.7,106a1.54,1.54,0,0,1-1.35-.17c-.3-.26-.2-.6.23-.76a1.54,1.54,0,0,1,1.35.17C54.24,105.52,54.14,105.86,53.7,106Z" style="fill:#54371b"/><path d="M51.08,76.18A1.47,1.47,0,0,1,49.73,76c-.31-.25-.21-.59.23-.75a1.48,1.48,0,0,1,1.34.17C51.61,75.69,51.51,76,51.08,76.18Z" style="fill:#54371b"/><path d="M38.74,98.38a1.51,1.51,0,0,1-1.35-.18c-.31-.25-.21-.59.23-.75a1.49,1.49,0,0,1,1.34.17C39.27,97.88,39.17,98.21,38.74,98.38Z" style="fill:#54371b"/><path d="M42,94.58a1.47,1.47,0,0,1-1.35-.17c-.31-.26-.2-.59.23-.75a1.47,1.47,0,0,1,1.35.17C42.55,94.08,42.44,94.42,42,94.58Z" style="fill:#54371b"/><path d="M47.27,66.81a1.54,1.54,0,0,1-1.35-.17c-.31-.26-.21-.6.23-.76a1.52,1.52,0,0,1,1.34.17C47.8,66.31,47.7,66.65,47.27,66.81Z" style="fill:#54371b"/><path d="M33.86,77.89a1.52,1.52,0,0,1-1.34-.17c-.31-.26-.21-.6.22-.76a1.54,1.54,0,0,1,1.35.17C34.4,77.39,34.3,77.73,33.86,77.89Z" style="fill:#54371b"/><path d="M86.32,78.49A1.51,1.51,0,0,1,85,78.31c-.3-.25-.2-.59.23-.75a1.5,1.5,0,0,1,1.35.17C86.86,78,86.76,78.32,86.32,78.49Z" style="fill:#54371b"/><path d="M68.3,81.66A1.46,1.46,0,0,1,67,81.49c-.31-.25-.21-.59.23-.75a1.49,1.49,0,0,1,1.34.17C68.84,81.17,68.74,81.5,68.3,81.66Z" style="fill:#54371b"/><path d="M46.39,86.63a1.51,1.51,0,0,1-1.34-.17c-.31-.26-.21-.6.22-.76a1.54,1.54,0,0,1,1.35.17C46.93,86.13,46.83,86.47,46.39,86.63Z" style="fill:#54371b"/><path d="M46.19,61.65a1.49,1.49,0,0,1-1.34-.18c-.31-.25-.21-.59.22-.75a1.54,1.54,0,0,1,1.35.17C46.73,61.15,46.63,61.49,46.19,61.65Z" style="fill:#54371b"/><path d="M49.13,81.23a1.49,1.49,0,0,1-1.34-.18c-.31-.25-.21-.59.22-.75a1.54,1.54,0,0,1,1.35.17C49.67,80.73,49.57,81.07,49.13,81.23Z" style="fill:#54371b"/><path d="M82.24,81.44a1.54,1.54,0,0,1-1.35-.17c-.31-.26-.2-.6.23-.76a1.54,1.54,0,0,1,1.35.17C82.78,80.94,82.67,81.28,82.24,81.44Z" style="fill:#54371b"/><path d="M55.49,77.52a1.49,1.49,0,0,1-1.34-.18c-.31-.25-.21-.59.23-.75a1.49,1.49,0,0,1,1.34.17C56,77,55.93,77.35,55.49,77.52Z" style="fill:#54371b"/><path d="M51.88,97.24a1.51,1.51,0,0,1-1.34-.17c-.31-.26-.21-.6.22-.76a1.54,1.54,0,0,1,1.35.17C52.42,96.74,52.32,97.08,51.88,97.24Z" style="fill:#54371b"/><path d="M64.14,73a1.51,1.51,0,0,1-1.35-.18c-.31-.25-.21-.59.23-.75a1.52,1.52,0,0,1,1.34.17C64.67,72.5,64.57,72.84,64.14,73Z" style="fill:#54371b"/><path d="M51.73,71.53a1.14,1.14,0,0,1-1-.13c-.23-.19-.15-.45.17-.57a1.14,1.14,0,0,1,1,.13C52.14,71.15,52.06,71.41,51.73,71.53Z" style="fill:#5c3a1c"/><path d="M54.67,100.81a1.14,1.14,0,0,1-1-.13c-.23-.19-.16-.45.17-.57a1.14,1.14,0,0,1,1,.13C55.07,100.44,55,100.69,54.67,100.81Z" style="fill:#5c3a1c"/><path d="M73.13,79.69a1.11,1.11,0,0,1-1-.13c-.24-.19-.16-.44.17-.56a1.11,1.11,0,0,1,1,.13C73.53,79.32,73.45,79.57,73.13,79.69Z" style="fill:#5c3a1c"/><path d="M45.12,82a1.14,1.14,0,0,1-1-.13c-.23-.19-.15-.45.17-.57a1.14,1.14,0,0,1,1,.13C45.53,81.6,45.45,81.86,45.12,82Z" style="fill:#5c3a1c"/><path d="M59.52,78.05a1.14,1.14,0,0,1-1-.13c-.24-.19-.16-.45.17-.57a1.14,1.14,0,0,1,1,.13C59.92,77.68,59.84,77.93,59.52,78.05Z" style="fill:#5c3a1c"/><path d="M35.16,74.06a1.11,1.11,0,0,1-1-.13c-.23-.19-.16-.44.17-.56a1.08,1.08,0,0,1,1,.13C35.56,73.69,35.49,73.94,35.16,74.06Z" style="fill:#5c3a1c"/><path d="M48.92,57.73a1.15,1.15,0,0,1-1-.13c-.23-.19-.15-.45.17-.57a1.16,1.16,0,0,1,1,.13C49.33,57.35,49.25,57.61,48.92,57.73Z" style="fill:#5c3a1c"/><path d="M21.46,86a1.14,1.14,0,0,1-1-.13c-.23-.19-.16-.45.17-.57a1.14,1.14,0,0,1,1,.13C21.86,85.6,21.79,85.86,21.46,86Z" style="fill:#5c3a1c"/><path d="M54.82,88.33a1.14,1.14,0,0,1-1-.13c-.23-.19-.15-.45.17-.57a1.14,1.14,0,0,1,1,.13C55.23,88,55.15,88.21,54.82,88.33Z" style="fill:#5c3a1c"/><path d="M18.21,75.51a1.15,1.15,0,0,1-1-.13c-.23-.19-.15-.45.17-.57a1.16,1.16,0,0,1,1,.13C18.62,75.14,18.54,75.39,18.21,75.51Z" style="fill:#5c3a1c"/><path d="M79.13,92.89a1.08,1.08,0,0,1-1-.13c-.23-.19-.15-.44.17-.56a1.14,1.14,0,0,1,1,.13C79.54,92.52,79.46,92.77,79.13,92.89Z" style="fill:#5c3a1c"/><path d="M38.64,70.93a1.11,1.11,0,0,1-1-.12c-.23-.2-.16-.45.17-.57a1.11,1.11,0,0,1,1,.13C39,70.56,39,70.81,38.64,70.93Z" style="fill:#5c3a1c"/><path d="M68.66,73.51a1.14,1.14,0,0,1-1-.13c-.23-.19-.15-.45.17-.57a1.14,1.14,0,0,1,1,.13C69.07,73.14,69,73.39,68.66,73.51Z" style="fill:#5c3a1c"/><path d="M50,101.08a1.14,1.14,0,0,1-1-.13c-.23-.2-.16-.45.17-.57a1.14,1.14,0,0,1,1,.13C50.41,100.7,50.33,101,50,101.08Z" style="fill:#5c3a1c"/><path d="M59.93,73.64a1.11,1.11,0,0,1-1-.13c-.24-.19-.16-.44.17-.56a1.08,1.08,0,0,1,1,.13C60.33,73.27,60.25,73.52,59.93,73.64Z" style="fill:#5c3a1c"/><path d="M60.84,92.11a1.11,1.11,0,0,1-1-.13c-.24-.19-.16-.44.17-.56a1.08,1.08,0,0,1,1,.13C61.24,91.74,61.16,92,60.84,92.11Z" style="fill:#5c3a1c"/><path d="M45.78,101.9a1.16,1.16,0,0,1-1-.13c-.23-.19-.15-.45.18-.57a1.14,1.14,0,0,1,1,.13C46.18,101.52,46.1,101.78,45.78,101.9Z" style="fill:#5c3a1c"/><path d="M17.83,79.1a1.14,1.14,0,0,1-1-.13c-.23-.2-.15-.45.17-.57a1.14,1.14,0,0,1,1,.13C18.24,78.72,18.16,79,17.83,79.1Z" style="fill:#5c3a1c"/><path d="M50.3,89.45a1.14,1.14,0,0,1-1-.13c-.24-.19-.16-.45.17-.57a1.14,1.14,0,0,1,1,.13C50.7,89.07,50.62,89.33,50.3,89.45Z" style="fill:#5c3a1c"/><path d="M82.44,90.65a1.14,1.14,0,0,1-1-.13c-.23-.2-.15-.45.17-.57a1.14,1.14,0,0,1,1,.13C82.85,90.27,82.77,90.52,82.44,90.65Z" style="fill:#5c3a1c"/><path d="M57.67,61.76a1.15,1.15,0,0,1-1-.13c-.23-.19-.15-.45.17-.57a1.16,1.16,0,0,1,1,.13C58.08,61.38,58,61.64,57.67,61.76Z" style="fill:#5c3a1c"/><path d="M92.81,81.37a1.14,1.14,0,0,1-1-.13c-.23-.2-.16-.45.17-.57a1.14,1.14,0,0,1,1,.13C93.21,81,93.13,81.25,92.81,81.37Z" style="fill:#5c3a1c"/><path d="M62,102.92a1.11,1.11,0,0,1-1-.13c-.23-.19-.15-.44.17-.56a1.11,1.11,0,0,1,1,.13C62.44,102.55,62.37,102.8,62,102.92Z" style="fill:#5c3a1c"/><path d="M25.83,75.09a1.12,1.12,0,0,1-1-.13c-.23-.19-.15-.44.17-.56a1.1,1.1,0,0,1,1,.13C26.24,74.72,26.16,75,25.83,75.09Z" style="fill:#5c3a1c"/><path d="M38.19,86.15a1.14,1.14,0,0,1-1-.13c-.23-.2-.15-.45.17-.57a1.14,1.14,0,0,1,1,.13C38.6,85.77,38.52,86,38.19,86.15Z" style="fill:#5c3a1c"/><path d="M33.69,99.16a1.14,1.14,0,0,1-1-.13c-.23-.2-.16-.45.17-.57a1.14,1.14,0,0,1,1,.13C34.09,98.78,34,99,33.69,99.16Z" style="fill:#5c3a1c"/><path d="M48.89,93.23a1.14,1.14,0,0,1-1-.13c-.24-.19-.16-.45.17-.57a1.14,1.14,0,0,1,1,.13C49.29,92.85,49.21,93.11,48.89,93.23Z" style="fill:#5c3a1c"/><path d="M92.05,85.1A1.14,1.14,0,0,1,91,85c-.23-.19-.15-.45.17-.57a1.16,1.16,0,0,1,1,.13C92.46,84.72,92.38,85,92.05,85.1Z" style="fill:#5c3a1c"/><path d="M26.94,80.68a1.14,1.14,0,0,1-1-.13c-.23-.2-.16-.45.17-.57a1.14,1.14,0,0,1,1,.13C27.35,80.3,27.27,80.56,26.94,80.68Z" style="fill:#5c3a1c"/><path d="M77.81,88.32a1.14,1.14,0,0,1-1-.13c-.23-.19-.16-.45.17-.57a1.14,1.14,0,0,1,1,.13C78.21,87.94,78.14,88.2,77.81,88.32Z" style="fill:#5c3a1c"/><path d="M66.92,70.05a1.14,1.14,0,0,1-1-.13c-.24-.19-.16-.45.17-.57a1.14,1.14,0,0,1,1,.13C67.32,69.68,67.24,69.93,66.92,70.05Z" style="fill:#5c3a1c"/><path d="M26.57,90.77a1.14,1.14,0,0,1-1-.13c-.23-.2-.15-.45.17-.57a1.14,1.14,0,0,1,1,.13C27,90.39,26.9,90.65,26.57,90.77Z" style="fill:#5c3a1c"/><path d="M38.81,64.7a1.14,1.14,0,0,1-1-.13c-.23-.19-.16-.45.17-.57a1.14,1.14,0,0,1,1,.13C39.21,64.32,39.14,64.58,38.81,64.7Z" style="fill:#5c3a1c"/><path d="M37.17,94.19a1.16,1.16,0,0,1-1-.13c-.23-.19-.15-.45.18-.57a1.15,1.15,0,0,1,1,.13C37.57,93.81,37.49,94.07,37.17,94.19Z" style="fill:#5c3a1c"/><path d="M34.63,84.57a1.1,1.1,0,0,1-1-.13c-.23-.19-.15-.44.18-.56a1.11,1.11,0,0,1,1,.13C35,84.2,35,84.45,34.63,84.57Z" style="fill:#5c3a1c"/><path d="M13.72,78.18a1.14,1.14,0,0,1-1-.13c-.24-.2-.16-.45.17-.57a1.14,1.14,0,0,1,1,.13C14.12,77.8,14,78.06,13.72,78.18Z" style="fill:#5c3a1c"/><path d="M64.18,90.13a1.16,1.16,0,0,1-1-.13c-.23-.19-.15-.45.17-.57a1.16,1.16,0,0,1,1,.13C64.58,89.75,64.5,90,64.18,90.13Z" style="fill:#5c3a1c"/><path d="M66.23,95.36a1.11,1.11,0,0,1-1-.12c-.23-.2-.15-.45.17-.57a1.13,1.13,0,0,1,1,.13C66.64,95,66.56,95.24,66.23,95.36Z" style="fill:#5c3a1c"/><path d="M41.27,103.65a1.14,1.14,0,0,1-1-.13c-.23-.2-.16-.45.17-.57a1.11,1.11,0,0,1,1,.13C41.67,103.27,41.6,103.52,41.27,103.65Z" style="fill:#5c3a1c"/><path d="M17.33,86.28a1.14,1.14,0,0,1-1-.13c-.23-.19-.16-.45.17-.57a1.14,1.14,0,0,1,1,.13C17.73,85.9,17.66,86.16,17.33,86.28Z" style="fill:#5c3a1c"/><path d="M78.3,79.36a1.14,1.14,0,0,1-1-.13c-.24-.19-.16-.45.17-.57a1.14,1.14,0,0,1,1,.13C78.7,79,78.62,79.24,78.3,79.36Z" style="fill:#5c3a1c"/><path d="M76.08,72a1.14,1.14,0,0,1-1-.13c-.24-.2-.16-.45.17-.57a1.14,1.14,0,0,1,1,.13C76.48,71.57,76.4,71.83,76.08,72Z" style="fill:#5c3a1c"/><path d="M67.25,86.32a1.11,1.11,0,0,1-1-.13c-.23-.19-.15-.44.17-.56a1.11,1.11,0,0,1,1,.13C67.66,86,67.58,86.2,67.25,86.32Z" style="fill:#5c3a1c"/><path d="M45.23,106.62a1.11,1.11,0,0,1-1-.12c-.23-.2-.16-.45.17-.57a1.11,1.11,0,0,1,1,.13C45.63,106.25,45.56,106.5,45.23,106.62Z" style="fill:#5c3a1c"/><path d="M43.05,74a1.11,1.11,0,0,1-1-.13c-.24-.19-.16-.44.17-.56a1.11,1.11,0,0,1,1,.13C43.45,73.65,43.37,73.9,43.05,74Z" style="fill:#5c3a1c"/><path d="M9.84,80.84a1.14,1.14,0,0,1-1-.13c-.24-.19-.16-.45.17-.57a1.14,1.14,0,0,1,1,.13C10.24,80.47,10.16,80.72,9.84,80.84Z" style="fill:#5c3a1c"/><path d="M56.15,84.83a1.08,1.08,0,0,1-1-.13c-.23-.19-.15-.44.17-.56a1.13,1.13,0,0,1,1,.13C56.56,84.46,56.48,84.71,56.15,84.83Z" style="fill:#5c3a1c"/><path d="M96.28,83.51a1.11,1.11,0,0,1-1-.13c-.23-.19-.15-.44.17-.56a1.11,1.11,0,0,1,1,.13C96.69,83.14,96.61,83.39,96.28,83.51Z" style="fill:#5c3a1c"/><path d="M30.59,73.59a1.11,1.11,0,0,1-1-.13c-.23-.19-.15-.44.17-.56a1.08,1.08,0,0,1,1,.13C31,73.22,30.92,73.47,30.59,73.59Z" style="fill:#5c3a1c"/><path d="M19.52,82.29a1.14,1.14,0,0,1-1-.13c-.23-.2-.15-.45.17-.57a1.16,1.16,0,0,1,1,.13C19.93,81.91,19.85,82.17,19.52,82.29Z" style="fill:#5c3a1c"/><path d="M76.9,83.58a1,1,0,0,1-.9-.11c-.2-.18-.14-.4.16-.51a1,1,0,0,1,.89.12C77.26,83.25,77.19,83.47,76.9,83.58Z" style="fill:#b37136"/><path d="M61.22,63.92a1,1,0,0,1-.9-.12c-.21-.17-.14-.4.15-.51a1,1,0,0,1,.9.12C61.58,63.58,61.51,63.81,61.22,63.92Z" style="fill:#b37136"/><path d="M85.63,88.63a1,1,0,0,1-.9-.11c-.21-.17-.14-.4.15-.51a1,1,0,0,1,.9.12C86,88.3,85.92,88.53,85.63,88.63Z" style="fill:#b37136"/><path d="M67.85,77.47a1,1,0,0,1-.9-.11c-.21-.17-.14-.4.15-.51A1,1,0,0,1,68,77C68.21,77.14,68.14,77.37,67.85,77.47Z" style="fill:#b37136"/><path d="M37.13,101.86a1,1,0,0,1-.9-.12c-.21-.17-.14-.4.15-.5a1,1,0,0,1,.9.11C37.49,101.52,37.42,101.75,37.13,101.86Z" style="fill:#b37136"/><path d="M69.68,67.88a1,1,0,0,1-.9-.12c-.2-.17-.14-.4.15-.5a1,1,0,0,1,.9.11C70,67.54,70,67.77,69.68,67.88Z" style="fill:#b37136"/><path d="M53.28,81a1,1,0,0,1-.9-.11c-.21-.18-.14-.4.15-.51a1,1,0,0,1,.9.12C53.64,80.71,53.57,80.93,53.28,81Z" style="fill:#b37136"/><path d="M30.49,68.65a1,1,0,0,1-.9-.11c-.21-.18-.14-.4.15-.51a1,1,0,0,1,.9.12C30.84,68.32,30.78,68.54,30.49,68.65Z" style="fill:#b37136"/><path d="M23.82,82.7a1,1,0,0,1-.9-.11c-.21-.18-.14-.4.15-.51a1,1,0,0,1,.9.12C24.18,82.37,24.11,82.59,23.82,82.7Z" style="fill:#b37136"/><path d="M59,100.4a1,1,0,0,1-.9-.11c-.2-.17-.14-.4.15-.51a1,1,0,0,1,.9.12C59.33,100.07,59.26,100.3,59,100.4Z" style="fill:#b37136"/><path d="M38.79,76.17a1,1,0,0,1-.9-.11c-.21-.17-.14-.4.15-.51a1,1,0,0,1,.9.12C39.15,75.84,39.08,76.07,38.79,76.17Z" style="fill:#b37136"/><path d="M55.76,72.82a1,1,0,0,1-.9-.11c-.2-.17-.13-.4.16-.51a1,1,0,0,1,.89.12C56.12,72.49,56.05,72.72,55.76,72.82Z" style="fill:#b37136"/><path d="M71,90.12a1,1,0,0,1-.9-.12c-.21-.17-.14-.4.15-.51a1,1,0,0,1,.9.12C71.32,89.78,71.26,90,71,90.12Z" style="fill:#b37136"/><path d="M19.69,91.63a1,1,0,0,1-.9-.12c-.21-.17-.14-.4.15-.5a1,1,0,0,1,.9.11C20,91.29,20,91.52,19.69,91.63Z" style="fill:#b37136"/><path d="M58.75,81.92a1,1,0,0,1-.9-.11c-.21-.17-.14-.4.15-.51a1,1,0,0,1,.9.12C59.11,81.59,59,81.82,58.75,81.92Z" style="fill:#b37136"/><path d="M14.43,82.63a1,1,0,0,1-.9-.12c-.21-.17-.14-.4.15-.5a1,1,0,0,1,.9.11C14.78,82.29,14.72,82.52,14.43,82.63Z" style="fill:#b37136"/><path d="M42.32,61.31a1,1,0,0,1-.9-.12c-.21-.17-.14-.39.15-.5a1,1,0,0,1,.9.12C42.68,61,42.61,61.2,42.32,61.31Z" style="fill:#b37136"/><path d="M67.77,91.49a1,1,0,0,1-.89-.12c-.21-.17-.14-.4.15-.5a1,1,0,0,1,.9.11C68.13,91.15,68.07,91.38,67.77,91.49Z" style="fill:#b37136"/><path d="M22.6,78.16a1,1,0,0,1-.9-.11c-.2-.17-.14-.4.16-.51a1,1,0,0,1,.89.12C23,77.83,22.89,78.06,22.6,78.16Z" style="fill:#b37136"/><path d="M69.83,98.58a1,1,0,0,1-.9-.12c-.21-.17-.14-.4.15-.5a1,1,0,0,1,.9.11C70.18,98.24,70.12,98.47,69.83,98.58Z" style="fill:#b37136"/><path d="M79.77,74.12a1,1,0,0,1-.9-.12c-.21-.17-.14-.4.15-.5a1,1,0,0,1,.9.11C80.12,73.78,80.06,74,79.77,74.12Z" style="fill:#b37136"/><path d="M53.56,93.19a1,1,0,0,1-.9-.11c-.2-.17-.14-.4.15-.51a1,1,0,0,1,.9.12C53.92,92.86,53.85,93.09,53.56,93.19Z" style="fill:#b37136"/><path d="M26.46,70.9a1,1,0,0,1-.9-.12c-.2-.17-.13-.39.16-.5a1,1,0,0,1,.9.12C26.82,70.57,26.75,70.79,26.46,70.9Z" style="fill:#b37136"/><path d="M26.1,86.86a1,1,0,0,1-.9-.12c-.2-.17-.13-.4.16-.5a1,1,0,0,1,.9.11C26.46,86.52,26.39,86.75,26.1,86.86Z" style="fill:#b37136"/><path d="M74.83,91.66a1,1,0,0,1-.9-.12c-.21-.17-.14-.4.15-.5a1,1,0,0,1,.9.11C75.18,91.32,75.12,91.55,74.83,91.66Z" style="fill:#b37136"/><path d="M59.48,68.87a1,1,0,0,1-.9-.12c-.21-.17-.14-.4.15-.5a1,1,0,0,1,.9.11C59.83,68.53,59.77,68.76,59.48,68.87Z" style="fill:#b37136"/><path d="M63.1,68.22a1,1,0,0,1-.9-.11c-.21-.18-.14-.4.15-.51a1,1,0,0,1,.9.12C63.46,67.89,63.39,68.11,63.1,68.22Z" style="fill:#b37136"/><path d="M28.86,84.12A1,1,0,0,1,28,84c-.21-.17-.14-.4.15-.51a1,1,0,0,1,.9.12C29.22,83.79,29.16,84,28.86,84.12Z" style="fill:#b37136"/><path d="M22.07,73.33a1,1,0,0,1-.9-.12c-.2-.17-.14-.4.15-.5a1,1,0,0,1,.9.11C22.43,73,22.36,73.22,22.07,73.33Z" style="fill:#b37136"/><path d="M71.31,95a1,1,0,0,1-.9-.11c-.21-.17-.14-.4.15-.51a1,1,0,0,1,.9.12C71.67,94.65,71.6,94.88,71.31,95Z" style="fill:#b37136"/><path d="M61,86.59a1,1,0,0,1-.9-.11c-.2-.18-.13-.4.16-.51a1,1,0,0,1,.9.12C61.36,86.26,61.29,86.48,61,86.59Z" style="fill:#b37136"/><path d="M50.7,109.23a1,1,0,0,1-.9-.11c-.21-.18-.14-.4.15-.51a1,1,0,0,1,.9.12C51.06,108.9,51,109.12,50.7,109.23Z" style="fill:#b37136"/><path d="M43.07,65.57a1,1,0,0,1-.9-.11c-.21-.17-.14-.4.15-.51a1,1,0,0,1,.9.12C43.43,65.24,43.36,65.47,43.07,65.57Z" style="fill:#b37136"/><path d="M46.49,96.6a1,1,0,0,1-.9-.12c-.21-.17-.14-.4.15-.5a1,1,0,0,1,.9.11C46.85,96.26,46.78,96.49,46.49,96.6Z" style="fill:#b37136"/><path d="M41.76,84.6a1,1,0,0,1-.9-.12c-.21-.17-.14-.39.15-.5a1,1,0,0,1,.9.11C42.12,84.27,42.05,84.49,41.76,84.6Z" style="fill:#b37136"/><path d="M8.36,84.86a1,1,0,0,1-.9-.11c-.21-.17-.14-.4.15-.51a1,1,0,0,1,.9.12C8.72,84.53,8.65,84.75,8.36,84.86Z" style="fill:#b37136"/><path d="M76.17,76.05a1,1,0,0,1-.9-.11c-.2-.17-.14-.4.15-.51a1,1,0,0,1,.9.12C76.53,75.72,76.46,75.94,76.17,76.05Z" style="fill:#b37136"/><path d="M72.43,70.57a1,1,0,0,1-.9-.12c-.21-.17-.14-.39.15-.5a1,1,0,0,1,.9.11C72.79,70.24,72.72,70.46,72.43,70.57Z" style="fill:#b37136"/><path d="M73.25,87.1a1,1,0,0,1-.9-.12c-.2-.17-.14-.4.15-.5a1,1,0,0,1,.9.11C73.61,86.76,73.54,87,73.25,87.1Z" style="fill:#b37136"/><path d="M46.6,76.89a1,1,0,0,1-.9-.12c-.2-.17-.13-.39.16-.5a1,1,0,0,1,.9.11C47,76.55,46.89,76.78,46.6,76.89Z" style="fill:#b37136"/><path d="M47.09,71.5a1,1,0,0,1-.9-.11c-.21-.17-.14-.4.15-.51a1,1,0,0,1,.9.12C47.45,71.17,47.38,71.4,47.09,71.5Z" style="fill:#b37136"/><path d="M28.91,77.59a1,1,0,0,1-.9-.12c-.21-.17-.14-.39.15-.5a1,1,0,0,1,.9.12C29.27,77.26,29.2,77.48,28.91,77.59Z" style="fill:#b37136"/><path d="M24.13,94.38a1,1,0,0,1-.9-.11c-.21-.18-.14-.4.15-.51a1,1,0,0,1,.9.12C24.49,94.05,24.42,94.27,24.13,94.38Z" style="fill:#b37136"/><path d="M4.92,82.88a1,1,0,0,1-.9-.12c-.21-.17-.14-.39.15-.5a1,1,0,0,1,.9.11C5.28,82.54,5.21,82.77,4.92,82.88Z" style="fill:#b37136"/><path d="M22.56,89.54a1,1,0,0,1-.9-.11c-.2-.17-.14-.4.15-.51a1,1,0,0,1,.9.12C22.92,89.21,22.85,89.43,22.56,89.54Z" style="fill:#b37136"/><path d="M86.1,83.68a1,1,0,0,1-.9-.11c-.2-.18-.13-.4.16-.51a1,1,0,0,1,.9.12C86.46,83.35,86.39,83.57,86.1,83.68Z" style="fill:#b37136"/><path d="M35.29,89.85a1,1,0,0,1-.9-.12c-.21-.17-.14-.4.15-.5a1,1,0,0,1,.9.11C35.65,89.51,35.58,89.74,35.29,89.85Z" style="fill:#b37136"/><path d="M15.65,89.47a1,1,0,0,1-.9-.11c-.21-.18-.14-.4.15-.51a1,1,0,0,1,.9.12C16,89.14,15.94,89.36,15.65,89.47Z" style="fill:#b37136"/><path d="M29.29,97.57a1,1,0,0,1-.9-.11c-.21-.17-.14-.4.15-.51a1,1,0,0,1,.9.12C29.65,97.24,29.58,97.47,29.29,97.57Z" style="fill:#b37136"/><path d="M42.33,69.42a1,1,0,0,1-.9-.11c-.21-.17-.14-.4.15-.51a1,1,0,0,1,.9.12C42.69,69.09,42.62,69.32,42.33,69.42Z" style="fill:#b37136"/><path d="M50.25.25.25,29.12,50.25,58l50-28.87Zm50,28.87L50.25,58v57.73l50-28.87ZM50.25,58,.25,29.12V86.85l50,28.87Z" style="fill:none;stroke:#4d2b1c;stroke-linejoin:round;stroke-width:0.5px"/></g></g></svg>