<?xml version="1.0" encoding="UTF-8"?><svg id="Ebene_2" xmlns="http://www.w3.org/2000/svg" viewBox="0 0 110.02 68.03"><g id="Ebene_3"><path id="Fill-1" d="M45.76,7.44c3.56-3.25,8.51-5.31,13.97-5.31,7.28,0,13.59,3.59,16.97,8.9,2.92-1.16,6.18-1.79,9.61-1.79,13.12,0,23.71,9.46,23.71,21.12s-10.63,21.12-23.71,21.12c-1.61,0-3.17-.15-4.66-.41-2.96,4.67-8.64,7.85-15.15,7.85-2.71,0-5.29-.56-7.58-1.53-3.01,6.24-10.03,10.65-18.2,10.65s-15.79-4.75-18.58-11.44c-1.23,.22-2.5,.34-3.77,.34-10.16,0-18.37-7.33-18.37-16.41,0-6.06,3.68-11.36,9.19-14.2-1.14-2.28-1.78-4.82-1.78-7.51C7.37,8.45,16.97,0,28.74,0c6.94,0,13.12,2.92,17.02,7.44" style="fill:#5a9fdc;"/></g></svg>