<?xml version="1.0" encoding="utf-8"?>
<!-- Generator: Adobe Illustrator 26.3.1, SVG Export Plug-In . SVG Version: 6.00 Build 0)  -->
<svg version="1.1" id="Ebene_2_00000090255369039699719900000016120160804040438410_"
	 xmlns="http://www.w3.org/2000/svg" xmlns:xlink="http://www.w3.org/1999/xlink" x="0px" y="0px" viewBox="0 0 120 59.5"
	 style="enable-background:new 0 0 120 59.5;" xml:space="preserve">
<style type="text/css">
	.st0{fill:#264381;}
	.st1{fill-rule:evenodd;clip-rule:evenodd;fill:#FFFFFF;}
	.st2{fill:#014183;}
</style>
<g id="Ebene_3">
	<g id="layer1" transform="translate(-446.7987,535.9143)">
		<path id="path25030" class="st0" d="M0,59.4h60.6L120,0H0V59.4"/>
		<path id="path25032" class="st1" d="M71.2,11.2H59.4v28.1L49.1,11.2H39l-8.9,23.5c-0.9-5.9-7.1-8-12-9.5c-3.1-1-6.6-2.5-6.3-4.2
			c0-1.4,1.6-2.6,5.2-2.4c2.4,0.1,4.5,0.3,8.7,2.3l4.2-7.2c-4-1.9-9.2-3.2-13.4-3.2l0,0c-5.2,0-9.4,1.6-12,4.3
			c-1.6,1.9-2.8,4.3-2.8,6.9c0,3.6,1.4,6.2,4,8.2c2.6,1.7,5.4,2.8,8.2,3.7c3.3,1,5.9,1.9,5.9,3.8c0,0.7-0.2,1.3-0.7,1.8
			c-0.9,0.8-2.1,1.2-4,1.2c-3.3,0.1-5.6-0.5-9.6-2.8L1.6,45c4,2.2,8.7,3.6,13.4,3.6h0.7c4-0.1,7.5-1.3,10.1-3.4
			c0.2-0.1,0.2-0.2,0.5-0.4l-1.2,3.2h10.8l1.6-5.5c1.9,0.6,4,1,6.3,1s4.2-0.3,6.1-1l1.9,5.4h17.4V36.5h4c9.2,0,14.6-4.7,14.6-12.6
			C87.8,15.2,82.7,11.2,71.2,11.2L71.2,11.2z M43.9,35.2c-1.4,0-2.6-0.2-3.8-0.7l3.8-11.8l0,0l3.8,11.8C46.5,35,45.3,35.2,43.9,35.2
			L43.9,35.2z M71.9,28.4h-2.6v-9.5h2.6c3.5,0,6.3,1.1,6.3,4.7S75.4,28.4,71.9,28.4"/>
		<path id="path25034" class="st0" d="M75.4,55.6c0-1.8,1.4-3.2,3.1-3.2s3.1,1.4,3.1,3.2s-1.4,3.2-3.1,3.2S75.4,57.5,75.4,55.6z
			 M78.4,59.5c2.1,0,4-1.7,4-3.9s-1.9-3.8-4-3.8s-4,1.6-4,3.8S76.3,59.5,78.4,59.5z M77.7,55.9h0.7l1.2,1.9h0.7l-1.2-2
			c0.5-0.1,1.2-0.4,1.2-1.2c0-0.9-0.7-1.3-1.6-1.3H77v4.4h0.7L77.7,55.9L77.7,55.9z M77.7,55.3V54h0.9c0.2,0,0.9,0.1,0.9,0.7
			c0,0.7-0.7,0.7-1.2,0.7H77.7"/>
	</g>
</g>
<g id="layer1_00000012470660764757767370000007484468151291240109_" transform="translate(-446.7987,535.9143)">
	<path id="path25030_00000031927361522358933530000004757437414601442962_" class="st2" d="M447.3-476.4h60.6l59.4-59.4h-120V-476.4
		"/>
	<path id="path25032_00000038393647937799624370000004347520236025541034_" class="st1" d="M518.5-524.6l-11.7,0v28.1l-10.3-28.1
		h-10.1l-8.9,23.5c-0.9-5.9-7-8-12-9.5c-3.1-1-6.6-2.5-6.3-4.2c0-1.4,1.6-2.6,5.2-2.4c2.3,0.1,4.5,0.3,8.7,2.3l4.2-7.2
		c-4-1.9-9.2-3.2-13.4-3.2l0,0c-5.2,0-9.4,1.6-12,4.3c-1.6,1.9-2.8,4.3-2.8,6.9c0,3.6,1.4,6.2,4,8.3c2.6,1.7,5.4,2.9,8.2,3.7
		c3.3,1,5.9,1.9,5.9,3.8c0,0.7-0.2,1.3-0.7,1.8c-0.9,0.8-2.1,1.2-4,1.2c-3.3,0.1-5.6-0.5-9.6-2.8l-3.8,7.2c4,2.2,8.7,3.6,13.4,3.6
		l0.7,0c4-0.1,7.5-1.3,10.1-3.4c0.2-0.1,0.2-0.2,0.5-0.4l-1.2,3.2h10.8l1.6-5.5c1.9,0.6,4,1,6.3,1c2.3,0,4.2-0.4,6.1-1l1.9,5.4h17.4
		v-11.3h4c9.2,0,14.6-4.7,14.6-12.6C535.1-520.6,530-524.6,518.5-524.6z M491.2-500.6c-1.4,0-2.6-0.2-3.8-0.7l3.8-11.8l0,0l3.8,11.9
		C493.8-500.8,492.6-500.6,491.2-500.6z M519.2-507.4h-2.6v-9.5h2.6c3.5,0,6.3,1.2,6.3,4.7C525.5-508.5,522.7-507.4,519.2-507.4"/>
	<path id="path25034_00000043457846882404311670000001407010028645938608_" class="st2" d="M522.7-480.2c0-1.8,1.4-3.2,3.1-3.2
		c1.6,0,3.1,1.4,3.1,3.2c0,1.9-1.4,3.2-3.1,3.2C524.1-476.9,522.7-478.3,522.7-480.2z M525.7-476.3c2.1,0,4-1.6,4-3.9
		c0-2.2-1.9-3.8-4-3.8s-4,1.6-4,3.8C521.7-478,523.6-476.3,525.7-476.3z M525-479.9h0.7l1.2,1.9h0.7l-1.2-2c0.5-0.1,1.2-0.4,1.2-1.2
		c0-0.9-0.7-1.3-1.6-1.3h-1.6v4.4h0.7V-479.9z M525-480.4v-1.4h0.9c0.2,0,0.9,0.1,0.9,0.7c0,0.7-0.7,0.7-1.2,0.7H525"/>
</g>
</svg>
