<?xml version="1.0" encoding="UTF-8"?><svg id="Ebene_2" xmlns="http://www.w3.org/2000/svg" viewBox="0 0 44.04 26.03"><g id="Ebene_12"><path d="M21.93,26.03c-.44,0-.89-.1-1.29-.33l-8.35-4.83c-.31-.18-.49-.51-.47-.87,.01-.31,.17-.6,.44-.76l1.2-.76c.75-.43,1.81-.69,3.27-.79,.7-.05,1.35-.23,1.83-.51,.35-.2,.58-.44,.69-.68,.25-.59-.34-1.12-.98-1.42-1.13-.53-2.83-.54-3.96-.02-.57,.26-.94,.62-1,.98-.17,.89-.69,1.64-1.49,2.1l-1.3,.7c-.26,.14-.56,.21-.88,.23-.29,0-.57-.06-.83-.2L.91,14.27C.34,13.94,.02,13.47,0,12.95c-.02-.54,.31-1.05,.89-1.38L9.1,6.82c.3-.17,.64-.25,.97-.21,.27,.03,.51,.1,.72,.21l1.31,.7c.81,.47,1.35,1.21,1.52,2.1,.09,.47,.65,.91,1.51,1.18,1.01,.32,2.11,.31,3.11-.05,.68-.24,1.16-.6,1.33-.98,.27-.62-.4-1.09-.7-1.27-.49-.28-1.14-.46-1.84-.51-1.44-.1-2.54-.37-3.26-.79l-1.22-.76c-.24-.16-.39-.38-.43-.63-.07-.39,.11-.79,.45-.99L20.14,.44c1.02-.59,2.28-.59,3.3,0l1.9,1.1s6.21,3.6,6.21,3.6c.22,.02,.43-.02,.57-.09l1.3-.69c.49-.29,.81-.74,.93-1.37,.12-.61,.56-1.16,1.26-1.56,1.68-.97,4.39-.87,5.91,.23,.68,.49,1.03,1.13,1.01,1.81-.02,.62-.37,1.2-.97,1.64-.67,.49-1.62,.8-2.67,.87-1.18,.07-2.15,.3-2.73,.64l-1.01,.63,8.22,4.77c.49,.28,.73,.73,.66,1.19-.06,.34-.29,.65-.65,.86l-7.77,4.51,.99,.62c.56,.32,1.5,.54,2.77,.63,.87,.06,1.67,.29,2.31,.66,.88,.51,1.35,1.25,1.31,2.03-.05,.94-.83,1.75-2.12,2.2-1.22,.43-2.57,.45-3.81,.06-1.26-.4-2.08-1.13-2.25-2.01-.08-.41-.31-.97-.98-1.36l-1.28-.69c-.12-.07-.29-.1-.48-.1l-8.79,5.09c-.36,.21-.85,.34-1.36,.34Zm-8.88-6l8.15,4.72c.47,.27,1.17,.21,1.55-.01l8.9-5.16c.07-.04,.15-.07,.23-.07,.44-.04,.86,.04,1.19,.22,.03,.02,.07,.04,.1,.06l1.21,.64c.81,.47,1.35,1.21,1.52,2.1,.09,.47,.65,.91,1.51,1.18,1.01,.32,2.11,.31,3.11-.05,.83-.29,1.36-.76,1.38-1.23,.02-.36-.26-.73-.76-1.02-.49-.28-1.14-.46-1.83-.51-1.46-.11-2.53-.36-3.26-.79l-1.22-.76,.28-.47-.3,.46c-.41-.26-.6-.68-.5-1.1,.03-.15,.13-.27,.26-.35l8.27-4.8c.05-.03,.09-.06,.1-.08-.02,0-.05-.03-.11-.07l-8.65-5.02c-.1-.06-.18-.15-.23-.26-.2-.47-.03-.96,.45-1.26l1.2-.75c.95-.55,2.28-.73,3.23-.79,.84-.05,1.58-.29,2.08-.66,.23-.17,.51-.44,.52-.79,.01-.3-.18-.61-.55-.88-1.16-.84-3.41-.92-4.71-.17-.41,.24-.68,.54-.74,.83-.19,.95-.69,1.66-1.48,2.12l-1.31,.7c-.38,.2-.86,.27-1.34,.2-.07,0-.14-.03-.2-.07L22.89,1.39c-.66-.39-1.52-.38-2.19,0l-7.35,4.24,.99,.62c.56,.32,1.5,.54,2.77,.63,.87,.06,1.67,.29,2.31,.66,1.12,.65,1.57,1.69,1.16,2.65-.29,.69-.98,1.24-1.97,1.59-1.22,.43-2.57,.45-3.81,.06-1.26-.4-2.08-1.13-2.25-2.01-.08-.41-.31-.97-.98-1.36l-1.28-.69c-.09-.05-.2-.08-.33-.09-.09,0-.2,.02-.3,.07L1.45,12.51c-.22,.13-.35,.28-.35,.4,0,.12,.14,.28,.36,.41l7.9,4.58c.07,.04,.15,.08,.23,.06,.15,0,.3-.04,.4-.09l1.29-.69c.64-.37,.87-.93,.94-1.34,.14-.73,.71-1.36,1.62-1.78,1.43-.66,3.44-.65,4.88,.02,1.39,.65,2,1.77,1.53,2.85-.2,.47-.6,.88-1.15,1.2-.63,.37-1.43,.59-2.3,.65-1.27,.09-2.21,.3-2.78,.63l-.98,.62Z" style="fill:#267cc0;"/></g></svg>