<?xml version="1.0" encoding="UTF-8"?><svg xmlns="http://www.w3.org/2000/svg" xmlns:xlink="http://www.w3.org/1999/xlink" viewBox="0 0 264.69 264.69"><defs><style>.p{fill:url(#e);}.q{fill:url(#d);}.r{fill:url(#g);}.s{fill:url(#f);}.t{fill:url(#o);}.u{fill:url(#i);}.v{fill:url(#h);}.w{fill:url(#k);}.x{fill:url(#j);}.y{fill:url(#m);}.a`{fill:url(#l);}.aa{fill:url(#n);}</style><linearGradient id="d" x1="78.31" y1="264.69" x2="78.31" y2="159.61" gradientTransform="matrix(1, 0, 0, 1, 0, 0)" gradientUnits="userSpaceOnUse"><stop offset="0" stop-color="#a5e60a"/><stop offset="1" stop-color="#66c800"/></linearGradient><linearGradient id="e" x1="264.69" y1="186.38" x2="159.61" y2="186.38" gradientTransform="matrix(1, 0, 0, 1, 0, 0)" gradientUnits="userSpaceOnUse"><stop offset="0" stop-color="#38c3d2"/><stop offset="1" stop-color="#0095c8"/></linearGradient><linearGradient id="f" x1="105.08" y1="78.31" x2="0" y2="78.31" gradientTransform="matrix(1, 0, 0, 1, 0, 0)" gradientUnits="userSpaceOnUse"><stop offset="0" stop-color="#f30"/><stop offset="1" stop-color="#ff622f"/></linearGradient><linearGradient id="g" x1="186.38" y1="0" x2="186.38" y2="105.07" gradientTransform="matrix(1, 0, 0, 1, 0, 0)" gradientUnits="userSpaceOnUse"><stop offset="0" stop-color="#ff0"/><stop offset="1" stop-color="#ffd800"/></linearGradient><linearGradient id="h" x1="137.87" y1="56.81" x2="137.87" y2="60.45" xlink:href="#g"/><linearGradient id="i" x1="136.34" y1="51.14" x2="136.34" y2="54.47" xlink:href="#g"/><linearGradient id="j" x1="137.9" y1="45.09" x2="137.9" y2="48.61" xlink:href="#g"/><linearGradient id="k" x1="255.7" y1="44.81" x2="255.7" y2="60.27" xlink:href="#g"/><linearGradient id="l" x1="117.04" y1="45.27" x2="117.04" y2="60.73" xlink:href="#g"/><linearGradient id="m" x1="234.9" y1="45.09" x2="234.9" y2="48.74" xlink:href="#g"/><linearGradient id="n" x1="236.42" y1="51.07" x2="236.42" y2="54.4" xlink:href="#g"/><linearGradient id="o" x1="234.86" y1="56.93" x2="234.86" y2="60.45" xlink:href="#g"/></defs><g id="a"/><g id="b"><g id="c"><g><path d="M0,159.61v105.07H156.61v-105.07H0Zm154.61,64.42h-10.88v-23.77h10.88v23.77Zm0-25.77h-12.88v27.77h12.88v5.73h-21.12v-39.23h21.12v5.73Zm-77.23,11.84c-.76,.37-1.29,1.15-1.29,2.05s.53,1.68,1.29,2.05v14.03c-8.43-.52-15.13-7.52-15.13-16.08s6.7-15.56,15.13-16.08v14.03Zm2,4.1c.76-.37,1.29-1.15,1.29-2.05s-.53-1.68-1.29-2.05v-14.03c8.43,.52,15.13,7.52,15.13,16.08s-6.7,15.56-15.13,16.08v-14.03ZM2,200.27H12.96v23.77H2v-23.77Zm0,25.77H14.96v-27.77H2v-5.73H23.19v39.23H2v-5.73Zm0,7.73H25.19v-43.23H2v-28.92H77.38v32.46c-9.53,.52-17.13,8.42-17.13,18.08s7.6,17.56,17.13,18.08v32.46H2v-28.92Zm77.38,28.92v-32.46c9.53-.52,17.13-8.42,17.13-18.08s-7.6-17.56-17.13-18.08v-32.46h75.23v28.92h-23.12v43.23h23.12v28.92H79.38Z" style="fill:url(#d);"/><path d="M159.61,108.07v156.61h105.07V108.07h-105.07Zm103.07,2v75.31h-1.87V111.94h-97.34v73.44h-1.87V110.07h101.07Zm-97.21,108.23h93.34v40.52h-93.34v-40.52Zm93.34-2h-93.34v-28.92h93.34v28.92Zm-93.34-30.92v-28.92h93.34v28.92h-93.34Zm93.34-30.92h-93.34v-40.52h93.34v40.52Zm-97.21,108.23v-75.31h1.87v73.44h97.34v-73.44h1.87v75.31h-101.07Z" style="fill:url(#e);"/><path d="M0,0V156.61H105.08V0H0ZM103.08,2V77.31h-1.87V3.87H3.87V77.31h-1.87V2H103.08ZM51.54,149.17v1.58H16.17v-35.36H88.9v35.36H53.54v-1.58h-2ZM5.87,79.31H14.17v71.44H5.87V79.31ZM53.54,7.44v-1.58h35.37V41.23H16.17V5.87H51.54v1.58h2Zm35.37,105.94H53.54v-34.08h35.37v34.08ZM16.17,79.31H51.54v34.08H16.17v-34.08Zm0-36.08H51.54v34.08H16.17V43.23Zm37.36,34.08V43.23h35.37v34.08H53.54Zm-39.36,0H5.87V5.87H14.17V77.31Zm76.73,2h8.31v71.44h-8.31V79.31Zm0-2V5.87h8.31V77.31h-8.31ZM2,154.61V79.31h1.87v73.44H101.21V79.31h1.87v75.31H2Z" style="fill:url(#f);"/><g><path d="M108.08,0V105.07h156.61V0H108.08Zm77.31,63.32c-5.38-.51-9.6-5.04-9.6-10.55s4.22-10.04,9.6-10.55v21.09Zm2-21.09c5.38,.51,9.6,5.04,9.6,10.55s-4.22,10.04-9.6,10.55v-21.09Zm-24.17,10.55c0,25.02-20.36,45.38-45.38,45.38h-7.76v-32.79h38.65v-.04c6.56-.43,11.76-5.89,11.76-12.55s-5.2-12.12-11.76-12.55v-.04h-38.65V7.39h7.76c25.02,0,45.38,20.36,45.38,45.38Zm-53.14-10.6h31.05c-.31,.2-.63,.39-.92,.62l1.22,1.58c.75-.58,1.57-1.05,2.43-1.41l-.33-.79h2.95v.09c.09-.01,.17,0,.24-.02v21.04c-.07,0-.15,0-.22-.01v.09h-3l.33-.8c-.85-.35-1.65-.81-2.38-1.38l-1.21,1.59c.28,.22,.59,.4,.89,.59h-31.05v-21.19Zm38.65,.04c5.45,.43,9.76,4.99,9.76,10.55s-4.31,10.12-9.76,10.55v-21.11Zm-38.65,57.94h8.09c25.97-.19,47.05-21.37,47.05-47.38S144.14,5.58,118.17,5.4h-8.09V2h75.31V40.23c-6.48,.51-11.6,5.94-11.6,12.55s5.12,12.03,11.6,12.55v37.76H110.07v-2.92Zm77.31,2.92v-37.76c6.48-.51,11.6-5.94,11.6-12.55s-5.12-12.03-11.6-12.55V2h75.31v3.39h-8.09c-25.97,.19-47.05,21.37-47.05,47.38s21.08,47.19,47.05,47.37h8.09v2.93h-75.31Zm75.31-39.71h-31.05c.31-.2,.63-.39,.92-.62l-1.22-1.58c-.75,.58-1.57,1.05-2.43,1.41l.33,.79h-2.95v-.09c-.09,0-.17,0-.24,.01v-21.04c.07,0,.15,0,.22,.01v-.09h3l-.33,.8c.85,.35,1.65,.81,2.38,1.38l1.22-1.59c-.28-.22-.59-.4-.89-.59h31.05v21.19Zm-38.65-.04c-5.45-.43-9.76-4.99-9.76-10.55s4.31-10.13,9.76-10.55v21.11Zm0-23.15v.04c-6.56,.43-11.76,5.89-11.76,12.55s5.2,12.12,11.76,12.55v.04h38.65v32.79h-7.76c-25.02,0-45.38-20.36-45.38-45.38S229.91,7.39,254.93,7.39h7.76V40.17h-38.65Z" style="fill:url(#g);"/><path d="M136.24,57.57c.42,1.03,.98,2,1.66,2.88l1.58-1.22c-.57-.74-1.04-1.56-1.4-2.42l-1.85,.76Z" style="fill:url(#h);"/><path d="M137.3,52.77c0-.46,.03-.92,.09-1.38l-1.98-.26c-.07,.54-.1,1.09-.1,1.63s.04,1.13,.11,1.7l1.98-.26c-.06-.48-.1-.96-.1-1.43Z" style="fill:url(#i);"/><path d="M136.3,47.83l1.84,.79c.35-.82,.8-1.59,1.35-2.3l-1.58-1.22c-.65,.84-1.19,1.76-1.6,2.73Z" style="fill:url(#j);"/><path d="M255.21,55.16c.61,0,1.16-.22,1.61-.57v5.68h2v-15.46h-2v5.68c-.45-.35-1-.57-1.61-.57-1.44,0-2.62,1.18-2.62,2.62s1.18,2.62,2.62,2.62Zm0-3.24c.34,0,.62,.28,.62,.62s-.28,.62-.62,.62-.62-.28-.62-.62,.28-.62,.62-.62Z" style="fill:url(#k);"/><path d="M117.51,49.92c-.59,0-1.12,.2-1.56,.53v-5.17h-2v15.46h2v-6.1c.44,.33,.97,.53,1.56,.53,1.44,0,2.62-1.18,2.62-2.62s-1.18-2.62-2.62-2.62Zm0,3.24c-.34,0-.62-.28-.62-.62s.28-.62,.62-.62,.62,.28,.62,.62-.28,.62-.62,.62Z" style="fill:url(#l);"/><path d="M236.52,47.97c-.42-1.03-.98-2-1.66-2.88l-1.58,1.22c.57,.74,1.04,1.56,1.4,2.42l1.85-.76Z" style="fill:url(#m);"/><path d="M235.47,52.77c0,.46-.03,.92-.09,1.38l1.98,.25c.07-.54,.1-1.09,.1-1.63s-.04-1.13-.11-1.7l-1.98,.26c.06,.48,.1,.96,.1,1.43Z" style="fill:url(#n);"/><path d="M236.46,57.71l-1.84-.79c-.35,.82-.8,1.59-1.35,2.3l1.59,1.22c.65-.84,1.19-1.76,1.6-2.74Z" style="fill:url(#o);"/></g></g></g></g></svg>